<?xml version="1.0" encoding="UTF-8"?>
<svg xmlns="http://www.w3.org/2000/svg" xmlns:xlink="http://www.w3.org/1999/xlink"
     width="1000" height="1000" viewBox="-50 -50 1000 1000" diplayInline="False">
<defs>
</defs>
<circle cx="-3.1519510746002197" cy="-6.084195613861084" r="1" stroke="black" stroke-width="2" fill="none" />
<circle cx="2.532400369644165" cy="-5.946108818054199" r="1" stroke="black" stroke-width="2" fill="none" />
<path d="M-3.6920931339263916,-2.254059314727783 Q0.10271276533603668,-3.2555673122406006,3.8379664421081543,-2.1663358211517334" stroke-width="2" stroke="black" fill="black" fill-opacity="0" />
<circle cx="-2.6853182315826416" cy="89.99965286254883" r="1" stroke="black" stroke-width="2" fill="none" />
<circle cx="2.0515146255493164" cy="90.19198608398438" r="1" stroke="black" stroke-width="2" fill="none" />
<path d="M-4.297970294952393,94.31780242919922 Q0.07051438093185425,96.2280867099762,4.458784580230713,94.34232234954834" stroke-width="2" stroke="black" fill="black" fill-opacity="0" />
<circle cx="-2.4161276817321777" cy="187.34773635864258" r="1" stroke="black" stroke-width="2" fill="none" />
<circle cx="1.637216567993164" cy="187.59057426452637" r="1" stroke="black" stroke-width="2" fill="none" />
<path d="M-4.667929649353027,192.12116622924805 Q0.03770694136619568,196.14823174476624,4.858506679534912,192.16494131088257" stroke-width="2" stroke="black" fill="black" fill-opacity="0" />
<circle cx="-2.2259316444396973" cy="285.2982177734375" r="1" stroke="black" stroke-width="2" fill="none" />
<circle cx="1.251997947692871" cy="285.6041498184204" r="1" stroke="black" stroke-width="2" fill="none" />
<path d="M-4.935451030731201,290.4937210083008 Q-0.00124436616897583,295.4012212753296,5.1666460037231445,290.58253288269043" stroke-width="2" stroke="black" fill="black" fill-opacity="0" />
<circle cx="-2.008927583694458" cy="383.874813079834" r="1" stroke="black" stroke-width="2" fill="none" />
<circle cx="0.7719608545303345" cy="384.24199199676514" r="1" stroke="black" stroke-width="2" fill="none" />
<path d="M-5.028177261352539,389.37989711761475 Q-0.04316350817680359,393.8230128288269,5.310290336608887,389.57848739624023" stroke-width="2" stroke="black" fill="black" fill-opacity="0" />
<circle cx="-2.0353751182556152" cy="480.86846351623535" r="1" stroke="black" stroke-width="2" fill="none" />
<circle cx="0.3729484975337982" cy="481.34138679504395" r="1" stroke="black" stroke-width="2" fill="none" />
<path d="M-5.626323223114014,487.10149574279785 Q-0.12502902746200562,490.8150520324707,5.9904255867004395,487.47923851013184" stroke-width="2" stroke="black" fill="black" fill-opacity="0" />
<circle cx="-2.666720151901245" cy="576.2923202514648" r="1" stroke="black" stroke-width="2" fill="none" />
<circle cx="0.46549227833747864" cy="576.8540344238281" r="1" stroke="black" stroke-width="2" fill="none" />
<path d="M-6.962691307067871,583.2846450805664 Q-0.23846259713172913,584.8107919692993,7.462466716766357,584.0122976303101" stroke-width="2" stroke="black" fill="black" fill-opacity="0" />
<circle cx="-3.434532403945923" cy="672.4878807067871" r="1" stroke="black" stroke-width="2" fill="none" />
<circle cx="0.9073543548583984" cy="673.0853042602539" r="1" stroke="black" stroke-width="2" fill="none" />
<path d="M-8.23239517211914,679.9318141937256 Q-0.3161495625972748,680.2836513519287,8.850879669189453,680.9270000457764" stroke-width="2" stroke="black" fill="black" fill-opacity="0" />
<circle cx="-4.363927841186523" cy="769.0732803344727" r="1" stroke="black" stroke-width="2" fill="none" />
<circle cx="1.6649036407470703" cy="769.6776523590088" r="1" stroke="black" stroke-width="2" fill="none" />
<path d="M-9.63889217376709,776.7964916229248 Q-0.38281503319740295,776.305908203125,10.358243942260742,777.9422073364258" stroke-width="2" stroke="black" fill="black" fill-opacity="0" />
<circle cx="-5.504822731018066" cy="865.6616287231445" r="1" stroke="black" stroke-width="2" fill="none" />
<circle cx="2.784390926361084" cy="866.2711143493652" r="1" stroke="black" stroke-width="2" fill="none" />
<path d="M-11.289507865905762,873.446533203125 Q-0.4529416263103485,872.258768081665,12.140483856201172,874.676290512085" stroke-width="2" stroke="black" fill="black" fill-opacity="0" />
<circle cx="99.81083470582962" cy="-3.4878287315368652" r="1" stroke="black" stroke-width="2" fill="none" />
<circle cx="99.51719319820404" cy="-3.4793639183044434" r="1" stroke="black" stroke-width="2" fill="none" />
<path d="M98.5741673707962,4.7464518547058105 Q100.13935440778732,-0.36664313077926636,101.640176653862,5.1225905418396" stroke-width="2" stroke="black" fill="black" fill-opacity="0" />
<circle cx="97.95656609535217" cy="98.61983907222748" r="1" stroke="black" stroke-width="2" fill="none" />
<circle cx="101.37678909301758" cy="98.67024302482605" r="1" stroke="black" stroke-width="2" fill="none" />
<path d="M98.08515870571136,104.37102937698364 Q100.10691286623478,98.27633678913116,102.18906927108765,104.63470697402954" stroke-width="2" stroke="black" fill="black" fill-opacity="0" />
<circle cx="97.10420966148376" cy="196.1564621925354" r="1" stroke="black" stroke-width="2" fill="none" />
<circle cx="102.16814684867859" cy="196.21606040000916" r="1" stroke="black" stroke-width="2" fill="none" />
<path d="M97.13363742828369,200.10384926199913 Q100.07191528379917,197.11561179161072,103.21134161949158,200.2880289554596" stroke-width="2" stroke="black" fill="black" fill-opacity="0" />
<circle cx="96.65720987319946" cy="291.90200996398926" r="1" stroke="black" stroke-width="2" fill="none" />
<circle cx="102.83345985412598" cy="292.0565414428711" r="1" stroke="black" stroke-width="2" fill="none" />
<path d="M95.62746810913086,296.0555443763733 Q100.08557732403278,296.2712399959564,104.50621175765991,296.06165599823" stroke-width="2" stroke="black" fill="black" fill-opacity="0" />
<circle cx="96.07564759254456" cy="388.21855068206787" r="1" stroke="black" stroke-width="2" fill="none" />
<circle cx="103.37055349349976" cy="388.42109870910645" r="1" stroke="black" stroke-width="2" fill="none" />
<path d="M94.33964824676514,393.1591258049011 Q100.03377504646778,395.29339838027954,105.80991792678833,393.15652561187744" stroke-width="2" stroke="black" fill="black" fill-opacity="0" />
<circle cx="95.39191722869873" cy="482.31958198547363" r="1" stroke="black" stroke-width="2" fill="none" />
<circle cx="103.56235241889954" cy="482.6670169830322" r="1" stroke="black" stroke-width="2" fill="none" />
<path d="M92.56859588623047,488.70076751708984 Q99.91183748841286,490.00373363494873,107.66592407226562,488.82503032684326" stroke-width="2" stroke="black" fill="black" fill-opacity="0" />
<circle cx="94.73087692260742" cy="576.7521057128906" r="1" stroke="black" stroke-width="2" fill="none" />
<circle cx="103.56846904754639" cy="577.2881488800049" r="1" stroke="black" stroke-width="2" fill="none" />
<path d="M90.98662948608398,584.6124258041382 Q99.76059946417809,584.9304914474487,109.38401985168457,585.0119323730469" stroke-width="2" stroke="black" fill="black" fill-opacity="0" />
<circle cx="93.816650390625" cy="671.4805393218994" r="1" stroke="black" stroke-width="2" fill="none" />
<circle cx="104.10757780075073" cy="672.1031150817871" r="1" stroke="black" stroke-width="2" fill="none" />
<path d="M89.29413223266602,680.0025424957275 Q99.64420399069786,679.1158409118652,111.24571228027344,680.7374858856201" stroke-width="2" stroke="black" fill="black" fill-opacity="0" />
<circle cx="92.81771564483643" cy="766.3357086181641" r="1" stroke="black" stroke-width="2" fill="none" />
<circle cx="104.8106336593628" cy="767.0124435424805" r="1" stroke="black" stroke-width="2" fill="none" />
<path d="M87.5542459487915,775.3136348724365 Q99.53887370228767,772.991382598877,113.1546049118042,776.3920631408691" stroke-width="2" stroke="black" fill="black" fill-opacity="0" />
<circle cx="91.90676212310791" cy="861.7601776123047" r="1" stroke="black" stroke-width="2" fill="none" />
<circle cx="105.5822434425354" cy="862.4625968933105" r="1" stroke="black" stroke-width="2" fill="none" />
<path d="M85.86088180541992,870.6234321594238 Q99.44289326667786,867.3993644714355,115.06472682952881,871.886812210083" stroke-width="2" stroke="black" fill="black" fill-opacity="0" />
<circle cx="198.2076714038849" cy="-11.10601806640625" r="1" stroke="black" stroke-width="2" fill="none" />
<circle cx="201.12742233276367" cy="-11.280301094055176" r="1" stroke="black" stroke-width="2" fill="none" />
<path d="M195.26144981384277,-0.04238659143447876 Q200.0940646827221,-0.09025965631008148,204.70704698562622,0.480866014957428" stroke-width="2" stroke="black" fill="black" fill-opacity="0" />
<circle cx="198.88388776779175" cy="92.02279806137085" r="1" stroke="black" stroke-width="2" fill="none" />
<circle cx="200.35886326432228" cy="91.93527889251709" r="1" stroke="black" stroke-width="2" fill="none" />
<path d="M196.681706905365,102.55826330184937 Q200.11614646017551,99.09290611743927,203.3979127407074,103.02624130249023" stroke-width="2" stroke="black" fill="black" fill-opacity="0" />
<circle cx="199.03364062309265" cy="195.98298358917236" r="1" stroke="black" stroke-width="2" fill="none" />
<circle cx="200.37833949923515" cy="196.00116229057312" r="1" stroke="black" stroke-width="2" fill="none" />
<path d="M197.69438862800598,206.4867067337036 Q200.07559341192245,198.5140860080719,202.58498525619507,206.81803464889526" stroke-width="2" stroke="black" fill="black" fill-opacity="0" />
<circle cx="195.49853897094727" cy="298.7281243801117" r="1" stroke="black" stroke-width="2" fill="none" />
<circle cx="203.9610526561737" cy="298.7322517633438" r="1" stroke="black" stroke-width="2" fill="none" />
<path d="M196.1947512626648,306.7799873352051 Q200.02585390210152,296.87994360923767,204.1289620399475,307.07891750335693" stroke-width="2" stroke="black" fill="black" fill-opacity="0" />
<circle cx="192.75661849975586" cy="394.2682628631592" r="1" stroke="black" stroke-width="2" fill="none" />
<circle cx="206.51468753814697" cy="394.2921829223633" r="1" stroke="black" stroke-width="2" fill="none" />
<path d="M193.61602973937988,400.2476596534252 Q199.93010368943214,395.2223448753357,206.84549760818481,400.5181800723076" stroke-width="2" stroke="black" fill="black" fill-opacity="0" />
<circle cx="189.8611135482788" cy="488.078088760376" r="1" stroke="black" stroke-width="2" fill="none" />
<circle cx="209.7801513671875" cy="488.23096561431885" r="1" stroke="black" stroke-width="2" fill="none" />
<path d="M189.66505908966064,494.9107813835144 Q199.92976903915405,490.12438011169434,210.37415218353271,494.87323904037476" stroke-width="2" stroke="black" fill="black" fill-opacity="0" />
<circle cx="188.44658279418945" cy="581.0849990844727" r="1" stroke="black" stroke-width="2" fill="none" />
<circle cx="210.99116802215576" cy="581.4008712768555" r="1" stroke="black" stroke-width="2" fill="none" />
<path d="M187.02496719360352,589.6577711105347 Q199.7979564666748,585.8284969329834,213.0749750137329,589.5984535217285" stroke-width="2" stroke="black" fill="black" fill-opacity="0" />
<circle cx="187.19878005981445" cy="674.1610813140869" r="1" stroke="black" stroke-width="2" fill="none" />
<circle cx="211.81231307983398" cy="674.6677742004395" r="1" stroke="black" stroke-width="2" fill="none" />
<path d="M184.63451099395752,684.4736480712891 Q199.64782586693764,681.4410438537598,215.57069492340088,684.5458679199219" stroke-width="2" stroke="black" fill="black" fill-opacity="0" />
<circle cx="184.74169635772705" cy="769.2169284820557" r="1" stroke="black" stroke-width="2" fill="none" />
<circle cx="214.29813289642334" cy="769.709192276001" r="1" stroke="black" stroke-width="2" fill="none" />
<path d="M181.76917457580566,780.0765533447266 Q199.56389871239662,775.4298763275146,218.52442359924316,780.3579044342041" stroke-width="2" stroke="black" fill="black" fill-opacity="0" />
<circle cx="182.9957103729248" cy="864.2397232055664" r="1" stroke="black" stroke-width="2" fill="none" />
<circle cx="216.06287002563477" cy="864.7003517150879" r="1" stroke="black" stroke-width="2" fill="none" />
<path d="M179.4162654876709,875.2923889160156 Q199.49860882759094,869.4722080230713,220.97684860229492,875.816047668457" stroke-width="2" stroke="black" fill="black" fill-opacity="0" />
<circle cx="295.26650047302246" cy="-17.708513259887695" r="1" stroke="black" stroke-width="2" fill="none" />
<circle cx="304.22792196273804" cy="-17.891864776611328" r="1" stroke="black" stroke-width="2" fill="none" />
<path d="M291.36353397369385,-1.997540831565857 Q300.0152237713337,-2.9061193466186523,308.71511363983154,-1.595207929611206" stroke-width="2" stroke="black" fill="black" fill-opacity="0" />
<circle cx="296.264173746109" cy="85.76041316986084" r="1" stroke="black" stroke-width="2" fill="none" />
<circle cx="303.08330273628235" cy="85.74433994293213" r="1" stroke="black" stroke-width="2" fill="none" />
<path d="M293.08174419403076,102.32694339752197 Q300.0226330459118,96.29651618003845,307.16623878479004,102.70746207237244" stroke-width="2" stroke="black" fill="black" fill-opacity="0" />
<circle cx="296.9370722770691" cy="190.1037244796753" r="1" stroke="black" stroke-width="2" fill="none" />
<circle cx="302.4126408100128" cy="190.22124481201172" r="1" stroke="black" stroke-width="2" fill="none" />
<path d="M294.5693197250366,207.6233353614807 Q299.98501881957054,198.32541477680206,305.83207988739014,207.96338176727295" stroke-width="2" stroke="black" fill="black" fill-opacity="0" />
<circle cx="296.43316769599915" cy="295.1438331604004" r="1" stroke="black" stroke-width="2" fill="none" />
<circle cx="303.1367907524109" cy="295.1535701751709" r="1" stroke="black" stroke-width="2" fill="none" />
<path d="M294.99358558654785,312.7088556289673 Q299.9452575445175,299.6942763328552,305.2503538131714,313.0249300003052" stroke-width="2" stroke="black" fill="black" fill-opacity="0" />
<circle cx="289.5038528442383" cy="397.64394664764404" r="1" stroke="black" stroke-width="2" fill="none" />
<circle cx="309.9646053314209" cy="397.6071608066559" r="1" stroke="black" stroke-width="2" fill="none" />
<path d="M291.6393098831177,409.9110641479492 Q299.8926830589771,398.27600741386414,308.71533966064453,410.31888580322266" stroke-width="2" stroke="black" fill="black" fill-opacity="0" />
<circle cx="285.3014621734619" cy="492.36076974868774" r="1" stroke="black" stroke-width="2" fill="none" />
<circle cx="314.0211067199707" cy="492.2843008041382" r="1" stroke="black" stroke-width="2" fill="none" />
<path d="M287.9015140533447,502.22249245643616 Q299.7464087307453,495.0243420600891,312.69251918792725,502.52558851242065" stroke-width="2" stroke="black" fill="black" fill-opacity="0" />
<circle cx="280.81163787841797" cy="586.8219327926636" r="1" stroke="black" stroke-width="2" fill="none" />
<circle cx="318.60701179504395" cy="586.9495534896851" r="1" stroke="black" stroke-width="2" fill="none" />
<path d="M283.14350509643555,597.1378803253174 Q299.74144396185875,588.9515886306763,316.94399070739746,597.2523832321167" stroke-width="2" stroke="black" fill="black" fill-opacity="0" />
<circle cx="277.5701332092285" cy="680.3872966766357" r="1" stroke="black" stroke-width="2" fill="none" />
<circle cx="322.2349510192871" cy="680.6163902282715" r="1" stroke="black" stroke-width="2" fill="none" />
<path d="M279.0206985473633,692.2632236480713 Q299.6818663775921,685.7478914260864,320.84785652160645,692.0497694015503" stroke-width="2" stroke="black" fill="black" fill-opacity="0" />
<circle cx="274.4375629425049" cy="774.4826927185059" r="1" stroke="black" stroke-width="2" fill="none" />
<circle cx="325.9352912902832" cy="774.7006225585938" r="1" stroke="black" stroke-width="2" fill="none" />
<path d="M275.1026439666748,787.6974220275879 Q299.6189843118191,782.1204032897949,324.6773338317871,787.165168762207" stroke-width="2" stroke="black" fill="black" fill-opacity="0" />
<circle cx="271.8975582122803" cy="869.390079498291" r="1" stroke="black" stroke-width="2" fill="none" />
<circle cx="328.8946018218994" cy="869.5245723724365" r="1" stroke="black" stroke-width="2" fill="none" />
<path d="M271.98476219177246,882.900899887085 Q299.57965913414955,876.8034591674805,327.8111114501953,882.354814529419" stroke-width="2" stroke="black" fill="black" fill-opacity="0" />
<circle cx="391.54449558258057" cy="-21.66752815246582" r="1" stroke="black" stroke-width="2" fill="none" />
<circle cx="407.8729872703552" cy="-21.70108413696289" r="1" stroke="black" stroke-width="2" fill="none" />
<path d="M387.77047634124756,-0.16605612635612488 Q399.9738101065159,-8.984850883483887,412.6056251525879,0.10609984397888184" stroke-width="2" stroke="black" fill="black" fill-opacity="0" />
<circle cx="392.726523399353" cy="81.74232292175293" r="1" stroke="black" stroke-width="2" fill="none" />
<circle cx="406.6494097709656" cy="81.858154296875" r="1" stroke="black" stroke-width="2" fill="none" />
<path d="M389.4147720336914,104.95938301086426 Q399.98045271635056,93.7797384262085,411.04202938079834,105.15629291534424" stroke-width="2" stroke="black" fill="black" fill-opacity="0" />
<circle cx="393.57454013824463" cy="185.75984859466553" r="1" stroke="black" stroke-width="2" fill="none" />
<circle cx="405.81855392456055" cy="185.90547847747803" r="1" stroke="black" stroke-width="2" fill="none" />
<path d="M390.7183599472046,210.56682014465332 Q399.9279066622257,197.78887677192688,409.66170024871826,210.8312282562256" stroke-width="2" stroke="black" fill="black" fill-opacity="0" />
<circle cx="394.0397424697876" cy="291.44148349761963" r="1" stroke="black" stroke-width="2" fill="none" />
<circle cx="405.557324886322" cy="291.47699451446533" r="1" stroke="black" stroke-width="2" fill="none" />
<path d="M391.84540271759033,317.3148555755615 Q399.86678236722946,302.91976594924927,408.35529804229736,317.5729503631592" stroke-width="2" stroke="black" fill="black" fill-opacity="0" />
<circle cx="385.3522481918335" cy="398.37612521648407" r="1" stroke="black" stroke-width="2" fill="none" />
<circle cx="414.3043203353882" cy="398.29334235191345" r="1" stroke="black" stroke-width="2" fill="none" />
<path d="M388.26065254211426,418.5865669250488 Q399.86518931388855,402.84683632850647,411.86820125579834,419.05930519104004" stroke-width="2" stroke="black" fill="black" fill-opacity="0" />
<circle cx="380.1993160247803" cy="493.76862049102783" r="1" stroke="black" stroke-width="2" fill="none" />
<circle cx="419.1964340209961" cy="493.66688537597656" r="1" stroke="black" stroke-width="2" fill="none" />
<path d="M384.3240156173706,510.24671173095703 Q399.72860112786293,501.97094452381134,416.0376262664795,510.71832275390625" stroke-width="2" stroke="black" fill="black" fill-opacity="0" />
<circle cx="375.96396827697754" cy="589.6365842819214" r="1" stroke="black" stroke-width="2" fill="none" />
<circle cx="423.54310417175293" cy="589.4486713409424" r="1" stroke="black" stroke-width="2" fill="none" />
<path d="M380.4825382232666,604.6278109550476 Q399.59985587000847,595.3956789970398,420.02507972717285,604.8626203536987" stroke-width="2" stroke="black" fill="black" fill-opacity="0" />
<circle cx="371.996732711792" cy="684.4615821838379" r="1" stroke="black" stroke-width="2" fill="none" />
<circle cx="427.51440620422363" cy="684.4048547744751" r="1" stroke="black" stroke-width="2" fill="none" />
<path d="M376.43114280700684,698.7698285579681 Q399.54985025525093,689.8101816177368,423.82729148864746,698.8350706100464" stroke-width="2" stroke="black" fill="black" fill-opacity="0" />
<circle cx="368.46623611450195" cy="778.4799861907959" r="1" stroke="black" stroke-width="2" fill="none" />
<circle cx="431.14684677124023" cy="778.6673030853271" r="1" stroke="black" stroke-width="2" fill="none" />
<path d="M372.2583694458008,793.5273871421814 Q399.5619039237499,786.1085681915283,427.47325325012207,793.4151697158813" stroke-width="2" stroke="black" fill="black" fill-opacity="0" />
<circle cx="365.47865295410156" cy="872.670244216919" r="1" stroke="black" stroke-width="2" fill="none" />
<circle cx="434.78981018066406" cy="872.8172378540039" r="1" stroke="black" stroke-width="2" fill="none" />
<path d="M368.4525680541992,888.711103439331 Q399.5094759762287,881.5368003845215,431.2072353363037,888.2944288253784" stroke-width="2" stroke="black" fill="black" fill-opacity="0" />
<circle cx="488.10007762908936" cy="-24.682790756225586" r="1" stroke="black" stroke-width="2" fill="none" />
<circle cx="511.25928497314453" cy="-24.474409103393555" r="1" stroke="black" stroke-width="2" fill="none" />
<path d="M484.52795600891113,3.766101360321045 Q499.9164610505104,-12.423728942871094,516.1972274780273,3.909813642501831" stroke-width="2" stroke="black" fill="black" fill-opacity="0" />
<circle cx="488.9787826538086" cy="78.59831237792969" r="1" stroke="black" stroke-width="2" fill="none" />
<circle cx="510.44762420654297" cy="78.78327941894531" r="1" stroke="black" stroke-width="2" fill="none" />
<path d="M485.5548839569092,109.37716674804688 Q499.9075556397438,92.6123480796814,514.9436349868774,109.49056243896484" stroke-width="2" stroke="black" fill="black" fill-opacity="0" />
<circle cx="489.6885395050049" cy="182.23535919189453" r="1" stroke="black" stroke-width="2" fill="none" />
<circle cx="509.8464469909668" cy="182.3706283569336" r="1" stroke="black" stroke-width="2" fill="none" />
<path d="M486.4612855911255,215.67466735839844 Q499.8528809249401,198.78700375556946,513.8455152511597,215.81369495391846" stroke-width="2" stroke="black" fill="black" fill-opacity="0" />
<circle cx="490.94712924957275" cy="288.0508041381836" r="1" stroke="black" stroke-width="2" fill="none" />
<circle cx="508.75939750671387" cy="288.0758571624756" r="1" stroke="black" stroke-width="2" fill="none" />
<path d="M488.1525573730469,323.1715488433838 Q499.78817388415337,306.79838943481445,511.965124130249,323.33745765686035" stroke-width="2" stroke="black" fill="black" fill-opacity="0" />
<circle cx="484.0766201019287" cy="395.0863652229309" r="1" stroke="black" stroke-width="2" fill="none" />
<circle cx="515.729884147644" cy="394.96392250061035" r="1" stroke="black" stroke-width="2" fill="none" />
<path d="M485.7123441696167,424.41161155700684 Q499.8137190043926,407.0957908630371,514.2913970947266,424.7955093383789" stroke-width="2" stroke="black" fill="black" fill-opacity="0" />
<circle cx="476.88147735595703" cy="496.78383588790894" r="1" stroke="black" stroke-width="2" fill="none" />
<circle cx="522.7753047943115" cy="496.62609481811523" r="1" stroke="black" stroke-width="2" fill="none" />
<path d="M482.0494956970215,520.5005073547363 Q499.74730041623116,505.9526104927063,518.05859375,521.0094699859619" stroke-width="2" stroke="black" fill="black" fill-opacity="0" />
<circle cx="472.465051651001" cy="591.6202745437622" r="1" stroke="black" stroke-width="2" fill="none" />
<circle cx="527.0766487121582" cy="591.42116355896" r="1" stroke="black" stroke-width="2" fill="none" />
<path d="M478.16871070861816,612.7451057434082 Q499.5975323021412,601.8874770402908,522.1487045288086,613.161187171936" stroke-width="2" stroke="black" fill="black" fill-opacity="0" />
<circle cx="468.23291778564453" cy="687.714991569519" r="1" stroke="black" stroke-width="2" fill="none" />
<circle cx="531.4403095245361" cy="687.4280652999878" r="1" stroke="black" stroke-width="2" fill="none" />
<path d="M474.34802627563477,707.4017934799194 Q499.46754789352417,694.698992729187,526.1043376922607,707.587664604187" stroke-width="2" stroke="black" fill="black" fill-opacity="0" />
<circle cx="464.1673240661621" cy="782.8263263702393" r="1" stroke="black" stroke-width="2" fill="none" />
<circle cx="535.3439102172852" cy="782.5964183807373" r="1" stroke="black" stroke-width="2" fill="none" />
<path d="M470.63360595703125,801.0413595438004 Q499.33349347114563,789.6154880523682,529.9255599975586,801.1058497428894" stroke-width="2" stroke="black" fill="black" fill-opacity="0" />
<circle cx="460.4784812927246" cy="877.1643199920654" r="1" stroke="black" stroke-width="2" fill="none" />
<circle cx="539.012264251709" cy="877.2291469573975" r="1" stroke="black" stroke-width="2" fill="none" />
<path d="M466.45301818847656,895.7855658531189 Q499.37642872333527,885.9321117401123,533.4576568603516,895.7423295974731" stroke-width="2" stroke="black" fill="black" fill-opacity="0" />
<circle cx="584.2171649932861" cy="-27.209352493286133" r="1" stroke="black" stroke-width="2" fill="none" />
<circle cx="615.2130527496338" cy="-26.95786476135254" r="1" stroke="black" stroke-width="2" fill="none" />
<path d="M580.5964488983154,9.152214050292969 Q599.8385225832462,-13.743589401245117,620.0594158172607,9.226527214050293" stroke-width="2" stroke="black" fill="black" fill-opacity="0" />
<circle cx="584.8765859603882" cy="76.21780204772949" r="1" stroke="black" stroke-width="2" fill="none" />
<circle cx="614.6472826004028" cy="76.40287208557129" r="1" stroke="black" stroke-width="2" fill="none" />
<path d="M581.4523410797119,114.50804042816162 Q599.8105486929417,90.87839889526367,618.9450378417969,114.59695816040039" stroke-width="2" stroke="black" fill="black" fill-opacity="0" />
<circle cx="586.4606142044067" cy="179.18058013916016" r="1" stroke="black" stroke-width="2" fill="none" />
<circle cx="613.2044324874878" cy="179.29726028442383" r="1" stroke="black" stroke-width="2" fill="none" />
<path d="M582.8546485900879,220.1204376220703 Q599.7907841801643,200.4145542383194,617.3860721588135,220.1464786529541" stroke-width="2" stroke="black" fill="black" fill-opacity="0" />
<circle cx="588.2197513580322" cy="284.1578130722046" r="1" stroke="black" stroke-width="2" fill="none" />
<circle cx="611.5499830245972" cy="284.18824100494385" r="1" stroke="black" stroke-width="2" fill="none" />
<path d="M584.7443561553955,327.51378631591797 Q599.7269568741322,309.9866428375244,615.3184986114502,327.60207176208496" stroke-width="2" stroke="black" fill="black" fill-opacity="0" />
<circle cx="582.7350463867188" cy="391.7595548629761" r="1" stroke="black" stroke-width="2" fill="none" />
<circle cx="617.2209987640381" cy="391.5951976776123" r="1" stroke="black" stroke-width="2" fill="none" />
<path d="M583.101001739502,430.3060665130615 Q599.7627972662449,411.5095329284668,616.7704467773438,430.6020851135254" stroke-width="2" stroke="black" fill="black" fill-opacity="0" />
<circle cx="574.0812187194824" cy="497.96641969680786" r="1" stroke="black" stroke-width="2" fill="none" />
<circle cx="625.8188056945801" cy="497.7513175010681" r="1" stroke="black" stroke-width="2" fill="none" />
<path d="M579.616340637207,529.7023849487305 Q599.7501352727413,510.32842445373535,620.2651023864746,530.1950664520264" stroke-width="2" stroke="black" fill="black" fill-opacity="0" />
<circle cx="568.9006423950195" cy="593.4648847579956" r="1" stroke="black" stroke-width="2" fill="none" />
<circle cx="630.72141456604" cy="593.2360153198242" r="1" stroke="black" stroke-width="2" fill="none" />
<path d="M575.7144546508789,621.2437019348145 Q599.6097465455532,609.2239723205566,624.4014015197754,621.7626972198486" stroke-width="2" stroke="black" fill="black" fill-opacity="0" />
<circle cx="564.7088890075684" cy="689.6019706726074" r="1" stroke="black" stroke-width="2" fill="none" />
<circle cx="635.0228576660156" cy="689.293758392334" r="1" stroke="black" stroke-width="2" fill="none" />
<path d="M571.9628677368164,715.690242767334 Q599.4731875658035,701.6734067201614,628.294750213623,716.0131225585938" stroke-width="2" stroke="black" fill="black" fill-opacity="0" />
<circle cx="560.5344581604004" cy="785.589693069458" r="1" stroke="black" stroke-width="2" fill="none" />
<circle cx="639.2327346801758" cy="785.2279062271118" r="1" stroke="black" stroke-width="2" fill="none" />
<path d="M568.2570400238037,809.9402303695679 Q599.3290292024612,794.5448660850525,632.1611976623535,810.0969610214233" stroke-width="2" stroke="black" fill="black" fill-opacity="0" />
<circle cx="556.5395698547363" cy="880.9437446594238" r="1" stroke="black" stroke-width="2" fill="none" />
<circle cx="642.9957237243652" cy="880.6172008514404" r="1" stroke="black" stroke-width="2" fill="none" />
<path d="M564.7671356201172,903.5412304401398 Q599.1634422540665,889.3426246643066,635.8910865783691,903.6134097576141" stroke-width="2" stroke="black" fill="black" fill-opacity="0" />
<circle cx="680.2675685882568" cy="-29.827722549438477" r="1" stroke="black" stroke-width="2" fill="none" />
<circle cx="719.220588684082" cy="-29.603872299194336" r="1" stroke="black" stroke-width="2" fill="none" />
<path d="M676.5843334197998,13.437252044677734 Q699.764337271452,-16.28105926513672,723.9262619018555,13.500358581542969" stroke-width="2" stroke="black" fill="black" fill-opacity="0" />
<circle cx="681.0462379455566" cy="73.65348243713379" r="1" stroke="black" stroke-width="2" fill="none" />
<circle cx="718.5654697418213" cy="73.83795928955078" r="1" stroke="black" stroke-width="2" fill="none" />
<path d="M677.5648250579834,118.88178253173828 Q699.7266046106815,89.29297351837158,722.7505187988281,118.93704223632812" stroke-width="2" stroke="black" fill="black" fill-opacity="0" />
<circle cx="683.1450500488281" cy="176.38266372680664" r="1" stroke="black" stroke-width="2" fill="none" />
<circle cx="716.6382961273193" cy="176.48032760620117" r="1" stroke="black" stroke-width="2" fill="none" />
<path d="M679.2345542907715,224.8122844696045 Q699.7202053368092,201.67694747447968,720.9300327301025,224.75398635864258" stroke-width="2" stroke="black" fill="black" fill-opacity="0" />
<circle cx="685.1786251068115" cy="280.6901321411133" r="1" stroke="black" stroke-width="2" fill="none" />
<circle cx="714.6850528717041" cy="280.71129608154297" r="1" stroke="black" stroke-width="2" fill="none" />
<path d="M681.1953144073486,331.9913692474365 Q699.6665032804012,312.4953908920288,718.7948818206787,331.9904899597168" stroke-width="2" stroke="black" fill="black" fill-opacity="0" />
<circle cx="681.3805961608887" cy="388.42771339416504" r="1" stroke="black" stroke-width="2" fill="none" />
<circle cx="718.7239856719971" cy="388.2199811935425" r="1" stroke="black" stroke-width="2" fill="none" />
<path d="M680.4787158966064,436.2085380554199 Q699.7118461430073,415.95381355285645,719.2599411010742,436.41923904418945" stroke-width="2" stroke="black" fill="black" fill-opacity="0" />
<circle cx="672.7733287811279" cy="494.62321043014526" r="1" stroke="black" stroke-width="2" fill="none" />
<circle cx="727.2775821685791" cy="494.365761756897" r="1" stroke="black" stroke-width="2" fill="none" />
<path d="M677.020206451416,535.5962715148926 Q699.6986854374409,514.7147274017334,722.7303352355957,536.0027770996094" stroke-width="2" stroke="black" fill="black" fill-opacity="0" />
<circle cx="665.4762077331543" cy="596.4709296226501" r="1" stroke="black" stroke-width="2" fill="none" />
<circle cx="734.4249114990234" cy="596.1775448322296" r="1" stroke="black" stroke-width="2" fill="none" />
<path d="M673.3318843841553,631.7843494415283 Q699.6346019208431,613.6320056915283,726.51784324646,632.3167915344238" stroke-width="2" stroke="black" fill="black" fill-opacity="0" />
<circle cx="661.105583190918" cy="691.384388923645" r="1" stroke="black" stroke-width="2" fill="none" />
<circle cx="738.6949119567871" cy="691.0480451583862" r="1" stroke="black" stroke-width="2" fill="none" />
<path d="M669.4822006225586,724.1198120117188 Q699.4851896762848,709.2641201019287,730.5750637054443,724.5514907836914" stroke-width="2" stroke="black" fill="black" fill-opacity="0" />
<circle cx="656.9868392944336" cy="787.6389322280884" r="1" stroke="black" stroke-width="2" fill="none" />
<circle cx="742.9257164001465" cy="787.224310874939" r="1" stroke="black" stroke-width="2" fill="none" />
<path d="M665.7944183349609,818.7355709075928 Q699.3486822843552,801.453531742096,734.4062805175781,818.9754238128662" stroke-width="2" stroke="black" fill="black" fill-opacity="0" />
<circle cx="653.0114288330078" cy="883.5549430847168" r="1" stroke="black" stroke-width="2" fill="none" />
<circle cx="746.8213653564453" cy="883.1272926330566" r="1" stroke="black" stroke-width="2" fill="none" />
<path d="M662.3043251037598,912.8247003555298 Q699.192699432373,894.5552139282227,738.0953979492188,912.9572525024414" stroke-width="2" stroke="black" fill="black" fill-opacity="0" />
<circle cx="776.4821338653564" cy="-32.363624572753906" r="1" stroke="black" stroke-width="2" fill="none" />
<circle cx="823.0800647735596" cy="-32.13264465332031" r="1" stroke="black" stroke-width="2" fill="none" />
<path d="M772.7637214660645,17.598581314086914 Q799.6795183718204,-18.39571189880371,827.6700859069824,17.637407302856445" stroke-width="2" stroke="black" fill="black" fill-opacity="0" />
<circle cx="777.7022705078125" cy="70.80632400512695" r="1" stroke="black" stroke-width="2" fill="none" />
<circle cx="822.0240077972412" cy="70.97347640991211" r="1" stroke="black" stroke-width="2" fill="none" />
<path d="M773.9202404022217,123.48880767822266 Q799.6558447182178,90.37032413482666,826.3221950531006,123.46197700500488" stroke-width="2" stroke="black" fill="black" fill-opacity="0" />
<circle cx="779.8294906616211" cy="173.58475303649902" r="1" stroke="black" stroke-width="2" fill="none" />
<circle cx="820.0721588134766" cy="173.6634006500244" r="1" stroke="black" stroke-width="2" fill="none" />
<path d="M775.6144618988037,229.5041332244873 Q799.6496252715588,202.93933248519897,824.4739933013916,229.36148834228516" stroke-width="2" stroke="black" fill="black" fill-opacity="0" />
<circle cx="781.9367008209229" cy="277.5923671722412" r="1" stroke="black" stroke-width="2" fill="none" />
<circle cx="818.0593242645264" cy="277.59173583984375" r="1" stroke="black" stroke-width="2" fill="none" />
<path d="M777.5624904632568,336.5354194641113 Q799.6073123514652,314.5189542770386,822.3506813049316,336.4181365966797" stroke-width="2" stroke="black" fill="black" fill-opacity="0" />
<circle cx="780.0261459350586" cy="385.09588623046875" r="1" stroke="black" stroke-width="2" fill="none" />
<circle cx="820.226972579956" cy="384.8447790145874" r="1" stroke="black" stroke-width="2" fill="none" />
<path d="M777.8564319610596,442.1110038757324 Q799.6608944833279,420.39808464050293,821.7494354248047,442.236385345459" stroke-width="2" stroke="black" fill="black" fill-opacity="0" />
<circle cx="771.4188747406006" cy="491.29137897491455" r="1" stroke="black" stroke-width="2" fill="none" />
<circle cx="828.780574798584" cy="490.99055671691895" r="1" stroke="black" stroke-width="2" fill="none" />
<path d="M774.3979187011719,541.4987373352051 Q799.6477345526218,519.1589965820312,825.2198295593262,541.8199234008789" stroke-width="2" stroke="black" fill="black" fill-opacity="0" />
<circle cx="762.7052917480469" cy="597.5198512077332" r="1" stroke="black" stroke-width="2" fill="none" />
<circle cx="837.4354248046875" cy="597.1679673194885" r="1" stroke="black" stroke-width="2" fill="none" />
<path d="M770.8828773498535,640.9012489318848 Q799.6358567774296,618.039852142334,828.7424182891846,641.4181976318359" stroke-width="2" stroke="black" fill="black" fill-opacity="0" />
<circle cx="757.5163764953613" cy="693.1981077194214" r="1" stroke="black" stroke-width="2" fill="none" />
<circle cx="842.3497047424316" cy="692.8331995010376" r="1" stroke="black" stroke-width="2" fill="none" />
<path d="M767.016716003418,732.600471496582 Q799.4970465898514,716.8232440948486,832.8413314819336,733.1468696594238" stroke-width="2" stroke="black" fill="black" fill-opacity="0" />
<circle cx="753.4865684509277" cy="789.5432090759277" r="1" stroke="black" stroke-width="2" fill="none" />
<circle cx="846.4853553771973" cy="789.1036310195923" r="1" stroke="black" stroke-width="2" fill="none" />
<path d="M763.4084625244141,827.3259468078613 Q799.3600069284439,808.820517539978,836.5983505249023,827.6890621185303" stroke-width="2" stroke="black" fill="black" fill-opacity="0" />
<circle cx="749.4567680358887" cy="885.888334274292" r="1" stroke="black" stroke-width="2" fill="none" />
<circle cx="850.6210021972656" cy="885.3740863800049" r="1" stroke="black" stroke-width="2" fill="none" />
<path d="M759.8002166748047,922.0514488220215 Q799.2229663133621,900.8177769780159,840.3553733825684,922.2312812805176" stroke-width="2" stroke="black" fill="black" fill-opacity="0" />
<circle cx="873.2590084075928" cy="-34.57918167114258" r="1" stroke="black" stroke-width="2" fill="none" />
<circle cx="926.406177520752" cy="-34.350914001464844" r="1" stroke="black" stroke-width="2" fill="none" />
<path d="M869.3944129943848,22.11762237548828 Q899.6061219274998,-18.335081100463867,930.950517654419,22.09899139404297" stroke-width="2" stroke="black" fill="black" fill-opacity="0" />
<circle cx="874.8653526306152" cy="68.2021598815918" r="1" stroke="black" stroke-width="2" fill="none" />
<circle cx="924.9751987457275" cy="68.34807395935059" r="1" stroke="black" stroke-width="2" fill="none" />
<path d="M870.7074222564697,128.1318244934082 Q899.5927785336971,92.67523002624512,929.4639091491699,128.0139102935791" stroke-width="2" stroke="black" fill="black" fill-opacity="0" />
<circle cx="876.8001747131348" cy="170.90271759033203" r="1" stroke="black" stroke-width="2" fill="none" />
<circle cx="923.2173652648926" cy="170.9610195159912" r="1" stroke="black" stroke-width="2" fill="none" />
<path d="M872.2379341125488,234.1667823791504 Q899.5835395753384,204.82518482208252,927.7773933410645,233.93576049804688" stroke-width="2" stroke="black" fill="black" fill-opacity="0" />
<circle cx="878.7542610168457" cy="274.57379722595215" r="1" stroke="black" stroke-width="2" fill="none" />
<circle cx="921.3799209594727" cy="274.5500011444092" r="1" stroke="black" stroke-width="2" fill="none" />
<path d="M873.9830894470215,341.08777236938477 Q899.548387914896,316.6545944213867,925.8574237823486,340.8471145629883" stroke-width="2" stroke="black" fill="black" fill-opacity="0" />
<circle cx="878.6551780700684" cy="381.78892517089844" r="1" stroke="black" stroke-width="2" fill="none" />
<circle cx="921.755334854126" cy="381.49511528015137" r="1" stroke="black" stroke-width="2" fill="none" />
<path d="M875.2229900360107,447.95873641967773 Q899.6090833246708,424.849889755249,924.2601013183594,447.9823532104492" stroke-width="2" stroke="black" fill="black" fill-opacity="0" />
<circle cx="870.0644283294678" cy="487.9595432281494" r="1" stroke="black" stroke-width="2" fill="none" />
<circle cx="930.283561706543" cy="487.6153440475464" r="1" stroke="black" stroke-width="2" fill="none" />
<path d="M871.7756328582764,547.4012145996094 Q899.5967827737331,523.6032733917236,927.7093257904053,547.6370811462402" stroke-width="2" stroke="black" fill="black" fill-opacity="0" />
<circle cx="861.4312057495117" cy="594.1630935668945" r="1" stroke="black" stroke-width="2" fill="none" />
<circle cx="938.8618812561035" cy="593.7688503265381" r="1" stroke="black" stroke-width="2" fill="none" />
<path d="M868.3033237457275,646.7925491333008 Q899.583935469389,622.3934535980225,931.192461013794,647.2242088317871" stroke-width="2" stroke="black" fill="black" fill-opacity="0" />
<circle cx="854.189151763916" cy="696.3111610412598" r="1" stroke="black" stroke-width="2" fill="none" />
<circle cx="945.9438285827637" cy="695.8849897384644" r="1" stroke="black" stroke-width="2" fill="none" />
<path d="M864.7249755859375,743.2791976928711 Q899.5210739076138,721.0538120269775,934.8740692138672,743.8553237915039" stroke-width="2" stroke="black" fill="black" fill-opacity="0" />
<circle cx="849.9780387878418" cy="791.4475412368774" r="1" stroke="black" stroke-width="2" fill="none" />
<circle cx="950.0527420043945" cy="790.9821710586548" r="1" stroke="black" stroke-width="2" fill="none" />
<path d="M861.0164108276367,835.9229507446289 Q899.3713492155075,816.2047576904297,938.7961807250977,836.4108238220215" stroke-width="2" stroke="black" fill="black" fill-opacity="0" />
<circle cx="845.9482269287109" cy="887.7926645278931" r="1" stroke="black" stroke-width="2" fill="none" />
<circle cx="954.1883888244629" cy="887.2526178359985" r="1" stroke="black" stroke-width="2" fill="none" />
<path d="M857.4081649780273,930.6484565734863 Q899.234308719635,908.2020568847656,942.5531997680664,930.9530410766602" stroke-width="2" stroke="black" fill="black" fill-opacity="0" />
<path d="M-50,50 L950,50" stroke="black" />
<path d="M50,-50 L50,950" stroke="black" />
<path d="M-50,150 L950,150" stroke="black" />
<path d="M150,-50 L150,950" stroke="black" />
<path d="M-50,250 L950,250" stroke="black" />
<path d="M250,-50 L250,950" stroke="black" />
<path d="M-50,350 L950,350" stroke="black" />
<path d="M350,-50 L350,950" stroke="black" />
<path d="M-50,450 L950,450" stroke="black" />
<path d="M450,-50 L450,950" stroke="black" />
<path d="M-50,550 L950,550" stroke="black" />
<path d="M550,-50 L550,950" stroke="black" />
<path d="M-50,650 L950,650" stroke="black" />
<path d="M650,-50 L650,950" stroke="black" />
<path d="M-50,750 L950,750" stroke="black" />
<path d="M750,-50 L750,950" stroke="black" />
<path d="M-50,850 L950,850" stroke="black" />
<path d="M850,-50 L850,950" stroke="black" />
</svg>