<?xml version="1.0" encoding="UTF-8"?>
<svg xmlns="http://www.w3.org/2000/svg" xmlns:xlink="http://www.w3.org/1999/xlink"
     width="1000" height="1000" viewBox="-50 -50 1000 1000" diplayInline="False">
<defs>
</defs>
<circle cx="-1.2900588512420654" cy="-7.768615245819092" r="1" stroke="black" stroke-width="2" fill="none" />
<circle cx="0.6040101051330566" cy="-7.927613258361816" r="1" stroke="black" stroke-width="2" fill="none" />
<path d="M-3.5682568550109863,2.3888449668884277 Q0.1206856518983841,3.826444149017334,3.577972412109375,2.9007749557495117" stroke-width="2" stroke="black" fill="black" fill-opacity="0" />
<circle cx="-2.739239454269409" cy="97.84299731254578" r="1" stroke="black" stroke-width="2" fill="none" />
<circle cx="1.6318950653076172" cy="97.99307012557983" r="1" stroke="black" stroke-width="2" fill="none" />
<path d="M-2.4071857929229736,104.8025074005127 Q0.07727420330047607,104.69281387329102,2.7404205799102783,105.28262567520142" stroke-width="2" stroke="black" fill="black" fill-opacity="0" />
<circle cx="-4.738080024719238" cy="191.11596298217773" r="1" stroke="black" stroke-width="2" fill="none" />
<circle cx="3.651715040206909" cy="191.3175506591797" r="1" stroke="black" stroke-width="2" fill="none" />
<path d="M-5.146738529205322,196.10324335098267 Q0.029153108596801758,203.40560245513916,5.3863911628723145,196.42027878761292" stroke-width="2" stroke="black" fill="black" fill-opacity="0" />
<circle cx="-5.005148887634277" cy="281.0952835083008" r="1" stroke="black" stroke-width="2" fill="none" />
<circle cx="4.499978542327881" cy="281.37147331237793" r="1" stroke="black" stroke-width="2" fill="none" />
<path d="M-8.03469181060791,287.6221523284912 Q-0.03601422905921936,302.7813808917999,8.180054664611816,287.5151596069336" stroke-width="2" stroke="black" fill="black" fill-opacity="0" />
<circle cx="-4.177925109863281" cy="374.2128372192383" r="1" stroke="black" stroke-width="2" fill="none" />
<circle cx="2.918767213821411" cy="374.6240978240967" r="1" stroke="black" stroke-width="2" fill="none" />
<path d="M-8.780473709106445,381.6712646484375 Q-0.15119314193725586,401.2072774171829,9.085756301879883,381.97289848327637" stroke-width="2" stroke="black" fill="black" fill-opacity="0" />
<circle cx="-3.982844591140747" cy="470.63496589660645" r="1" stroke="black" stroke-width="2" fill="none" />
<circle cx="2.0133557319641113" cy="471.16124534606934" r="1" stroke="black" stroke-width="2" fill="none" />
<path d="M-9.199653625488281,478.57702827453613 Q-0.2513885796070099,494.990629196167,9.700984001159668,479.278018951416" stroke-width="2" stroke="black" fill="black" fill-opacity="0" />
<circle cx="-4.210696220397949" cy="568.4929046630859" r="1" stroke="black" stroke-width="2" fill="none" />
<circle cx="2.0128068923950195" cy="569.002119064331" r="1" stroke="black" stroke-width="2" fill="none" />
<path d="M-9.834355354309082,575.6590976715088 Q-0.30970463156700134,588.3141822814941,10.550360679626465,576.5758666992188" stroke-width="2" stroke="black" fill="black" fill-opacity="0" />
<circle cx="-4.988080978393555" cy="666.1917343139648" r="1" stroke="black" stroke-width="2" fill="none" />
<circle cx="2.705336093902588" cy="666.6814155578613" r="1" stroke="black" stroke-width="2" fill="none" />
<path d="M-10.953574180603027,673.1251392364502 Q-0.36266013979911804,682.8417339324951,11.791620254516602,674.1779403686523" stroke-width="2" stroke="black" fill="black" fill-opacity="0" />
<circle cx="-5.891402244567871" cy="763.8685035705566" r="1" stroke="black" stroke-width="2" fill="none" />
<circle cx="3.5558836460113525" cy="764.3451881408691" r="1" stroke="black" stroke-width="2" fill="none" />
<path d="M-12.172048568725586,770.8909072875977 Q-0.41073641180992126,778.4629135131836,13.086348533630371,772.0417041778564" stroke-width="2" stroke="black" fill="black" fill-opacity="0" />
<circle cx="-6.845151901245117" cy="861.4872512817383" r="1" stroke="black" stroke-width="2" fill="none" />
<circle cx="4.460665702819824" cy="861.9538230895996" r="1" stroke="black" stroke-width="2" fill="none" />
<path d="M-13.440403938293457,868.6634998321533 Q-0.45996424555778503,874.1312522888184,14.424491882324219,869.9098892211914" stroke-width="2" stroke="black" fill="black" fill-opacity="0" />
<circle cx="96.64256834983826" cy="-13.513450622558594" r="1" stroke="black" stroke-width="2" fill="none" />
<circle cx="103.28451466560364" cy="-13.920129776000977" r="1" stroke="black" stroke-width="2" fill="none" />
<path d="M93.00854921340942,-0.8249903917312622 Q100.07462687790394,6.740825653076172,106.97582054138184,-0.4165702760219574" stroke-width="2" stroke="black" fill="black" fill-opacity="0" />
<circle cx="98.09057641029358" cy="93.42922115325928" r="1" stroke="black" stroke-width="2" fill="none" />
<circle cx="101.49964451789856" cy="93.23308658599854" r="1" stroke="black" stroke-width="2" fill="none" />
<path d="M96.01796436309814,104.08074188232422 Q100.0961695164442,111.13885021209717,104.06238412857056,104.5752911567688" stroke-width="2" stroke="black" fill="black" fill-opacity="0" />
<circle cx="95.14597988128662" cy="197.92090940475464" r="1" stroke="black" stroke-width="2" fill="none" />
<circle cx="103.69855046272278" cy="198.1685962677002" r="1" stroke="black" stroke-width="2" fill="none" />
<path d="M96.38094782829285,204.51568984985352 Q100.0483295917511,210.69386100769043,104.16682863235474,204.96499490737915" stroke-width="2" stroke="black" fill="black" fill-opacity="0" />
<circle cx="93.79564762115479" cy="289.67483043670654" r="1" stroke="black" stroke-width="2" fill="none" />
<circle cx="105.04392147064209" cy="289.96954250335693" r="1" stroke="black" stroke-width="2" fill="none" />
<path d="M93.6478362083435,295.0364966392517 Q99.98185780644417,308.59556102752686,106.76142740249634,295.34695196151733" stroke-width="2" stroke="black" fill="black" fill-opacity="0" />
<circle cx="93.28010845184326" cy="379.6051712036133" r="1" stroke="black" stroke-width="2" fill="none" />
<circle cx="106.20708751678467" cy="379.8873119354248" r="1" stroke="black" stroke-width="2" fill="none" />
<path d="M90.44943714141846,386.7343864440918 Q99.92792239785194,407.4089503288269,109.7192792892456,386.5941514968872" stroke-width="2" stroke="black" fill="black" fill-opacity="0" />
<circle cx="93.60236549377441" cy="472.3891773223877" r="1" stroke="black" stroke-width="2" fill="none" />
<circle cx="105.60711288452148" cy="472.7739505767822" r="1" stroke="black" stroke-width="2" fill="none" />
<path d="M89.03634834289551,480.46813583374023 Q99.83143264055252,505.00217056274414,111.20003032684326,480.5400562286377" stroke-width="2" stroke="black" fill="black" fill-opacity="0" />
<circle cx="93.64399719238281" cy="567.4469795227051" r="1" stroke="black" stroke-width="2" fill="none" />
<circle cx="104.86759662628174" cy="567.9532432556152" r="1" stroke="black" stroke-width="2" fill="none" />
<path d="M88.18780708312988,576.6291427612305 Q99.73489049077034,600.9973939061165,112.18667411804199,577.0772190093994" stroke-width="2" stroke="black" fill="black" fill-opacity="0" />
<circle cx="93.89523601531982" cy="665.3195724487305" r="1" stroke="black" stroke-width="2" fill="none" />
<circle cx="104.32680940628052" cy="665.792896270752" r="1" stroke="black" stroke-width="2" fill="none" />
<path d="M87.90245151519775,673.2701644897461 Q99.67605891823769,693.1908540725708,112.75124549865723,673.9914665222168" stroke-width="2" stroke="black" fill="black" fill-opacity="0" />
<circle cx="93.47244262695312" cy="763.217643737793" r="1" stroke="black" stroke-width="2" fill="none" />
<circle cx="104.58109092712402" cy="763.669116973877" r="1" stroke="black" stroke-width="2" fill="none" />
<path d="M87.10695171356201,770.6538047790527 Q99.62113931775093,786.5706443786621,113.7102279663086,771.5649471282959" stroke-width="2" stroke="black" fill="black" fill-opacity="0" />
<circle cx="91.62943649291992" cy="860.578052520752" r="1" stroke="black" stroke-width="2" fill="none" />
<circle cx="106.6343822479248" cy="860.946533203125" r="1" stroke="black" stroke-width="2" fill="none" />
<path d="M84.98975467681885,867.4841842651367 Q99.565743714571,878.8097629547119,115.95069694519043,868.4505195617676" stroke-width="2" stroke="black" fill="black" fill-opacity="0" />
<circle cx="194.01540184020996" cy="-19.41624641418457" r="1" stroke="black" stroke-width="2" fill="none" />
<circle cx="206.58585214614868" cy="-19.74159812927246" r="1" stroke="black" stroke-width="2" fill="none" />
<path d="M189.33631229400635,-2.965056896209717 Q199.96310505270958,9.458166122436523,210.87334728240967,-2.8863000869750977" stroke-width="2" stroke="black" fill="black" fill-opacity="0" />
<circle cx="195.94699573516846" cy="87.45574378967285" r="1" stroke="black" stroke-width="2" fill="none" />
<circle cx="204.23468399047852" cy="86.98057174682617" r="1" stroke="black" stroke-width="2" fill="none" />
<path d="M192.47156381607056,101.04678916931152 Q200.0685365051031,113.57705593109131,207.5857572555542,101.3955991268158" stroke-width="2" stroke="black" fill="black" fill-opacity="0" />
<circle cx="197.12846684455872" cy="194.43690299987793" r="1" stroke="black" stroke-width="2" fill="none" />
<circle cx="202.6260175704956" cy="194.258038520813" r="1" stroke="black" stroke-width="2" fill="none" />
<path d="M195.38803815841675,206.25302505493164 Q200.05981150269508,218.2539882659912,204.7970905303955,206.70166015625" stroke-width="2" stroke="black" fill="black" fill-opacity="0" />
<circle cx="192.7136287689209" cy="297.26323413848877" r="1" stroke="black" stroke-width="2" fill="none" />
<circle cx="206.17207670211792" cy="297.5860695838928" r="1" stroke="black" stroke-width="2" fill="none" />
<path d="M194.66048860549927,304.12252044677734 Q199.99728986620903,317.5593318939209,206.1041874885559,304.49503993988037" stroke-width="2" stroke="black" fill="black" fill-opacity="0" />
<circle cx="191.32226085662842" cy="388.7882013320923" r="1" stroke="black" stroke-width="2" fill="none" />
<circle cx="207.5610146522522" cy="389.2050552368164" r="1" stroke="black" stroke-width="2" fill="none" />
<path d="M191.89328861236572,394.6476631164551 Q199.93727123737335,415.5941286087036,208.7802906036377,394.8422384262085" stroke-width="2" stroke="black" fill="black" fill-opacity="0" />
<circle cx="190.5570411682129" cy="478.69518089294434" r="1" stroke="black" stroke-width="2" fill="none" />
<circle cx="208.95959758758545" cy="479.1030025482178" r="1" stroke="black" stroke-width="2" fill="none" />
<path d="M188.53522205352783,486.2921371459961 Q199.87824299931526,514.0407295227051,211.86491584777832,486.07100772857666" stroke-width="2" stroke="black" fill="black" fill-opacity="0" />
<circle cx="189.4712839126587" cy="571.5012798309326" r="1" stroke="black" stroke-width="2" fill="none" />
<circle cx="210.37133026123047" cy="571.8513374328613" r="1" stroke="black" stroke-width="2" fill="none" />
<path d="M185.74993515014648,580.5421333312988 Q199.81948831677437,611.5962705612183,214.41661262512207,580.2467365264893" stroke-width="2" stroke="black" fill="black" fill-opacity="0" />
<circle cx="187.2663049697876" cy="664.6793212890625" r="1" stroke="black" stroke-width="2" fill="none" />
<circle cx="212.50336933135986" cy="665.0645484924316" r="1" stroke="black" stroke-width="2" fill="none" />
<path d="M182.56422424316406,675.395263671875 Q199.73910889029503,709.4552869796753,217.5628261566162,675.1946678161621" stroke-width="2" stroke="black" fill="black" fill-opacity="0" />
<circle cx="185.9390344619751" cy="761.8605880737305" r="1" stroke="black" stroke-width="2" fill="none" />
<circle cx="214.10315704345703" cy="762.0779609680176" r="1" stroke="black" stroke-width="2" fill="none" />
<path d="M180.69897270202637,770.9813041687012 Q199.71476337313652,799.6229170560837,219.63781547546387,770.8481044769287" stroke-width="2" stroke="black" fill="black" fill-opacity="0" />
<circle cx="183.76496505737305" cy="859.3019866943359" r="1" stroke="black" stroke-width="2" fill="none" />
<circle cx="216.60454750061035" cy="859.368236541748" r="1" stroke="black" stroke-width="2" fill="none" />
<path d="M178.29549407958984,867.4116859436035 Q199.68262162804604,890.762336730957,222.1770477294922,867.3015098571777" stroke-width="2" stroke="black" fill="black" fill-opacity="0" />
<circle cx="291.9440174102783" cy="-24.520326614379883" r="1" stroke="black" stroke-width="2" fill="none" />
<circle cx="309.06140327453613" cy="-24.927034378051758" r="1" stroke="black" stroke-width="2" fill="none" />
<path d="M286.16726207733154,-4.0182576179504395 Q299.89581564068794,12.603483200073242,314.0878314971924,-4.100196838378906" stroke-width="2" stroke="black" fill="black" fill-opacity="0" />
<circle cx="293.61125469207764" cy="81.47384643554688" r="1" stroke="black" stroke-width="2" fill="none" />
<circle cx="307.1507568359375" cy="80.72966957092285" r="1" stroke="black" stroke-width="2" fill="none" />
<path d="M288.7822904586792,98.4691754579544 Q300.04476024210453,116.43062019348145,311.2766647338867,98.62993860244751" stroke-width="2" stroke="black" fill="black" fill-opacity="0" />
<circle cx="294.9842748641968" cy="188.6035041809082" r="1" stroke="black" stroke-width="2" fill="none" />
<circle cx="305.2268214225769" cy="188.10715007781982" r="1" stroke="black" stroke-width="2" fill="none" />
<path d="M291.8557529449463,203.77310228347778 Q300.0341295450926,221.06263542175293,308.2746458053589,204.12288522720337" stroke-width="2" stroke="black" fill="black" fill-opacity="0" />
<circle cx="294.74084186553955" cy="294.8853015899658" r="1" stroke="black" stroke-width="2" fill="none" />
<circle cx="304.7868456840515" cy="294.78009033203125" r="1" stroke="black" stroke-width="2" fill="none" />
<path d="M293.95540952682495,307.79512548446655 Q299.97391551733017,324.42354011535645,306.42447233200073,308.2187490463257" stroke-width="2" stroke="black" fill="black" fill-opacity="0" />
<circle cx="289.8850498199463" cy="396.69653272628784" r="1" stroke="black" stroke-width="2" fill="none" />
<circle cx="308.7724027633667" cy="397.0585894584656" r="1" stroke="black" stroke-width="2" fill="none" />
<path d="M292.7742085456848,404.45573806762695 Q299.9497692286968,423.694766998291,308.19614028930664,404.82749366760254" stroke-width="2" stroke="black" fill="black" fill-opacity="0" />
<circle cx="286.0952262878418" cy="486.9453344345093" r="1" stroke="black" stroke-width="2" fill="none" />
<circle cx="312.9396905899048" cy="487.4432621002197" r="1" stroke="black" stroke-width="2" fill="none" />
<path d="M287.93413829803467,494.25658321380615 Q299.86768183112144,523.0409679412842,312.90635204315186,494.2849655151367" stroke-width="2" stroke="black" fill="black" fill-opacity="0" />
<circle cx="283.13658905029297" cy="575.9916706085205" r="1" stroke="black" stroke-width="2" fill="none" />
<circle cx="316.6830196380615" cy="576.4873352050781" r="1" stroke="black" stroke-width="2" fill="none" />
<path d="M282.82101821899414,585.6477680206299 Q299.7879292666912,622.8858699798584,317.7485294342041,585.1818027496338" stroke-width="2" stroke="black" fill="black" fill-opacity="0" />
<circle cx="280.17383003234863" cy="666.8680877685547" r="1" stroke="black" stroke-width="2" fill="none" />
<circle cx="320.2275104522705" cy="667.3667678833008" r="1" stroke="black" stroke-width="2" fill="none" />
<path d="M278.24135398864746,678.5967979431152 Q299.7028997838497,722.1802406311035,322.12184143066406,677.8897686004639" stroke-width="2" stroke="black" fill="black" fill-opacity="0" />
<circle cx="276.8303642272949" cy="760.5507278442383" r="1" stroke="black" stroke-width="2" fill="none" />
<circle cx="324.15769386291504" cy="760.9420585632324" r="1" stroke="black" stroke-width="2" fill="none" />
<path d="M274.00551414489746,773.426513671875 Q299.65322110056877,818.051290512085,326.17686462402344,772.5664615631104" stroke-width="2" stroke="black" fill="black" fill-opacity="0" />
<circle cx="272.4118003845215" cy="859.1474456787109" r="1" stroke="black" stroke-width="2" fill="none" />
<circle cx="329.4138584136963" cy="859.1730499267578" r="1" stroke="black" stroke-width="2" fill="none" />
<path d="M269.9346981048584,871.4785652160645 Q299.66901817917824,907.4268074035645,330.0298023223877,870.4623718261719" stroke-width="2" stroke="black" fill="black" fill-opacity="0" />
<circle cx="389.9786567687988" cy="-29.27593994140625" r="1" stroke="black" stroke-width="2" fill="none" />
<circle cx="411.2751216888428" cy="-29.813339233398438" r="1" stroke="black" stroke-width="2" fill="none" />
<path d="M383.15530014038086,-4.689515113830566 Q399.85099294781685,15.977730751037598,417.0486183166504,-4.821481704711914" stroke-width="2" stroke="black" fill="black" fill-opacity="0" />
<circle cx="391.2790355682373" cy="76.07743835449219" r="1" stroke="black" stroke-width="2" fill="none" />
<circle cx="409.7174825668335" cy="75.21004295349121" r="1" stroke="black" stroke-width="2" fill="none" />
<path d="M385.393835067749,97.07623648643494 Q399.9834395945072,119.07743644714355,414.6612501144409,97.15160775184631" stroke-width="2" stroke="black" fill="black" fill-opacity="0" />
<circle cx="392.5546989440918" cy="182.82680702209473" r="1" stroke="black" stroke-width="2" fill="none" />
<circle cx="407.8521685600281" cy="182.00950050354004" r="1" stroke="black" stroke-width="2" fill="none" />
<path d="M388.2317018508911,201.7718447446823 Q400.00122132897377,223.54512786865234,411.84093952178955,202.07497644424438" stroke-width="2" stroke="black" fill="black" fill-opacity="0" />
<circle cx="393.46156215667725" cy="290.4279375076294" r="1" stroke="black" stroke-width="2" fill="none" />
<circle cx="406.60292768478394" cy="290.19045543670654" r="1" stroke="black" stroke-width="2" fill="none" />
<path d="M391.15081214904785,309.73840141296387 Q399.9393857717514,330.66060066223145,409.22966384887695,309.95009422302246" stroke-width="2" stroke="black" fill="black" fill-opacity="0" />
<circle cx="387.0875778198242" cy="396.2175397872925" r="1" stroke="black" stroke-width="2" fill="none" />
<circle cx="412.53377056121826" cy="396.6728501319885" r="1" stroke="black" stroke-width="2" fill="none" />
<path d="M389.8804740905762,412.1475715637207 Q399.9020726978779,431.55808448791504,411.3394021987915,412.0610160827637" stroke-width="2" stroke="black" fill="black" fill-opacity="0" />
<circle cx="380.2302417755127" cy="493.1754288673401" r="1" stroke="black" stroke-width="2" fill="none" />
<circle cx="419.055871963501" cy="493.5431938171387" r="1" stroke="black" stroke-width="2" fill="none" />
<path d="M385.148943901062,505.2562713623047 Q399.8012978732586,529.2992191314697,415.97796535491943,505.29414081573486" stroke-width="2" stroke="black" fill="black" fill-opacity="0" />
<circle cx="375.3565979003906" cy="586.0767784118652" r="1" stroke="black" stroke-width="2" fill="none" />
<circle cx="423.6752395629883" cy="586.5488014221191" r="1" stroke="black" stroke-width="2" fill="none" />
<path d="M380.3779640197754,596.619998216629 Q399.7526694238186,627.9355068206787,420.4261722564697,596.6953523159027" stroke-width="2" stroke="black" fill="black" fill-opacity="0" />
<circle cx="371.8295211791992" cy="676.4951038360596" r="1" stroke="black" stroke-width="2" fill="none" />
<circle cx="427.81786155700684" cy="676.9594554901123" r="1" stroke="black" stroke-width="2" fill="none" />
<path d="M375.2693347930908,689.425199508667 Q399.67404022812843,726.7854461669922,425.26304054260254,689.14772605896" stroke-width="2" stroke="black" fill="black" fill-opacity="0" />
<circle cx="368.9398021697998" cy="766.6747703552246" r="1" stroke="black" stroke-width="2" fill="none" />
<circle cx="431.38306999206543" cy="767.1300468444824" r="1" stroke="black" stroke-width="2" fill="none" />
<path d="M370.5132637023926,781.8250598907471 Q399.60074719786644,825.1137828826904,429.7435054779053,781.1629867553711" stroke-width="2" stroke="black" fill="black" fill-opacity="0" />
<circle cx="365.7375831604004" cy="860.808521270752" r="1" stroke="black" stroke-width="2" fill="none" />
<circle cx="435.14930725097656" cy="861.1205368041992" r="1" stroke="black" stroke-width="2" fill="none" />
<path d="M366.41534423828125,877.4147300720215 Q399.560513228178,916.703405380249,433.5033493041992,876.6219692230225" stroke-width="2" stroke="black" fill="black" fill-opacity="0" />
<circle cx="488.12734603881836" cy="-33.68217468261719" r="1" stroke="black" stroke-width="2" fill="none" />
<circle cx="513.3494462966919" cy="-34.364952087402344" r="1" stroke="black" stroke-width="2" fill="none" />
<path d="M480.31725883483887,-5.220668315887451 Q499.8153164386749,19.467615127563477,519.8191547393799,-5.378701686859131" stroke-width="2" stroke="black" fill="black" fill-opacity="0" />
<circle cx="489.13696002960205" cy="70.3260612487793" r="1" stroke="black" stroke-width="2" fill="none" />
<circle cx="512.1159982681274" cy="69.32967185974121" r="1" stroke="black" stroke-width="2" fill="none" />
<path d="M481.93725395202637,96.48212671279907 Q499.93814489245415,122.5756664276123,517.9907684326172,96.53750109672546" stroke-width="2" stroke="black" fill="black" fill-opacity="0" />
<circle cx="490.05169010162354" cy="177.64194679260254" r="1" stroke="black" stroke-width="2" fill="none" />
<circle cx="510.54298973083496" cy="177.20436477661133" r="1" stroke="black" stroke-width="2" fill="none" />
<path d="M484.8592824935913,204.51692867279053 Q499.8435238301754,229.06607818603516,515.2970027923584,204.65691709518433" stroke-width="2" stroke="black" fill="black" fill-opacity="0" />
<circle cx="490.54402446746826" cy="286.2259798049927" r="1" stroke="black" stroke-width="2" fill="none" />
<circle cx="509.6623649597168" cy="286.1843099594116" r="1" stroke="black" stroke-width="2" fill="none" />
<path d="M487.61539459228516,314.93958282470703 Q499.8902081847191,335.7874221801758,512.8999929428101,314.83454990386963" stroke-width="2" stroke="black" fill="black" fill-opacity="0" />
<circle cx="484.6071367263794" cy="392.994752407074" r="1" stroke="black" stroke-width="2" fill="none" />
<circle cx="515.2482576370239" cy="393.3851099014282" r="1" stroke="black" stroke-width="2" fill="none" />
<path d="M486.36646461486816,419.1205825805664 Q499.8465901315212,436.46324920654297,514.6521139144897,418.90793800354004" stroke-width="2" stroke="black" fill="black" fill-opacity="0" />
<circle cx="475.8433265686035" cy="496.4167284965515" r="1" stroke="black" stroke-width="2" fill="none" />
<circle cx="523.8144607543945" cy="496.7005100250244" r="1" stroke="black" stroke-width="2" fill="none" />
<path d="M482.01354026794434,517.145170211792 Q499.8203010857105,534.216552734375,518.8195056915283,517.1613845825195" stroke-width="2" stroke="black" fill="black" fill-opacity="0" />
<circle cx="471.3359966278076" cy="590.1936159133911" r="1" stroke="black" stroke-width="2" fill="none" />
<circle cx="527.9506568908691" cy="590.4206228256226" r="1" stroke="black" stroke-width="2" fill="none" />
<path d="M478.0424633026123,608.1653499603271 Q499.67372938990593,631.4661636352539,522.9162845611572,608.2582359313965" stroke-width="2" stroke="black" fill="black" fill-opacity="0" />
<circle cx="466.8669776916504" cy="683.9049015045166" r="1" stroke="black" stroke-width="2" fill="none" />
<circle cx="532.0540733337402" cy="684.0921564102173" r="1" stroke="black" stroke-width="2" fill="none" />
<path d="M474.04482650756836,699.2410547733307 Q499.5388318002224,728.6821384429932,526.986686706543,699.4137614369392" stroke-width="2" stroke="black" fill="black" fill-opacity="0" />
<circle cx="463.45528411865234" cy="774.8149700164795" r="1" stroke="black" stroke-width="2" fill="none" />
<circle cx="535.7424163818359" cy="775.1819438934326" r="1" stroke="black" stroke-width="2" fill="none" />
<path d="M469.1676940917969,791.2359437942505 Q499.57038775086403,826.712085723877,531.1547908782959,791.2414045333862" stroke-width="2" stroke="black" fill="black" fill-opacity="0" />
<circle cx="460.3721733093262" cy="865.8276977539062" r="1" stroke="black" stroke-width="2" fill="none" />
<circle cx="539.41015625" cy="866.1709823608398" r="1" stroke="black" stroke-width="2" fill="none" />
<path d="M464.48792266845703,884.6284561157227 Q499.4996793270111,923.064058303833,535.5074234008789,884.3305149078369" stroke-width="2" stroke="black" fill="black" fill-opacity="0" />
<circle cx="585.4257335662842" cy="-39.963253021240234" r="1" stroke="black" stroke-width="2" fill="none" />
<circle cx="615.7628622055054" cy="-40.760704040527344" r="1" stroke="black" stroke-width="2" fill="none" />
<path d="M576.5272922515869,-6.025695323944092 Q599.7635618746281,21.188501358032227,623.3465461730957,-6.00683069229126" stroke-width="2" stroke="black" fill="black" fill-opacity="0" />
<circle cx="586.6533794403076" cy="65.98653411865234" r="1" stroke="black" stroke-width="2" fill="none" />
<circle cx="614.1324949264526" cy="65.34179306030273" r="1" stroke="black" stroke-width="2" fill="none" />
<path d="M578.9365844726562,100.92186450958252 Q599.7621705234051,128.00466918945312,620.9685173034668,101.05695104598999" stroke-width="2" stroke="black" fill="black" fill-opacity="0" />
<circle cx="587.0625677108765" cy="173.59566497802734" r="1" stroke="black" stroke-width="2" fill="none" />
<circle cx="613.250599861145" cy="173.33122444152832" r="1" stroke="black" stroke-width="2" fill="none" />
<path d="M581.410400390625,210.52602672576904 Q599.8109572529793,233.8935546875,618.805103302002,210.42891597747803" stroke-width="2" stroke="black" fill="black" fill-opacity="0" />
<circle cx="587.6457843780518" cy="282.3686981201172" r="1" stroke="black" stroke-width="2" fill="none" />
<circle cx="612.6281929016113" cy="282.4803924560547" r="1" stroke="black" stroke-width="2" fill="none" />
<path d="M584.1754331588745,320.7914524078369 Q599.8282110989094,339.608341217041,616.4851455688477,320.4868583679199" stroke-width="2" stroke="black" fill="black" fill-opacity="0" />
<circle cx="582.7539329528809" cy="389.8381929397583" r="1" stroke="black" stroke-width="2" fill="none" />
<circle cx="617.2922821044922" cy="390.15739154815674" r="1" stroke="black" stroke-width="2" fill="none" />
<path d="M583.3368301391602,425.62372398376465 Q599.7971041798592,440.07275009155273,617.4639778137207,425.3145217895508" stroke-width="2" stroke="black" fill="black" fill-opacity="0" />
<circle cx="573.8146209716797" cy="495.94727516174316" r="1" stroke="black" stroke-width="2" fill="none" />
<circle cx="626.0921630859375" cy="496.15711855888367" r="1" stroke="black" stroke-width="2" fill="none" />
<path d="M579.5735092163086,525.5434455871582 Q599.801988273859,537.3401412963867,621.0454769134521,525.5093612670898" stroke-width="2" stroke="black" fill="black" fill-opacity="0" />
<circle cx="568.0276374816895" cy="593.5599904060364" r="1" stroke="black" stroke-width="2" fill="none" />
<circle cx="631.5799827575684" cy="593.6988286972046" r="1" stroke="black" stroke-width="2" fill="none" />
<path d="M575.7305545806885,619.3938827514648 Q599.7017376124859,634.5825347900391,624.9300670623779,619.5008354187012" stroke-width="2" stroke="black" fill="black" fill-opacity="0" />
<circle cx="563.5376853942871" cy="687.3551034927368" r="1" stroke="black" stroke-width="2" fill="none" />
<circle cx="635.695182800293" cy="687.436918258667" r="1" stroke="black" stroke-width="2" fill="none" />
<path d="M571.7744674682617,710.4492826461792 Q599.5554092228413,731.7779064178467,629.0100326538086,710.6367979049683" stroke-width="2" stroke="black" fill="black" fill-opacity="0" />
<circle cx="559.0477600097656" cy="781.1502113342285" r="1" stroke="black" stroke-width="2" fill="none" />
<circle cx="639.8103675842285" cy="781.1750049591064" r="1" stroke="black" stroke-width="2" fill="none" />
<path d="M567.8183975219727,801.5046855211258 Q599.4090807437897,828.9732837677002,633.0899848937988,801.7727625370026" stroke-width="2" stroke="black" fill="black" fill-opacity="0" />
<circle cx="555.1352272033691" cy="872.9781150817871" r="1" stroke="black" stroke-width="2" fill="none" />
<circle cx="643.6357917785645" cy="873.2627811431885" r="1" stroke="black" stroke-width="2" fill="none" />
<path d="M563.0746650695801,892.8437147140503 Q599.4645495414734,927.1916522979736,637.0661811828613,893.1131992340088" stroke-width="2" stroke="black" fill="black" fill-opacity="0" />
<circle cx="682.1229820251465" cy="-43.68910598754883" r="1" stroke="black" stroke-width="2" fill="none" />
<circle cx="718.3564357757568" cy="-44.32902908325195" r="1" stroke="black" stroke-width="2" fill="none" />
<path d="M673.1671981811523,-1.1590797901153564 Q699.7357104718685,24.3502140045166,726.6583156585693,-1.2091941833496094" stroke-width="2" stroke="black" fill="black" fill-opacity="0" />
<circle cx="683.805097579956" cy="62.30157470703125" r="1" stroke="black" stroke-width="2" fill="none" />
<circle cx="716.6029796600342" cy="61.84468078613281" r="1" stroke="black" stroke-width="2" fill="none" />
<path d="M675.736385345459,107.03704309463501 Q699.7382719218731,132.74381637573242,724.220666885376,106.93617010116577" stroke-width="2" stroke="black" fill="black" fill-opacity="0" />
<circle cx="684.4815292358398" cy="170.1184959411621" r="1" stroke="black" stroke-width="2" fill="none" />
<circle cx="715.869891166687" cy="170.00165939331055" r="1" stroke="black" stroke-width="2" fill="none" />
<path d="M678.3488311767578,215.93185424804688 Q699.754541605711,236.86723709106445,722.0059642791748,215.6610918045044" stroke-width="2" stroke="black" fill="black" fill-opacity="0" />
<circle cx="685.1522722244263" cy="278.502477645874" r="1" stroke="black" stroke-width="2" fill="none" />
<circle cx="715.1447582244873" cy="278.74889755249023" r="1" stroke="black" stroke-width="2" fill="none" />
<path d="M681.106803894043,325.5363254547119 Q699.772183984518,341.48840713500977,719.6768836975098,325.073450088501" stroke-width="2" stroke="black" fill="black" fill-opacity="0" />
<circle cx="681.4207668304443" cy="386.60900688171387" r="1" stroke="black" stroke-width="2" fill="none" />
<circle cx="718.8073329925537" cy="386.8569688796997" r="1" stroke="black" stroke-width="2" fill="none" />
<path d="M680.657377243042,431.8720874786377 Q699.7480873167515,443.02831268310547,719.9470157623291,431.47195053100586" stroke-width="2" stroke="black" fill="black" fill-opacity="0" />
<circle cx="672.818208694458" cy="492.5088529586792" r="1" stroke="black" stroke-width="2" fill="none" />
<circle cx="727.274808883667" cy="492.6554527282715" r="1" stroke="black" stroke-width="2" fill="none" />
<path d="M677.0599689483643,531.7898921966553 Q699.7478632032871,540.3727188110352,723.4075012207031,531.6620750427246" stroke-width="2" stroke="black" fill="black" fill-opacity="0" />
<circle cx="664.7192802429199" cy="596.9263637065887" r="1" stroke="black" stroke-width="2" fill="none" />
<circle cx="735.2093124389648" cy="596.9770307540894" r="1" stroke="black" stroke-width="2" fill="none" />
<path d="M673.4186344146729,630.6224231719971 Q699.7297467887402,637.6989097595215,726.9438514709473,630.7434425354004" stroke-width="2" stroke="black" fill="black" fill-opacity="0" />
<circle cx="660.2293319702148" cy="690.7214736938477" r="1" stroke="black" stroke-width="2" fill="none" />
<circle cx="739.3245010375977" cy="690.7151165008545" r="1" stroke="black" stroke-width="2" fill="none" />
<path d="M669.4625587463379,721.677812576294 Q699.5834178030491,734.8942794799805,731.0238151550293,721.8794002532959" stroke-width="2" stroke="black" fill="black" fill-opacity="0" />
<circle cx="655.7508087158203" cy="784.4451961517334" r="1" stroke="black" stroke-width="2" fill="none" />
<circle cx="743.4202842712402" cy="784.4003505706787" r="1" stroke="black" stroke-width="2" fill="none" />
<path d="M665.5388526916504,812.4487752914429 Q699.4335128068924,832.7082405090332,735.1118278503418,812.7245788574219" stroke-width="2" stroke="black" fill="black" fill-opacity="0" />
<circle cx="651.281925201416" cy="878.1086006164551" r="1" stroke="black" stroke-width="2" fill="none" />
<circle cx="747.4996528625488" cy="878.0409278869629" r="1" stroke="black" stroke-width="2" fill="none" />
<path d="M661.6425132751465,902.9793710708618 Q699.2805851697922,931.0449409484863,739.2066345214844,903.3240361213684" stroke-width="2" stroke="black" fill="black" fill-opacity="0" />
<circle cx="778.796630859375" cy="-46.03114318847656" r="1" stroke="black" stroke-width="2" fill="none" />
<circle cx="821.7364616394043" cy="-46.42580795288086" r="1" stroke="black" stroke-width="2" fill="none" />
<path d="M770.080509185791,4.1996049880981445 Q799.6856670081615,24.346818923950195,830.069953918457,3.910219430923462" stroke-width="2" stroke="black" fill="black" fill-opacity="0" />
<circle cx="780.7631492614746" cy="59.470558166503906" r="1" stroke="black" stroke-width="2" fill="none" />
<circle cx="819.6929397583008" cy="59.220863342285156" r="1" stroke="black" stroke-width="2" fill="none" />
<path d="M772.6709651947021,112.18117427825928 Q799.6903727352619,133.08766174316406,827.5400676727295,111.85429859161377" stroke-width="2" stroke="black" fill="black" fill-opacity="0" />
<circle cx="781.9630241394043" cy="166.4154281616211" r="1" stroke="black" stroke-width="2" fill="none" />
<circle cx="818.415449142456" cy="166.4394073486328" r="1" stroke="black" stroke-width="2" fill="none" />
<path d="M775.3027687072754,220.9090633392334 Q799.6991445124149,238.9799690246582,825.1845703125,220.4691333770752" stroke-width="2" stroke="black" fill="black" fill-opacity="0" />
<circle cx="782.6308040618896" cy="274.63101959228516" r="1" stroke="black" stroke-width="2" fill="none" />
<circle cx="817.6911697387695" cy="275.0147705078125" r="1" stroke="black" stroke-width="2" fill="none" />
<path d="M778.0186443328857,330.33732414245605 Q799.7156976163387,343.36469650268555,822.8935890197754,329.7098922729492" stroke-width="2" stroke="black" fill="black" fill-opacity="0" />
<circle cx="780.424352645874" cy="383.17058753967285" r="1" stroke="black" stroke-width="2" fill="none" />
<circle cx="819.9899864196777" cy="383.35530853271484" r="1" stroke="black" stroke-width="2" fill="none" />
<path d="M778.143835067749,438.1185302734375 Q799.6939621269703,446.0608901977539,822.3090381622314,437.6246643066406" stroke-width="2" stroke="black" fill="black" fill-opacity="0" />
<circle cx="771.8218002319336" cy="489.07043170928955" r="1" stroke="black" stroke-width="2" fill="none" />
<circle cx="828.4574604034424" cy="489.15378856658936" r="1" stroke="black" stroke-width="2" fill="none" />
<path d="M774.5464286804199,538.0363349914551 Q799.6937374174595,543.4053077697754,825.7695293426514,537.8147850036621" stroke-width="2" stroke="black" fill="black" fill-opacity="0" />
<circle cx="763.2192420959473" cy="594.9702706336975" r="1" stroke="black" stroke-width="2" fill="none" />
<circle cx="836.9249267578125" cy="594.9522652626038" r="1" stroke="black" stroke-width="2" fill="none" />
<path d="M770.9490146636963,637.9541320800781 Q799.693512827158,640.7497444152832,829.230016708374,638.0049057006836" stroke-width="2" stroke="black" fill="black" fill-opacity="0" />
<circle cx="756.9341735839844" cy="694.0053286552429" r="1" stroke="black" stroke-width="2" fill="none" />
<circle cx="842.9313926696777" cy="693.932225227356" r="1" stroke="black" stroke-width="2" fill="none" />
<path d="M767.1880645751953,732.5775413513184 Q799.6072920262814,738.7257537841797,833.0469017028809,732.7858619689941" stroke-width="2" stroke="black" fill="black" fill-opacity="0" />
<circle cx="752.4652900695801" cy="787.6687231063843" r="1" stroke="black" stroke-width="2" fill="none" />
<circle cx="847.0107612609863" cy="787.572793006897" r="1" stroke="black" stroke-width="2" fill="none" />
<path d="M763.2917251586914,823.1081066131592 Q799.4543641805649,837.062442779541,837.1417198181152,823.3852920532227" stroke-width="2" stroke="black" fill="black" fill-opacity="0" />
<circle cx="747.9964065551758" cy="881.3321304321289" r="1" stroke="black" stroke-width="2" fill="none" />
<circle cx="851.0901374816895" cy="881.2133750915527" r="1" stroke="black" stroke-width="2" fill="none" />
<path d="M759.3953819274902,913.6387147903442 Q799.3014359474182,935.3991470336914,841.2365303039551,913.984766960144" stroke-width="2" stroke="black" fill="black" fill-opacity="0" />
<circle cx="875.5257568359375" cy="-48.19497299194336" r="1" stroke="black" stroke-width="2" fill="none" />
<circle cx="925.0442142486572" cy="-48.32992935180664" r="1" stroke="black" stroke-width="2" fill="none" />
<path d="M867.118896484375,9.617198944091797 Q899.6379368007183,23.538806915283203,933.3747062683105,9.083935737609863" stroke-width="2" stroke="black" fill="black" fill-opacity="0" />
<circle cx="877.3825492858887" cy="57.10017395019531" r="1" stroke="black" stroke-width="2" fill="none" />
<circle cx="923.1448440551758" cy="57.097042083740234" r="1" stroke="black" stroke-width="2" fill="none" />
<path d="M869.5479221343994,117.57283210754395 Q899.6453892290592,132.65505981445312,930.9918880462646,116.97020149230957" stroke-width="2" stroke="black" fill="black" fill-opacity="0" />
<circle cx="879.3327007293701" cy="162.87285614013672" r="1" stroke="black" stroke-width="2" fill="none" />
<circle cx="921.0797233581543" cy="163.05095291137695" r="1" stroke="black" stroke-width="2" fill="none" />
<path d="M872.2413482666016,225.9566249847412 Q899.6448673307896,240.80634689331055,928.40354347229,225.33215522766113" stroke-width="2" stroke="black" fill="black" fill-opacity="0" />
<circle cx="879.9259510040283" cy="270.81944274902344" r="1" stroke="black" stroke-width="2" fill="none" />
<circle cx="920.4460296630859" cy="271.2177257537842" r="1" stroke="black" stroke-width="2" fill="none" />
<path d="M874.6043605804443,335.12564849853516 Q899.6522579491138,344.91168212890625,926.2240505218506,334.4065704345703" stroke-width="2" stroke="black" fill="black" fill-opacity="0" />
<circle cx="879.2820854187012" cy="379.64612770080566" r="1" stroke="black" stroke-width="2" fill="none" />
<circle cx="921.3011989593506" cy="379.77950286865234" r="1" stroke="black" stroke-width="2" fill="none" />
<path d="M875.5430145263672,444.21043395996094 Q899.6340419948101,448.9507293701172,924.7724208831787,443.61788177490234" stroke-width="2" stroke="black" fill="black" fill-opacity="0" />
<circle cx="870.8253917694092" cy="485.632004737854" r="1" stroke="black" stroke-width="2" fill="none" />
<circle cx="929.6401062011719" cy="485.652117729187" r="1" stroke="black" stroke-width="2" fill="none" />
<path d="M872.032880783081,544.2827758789062 Q899.6396121680737,546.4379119873047,928.1315517425537,543.9674949645996" stroke-width="2" stroke="black" fill="black" fill-opacity="0" />
<circle cx="862.1859436035156" cy="591.5908527374268" r="1" stroke="black" stroke-width="2" fill="none" />
<circle cx="938.1369972229004" cy="591.5333576202393" r="1" stroke="black" stroke-width="2" fill="none" />
<path d="M868.4824714660645,643.9391593933105 Q899.6365379989147,644.5957946777344,931.5947895050049,643.8903007507324" stroke-width="2" stroke="black" fill="black" fill-opacity="0" />
<circle cx="853.6486625671387" cy="697.2288439273834" r="1" stroke="black" stroke-width="2" fill="none" />
<circle cx="946.5218544006348" cy="697.1046617031097" r="1" stroke="black" stroke-width="2" fill="none" />
<path d="M864.9409408569336,743.2368774414062 Q899.6281432211399,743.0799446105957,935.0767936706543,743.4465713500977" stroke-width="2" stroke="black" fill="black" fill-opacity="0" />
<circle cx="849.1797790527344" cy="790.8922424316406" r="1" stroke="black" stroke-width="2" fill="none" />
<circle cx="950.6012268066406" cy="790.7452297210693" r="1" stroke="black" stroke-width="2" fill="none" />
<path d="M861.044605255127,833.767448425293 Q899.4752151966095,841.4166374206543,939.1716003417969,834.0460166931152" stroke-width="2" stroke="black" fill="black" fill-opacity="0" />
<circle cx="844.7094688415527" cy="884.5544738769531" r="1" stroke="black" stroke-width="2" fill="none" />
<circle cx="954.6814384460449" cy="884.3846607208252" r="1" stroke="black" stroke-width="2" fill="none" />
<path d="M857.1476783752441,924.2945938110352 Q899.3219106197357,939.7411231994629,943.2670135498047,924.6417865753174" stroke-width="2" stroke="black" fill="black" fill-opacity="0" />
<path d="M-50,50 L950,50" stroke="black" />
<path d="M50,-50 L50,950" stroke="black" />
<path d="M-50,150 L950,150" stroke="black" />
<path d="M150,-50 L150,950" stroke="black" />
<path d="M-50,250 L950,250" stroke="black" />
<path d="M250,-50 L250,950" stroke="black" />
<path d="M-50,350 L950,350" stroke="black" />
<path d="M350,-50 L350,950" stroke="black" />
<path d="M-50,450 L950,450" stroke="black" />
<path d="M450,-50 L450,950" stroke="black" />
<path d="M-50,550 L950,550" stroke="black" />
<path d="M550,-50 L550,950" stroke="black" />
<path d="M-50,650 L950,650" stroke="black" />
<path d="M650,-50 L650,950" stroke="black" />
<path d="M-50,750 L950,750" stroke="black" />
<path d="M750,-50 L750,950" stroke="black" />
<path d="M-50,850 L950,850" stroke="black" />
<path d="M850,-50 L850,950" stroke="black" />
</svg>