<?xml version="1.0" encoding="UTF-8"?>
<svg xmlns="http://www.w3.org/2000/svg" xmlns:xlink="http://www.w3.org/1999/xlink"
     width="1000" height="1000" viewBox="-50 -50 1000 1000" diplayInline="False">
<defs>
</defs>
<circle cx="-8.954184532165527" cy="-43.936187744140625" r="1" stroke="black" stroke-width="2" fill="none" />
<circle cx="6.482541561126709" cy="-43.49013137817383" r="1" stroke="black" stroke-width="2" fill="none" />
<path d="M-16.28396224975586,-36.389320373535156 Q-0.5673534870147705,-34.475059509277344,17.421897888183594,-34.94915008544922" stroke-width="2" stroke="black" fill="black" fill-opacity="0" />
<circle cx="-24.961715698242188" cy="72.38614082336426" r="1" stroke="black" stroke-width="2" fill="none" />
<circle cx="25.28790855407715" cy="72.29693031311035" r="1" stroke="black" stroke-width="2" fill="none" />
<path d="M-30.383766174316406,152.37604522705078 Q-0.5784432888031006,126.67143821716309,30.027294158935547,152.02949905395508" stroke-width="2" stroke="black" fill="black" fill-opacity="0" />
<circle cx="-10.625421524047852" cy="168.92340278625488" r="1" stroke="black" stroke-width="2" fill="none" />
<circle cx="10.836374282836914" cy="168.70723342895508" r="1" stroke="black" stroke-width="2" fill="none" />
<path d="M-17.064865112304688,194.25622940063477 Q-0.22818788886070251,208.021897315979,17.217613220214844,194.42238855361938" stroke-width="2" stroke="black" fill="black" fill-opacity="0" />
<circle cx="-25.017370223999023" cy="275.69218254089355" r="1" stroke="black" stroke-width="2" fill="none" />
<circle cx="25.479049682617188" cy="275.4700050354004" r="1" stroke="black" stroke-width="2" fill="none" />
<path d="M-29.789003372192383,355.1846122741699 Q-0.5387908220291138,330.23040771484375,29.26482391357422,354.97121810913086" stroke-width="2" stroke="black" fill="black" fill-opacity="0" />
<circle cx="-6.188775062561035" cy="364.9961967468262" r="1" stroke="black" stroke-width="2" fill="none" />
<circle cx="4.400595188140869" cy="365.4650573730469" r="1" stroke="black" stroke-width="2" fill="none" />
<path d="M-12.237604141235352,372.8639106750488 Q-0.33097198605537415,392.4809789657593,12.914828300476074,373.6047306060791" stroke-width="2" stroke="black" fill="black" fill-opacity="0" />
<circle cx="-8.52081298828125" cy="474.1541271209717" r="1" stroke="black" stroke-width="2" fill="none" />
<circle cx="7.07983922958374" cy="474.7057399749756" r="1" stroke="black" stroke-width="2" fill="none" />
<path d="M-12.126688003540039,483.2387866973877 Q-0.3127208650112152,481.53833389282227,12.456238746643066,483.547025680542" stroke-width="2" stroke="black" fill="black" fill-opacity="0" />
<circle cx="-16.970237731933594" cy="553.0036087036133" r="1" stroke="black" stroke-width="2" fill="none" />
<circle cx="16.8268985748291" cy="553.011043548584" r="1" stroke="black" stroke-width="2" fill="none" />
<path d="M-23.7575740814209,559.2707138061523 Q-0.4867287576198578,565.2202644348145,24.74013328552246,559.8041191101074" stroke-width="2" stroke="black" fill="black" fill-opacity="0" />
<circle cx="-4.680212020874023" cy="682.5753231048584" r="1" stroke="black" stroke-width="2" fill="none" />
<circle cx="3.682023763656616" cy="682.9117755889893" r="1" stroke="black" stroke-width="2" fill="none" />
<path d="M-7.44107723236084,688.9088325500488 Q-0.08146047592163086,690.1722745895386,7.666057109832764,689.0132522583008" stroke-width="2" stroke="black" fill="black" fill-opacity="0" />
<circle cx="-13.687323570251465" cy="779.8812122344971" r="1" stroke="black" stroke-width="2" fill="none" />
<circle cx="13.40794563293457" cy="779.968391418457" r="1" stroke="black" stroke-width="2" fill="none" />
<path d="M-17.391414642333984,823.5926380157471 Q-0.24419882893562317,804.1580944061279,17.55535125732422,823.6177463531494" stroke-width="2" stroke="black" fill="black" fill-opacity="0" />
<circle cx="-25.16063690185547" cy="868.6447601318359" r="1" stroke="black" stroke-width="2" fill="none" />
<circle cx="25.130861282348633" cy="868.7389678955078" r="1" stroke="black" stroke-width="2" fill="none" />
<path d="M-29.655364990234375,932.8170928955078 Q-0.4341643154621124,899.619861125946,29.722864151000977,932.6099281311035" stroke-width="2" stroke="black" fill="black" fill-opacity="0" />
<circle cx="99.69342142343521" cy="-4.842984676361084" r="1" stroke="black" stroke-width="2" fill="none" />
<circle cx="99.54476314783096" cy="-4.866783142089844" r="1" stroke="black" stroke-width="2" fill="none" />
<path d="M98.12340795993805,3.939405918121338 Q100.14161667227745,0.8480773568153381,102.02402591705322,4.4160990715026855" stroke-width="2" stroke="black" fill="black" fill-opacity="0" />
<circle cx="77.51232147216797" cy="70.97836494445801" r="1" stroke="black" stroke-width="2" fill="none" />
<circle cx="122.31712913513184" cy="71.1058406829834" r="1" stroke="black" stroke-width="2" fill="none" />
<path d="M73.45756721496582,127.24752235412598 Q99.63204357028008,95.66628503799438,126.70348167419434,127.1489315032959" stroke-width="2" stroke="black" fill="black" fill-opacity="0" />
<circle cx="91.40151596069336" cy="157.39878463745117" r="1" stroke="black" stroke-width="2" fill="none" />
<circle cx="106.05959844589233" cy="157.97975540161133" r="1" stroke="black" stroke-width="2" fill="none" />
<path d="M84.36514186859131,165.0267677307129 Q99.39272677898407,162.72868728637695,116.82317543029785,166.44176483154297" stroke-width="2" stroke="black" fill="black" fill-opacity="0" />
<circle cx="94.73166847229004" cy="266.5309410095215" r="1" stroke="black" stroke-width="2" fill="none" />
<circle cx="102.56547546386719" cy="267.1497344970703" r="1" stroke="black" stroke-width="2" fill="none" />
<path d="M89.09238529205322,274.3790473937988 Q99.56211194396019,273.31010818481445,111.72067165374756,275.58612632751465" stroke-width="2" stroke="black" fill="black" fill-opacity="0" />
<circle cx="71.3458080291748" cy="366.97347259521484" r="1" stroke="black" stroke-width="2" fill="none" />
<circle cx="129.08904266357422" cy="366.9447555541992" r="1" stroke="black" stroke-width="2" fill="none" />
<path d="M65.6220932006836,450.9242820739746 Q99.3999273777008,421.19079780578613,134.15441131591797,450.39904022216797" stroke-width="2" stroke="black" fill="black" fill-opacity="0" />
<circle cx="89.1954231262207" cy="470.9263553619385" r="1" stroke="black" stroke-width="2" fill="none" />
<circle cx="110.49839973449707" cy="470.7441997528076" r="1" stroke="black" stroke-width="2" fill="none" />
<path d="M83.9188346862793,494.22716522216797 Q99.8668732047081,493.8433322906494,116.42795944213867,494.5973162651062" stroke-width="2" stroke="black" fill="black" fill-opacity="0" />
<circle cx="86.71004962921143" cy="570.949893951416" r="1" stroke="black" stroke-width="2" fill="none" />
<circle cx="113.61736011505127" cy="570.5911617279053" r="1" stroke="black" stroke-width="2" fill="none" />
<path d="M80.42729377746582,608.1025772094727 Q99.80253434181213,632.6243476867676,119.67465400695801,608.0493144989014" stroke-width="2" stroke="black" fill="black" fill-opacity="0" />
<circle cx="62.0043830871582" cy="639.7590675354004" r="1" stroke="black" stroke-width="2" fill="none" />
<circle cx="138.68036270141602" cy="640.5156135559082" r="1" stroke="black" stroke-width="2" fill="none" />
<path d="M54.20195770263672,725.6224308013916 Q99.43169915676117,715.9418745040894,147.55599212646484,724.2668113708496" stroke-width="2" stroke="black" fill="black" fill-opacity="0" />
<circle cx="91.9674243927002" cy="792.2764286994934" r="1" stroke="black" stroke-width="2" fill="none" />
<circle cx="107.28448057174683" cy="792.407543182373" r="1" stroke="black" stroke-width="2" fill="none" />
<path d="M92.51840543746948,798.1394015550613 Q99.96496644616127,794.7780494689941,107.6907377243042,798.3945136070251" stroke-width="2" stroke="black" fill="black" fill-opacity="0" />
<circle cx="79.65281677246094" cy="895.8424777984619" r="1" stroke="black" stroke-width="2" fill="none" />
<circle cx="119.85541343688965" cy="896.1917765140533" r="1" stroke="black" stroke-width="2" fill="none" />
<path d="M84.9197998046875,911.7688302993774 Q99.84109795093536,931.6534385681152,116.07746124267578,911.7853918075562" stroke-width="2" stroke="black" fill="black" fill-opacity="0" />
<circle cx="167.52252197265625" cy="-19.3386287689209" r="1" stroke="black" stroke-width="2" fill="none" />
<circle cx="231.97507095336914" cy="-19.272598266601562" r="1" stroke="black" stroke-width="2" fill="none" />
<path d="M172.26949310302734,-3.632460117340088 Q199.51003989577293,-12.457151412963867,227.69977569580078,-3.630585193634033" stroke-width="2" stroke="black" fill="black" fill-opacity="0" />
<circle cx="154.5830841064453" cy="75.19648551940918" r="1" stroke="black" stroke-width="2" fill="none" />
<circle cx="246.6131362915039" cy="74.99108695983887" r="1" stroke="black" stroke-width="2" fill="none" />
<path d="M154.7171173095703,174.8719940185547 Q199.31937861442566,167.20832061767578,244.9678077697754,174.3412094116211" stroke-width="2" stroke="black" fill="black" fill-opacity="0" />
<circle cx="198.86359989643097" cy="180.14622497558594" r="1" stroke="black" stroke-width="2" fill="none" />
<circle cx="199.07060849666595" cy="180.66985511779785" r="1" stroke="black" stroke-width="2" fill="none" />
<path d="M195.0475254058838,186.26359462738037 Q199.8469113111496,190.15633392333984,205.39562320709229,186.87853717803955" stroke-width="2" stroke="black" fill="black" fill-opacity="0" />
<circle cx="199.03504645824432" cy="292.07781982421875" r="1" stroke="black" stroke-width="2" fill="none" />
<circle cx="200.2085642516613" cy="291.9557819366455" r="1" stroke="black" stroke-width="2" fill="none" />
<path d="M196.77908444404602,302.0055601596832 Q200.13225610554218,299.570151925087,203.2317636013031,302.49710488319397" stroke-width="2" stroke="black" fill="black" fill-opacity="0" />
<circle cx="153.28668975830078" cy="383.95485496520996" r="1" stroke="black" stroke-width="2" fill="none" />
<circle cx="245.89495849609375" cy="383.88434982299805" r="1" stroke="black" stroke-width="2" fill="none" />
<path d="M163.62572479248047,413.9422073364258 Q199.3999786376953,433.91630935668945,236.99600219726562,414.2372169494629" stroke-width="2" stroke="black" fill="black" fill-opacity="0" />
<circle cx="185.96985626220703" cy="493.2352542877197" r="1" stroke="black" stroke-width="2" fill="none" />
<circle cx="212.8763952255249" cy="493.6825637817383" r="1" stroke="black" stroke-width="2" fill="none" />
<path d="M189.50317668914795,500.89341950416565 Q199.8648318350315,525.4613647460938,211.66003227233887,501.0821557044983" stroke-width="2" stroke="black" fill="black" fill-opacity="0" />
<circle cx="163.15066146850586" cy="579.69677734375" r="1" stroke="black" stroke-width="2" fill="none" />
<circle cx="236.34768295288086" cy="579.6693935394287" r="1" stroke="black" stroke-width="2" fill="none" />
<path d="M169.01673316955566,597.5662322044373 Q199.3913151025772,587.4243612289429,231.11108207702637,597.5665113925934" stroke-width="2" stroke="black" fill="black" fill-opacity="0" />
<circle cx="188.47805213928223" cy="668.4995727539062" r="1" stroke="black" stroke-width="2" fill="none" />
<circle cx="212.7705078125" cy="667.5068283081055" r="1" stroke="black" stroke-width="2" fill="none" />
<path d="M180.8804473876953,696.8321716785431 Q199.9082547724247,723.754810333252,218.99887657165527,696.9069747924805" stroke-width="2" stroke="black" fill="black" fill-opacity="0" />
<circle cx="186.37717247009277" cy="754.4504699707031" r="1" stroke="black" stroke-width="2" fill="none" />
<circle cx="212.59405326843262" cy="754.6213722229004" r="1" stroke="black" stroke-width="2" fill="none" />
<path d="M179.3594150543213,760.9770393371582 Q199.48356544971466,765.5765914916992,221.7057991027832,761.862190246582" stroke-width="2" stroke="black" fill="black" fill-opacity="0" />
<circle cx="176.6681423187256" cy="887.249792098999" r="1" stroke="black" stroke-width="2" fill="none" />
<circle cx="223.57363510131836" cy="886.9771165847778" r="1" stroke="black" stroke-width="2" fill="none" />
<path d="M176.38015747070312,942.2387084960938 Q199.6527737081051,920.198169708252,223.2221164703369,942.4333877563477" stroke-width="2" stroke="black" fill="black" fill-opacity="0" />
<circle cx="263.85751724243164" cy="-19.318140029907227" r="1" stroke="black" stroke-width="2" fill="none" />
<circle cx="336.9542655944824" cy="-19.407358169555664" r="1" stroke="black" stroke-width="2" fill="none" />
<path d="M264.3494300842285,58.14942169189453 Q299.4986745119095,55.5528564453125,335.5792655944824,57.72691345214844" stroke-width="2" stroke="black" fill="black" fill-opacity="0" />
<circle cx="259.7236137390137" cy="90.59904670715332" r="1" stroke="black" stroke-width="2" fill="none" />
<circle cx="340.6851615905762" cy="90.50983142852783" r="1" stroke="black" stroke-width="2" fill="none" />
<path d="M266.14776611328125,147.71221160888672 Q299.5970283448696,147.11155319213867,333.86583709716797,147.64934921264648" stroke-width="2" stroke="black" fill="black" fill-opacity="0" />
<circle cx="285.60206413269043" cy="178.37052154541016" r="1" stroke="black" stroke-width="2" fill="none" />
<circle cx="314.69499015808105" cy="178.54863166809082" r="1" stroke="black" stroke-width="2" fill="none" />
<path d="M281.44141578674316,223.47737312316895 Q299.78184536099434,240.56583786010742,319.2682514190674,223.0705451965332" stroke-width="2" stroke="black" fill="black" fill-opacity="0" />
<circle cx="272.88219833374023" cy="264.1655044555664" r="1" stroke="black" stroke-width="2" fill="none" />
<circle cx="326.71831130981445" cy="264.4081611633301" r="1" stroke="black" stroke-width="2" fill="none" />
<path d="M268.9869575500488,320.06333923339844 Q299.61539497971535,278.9921417236328,331.43392753601074,320.0687732696533" stroke-width="2" stroke="black" fill="black" fill-opacity="0" />
<circle cx="285.72225761413574" cy="396.2121596336365" r="1" stroke="black" stroke-width="2" fill="none" />
<circle cx="313.7168073654175" cy="396.14952063560486" r="1" stroke="black" stroke-width="2" fill="none" />
<path d="M288.6817808151245,410.3820276260376 Q299.825132727623,399.715928375721,311.67707347869873,410.82274627685547" stroke-width="2" stroke="black" fill="black" fill-opacity="0" />
<circle cx="293.82743740081787" cy="474.48461723327637" r="1" stroke="black" stroke-width="2" fill="none" />
<circle cx="305.53221464157104" cy="474.8298511505127" r="1" stroke="black" stroke-width="2" fill="none" />
<path d="M289.6224298477173,482.1826114654541 Q299.8647426068783,505.2217540740967,310.56913566589355,482.1676502227783" stroke-width="2" stroke="black" fill="black" fill-opacity="0" />
<circle cx="255.76315307617188" cy="572.7390327453613" r="1" stroke="black" stroke-width="2" fill="none" />
<circle cx="345.52619552612305" cy="572.537691116333" r="1" stroke="black" stroke-width="2" fill="none" />
<path d="M254.39363479614258,677.302001953125 Q299.2956545352936,669.2697525024414,345.2785453796387,676.6815872192383" stroke-width="2" stroke="black" fill="black" fill-opacity="0" />
<circle cx="289.63373947143555" cy="658.5228424072266" r="1" stroke="black" stroke-width="2" fill="none" />
<circle cx="308.94736766815186" cy="658.8069305419922" r="1" stroke="black" stroke-width="2" fill="none" />
<path d="M282.8958168029785,665.1996650695801 Q299.5417847931385,674.1858386993408,318.0839900970459,666.110969543457" stroke-width="2" stroke="black" fill="black" fill-opacity="0" />
<circle cx="290.67832469940186" cy="775.6928596496582" r="1" stroke="black" stroke-width="2" fill="none" />
<circle cx="308.79483795166016" cy="775.4708843231201" r="1" stroke="black" stroke-width="2" fill="none" />
<path d="M286.4225244522095,796.4707944393158 Q299.9837138950825,790.768162727356,313.7762517929077,796.7210297584534" stroke-width="2" stroke="black" fill="black" fill-opacity="0" />
<circle cx="298.78924810886383" cy="880.2100410461426" r="1" stroke="black" stroke-width="2" fill="none" />
<circle cx="299.16989850997925" cy="880.7371826171875" r="1" stroke="black" stroke-width="2" fill="none" />
<path d="M294.9834671020508,886.4105625152588 Q299.8463893532753,890.2410707473755,305.44692373275757,886.9897594451904" stroke-width="2" stroke="black" fill="black" fill-opacity="0" />
<circle cx="334.51415252685547" cy="-5.458629608154297" r="1" stroke="black" stroke-width="2" fill="none" />
<circle cx="465.8645248413086" cy="-6.090180397033691" r="1" stroke="black" stroke-width="2" fill="none" />
<path d="M349.63813400268555,59.846675872802734 Q399.27953946590424,32.09833526611328,449.6588821411133,60.547088623046875" stroke-width="2" stroke="black" fill="black" fill-opacity="0" />
<circle cx="372.2551460266113" cy="60.38280487060547" r="1" stroke="black" stroke-width="2" fill="none" />
<circle cx="427.22397804260254" cy="60.693267822265625" r="1" stroke="black" stroke-width="2" fill="none" />
<path d="M368.1711826324463,113.84865760803223 Q399.64224061369896,74.4713191986084,432.60450744628906,113.86282539367676" stroke-width="2" stroke="black" fill="black" fill-opacity="0" />
<circle cx="353.57351303100586" cy="130.88128662109375" r="1" stroke="black" stroke-width="2" fill="none" />
<circle cx="445.9942398071289" cy="131.67959594726562" r="1" stroke="black" stroke-width="2" fill="none" />
<path d="M347.13991928100586,213.3600206375122 Q399.31714713573456,160.25388717651367,454.8165397644043,212.92786693572998" stroke-width="2" stroke="black" fill="black" fill-opacity="0" />
<circle cx="368.65392112731934" cy="257.8362007141113" r="1" stroke="black" stroke-width="2" fill="none" />
<circle cx="432.07200622558594" cy="258.2294807434082" r="1" stroke="black" stroke-width="2" fill="none" />
<path d="M361.2590751647949,353.0061264038086 Q399.3753592967987,352.43141174316406,439.37200927734375,351.9300193786621" stroke-width="2" stroke="black" fill="black" fill-opacity="0" />
<circle cx="371.30908584594727" cy="351.292911529541" r="1" stroke="black" stroke-width="2" fill="none" />
<circle cx="429.35369300842285" cy="351.6294479370117" r="1" stroke="black" stroke-width="2" fill="none" />
<path d="M363.555233001709,424.27445793151855 Q399.5637201368809,430.5233154296875,437.4772033691406,423.25" stroke-width="2" stroke="black" fill="black" fill-opacity="0" />
<circle cx="345.3509826660156" cy="492.3487033843994" r="1" stroke="black" stroke-width="2" fill="none" />
<circle cx="454.6126937866211" cy="492.1521816253662" r="1" stroke="black" stroke-width="2" fill="none" />
<path d="M358.2459030151367,541.0466194152832 Q399.46051585674286,544.859619140625,441.82311248779297,541.3410873413086" stroke-width="2" stroke="black" fill="black" fill-opacity="0" />
<circle cx="319.3473892211914" cy="559.2625350952148" r="1" stroke="black" stroke-width="2" fill="none" />
<circle cx="479.92589569091797" cy="559.181884765625" r="1" stroke="black" stroke-width="2" fill="none" />
<path d="M333.2812194824219,594.9067521095276 Q398.5680422782898,576.2271709442139,466.6024475097656,594.8693790435791" stroke-width="2" stroke="black" fill="black" fill-opacity="0" />
<circle cx="397.647358417511" cy="675.3680210113525" r="1" stroke="black" stroke-width="2" fill="none" />
<circle cx="400.2616865336895" cy="675.8412551879883" r="1" stroke="black" stroke-width="2" fill="none" />
<path d="M393.0875458717346,681.3591709136963 Q399.7892744243145,688.3342523574829,407.51296520233154,682.1787986755371" stroke-width="2" stroke="black" fill="black" fill-opacity="0" />
<circle cx="374.7387046813965" cy="767.5949935913086" r="1" stroke="black" stroke-width="2" fill="none" />
<circle cx="424.9830570220947" cy="767.7897071838379" r="1" stroke="black" stroke-width="2" fill="none" />
<path d="M370.8773880004883,823.8221759796143 Q399.6162934601307,786.1202783584595,429.3909969329834,823.7836837768555" stroke-width="2" stroke="black" fill="black" fill-opacity="0" />
<circle cx="398.1358666419983" cy="876.7948760986328" r="1" stroke="black" stroke-width="2" fill="none" />
<circle cx="399.52865767478943" cy="877.3319664001465" r="1" stroke="black" stroke-width="2" fill="none" />
<path d="M393.8792562484741,883.1850318908691 Q399.78363686800003,885.6106309890747,406.6762490272522,884.0763759613037" stroke-width="2" stroke="black" fill="black" fill-opacity="0" />
<circle cx="476.1035747528076" cy="-25.900909423828125" r="1" stroke="black" stroke-width="2" fill="none" />
<circle cx="524.522050857544" cy="-25.722272872924805" r="1" stroke="black" stroke-width="2" fill="none" />
<path d="M471.27978324890137,49.196739196777344 Q499.52601554989815,50.588130950927734,529.0204372406006,48.462467193603516" stroke-width="2" stroke="black" fill="black" fill-opacity="0" />
<circle cx="476.31468200683594" cy="69.42809295654297" r="1" stroke="black" stroke-width="2" fill="none" />
<circle cx="523.4391937255859" cy="69.59619331359863" r="1" stroke="black" stroke-width="2" fill="none" />
<path d="M472.42176818847656,124.73654556274414 Q499.6308395564556,89.97530937194824,527.8086242675781,124.68453216552734" stroke-width="2" stroke="black" fill="black" fill-opacity="0" />
<circle cx="469.7400493621826" cy="168.9914207458496" r="1" stroke="black" stroke-width="2" fill="none" />
<circle cx="530.8798923492432" cy="168.8230094909668" r="1" stroke="black" stroke-width="2" fill="none" />
<path d="M463.65057373046875,265.40614318847656 Q499.2837932109833,237.94965744018555,535.8034133911133,264.94358825683594" stroke-width="2" stroke="black" fill="black" fill-opacity="0" />
<circle cx="475.87170219421387" cy="278.48854064941406" r="1" stroke="black" stroke-width="2" fill="none" />
<circle cx="524.0426349639893" cy="278.72671127319336" r="1" stroke="black" stroke-width="2" fill="none" />
<path d="M477.2977104187012,291.15502071380615 Q499.6476960480213,284.9822301864624,522.5296573638916,290.85138988494873" stroke-width="2" stroke="black" fill="black" fill-opacity="0" />
<circle cx="492.5410108566284" cy="385.4945764541626" r="1" stroke="black" stroke-width="2" fill="none" />
<circle cx="507.72982358932495" cy="385.09960651397705" r="1" stroke="black" stroke-width="2" fill="none" />
<path d="M489.046217918396,406.07336711883545 Q499.89994463324547,428.4184799194336,511.2049436569214,406.35410594940186" stroke-width="2" stroke="black" fill="black" fill-opacity="0" />
<circle cx="477.9199409484863" cy="460.3350028991699" r="1" stroke="black" stroke-width="2" fill="none" />
<circle cx="521.4595890045166" cy="460.71410751342773" r="1" stroke="black" stroke-width="2" fill="none" />
<path d="M473.4690933227539,500.6791526079178 Q499.76171562075615,475.9436912536621,527.7933406829834,500.7202618718147" stroke-width="2" stroke="black" fill="black" fill-opacity="0" />
<circle cx="493.03008460998535" cy="578.3803863525391" r="1" stroke="black" stroke-width="2" fill="none" />
<circle cx="507.80861043930054" cy="577.9869747161865" r="1" stroke="black" stroke-width="2" fill="none" />
<path d="M487.8542823791504,596.5852518081665 Q499.93750086426735,611.5229740142822,512.3865604400635,596.5757455825806" stroke-width="2" stroke="black" fill="black" fill-opacity="0" />
<circle cx="495.8434085845947" cy="670.6894607543945" r="1" stroke="black" stroke-width="2" fill="none" />
<circle cx="502.26786398887634" cy="671.2171821594238" r="1" stroke="black" stroke-width="2" fill="none" />
<path d="M490.6671266555786,678.9317398071289 Q499.7573563158512,696.6450889110565,509.77796363830566,679.5751209259033" stroke-width="2" stroke="black" fill="black" fill-opacity="0" />
<circle cx="478.55910873413086" cy="785.432445526123" r="1" stroke="black" stroke-width="2" fill="none" />
<circle cx="520.876054763794" cy="785.5760316848755" r="1" stroke="black" stroke-width="2" fill="none" />
<path d="M481.1974220275879,796.5538094043732 Q499.7138245999813,788.5042161941528,518.8126411437988,796.6384522914886" stroke-width="2" stroke="black" fill="black" fill-opacity="0" />
<circle cx="482.3612537384033" cy="869.6830539703369" r="1" stroke="black" stroke-width="2" fill="none" />
<circle cx="517.9962863922119" cy="869.8320999145508" r="1" stroke="black" stroke-width="2" fill="none" />
<path d="M476.4917678833008,924.1022090911865 Q499.7086311876774,940.4781723022461,524.1452503204346,923.6018753051758" stroke-width="2" stroke="black" fill="black" fill-opacity="0" />
<circle cx="562.3587799072266" cy="-12.770447731018066" r="1" stroke="black" stroke-width="2" fill="none" />
<circle cx="638.1674385070801" cy="-12.846088409423828" r="1" stroke="black" stroke-width="2" fill="none" />
<path d="M566.4588813781738,50.09047317504883 Q599.5763089954853,49.264278411865234,633.5494842529297,49.89601516723633" stroke-width="2" stroke="black" fill="black" fill-opacity="0" />
<circle cx="577.0157718658447" cy="57.11184310913086" r="1" stroke="black" stroke-width="2" fill="none" />
<circle cx="622.87380027771" cy="57.339942932128906" r="1" stroke="black" stroke-width="2" fill="none" />
<path d="M573.1054439544678,67.64133834838867 Q599.4176706075668,60.38322448730469,627.4568176269531,68.0515022277832" stroke-width="2" stroke="black" fill="black" fill-opacity="0" />
<circle cx="597.5424091815948" cy="174.900484085083" r="1" stroke="black" stroke-width="2" fill="none" />
<circle cx="600.0432467758656" cy="175.42044067382812" r="1" stroke="black" stroke-width="2" fill="none" />
<path d="M593.0172624588013,181.40933418273926 Q599.7519930303097,183.1705093383789,607.5831241607666,182.37916946411133" stroke-width="2" stroke="black" fill="black" fill-opacity="0" />
<circle cx="598.7393695116043" cy="279.42419052124023" r="1" stroke="black" stroke-width="2" fill="none" />
<circle cx="599.1145890951157" cy="279.9584541320801" r="1" stroke="black" stroke-width="2" fill="none" />
<path d="M594.8224053382874,285.64347553253174 Q599.830757021904,289.1084394454956,605.646692276001,286.31482887268066" stroke-width="2" stroke="black" fill="black" fill-opacity="0" />
<circle cx="577.3679866790771" cy="370.2929344177246" r="1" stroke="black" stroke-width="2" fill="none" />
<circle cx="622.3216705322266" cy="370.4777183532715" r="1" stroke="black" stroke-width="2" fill="none" />
<path d="M573.6668720245361,422.201114654541 Q599.6592395603657,387.95244312286377,626.6078720092773,422.1969814300537" stroke-width="2" stroke="black" fill="black" fill-opacity="0" />
<circle cx="599.0297347307205" cy="496.0962142944336" r="1" stroke="black" stroke-width="2" fill="none" />
<circle cx="600.1101226508617" cy="496.0855278968811" r="1" stroke="black" stroke-width="2" fill="none" />
<path d="M597.90371966362,504.8344192504883 Q600.1261051446199,504.6933026313782,602.2597141265869,505.3407564163208" stroke-width="2" stroke="black" fill="black" fill-opacity="0" />
<circle cx="526.8757858276367" cy="580.143476486206" r="1" stroke="black" stroke-width="2" fill="none" />
<circle cx="673.4842147827148" cy="579.3989353179932" r="1" stroke="black" stroke-width="2" fill="none" />
<path d="M541.9130516052246,631.318437576294 Q598.8237125873566,600.2337395101786,658.163459777832,631.408727645874" stroke-width="2" stroke="black" fill="black" fill-opacity="0" />
<circle cx="597.3085479736328" cy="673.4059982299805" r="1" stroke="black" stroke-width="2" fill="none" />
<circle cx="600.335429340601" cy="673.9356822967529" r="1" stroke="black" stroke-width="2" fill="none" />
<path d="M592.4876251220703,679.9762916564941 Q599.7389030754566,685.3310880661011,608.1660957336426,680.9270248413086" stroke-width="2" stroke="black" fill="black" fill-opacity="0" />
<circle cx="590.3865547180176" cy="771.7584915161133" r="1" stroke="black" stroke-width="2" fill="none" />
<circle cx="609.5960483551025" cy="771.6173267364502" r="1" stroke="black" stroke-width="2" fill="none" />
<path d="M584.7042722702026,794.617395401001 Q599.8238183557987,803.4269185066223,615.5029830932617,794.8241777420044" stroke-width="2" stroke="black" fill="black" fill-opacity="0" />
<circle cx="586.9328308105469" cy="886.4150915145874" r="1" stroke="black" stroke-width="2" fill="none" />
<circle cx="613.0117645263672" cy="886.3308229446411" r="1" stroke="black" stroke-width="2" fill="none" />
<path d="M583.9995613098145,931.6912097930908 Q599.7250225841999,912.9003067016602,615.8974351882935,931.8127479553223" stroke-width="2" stroke="black" fill="black" fill-opacity="0" />
<circle cx="641.4704208374023" cy="-41.200721740722656" r="1" stroke="black" stroke-width="2" fill="none" />
<circle cx="759.5997581481934" cy="-41.28184509277344" r="1" stroke="black" stroke-width="2" fill="none" />
<path d="M647.9433097839355,-17.710102081298828 Q699.1740952730179,-30.706647872924805,751.4616508483887,-18.229068756103516" stroke-width="2" stroke="black" fill="black" fill-opacity="0" />
<circle cx="656.9652366638184" cy="81.03061485290527" r="1" stroke="black" stroke-width="2" fill="none" />
<circle cx="742.5668334960938" cy="80.70736312866211" r="1" stroke="black" stroke-width="2" fill="none" />
<path d="M665.0985374450684,103.33136081695557 Q699.1711488962173,89.33365058898926,735.5617294311523,103.40162825584412" stroke-width="2" stroke="black" fill="black" fill-opacity="0" />
<circle cx="655.2170372009277" cy="196.89000606536865" r="1" stroke="black" stroke-width="2" fill="none" />
<circle cx="745.0803756713867" cy="196.4488878250122" r="1" stroke="black" stroke-width="2" fill="none" />
<path d="M664.966381072998,248.85211181640625 Q699.5519867241383,223.2307300567627,734.4911155700684,249.39181900024414" stroke-width="2" stroke="black" fill="black" fill-opacity="0" />
<circle cx="687.1853618621826" cy="254.0679054260254" r="1" stroke="black" stroke-width="2" fill="none" />
<circle cx="711.1135501861572" cy="254.59410095214844" r="1" stroke="black" stroke-width="2" fill="none" />
<path d="M680.1978988647461,262.0617027282715 Q699.3279693126678,257.7979278564453,720.9899368286133,263.1946487426758" stroke-width="2" stroke="black" fill="black" fill-opacity="0" />
<circle cx="696.8708126544952" cy="394.7976746559143" r="1" stroke="black" stroke-width="2" fill="none" />
<circle cx="702.4196727275848" cy="394.93291091918945" r="1" stroke="black" stroke-width="2" fill="none" />
<path d="M696.5826196670532,398.52006793022156 Q700.1056427806616,396.83603048324585,703.576441526413,398.66995072364807" stroke-width="2" stroke="black" fill="black" fill-opacity="0" />
<circle cx="697.405436038971" cy="490.1664009094238" r="1" stroke="black" stroke-width="2" fill="none" />
<circle cx="701.9745965003967" cy="490.35657119750977" r="1" stroke="black" stroke-width="2" fill="none" />
<path d="M695.8066539764404,494.4265775680542 Q700.0749890357256,496.5662066936493,704.3509097099304,494.44558811187744" stroke-width="2" stroke="black" fill="black" fill-opacity="0" />
<circle cx="684.6299047470093" cy="579.1337242126465" r="1" stroke="black" stroke-width="2" fill="none" />
<circle cx="715.6641283035278" cy="579.4850902557373" r="1" stroke="black" stroke-width="2" fill="none" />
<path d="M680.8439807891846,628.6292877197266 Q699.7611845433712,642.898509979248,720.0554695129395,628.085994720459" stroke-width="2" stroke="black" fill="black" fill-opacity="0" />
<circle cx="695.1056575775146" cy="681.5711612701416" r="1" stroke="black" stroke-width="2" fill="none" />
<circle cx="704.7148003578186" cy="681.6975994110107" r="1" stroke="black" stroke-width="2" fill="none" />
<path d="M691.1423282623291,696.5018312931061 Q699.9012017846107,700.1060326695442,709.0969543457031,696.755734205246" stroke-width="2" stroke="black" fill="black" fill-opacity="0" />
<circle cx="687.6548156738281" cy="767.9468955993652" r="1" stroke="black" stroke-width="2" fill="none" />
<circle cx="712.0295543670654" cy="767.7486305236816" r="1" stroke="black" stroke-width="2" fill="none" />
<path d="M681.9848327636719,793.7432990074158 Q699.8331525027752,792.9572229385376,718.4089756011963,794.1329817771912" stroke-width="2" stroke="black" fill="black" fill-opacity="0" />
<circle cx="696.3233997821808" cy="870.8646030426025" r="1" stroke="black" stroke-width="2" fill="none" />
<circle cx="701.0474967956543" cy="871.3769130706787" r="1" stroke="black" stroke-width="2" fill="none" />
<path d="M691.2251377105713,877.8813438415527 Q699.6773764789104,878.2927742004395,709.4570140838623,878.9848194122314" stroke-width="2" stroke="black" fill="black" fill-opacity="0" />
<circle cx="780.8135890960693" cy="-28.96701431274414" r="1" stroke="black" stroke-width="2" fill="none" />
<circle cx="818.6875877380371" cy="-28.74527359008789" r="1" stroke="black" stroke-width="2" fill="none" />
<path d="M777.1721687316895,13.852264404296875 Q799.7669522464275,-15.308915138244629,823.3119888305664,13.914620399475098" stroke-width="2" stroke="black" fill="black" fill-opacity="0" />
<circle cx="790.6104440689087" cy="75.74602890014648" r="1" stroke="black" stroke-width="2" fill="none" />
<circle cx="810.2553071975708" cy="74.78228187561035" r="1" stroke="black" stroke-width="2" fill="none" />
<path d="M784.6240081787109,98.87601482868195 Q799.9732475876808,123.33362579345703,815.3410444259644,99.06044852733612" stroke-width="2" stroke="black" fill="black" fill-opacity="0" />
<circle cx="790.0693836212158" cy="182.6656608581543" r="1" stroke="black" stroke-width="2" fill="none" />
<circle cx="810.1552257537842" cy="182.50224494934082" r="1" stroke="black" stroke-width="2" fill="none" />
<path d="M786.2947444915771,211.7379856109619 Q799.8781064152718,233.98394775390625,814.0724430084229,211.69106101989746" stroke-width="2" stroke="black" fill="black" fill-opacity="0" />
<circle cx="755.9029159545898" cy="265.36084747314453" r="1" stroke="black" stroke-width="2" fill="none" />
<circle cx="845.0951690673828" cy="265.3491439819336" r="1" stroke="black" stroke-width="2" fill="none" />
<path d="M759.698314666748,283.90624618530273 Q799.3928376436234,274.27775382995605,839.8531074523926,283.33576583862305" stroke-width="2" stroke="black" fill="black" fill-opacity="0" />
<circle cx="769.2513427734375" cy="363.3877830505371" r="1" stroke="black" stroke-width="2" fill="none" />
<circle cx="830.9088363647461" cy="363.45423126220703" r="1" stroke="black" stroke-width="2" fill="none" />
<path d="M764.1072425842285,440.6943664550781 Q799.4488137960434,402.2685546875,835.8483810424805,440.33194732666016" stroke-width="2" stroke="black" fill="black" fill-opacity="0" />
<circle cx="798.7439138889313" cy="479.40539360046387" r="1" stroke="black" stroke-width="2" fill="none" />
<circle cx="799.1292524337769" cy="479.923490524292" r="1" stroke="black" stroke-width="2" fill="none" />
<path d="M794.8346700668335,485.48150157928467 Q799.835777759552,489.1594533920288,805.6404023170471,486.1853036880493" stroke-width="2" stroke="black" fill="black" fill-opacity="0" />
<circle cx="763.871509552002" cy="540.3976173400879" r="1" stroke="black" stroke-width="2" fill="none" />
<circle cx="836.7497673034668" cy="540.9818687438965" r="1" stroke="black" stroke-width="2" fill="none" />
<path d="M755.8890075683594,620.0524578094482 Q799.4606708288193,613.1171493530273,845.6679039001465,618.911449432373" stroke-width="2" stroke="black" fill="black" fill-opacity="0" />
<circle cx="793.433572769165" cy="693.0889272689819" r="1" stroke="black" stroke-width="2" fill="none" />
<circle cx="806.3334851264954" cy="692.9742889404297" r="1" stroke="black" stroke-width="2" fill="none" />
<path d="M792.1697731018066,710.5151176452637 Q799.9414077401161,730.3692150115967,808.2991991043091,710.7420282363892" stroke-width="2" stroke="black" fill="black" fill-opacity="0" />
<circle cx="776.8497219085693" cy="767.2886734008789" r="1" stroke="black" stroke-width="2" fill="none" />
<circle cx="823.6107158660889" cy="767.6611709594727" r="1" stroke="black" stroke-width="2" fill="none" />
<path d="M770.8551578521729,840.9290466308594 Q799.5721025168896,847.0077590942383,829.8374538421631,840.1246910095215" stroke-width="2" stroke="black" fill="black" fill-opacity="0" />
<circle cx="789.4429416656494" cy="871.1248779296875" r="1" stroke="black" stroke-width="2" fill="none" />
<circle cx="811.8712701797485" cy="870.2488174438477" r="1" stroke="black" stroke-width="2" fill="none" />
<path d="M782.5275745391846,896.0358409881592 Q799.913681268692,920.9568119049072,817.5509281158447,895.9825620651245" stroke-width="2" stroke="black" fill="black" fill-opacity="0" />
<circle cx="848.2302322387695" cy="-14.17943000793457" r="1" stroke="black" stroke-width="2" fill="none" />
<circle cx="951.1885299682617" cy="-14.315080642700195" r="1" stroke="black" stroke-width="2" fill="none" />
<path d="M859.9248962402344,23.42723846435547 Q899.3797298669815,38.427398681640625,940.5051193237305,23.743711471557617" stroke-width="2" stroke="black" fill="black" fill-opacity="0" />
<circle cx="882.516674041748" cy="79.70081329345703" r="1" stroke="black" stroke-width="2" fill="none" />
<circle cx="917.0323066711426" cy="80.19801139831543" r="1" stroke="black" stroke-width="2" fill="none" />
<path d="M883.4558792114258,89.01826477050781 Q899.7985642552376,124.14451026916504,917.2165832519531,88.71827411651611" stroke-width="2" stroke="black" fill="black" fill-opacity="0" />
<circle cx="896.9680948257446" cy="173.0443058013916" r="1" stroke="black" stroke-width="2" fill="none" />
<circle cx="900.4759868085384" cy="173.56165313720703" r="1" stroke="black" stroke-width="2" fill="none" />
<path d="M892.2004342079163,179.96214866638184 Q899.7184851467609,180.8386287689209,908.4119424819946,180.99873161315918" stroke-width="2" stroke="black" fill="black" fill-opacity="0" />
<circle cx="886.38010597229" cy="273.7677936553955" r="1" stroke="black" stroke-width="2" fill="none" />
<circle cx="912.9907703399658" cy="274.0448341369629" r="1" stroke="black" stroke-width="2" fill="none" />
<path d="M882.7903690338135,305.70022106170654 Q899.8839374184608,286.8124485015869,918.0062026977539,305.7907085418701" stroke-width="2" stroke="black" fill="black" fill-opacity="0" />
<circle cx="854.6216697692871" cy="347.21141815185547" r="1" stroke="black" stroke-width="2" fill="none" />
<circle cx="945.4373664855957" cy="347.4479446411133" r="1" stroke="black" stroke-width="2" fill="none" />
<path d="M849.2525787353516,439.8874816894531 Q899.2634699344635,377.51783752441406,950.8989524841309,439.5218276977539" stroke-width="2" stroke="black" fill="black" fill-opacity="0" />
<circle cx="853.9706878662109" cy="449.20343017578125" r="1" stroke="black" stroke-width="2" fill="none" />
<circle cx="947.1531791687012" cy="449.22501373291016" r="1" stroke="black" stroke-width="2" fill="none" />
<path d="M846.0088157653809,575.1720199584961 Q899.0071967840195,533.1304626464844,953.7213478088379,574.0128402709961" stroke-width="2" stroke="black" fill="black" fill-opacity="0" />
<circle cx="898.2464673519135" cy="577.1829433441162" r="1" stroke="black" stroke-width="2" fill="none" />
<circle cx="899.4205294251442" cy="577.7316379547119" r="1" stroke="black" stroke-width="2" fill="none" />
<path d="M894.0321764945984,583.6312808990479 Q899.7865127027035,586.0154056549072,906.5106182098389,584.4777870178223" stroke-width="2" stroke="black" fill="black" fill-opacity="0" />
<circle cx="896.4701755046844" cy="690.9729013442993" r="1" stroke="black" stroke-width="2" fill="none" />
<circle cx="903.535284280777" cy="690.6473655700684" r="1" stroke="black" stroke-width="2" fill="none" />
<path d="M893.8350172042847,703.9401211738586 Q900.0542517155409,716.9869117736816,906.2899990081787,704.345380783081" stroke-width="2" stroke="black" fill="black" fill-opacity="0" />
<circle cx="894.0588397979736" cy="763.7267303466797" r="1" stroke="black" stroke-width="2" fill="none" />
<circle cx="903.6180403232574" cy="764.2009124755859" r="1" stroke="black" stroke-width="2" fill="none" />
<path d="M887.7530565261841,770.7489166259766 Q899.5884381830692,778.6040668487549,913.1636619567871,771.8960285186768" stroke-width="2" stroke="black" fill="black" fill-opacity="0" />
<circle cx="895.630334854126" cy="878.2593631744385" r="1" stroke="black" stroke-width="2" fill="none" />
<circle cx="902.7239894866943" cy="878.7549533843994" r="1" stroke="black" stroke-width="2" fill="none" />
<path d="M891.9807815551758,885.568115234375 Q899.8041469454765,886.4943742752075,908.3709936141968,885.9433212280273" stroke-width="2" stroke="black" fill="black" fill-opacity="0" />
<path d="M-50,50 L950,50" stroke="black" />
<path d="M50,-50 L50,950" stroke="black" />
<path d="M-50,150 L950,150" stroke="black" />
<path d="M150,-50 L150,950" stroke="black" />
<path d="M-50,250 L950,250" stroke="black" />
<path d="M250,-50 L250,950" stroke="black" />
<path d="M-50,350 L950,350" stroke="black" />
<path d="M350,-50 L350,950" stroke="black" />
<path d="M-50,450 L950,450" stroke="black" />
<path d="M450,-50 L450,950" stroke="black" />
<path d="M-50,550 L950,550" stroke="black" />
<path d="M550,-50 L550,950" stroke="black" />
<path d="M-50,650 L950,650" stroke="black" />
<path d="M650,-50 L650,950" stroke="black" />
<path d="M-50,750 L950,750" stroke="black" />
<path d="M750,-50 L750,950" stroke="black" />
<path d="M-50,850 L950,850" stroke="black" />
<path d="M850,-50 L850,950" stroke="black" />
</svg>