<?xml version="1.0" encoding="UTF-8"?>
<svg xmlns="http://www.w3.org/2000/svg" xmlns:xlink="http://www.w3.org/1999/xlink"
     width="1000" height="1000" viewBox="-50 -50 1000 1000" diplayInline="False">
<defs>
</defs>
<circle cx="-24.303489685058594" cy="-30.35102081298828" r="1" stroke="black" stroke-width="2" fill="none" />
<circle cx="24.328365325927734" cy="-30.150726318359375" r="1" stroke="black" stroke-width="2" fill="none" />
<path d="M-24.32619285583496,36.16909408569336 Q0.03266423940658569,-0.7977309823036194,24.626632690429688,36.25109100341797" stroke-width="2" stroke="black" fill="black" fill-opacity="0" />
<circle cx="-24.88396453857422" cy="74.81786918640137" r="1" stroke="black" stroke-width="2" fill="none" />
<circle cx="24.588382720947266" cy="75.32839393615723" r="1" stroke="black" stroke-width="2" fill="none" />
<path d="M-24.694772720336914,138.48424911499023 Q0.06079445779323578,108.02832126617432,25.545761108398438,138.62100219726562" stroke-width="2" stroke="black" fill="black" fill-opacity="0" />
<circle cx="-25.968658447265625" cy="181.2642879486084" r="1" stroke="black" stroke-width="2" fill="none" />
<circle cx="26.067785263061523" cy="181.28239822387695" r="1" stroke="black" stroke-width="2" fill="none" />
<path d="M-26.528141021728516,239.09037399291992 Q0.09539665281772614,220.43935585021973,26.965951919555664,239.22078323364258" stroke-width="2" stroke="black" fill="black" fill-opacity="0" />
<circle cx="-27.10786247253418" cy="286.54347229003906" r="1" stroke="black" stroke-width="2" fill="none" />
<circle cx="27.530406951904297" cy="286.2588987350464" r="1" stroke="black" stroke-width="2" fill="none" />
<path d="M-28.553407669067383,334.77441024780273 Q0.01790758967399597,331.86300468444824,28.01270866394043,334.51941680908203" stroke-width="2" stroke="black" fill="black" fill-opacity="0" />
<circle cx="-26.88289451599121" cy="385.33679389953613" r="1" stroke="black" stroke-width="2" fill="none" />
<circle cx="26.8790283203125" cy="385.1140365600586" r="1" stroke="black" stroke-width="2" fill="none" />
<path d="M-27.865148544311523,421.6975727081299 Q0.04667702317237854,432.9813232421875,27.379484176635742,421.6186943054199" stroke-width="2" stroke="black" fill="black" fill-opacity="0" />
<circle cx="-26.572307586669922" cy="482.843355178833" r="1" stroke="black" stroke-width="2" fill="none" />
<circle cx="26.195810317993164" cy="482.74537658691406" r="1" stroke="black" stroke-width="2" fill="none" />
<path d="M-27.21872329711914,507.98918294906616 Q0.07550740242004395,533.3780517578125,26.919450759887695,508.01775646209717" stroke-width="2" stroke="black" fill="black" fill-opacity="0" />
<circle cx="-25.7913818359375" cy="574.0372428894043" r="1" stroke="black" stroke-width="2" fill="none" />
<circle cx="25.819074630737305" cy="574.3694133758545" r="1" stroke="black" stroke-width="2" fill="none" />
<path d="M-27.18073081970215,593.9691662788391 Q0.09058314561843872,630.2753143310547,27.669775009155273,593.798418045044" stroke-width="2" stroke="black" fill="black" fill-opacity="0" />
<circle cx="-25.319623947143555" cy="662.8818168640137" r="1" stroke="black" stroke-width="2" fill="none" />
<circle cx="25.7745361328125" cy="663.6089515686035" r="1" stroke="black" stroke-width="2" fill="none" />
<path d="M-27.7293701171875,675.8722705841064 Q0.058847665786743164,726.8638038635254,28.87225341796875,675.3561382293701" stroke-width="2" stroke="black" fill="black" fill-opacity="0" />
<circle cx="-23.501340866088867" cy="761.3953552246094" r="1" stroke="black" stroke-width="2" fill="none" />
<circle cx="23.029537200927734" cy="760.5756797790527" r="1" stroke="black" stroke-width="2" fill="none" />
<path d="M-26.52877426147461,774.7008075714111 Q-0.05228029191493988,791.6173963546753,25.242979049682617,775.0775032043457" stroke-width="2" stroke="black" fill="black" fill-opacity="0" />
<circle cx="-23.744443893432617" cy="864.7269744873047" r="1" stroke="black" stroke-width="2" fill="none" />
<circle cx="23.30799102783203" cy="864.1457977294922" r="1" stroke="black" stroke-width="2" fill="none" />
<path d="M-26.309724807739258,886.5068798065186 Q0.006642743945121765,884.5072755813599,25.343740463256836,886.8448934555054" stroke-width="2" stroke="black" fill="black" fill-opacity="0" />
<circle cx="75.74752616882324" cy="-30.292585372924805" r="1" stroke="black" stroke-width="2" fill="none" />
<circle cx="124.27700996398926" cy="-30.092649459838867" r="1" stroke="black" stroke-width="2" fill="none" />
<path d="M75.72527313232422,36.08964538574219 Q100.0321303755045,-0.803246796131134,124.5740852355957,36.17110061645508" stroke-width="2" stroke="black" fill="black" fill-opacity="0" />
<circle cx="75.16592597961426" cy="74.87920951843262" r="1" stroke="black" stroke-width="2" fill="none" />
<circle cx="124.53791427612305" cy="75.38960647583008" r="1" stroke="black" stroke-width="2" fill="none" />
<path d="M75.35571098327637,138.40755081176758 Q100.06029590964317,108.02923679351807,125.4946060180664,138.54381942749023" stroke-width="2" stroke="black" fill="black" fill-opacity="0" />
<circle cx="74.08039474487305" cy="181.32558822631836" r="1" stroke="black" stroke-width="2" fill="none" />
<circle cx="126.02063369750977" cy="181.3411865234375" r="1" stroke="black" stroke-width="2" fill="none" />
<path d="M73.5185604095459,239.00757598876953 Q100.09489226341248,220.44489860534668,126.91551208496094,239.137451171875" stroke-width="2" stroke="black" fill="black" fill-opacity="0" />
<circle cx="72.94602966308594" cy="286.57001876831055" r="1" stroke="black" stroke-width="2" fill="none" />
<circle cx="127.47600173950195" cy="286.28657245635986" r="1" stroke="black" stroke-width="2" fill="none" />
<path d="M71.50308036804199,334.6936836242676 Q100.0174072086811,331.8041362762451,127.95624732971191,334.43909454345703" stroke-width="2" stroke="black" fill="black" fill-opacity="0" />
<circle cx="73.16855812072754" cy="385.36118030548096" r="1" stroke="black" stroke-width="2" fill="none" />
<circle cx="126.82625579833984" cy="385.13928508758545" r="1" stroke="black" stroke-width="2" fill="none" />
<path d="M72.18988418579102,421.6250457763672 Q100.04632505774498,432.92090606689453,127.32568168640137,421.5469284057617" stroke-width="2" stroke="black" fill="black" fill-opacity="0" />
<circle cx="73.48213577270508" cy="482.8414878845215" r="1" stroke="black" stroke-width="2" fill="none" />
<circle cx="126.14366340637207" cy="482.7455749511719" r="1" stroke="black" stroke-width="2" fill="none" />
<path d="M72.83426475524902,507.9165539741516 Q100.074960693717,533.3011207580566,126.8696460723877,507.9447121620178" stroke-width="2" stroke="black" fill="black" fill-opacity="0" />
<circle cx="74.27446365356445" cy="574.054780960083" r="1" stroke="black" stroke-width="2" fill="none" />
<circle cx="125.7548999786377" cy="574.3887767791748" r="1" stroke="black" stroke-width="2" fill="none" />
<path d="M72.88532447814941,593.9130339622498 Q100.0900337100029,630.1871738433838,127.60666084289551,593.7417459487915" stroke-width="2" stroke="black" fill="black" fill-opacity="0" />
<circle cx="74.75281524658203" cy="662.9006958007812" r="1" stroke="black" stroke-width="2" fill="none" />
<circle cx="125.70634269714355" cy="663.6277770996094" r="1" stroke="black" stroke-width="2" fill="none" />
<path d="M72.33796310424805,675.801399230957 Q100.05997525155544,726.7338848114014,128.80001258850098,675.2842655181885" stroke-width="2" stroke="black" fill="black" fill-opacity="0" />
<circle cx="76.55455017089844" cy="761.4888610839844" r="1" stroke="black" stroke-width="2" fill="none" />
<circle cx="122.96368408203125" cy="760.6542510986328" r="1" stroke="black" stroke-width="2" fill="none" />
<path d="M73.5322093963623,774.8441734313965 Q99.9484226629138,791.2120141983032,125.16195869445801,775.2318325042725" stroke-width="2" stroke="black" fill="black" fill-opacity="0" />
<circle cx="76.26411819458008" cy="864.8282356262207" r="1" stroke="black" stroke-width="2" fill="none" />
<circle cx="123.30868911743164" cy="864.2632293701172" r="1" stroke="black" stroke-width="2" fill="none" />
<path d="M73.71138954162598,886.7450094223022 Q100.00668965280056,884.6199159622192,125.34257316589355,887.072904586792" stroke-width="2" stroke="black" fill="black" fill-opacity="0" />
<circle cx="175.7985382080078" cy="-30.234148025512695" r="1" stroke="black" stroke-width="2" fill="none" />
<circle cx="224.22565269470215" cy="-30.034568786621094" r="1" stroke="black" stroke-width="2" fill="none" />
<path d="M175.77673530578613,36.01019287109375 Q200.03159748017788,-0.8087584376335144,224.52154159545898,36.09111022949219" stroke-width="2" stroke="black" fill="black" fill-opacity="0" />
<circle cx="175.21582221984863" cy="74.94055938720703" r="1" stroke="black" stroke-width="2" fill="none" />
<circle cx="224.4874439239502" cy="75.4508285522461" r="1" stroke="black" stroke-width="2" fill="none" />
<path d="M175.4061985015869,138.33085250854492 Q200.05979771912098,108.03014945983887,225.44344520568848,138.46663284301758" stroke-width="2" stroke="black" fill="black" fill-opacity="0" />
<circle cx="174.12944984436035" cy="181.38689041137695" r="1" stroke="black" stroke-width="2" fill="none" />
<circle cx="225.97348594665527" cy="181.3999786376953" r="1" stroke="black" stroke-width="2" fill="none" />
<path d="M173.56526565551758,238.9247817993164 Q200.0943877249956,220.45044326782227,226.86507415771484,239.05411911010742" stroke-width="2" stroke="black" fill="black" fill-opacity="0" />
<circle cx="173.00192642211914" cy="286.59735584259033" r="1" stroke="black" stroke-width="2" fill="none" />
<circle cx="227.4193630218506" cy="286.315052986145" r="1" stroke="black" stroke-width="2" fill="none" />
<path d="M171.5619297027588,334.61253356933594 Q200.01691181957722,331.74191093444824,227.89774703979492,334.3584098815918" stroke-width="2" stroke="black" fill="black" fill-opacity="0" />
<circle cx="173.22001266479492" cy="385.38556575775146" r="1" stroke="black" stroke-width="2" fill="none" />
<circle cx="226.7734775543213" cy="385.164532661438" r="1" stroke="black" stroke-width="2" fill="none" />
<path d="M172.2449188232422,421.552526473999 Q200.0459744334221,432.86046981811523,227.27187538146973,421.47515869140625" stroke-width="2" stroke="black" fill="black" fill-opacity="0" />
<circle cx="173.53657722473145" cy="482.8396110534668" r="1" stroke="black" stroke-width="2" fill="none" />
<circle cx="226.09151458740234" cy="482.7457695007324" r="1" stroke="black" stroke-width="2" fill="none" />
<path d="M172.88724899291992,507.8439197540283 Q200.07441475987434,533.224193572998,226.8198471069336,507.87166595458984" stroke-width="2" stroke="black" fill="black" fill-opacity="0" />
<circle cx="174.34030151367188" cy="574.0723209381104" r="1" stroke="black" stroke-width="2" fill="none" />
<circle cx="225.6907253265381" cy="574.4081363677979" r="1" stroke="black" stroke-width="2" fill="none" />
<path d="M172.95138359069824,593.856903553009 Q200.08948470652103,630.0990333557129,227.54354667663574,593.6850762367249" stroke-width="2" stroke="black" fill="black" fill-opacity="0" />
<circle cx="174.82274627685547" cy="662.9200973510742" r="1" stroke="black" stroke-width="2" fill="none" />
<circle cx="225.64420890808105" cy="663.6491851806641" r="1" stroke="black" stroke-width="2" fill="none" />
<path d="M172.3997039794922,675.7510566711426 Q200.06303550302982,726.5972518920898,228.7318344116211,675.2328109741211" stroke-width="2" stroke="black" fill="black" fill-opacity="0" />
<circle cx="176.61231803894043" cy="761.5846786499023" r="1" stroke="black" stroke-width="2" fill="none" />
<circle cx="222.89713859558105" cy="760.7370834350586" r="1" stroke="black" stroke-width="2" fill="none" />
<path d="M173.5954990386963,774.9794635772705 Q199.94895543903112,790.8538961410522,225.0810775756836,775.3766479492188" stroke-width="2" stroke="black" fill="black" fill-opacity="0" />
<circle cx="176.27267456054688" cy="864.9294853210449" r="1" stroke="black" stroke-width="2" fill="none" />
<circle cx="223.30939102172852" cy="864.3806533813477" r="1" stroke="black" stroke-width="2" fill="none" />
<path d="M173.73250007629395,886.9831447601318 Q200.0067375600338,884.7325458526611,225.34140968322754,887.3009281158447" stroke-width="2" stroke="black" fill="black" fill-opacity="0" />
<circle cx="275.849552154541" cy="-30.175710678100586" r="1" stroke="black" stroke-width="2" fill="none" />
<circle cx="324.17430114746094" cy="-29.97648811340332" r="1" stroke="black" stroke-width="2" fill="none" />
<path d="M275.82819747924805,35.93074417114258 Q300.0310632735491,-0.8142719864845276,324.468994140625,36.0111198425293" stroke-width="2" stroke="black" fill="black" fill-opacity="0" />
<circle cx="275.2657127380371" cy="75.00190162658691" r="1" stroke="black" stroke-width="2" fill="none" />
<circle cx="324.436975479126" cy="75.51204299926758" r="1" stroke="black" stroke-width="2" fill="none" />
<path d="M275.45667839050293,138.2541618347168 Q300.05929857492447,108.03107166290283,325.39229011535645,138.38944625854492" stroke-width="2" stroke="black" fill="black" fill-opacity="0" />
<circle cx="274.17849922180176" cy="181.44818687438965" r="1" stroke="black" stroke-width="2" fill="none" />
<circle cx="325.9263381958008" cy="181.45876502990723" r="1" stroke="black" stroke-width="2" fill="none" />
<path d="M273.611967086792,238.84198760986328 Q300.09388414025307,220.45598030090332,326.8146343231201,238.9707908630371" stroke-width="2" stroke="black" fill="black" fill-opacity="0" />
<circle cx="273.0578212738037" cy="286.62469577789307" r="1" stroke="black" stroke-width="2" fill="none" />
<circle cx="327.36272621154785" cy="286.3435354232788" r="1" stroke="black" stroke-width="2" fill="none" />
<path d="M271.6207733154297,334.53138732910156 Q300.0164187848568,331.67969512939453,327.8392505645752,334.2777214050293" stroke-width="2" stroke="black" fill="black" fill-opacity="0" />
<circle cx="273.2714653015137" cy="385.40995025634766" r="1" stroke="black" stroke-width="2" fill="none" />
<circle cx="326.720703125" cy="385.1897792816162" r="1" stroke="black" stroke-width="2" fill="none" />
<path d="M272.2999515533447,421.4800052642822 Q300.04562243819237,432.80004501342773,327.2180709838867,421.4033946990967" stroke-width="2" stroke="black" fill="black" fill-opacity="0" />
<circle cx="273.5910186767578" cy="482.8377380371094" r="1" stroke="black" stroke-width="2" fill="none" />
<circle cx="326.0393657684326" cy="482.7459659576416" r="1" stroke="black" stroke-width="2" fill="none" />
<path d="M272.9402313232422,507.7712936401367 Q300.0738678276539,533.1472625732422,326.7700443267822,507.79862546920776" stroke-width="2" stroke="black" fill="black" fill-opacity="0" />
<circle cx="274.4061393737793" cy="574.0898532867432" r="1" stroke="black" stroke-width="2" fill="none" />
<circle cx="325.62655448913574" cy="574.427490234375" r="1" stroke="black" stroke-width="2" fill="none" />
<path d="M273.0174331665039,593.8007636070251 Q300.0889356583357,630.0108966827393,327.48043632507324,593.6283979415894" stroke-width="2" stroke="black" fill="black" fill-opacity="0" />
<circle cx="274.89267349243164" cy="662.9394874572754" r="1" stroke="black" stroke-width="2" fill="none" />
<circle cx="325.58206939697266" cy="663.670597076416" r="1" stroke="black" stroke-width="2" fill="none" />
<path d="M272.4614448547363,675.7007217407227 Q300.06609493494034,726.460620880127,328.66365242004395,675.1813640594482" stroke-width="2" stroke="black" fill="black" fill-opacity="0" />
<circle cx="276.6772270202637" cy="761.6918067932129" r="1" stroke="black" stroke-width="2" fill="none" />
<circle cx="322.82533264160156" cy="760.8344535827637" r="1" stroke="black" stroke-width="2" fill="none" />
<path d="M273.66730880737305,775.1087894439697 Q299.94924227148294,790.5692844390869,324.9957523345947,775.513261795044" stroke-width="2" stroke="black" fill="black" fill-opacity="0" />
<circle cx="276.28123664855957" cy="865.0307388305664" r="1" stroke="black" stroke-width="2" fill="none" />
<circle cx="323.31009101867676" cy="864.4980773925781" r="1" stroke="black" stroke-width="2" fill="none" />
<path d="M273.75361251831055,887.2212753295898 Q300.00678515434265,884.8451843261719,325.3402442932129,887.5289402008057" stroke-width="2" stroke="black" fill="black" fill-opacity="0" />
<circle cx="375.9005661010742" cy="-30.11726951599121" r="1" stroke="black" stroke-width="2" fill="none" />
<circle cx="424.1229419708252" cy="-29.918407440185547" r="1" stroke="black" stroke-width="2" fill="none" />
<path d="M375.8796577453613,35.851295471191406 Q400.0305296033621,-0.8197864890098572,424.41644859313965,35.93113327026367" stroke-width="2" stroke="black" fill="black" fill-opacity="0" />
<circle cx="375.3156051635742" cy="75.0632495880127" r="1" stroke="black" stroke-width="2" fill="none" />
<circle cx="424.3865089416504" cy="75.57325744628906" r="1" stroke="black" stroke-width="2" fill="none" />
<path d="M375.50716400146484,138.1774673461914 Q400.05880057811737,108.03198909759521,425.3411331176758,138.3122673034668" stroke-width="2" stroke="black" fill="black" fill-opacity="0" />
<circle cx="374.22755432128906" cy="181.50949096679688" r="1" stroke="black" stroke-width="2" fill="none" />
<circle cx="425.87918281555176" cy="181.5175552368164" r="1" stroke="black" stroke-width="2" fill="none" />
<path d="M373.65867042541504,238.75918579101562 Q400.0933797508478,220.4615249633789,426.764196395874,238.88745880126953" stroke-width="2" stroke="black" fill="black" fill-opacity="0" />
<circle cx="373.1137161254883" cy="286.6520290374756" r="1" stroke="black" stroke-width="2" fill="none" />
<circle cx="427.306095123291" cy="286.372013092041" r="1" stroke="black" stroke-width="2" fill="none" />
<path d="M371.67961502075195,334.45024490356445 Q400.0159242898226,331.61748123168945,427.78075981140137,334.1970443725586" stroke-width="2" stroke="black" fill="black" fill-opacity="0" />
<circle cx="373.3229179382324" cy="385.43433570861816" r="1" stroke="black" stroke-width="2" fill="none" />
<circle cx="426.6679286956787" cy="385.21502590179443" r="1" stroke="black" stroke-width="2" fill="none" />
<path d="M372.3549861907959,421.4074821472168 Q400.0452711433172,432.73962020874023,427.1642665863037,421.3316287994385" stroke-width="2" stroke="black" fill="black" fill-opacity="0" />
<circle cx="373.64545822143555" cy="482.8358631134033" r="1" stroke="black" stroke-width="2" fill="none" />
<circle cx="425.9872188568115" cy="482.7461585998535" r="1" stroke="black" stroke-width="2" fill="none" />
<path d="M372.99321937561035,507.69865894317627 Q400.0733208358288,533.0703315734863,426.7202434539795,507.725576877594" stroke-width="2" stroke="black" fill="black" fill-opacity="0" />
<circle cx="374.4719829559326" cy="574.1073932647705" r="1" stroke="black" stroke-width="2" fill="none" />
<circle cx="425.5623779296875" cy="574.4468536376953" r="1" stroke="black" stroke-width="2" fill="none" />
<path d="M373.08349227905273,593.7446322441101 Q400.0883854627609,629.9227600097656,427.4173221588135,593.5717272758484" stroke-width="2" stroke="black" fill="black" fill-opacity="0" />
<circle cx="374.9626007080078" cy="662.9588737487793" r="1" stroke="black" stroke-width="2" fill="none" />
<circle cx="425.51993560791016" cy="663.6920051574707" r="1" stroke="black" stroke-width="2" fill="none" />
<path d="M372.52318382263184,675.6503753662109 Q400.06915478408337,726.3239898681641,428.59547233581543,675.1299057006836" stroke-width="2" stroke="black" fill="black" fill-opacity="0" />
<circle cx="376.7421474456787" cy="761.7989349365234" r="1" stroke="black" stroke-width="2" fill="none" />
<circle cx="422.75351905822754" cy="760.931827545166" r="1" stroke="black" stroke-width="2" fill="none" />
<path d="M373.73912811279297,775.2381229400635 Q399.9495284482837,790.2846670150757,424.9104175567627,775.6498851776123" stroke-width="2" stroke="black" fill="black" fill-opacity="0" />
<circle cx="376.28979682922363" cy="865.1319961547852" r="1" stroke="black" stroke-width="2" fill="none" />
<circle cx="423.31079292297363" cy="864.6155052185059" r="1" stroke="black" stroke-width="2" fill="none" />
<path d="M373.7747230529785,887.459415435791 Q400.00683273375034,884.9578170776367,425.33908462524414,887.7569637298584" stroke-width="2" stroke="black" fill="black" fill-opacity="0" />
<circle cx="475.9515800476074" cy="-30.058834075927734" r="1" stroke="black" stroke-width="2" fill="none" />
<circle cx="524.0715847015381" cy="-29.86033058166504" r="1" stroke="black" stroke-width="2" fill="none" />
<path d="M475.9311237335205,35.77184295654297 Q500.02999621629715,-0.8253028988838196,524.3639030456543,35.851139068603516" stroke-width="2" stroke="black" fill="black" fill-opacity="0" />
<circle cx="475.3654975891113" cy="75.12459564208984" r="1" stroke="black" stroke-width="2" fill="none" />
<circle cx="524.3360385894775" cy="75.63447570800781" r="1" stroke="black" stroke-width="2" fill="none" />
<path d="M475.55764961242676,138.10077667236328 Q500.0583017617464,108.03290367126465,525.2899761199951,138.23508071899414" stroke-width="2" stroke="black" fill="black" fill-opacity="0" />
<circle cx="474.27660942077637" cy="181.57079315185547" r="1" stroke="black" stroke-width="2" fill="none" />
<circle cx="525.83203125" cy="181.5763454437256" r="1" stroke="black" stroke-width="2" fill="none" />
<path d="M473.7053756713867,238.67638778686523 Q500.09287467598915,220.4670639038086,526.7137546539307,238.80411911010742" stroke-width="2" stroke="black" fill="black" fill-opacity="0" />
<circle cx="473.16961669921875" cy="286.67936992645264" r="1" stroke="black" stroke-width="2" fill="none" />
<circle cx="527.2494621276855" cy="286.4004945755005" r="1" stroke="black" stroke-width="2" fill="none" />
<path d="M471.7384605407715,334.3690986633301 Q500.01542945206165,331.5552558898926,527.722261428833,334.11635971069336" stroke-width="2" stroke="black" fill="black" fill-opacity="0" />
<circle cx="473.37436866760254" cy="385.45871925354004" r="1" stroke="black" stroke-width="2" fill="none" />
<circle cx="526.6151580810547" cy="385.24027156829834" r="1" stroke="black" stroke-width="2" fill="none" />
<path d="M472.41001892089844,421.3349609375 Q500.0449203103781,432.67919540405273,527.110466003418,421.25986099243164" stroke-width="2" stroke="black" fill="black" fill-opacity="0" />
<circle cx="473.699893951416" cy="482.83399200439453" r="1" stroke="black" stroke-width="2" fill="none" />
<circle cx="525.9350719451904" cy="482.7463569641113" r="1" stroke="black" stroke-width="2" fill="none" />
<path d="M473.046199798584,507.6260280609131 Q500.07277451455593,532.9934005737305,526.6704387664795,507.6525330543518" stroke-width="2" stroke="black" fill="black" fill-opacity="0" />
<circle cx="474.5378246307373" cy="574.1249332427979" r="1" stroke="black" stroke-width="2" fill="none" />
<circle cx="525.4982013702393" cy="574.4662170410156" r="1" stroke="black" stroke-width="2" fill="none" />
<path d="M473.14954948425293,593.688497543335 Q500.08783699572086,629.8346138000488,527.3542060852051,593.5150532722473" stroke-width="2" stroke="black" fill="black" fill-opacity="0" />
<circle cx="475.032527923584" cy="662.978271484375" r="1" stroke="black" stroke-width="2" fill="none" />
<circle cx="525.4578018188477" cy="663.7134170532227" r="1" stroke="black" stroke-width="2" fill="none" />
<path d="M472.5849208831787,675.6000270843506 Q500.07221437990665,726.1873588562012,528.5272941589355,675.078447341919" stroke-width="2" stroke="black" fill="black" fill-opacity="0" />
<circle cx="476.80706214904785" cy="761.9060668945312" r="1" stroke="black" stroke-width="2" fill="none" />
<circle cx="522.6817092895508" cy="761.0291976928711" r="1" stroke="black" stroke-width="2" fill="none" />
<path d="M473.81093978881836,775.3674468994141 Q499.949814170599,790.0000467300415,524.8250865936279,775.7864971160889" stroke-width="2" stroke="black" fill="black" fill-opacity="0" />
<circle cx="476.29835510253906" cy="865.2332572937012" r="1" stroke="black" stroke-width="2" fill="none" />
<circle cx="523.3114929199219" cy="864.7329368591309" r="1" stroke="black" stroke-width="2" fill="none" />
<path d="M473.7958335876465,887.6975526809692 Q500.0068802088499,885.0704498291016,525.3379211425781,887.9849863052368" stroke-width="2" stroke="black" fill="black" fill-opacity="0" />
<circle cx="576.0025939941406" cy="-30.000398635864258" r="1" stroke="black" stroke-width="2" fill="none" />
<circle cx="624.0202293395996" cy="-29.802249908447266" r="1" stroke="black" stroke-width="2" fill="none" />
<path d="M575.9825839996338,35.6923942565918 Q600.0294616520405,-0.8308126330375671,624.311357498169,35.771148681640625" stroke-width="2" stroke="black" fill="black" fill-opacity="0" />
<circle cx="575.4153900146484" cy="75.18593978881836" r="1" stroke="black" stroke-width="2" fill="none" />
<circle cx="624.2855682373047" cy="75.69569206237793" r="1" stroke="black" stroke-width="2" fill="none" />
<path d="M575.60813331604,138.02407836914062 Q600.0578029751778,108.03381729125977,625.2388191223145,138.15789413452148" stroke-width="2" stroke="black" fill="black" fill-opacity="0" />
<circle cx="574.325662612915" cy="181.63209342956543" r="1" stroke="black" stroke-width="2" fill="none" />
<circle cx="625.7848815917969" cy="181.63513374328613" r="1" stroke="black" stroke-width="2" fill="none" />
<path d="M573.7520751953125,238.5935935974121 Q600.092370569706,220.4726104736328,626.6633167266846,238.72079467773438" stroke-width="2" stroke="black" fill="black" fill-opacity="0" />
<circle cx="573.225513458252" cy="286.7067070007324" r="1" stroke="black" stroke-width="2" fill="none" />
<circle cx="627.1928253173828" cy="286.42897605895996" r="1" stroke="black" stroke-width="2" fill="none" />
<path d="M571.7973079681396,334.2879447937012 Q600.0149347782135,331.49304008483887,627.6637630462646,334.03567123413086" stroke-width="2" stroke="black" fill="black" fill-opacity="0" />
<circle cx="573.4258251190186" cy="385.48310375213623" r="1" stroke="black" stroke-width="2" fill="none" />
<circle cx="626.5623817443848" cy="385.2655200958252" r="1" stroke="black" stroke-width="2" fill="none" />
<path d="M572.465051651001,421.26243019104004 Q600.0445692688227,432.61877059936523,627.056661605835,421.18808937072754" stroke-width="2" stroke="black" fill="black" fill-opacity="0" />
<circle cx="573.754337310791" cy="482.8321189880371" r="1" stroke="black" stroke-width="2" fill="none" />
<circle cx="625.8829212188721" cy="482.74655532836914" r="1" stroke="black" stroke-width="2" fill="none" />
<path d="M573.0991859436035,507.55340003967285 Q600.0722277909517,532.9164695739746,626.6206359863281,507.57949113845825" stroke-width="2" stroke="black" fill="black" fill-opacity="0" />
<circle cx="574.6036624908447" cy="574.142463684082" r="1" stroke="black" stroke-width="2" fill="none" />
<circle cx="625.4340286254883" cy="574.4855728149414" r="1" stroke="black" stroke-width="2" fill="none" />
<path d="M573.2156028747559,593.6323628425598 Q600.087288454175,629.7464809417725,627.2910976409912,593.4583787918091" stroke-width="2" stroke="black" fill="black" fill-opacity="0" />
<circle cx="575.1024513244629" cy="662.9976615905762" r="1" stroke="black" stroke-width="2" fill="none" />
<circle cx="625.3956680297852" cy="663.7348213195801" r="1" stroke="black" stroke-width="2" fill="none" />
<path d="M572.6466598510742,675.5496826171875 Q600.0752741843462,726.0507278442383,628.4591159820557,675.0269927978516" stroke-width="2" stroke="black" fill="black" fill-opacity="0" />
<circle cx="576.8671188354492" cy="762.0076637268066" r="1" stroke="black" stroke-width="2" fill="none" />
<circle cx="622.6169815063477" cy="761.1199645996094" r="1" stroke="black" stroke-width="2" fill="none" />
<path d="M573.8846454620361,775.5019588470459 Q599.9533707723022,789.7372817993164,624.7508125305176,775.9320392608643" stroke-width="2" stroke="black" fill="black" fill-opacity="0" />
<circle cx="576.3069133758545" cy="865.3345031738281" r="1" stroke="black" stroke-width="2" fill="none" />
<circle cx="623.3121929168701" cy="864.8503532409668" r="1" stroke="black" stroke-width="2" fill="none" />
<path d="M573.8169441223145,887.9356803894043 Q600.0069274306297,885.1830806732178,625.3367576599121,888.2129974365234" stroke-width="2" stroke="black" fill="black" fill-opacity="0" />
<circle cx="676.0536060333252" cy="-29.941959381103516" r="1" stroke="black" stroke-width="2" fill="none" />
<circle cx="723.9688739776611" cy="-29.744169235229492" r="1" stroke="black" stroke-width="2" fill="none" />
<path d="M676.0340461730957,35.61294174194336 Q700.0289275944233,-0.8363240361213684,724.258810043335,35.691158294677734" stroke-width="2" stroke="black" fill="black" fill-opacity="0" />
<circle cx="675.4652824401855" cy="75.24728584289551" r="1" stroke="black" stroke-width="2" fill="none" />
<circle cx="724.2350959777832" cy="75.75690650939941" r="1" stroke="black" stroke-width="2" fill="none" />
<path d="M675.658618927002,137.94738388061523 Q700.0573051422834,108.03473663330078,725.1876602172852,138.0807113647461" stroke-width="2" stroke="black" fill="black" fill-opacity="0" />
<circle cx="674.3747158050537" cy="181.69339752197266" r="1" stroke="black" stroke-width="2" fill="none" />
<circle cx="725.7377319335938" cy="181.69392585754395" r="1" stroke="black" stroke-width="2" fill="none" />
<path d="M673.7987804412842,238.51079559326172 Q700.0918655097485,220.47815132141113,726.6128749847412,238.63745880126953" stroke-width="2" stroke="black" fill="black" fill-opacity="0" />
<circle cx="673.2814102172852" cy="286.7340450286865" r="1" stroke="black" stroke-width="2" fill="none" />
<circle cx="727.1361961364746" cy="286.4574556350708" r="1" stroke="black" stroke-width="2" fill="none" />
<path d="M671.8561534881592,334.20680236816406 Q700.0144396871328,331.43081855773926,727.6052665710449,333.9549903869629" stroke-width="2" stroke="black" fill="black" fill-opacity="0" />
<circle cx="673.4772796630859" cy="385.50748920440674" r="1" stroke="black" stroke-width="2" fill="none" />
<circle cx="726.5096073150635" cy="385.2907667160034" r="1" stroke="black" stroke-width="2" fill="none" />
<path d="M672.5200862884521,421.18991470336914 Q700.0442172288895,432.55834197998047,727.002857208252,421.11632919311523" stroke-width="2" stroke="black" fill="black" fill-opacity="0" />
<circle cx="673.8087768554688" cy="482.8302459716797" r="1" stroke="black" stroke-width="2" fill="none" />
<circle cx="725.8307762145996" cy="482.7467517852783" r="1" stroke="black" stroke-width="2" fill="none" />
<path d="M673.1521701812744,507.48077058792114 Q700.0716809332371,532.839542388916,726.5708351135254,507.50644731521606" stroke-width="2" stroke="black" fill="black" fill-opacity="0" />
<circle cx="674.6695003509521" cy="574.1600036621094" r="1" stroke="black" stroke-width="2" fill="none" />
<circle cx="725.36985206604" cy="574.5049285888672" r="1" stroke="black" stroke-width="2" fill="none" />
<path d="M673.2816562652588,593.5762281417847 Q700.0867385715246,629.6583385467529,727.2279834747314,593.4017052650452" stroke-width="2" stroke="black" fill="black" fill-opacity="0" />
<circle cx="675.1723785400391" cy="663.0170478820801" r="1" stroke="black" stroke-width="2" fill="none" />
<circle cx="725.3335361480713" cy="663.7562255859375" r="1" stroke="black" stroke-width="2" fill="none" />
<path d="M672.7083950042725,675.499340057373 Q700.078333824873,725.9141006469727,728.3909378051758,674.9755382537842" stroke-width="2" stroke="black" fill="black" fill-opacity="0" />
<circle cx="676.9175128936768" cy="762.0977363586426" r="1" stroke="black" stroke-width="2" fill="none" />
<circle cx="722.5664558410645" cy="761.196418762207" r="1" stroke="black" stroke-width="2" fill="none" />
<path d="M673.9628105163574,775.6474361419678 Q699.9638022556901,789.5113191604614,724.69873046875,776.0967864990234" stroke-width="2" stroke="black" fill="black" fill-opacity="0" />
<circle cx="676.3154716491699" cy="865.4357643127441" r="1" stroke="black" stroke-width="2" fill="none" />
<circle cx="723.3128929138184" cy="864.9677848815918" r="1" stroke="black" stroke-width="2" fill="none" />
<path d="M673.8380546569824,888.1738138198853 Q700.0069750696421,885.2957191467285,725.3355922698975,888.4410152435303" stroke-width="2" stroke="black" fill="black" fill-opacity="0" />
<circle cx="776.1046199798584" cy="-29.883522033691406" r="1" stroke="black" stroke-width="2" fill="none" />
<circle cx="823.917516708374" cy="-29.68608856201172" r="1" stroke="black" stroke-width="2" fill="none" />
<path d="M776.0855102539062,35.53349304199219 Q800.0283943414688,-0.8418399691581726,824.206262588501,35.61116409301758" stroke-width="2" stroke="black" fill="black" fill-opacity="0" />
<circle cx="775.5151748657227" cy="75.30863189697266" r="1" stroke="black" stroke-width="2" fill="none" />
<circle cx="824.184627532959" cy="75.81812477111816" r="1" stroke="black" stroke-width="2" fill="none" />
<path d="M775.7091007232666,137.8706932067871 Q800.0568058490753,108.03565311431885,825.1365051269531,138.0035285949707" stroke-width="2" stroke="black" fill="black" fill-opacity="0" />
<circle cx="774.4237670898438" cy="181.75469398498535" r="1" stroke="black" stroke-width="2" fill="none" />
<circle cx="825.6905841827393" cy="181.7527084350586" r="1" stroke="black" stroke-width="2" fill="none" />
<path d="M773.8454818725586,238.42800521850586 Q800.0913617610931,220.48369026184082,826.5624389648438,238.55413055419922" stroke-width="2" stroke="black" fill="black" fill-opacity="0" />
<circle cx="773.3373107910156" cy="286.7613830566406" r="1" stroke="black" stroke-width="2" fill="none" />
<circle cx="827.0795555114746" cy="286.4859371185303" r="1" stroke="black" stroke-width="2" fill="none" />
<path d="M771.915002822876,334.12564849853516 Q800.0139463245869,331.3685989379883,827.5467700958252,333.8742980957031" stroke-width="2" stroke="black" fill="black" fill-opacity="0" />
<circle cx="773.528730392456" cy="385.53187465667725" r="1" stroke="black" stroke-width="2" fill="none" />
<circle cx="826.4568328857422" cy="385.31601428985596" r="1" stroke="black" stroke-width="2" fill="none" />
<path d="M772.5751190185547,421.11738204956055 Q800.0438660830259,432.49791717529297,826.949052810669,421.04455184936523" stroke-width="2" stroke="black" fill="black" fill-opacity="0" />
<circle cx="773.8632202148438" cy="482.82837677001953" r="1" stroke="black" stroke-width="2" fill="none" />
<circle cx="825.7786254882812" cy="482.74695205688477" r="1" stroke="black" stroke-width="2" fill="none" />
<path d="M773.205156326294,507.4081449508667 Q800.071133852005,532.7626075744629,826.5210285186768,507.4334077835083" stroke-width="2" stroke="black" fill="black" fill-opacity="0" />
<circle cx="774.7353420257568" cy="574.1775360107422" r="1" stroke="black" stroke-width="2" fill="none" />
<circle cx="825.3056793212891" cy="574.5242862701416" r="1" stroke="black" stroke-width="2" fill="none" />
<path d="M773.3477115631104,593.5200924873352 Q800.086189687252,629.570198059082,827.164873123169,593.3450298309326" stroke-width="2" stroke="black" fill="black" fill-opacity="0" />
<circle cx="775.2423038482666" cy="663.0364418029785" r="1" stroke="black" stroke-width="2" fill="none" />
<circle cx="825.2714004516602" cy="663.7776412963867" r="1" stroke="black" stroke-width="2" fill="none" />
<path d="M772.770133972168,675.4489936828613 Q800.0813935697079,725.7774677276611,828.3227558135986,674.9240798950195" stroke-width="2" stroke="black" fill="black" fill-opacity="0" />
<circle cx="776.9676551818848" cy="762.1894340515137" r="1" stroke="black" stroke-width="2" fill="none" />
<circle cx="822.5162487030029" cy="761.2760047912598" r="1" stroke="black" stroke-width="2" fill="none" />
<path d="M774.039384841919,775.7932624816895 Q799.9734414592385,789.3013563156128,824.6466045379639,776.260181427002" stroke-width="2" stroke="black" fill="black" fill-opacity="0" />
<circle cx="776.3240337371826" cy="865.5370254516602" r="1" stroke="black" stroke-width="2" fill="none" />
<circle cx="823.3135929107666" cy="865.0852165222168" r="1" stroke="black" stroke-width="2" fill="none" />
<path d="M773.8591690063477,888.4119596481323 Q800.007022485137,885.4083414077759,825.3344287872314,888.6690444946289" stroke-width="2" stroke="black" fill="black" fill-opacity="0" />
<circle cx="876.1556358337402" cy="-29.825084686279297" r="1" stroke="black" stroke-width="2" fill="none" />
<circle cx="923.8661575317383" cy="-29.628007888793945" r="1" stroke="black" stroke-width="2" fill="none" />
<path d="M876.1369762420654,35.45404052734375 Q900.0278607308865,-0.847352921962738,924.153715133667,35.53117370605469" stroke-width="2" stroke="black" fill="black" fill-opacity="0" />
<circle cx="875.5650653839111" cy="75.36997985839844" r="1" stroke="black" stroke-width="2" fill="none" />
<circle cx="924.1341609954834" cy="75.87934494018555" r="1" stroke="black" stroke-width="2" fill="none" />
<path d="M875.7595863342285,137.79400253295898 Q900.056307926774,108.03658199310303,925.0853481292725,137.92634963989258" stroke-width="2" stroke="black" fill="black" fill-opacity="0" />
<circle cx="874.4728240966797" cy="181.81599807739258" r="1" stroke="black" stroke-width="2" fill="none" />
<circle cx="925.6434288024902" cy="181.81150436401367" r="1" stroke="black" stroke-width="2" fill="none" />
<path d="M873.8921890258789,238.34519958496094 Q900.0908570438623,220.48923683166504,926.5119953155518,238.4707908630371" stroke-width="2" stroke="black" fill="black" fill-opacity="0" />
<circle cx="873.3932075500488" cy="286.7887191772461" r="1" stroke="black" stroke-width="2" fill="none" />
<circle cx="927.0229206085205" cy="286.5144166946411" r="1" stroke="black" stroke-width="2" fill="none" />
<path d="M871.9738426208496,334.04450607299805 Q900.0134506523609,331.30638122558594,927.4882755279541,333.79361724853516" stroke-width="2" stroke="black" fill="black" fill-opacity="0" />
<circle cx="873.5801830291748" cy="385.55625915527344" r="1" stroke="black" stroke-width="2" fill="none" />
<circle cx="926.4040603637695" cy="385.3412609100342" r="1" stroke="black" stroke-width="2" fill="none" />
<path d="M872.6301536560059,421.044864654541 Q900.0435151308775,432.43749237060547,926.8952503204346,420.9727897644043" stroke-width="2" stroke="black" fill="black" fill-opacity="0" />
<circle cx="873.9176616668701" cy="482.8265018463135" r="1" stroke="black" stroke-width="2" fill="none" />
<circle cx="925.7264785766602" cy="482.7471446990967" r="1" stroke="black" stroke-width="2" fill="none" />
<path d="M873.2581386566162,507.33551120758057 Q900.0705866664648,532.6856842041016,926.471227645874,507.3603596687317" stroke-width="2" stroke="black" fill="black" fill-opacity="0" />
<circle cx="874.8011837005615" cy="574.1950817108154" r="1" stroke="black" stroke-width="2" fill="none" />
<circle cx="925.2415046691895" cy="574.5436515808105" r="1" stroke="black" stroke-width="2" fill="none" />
<path d="M873.4137668609619,593.4639577865601 Q900.0856406390667,629.4820613861084,927.1017532348633,593.2883567810059" stroke-width="2" stroke="black" fill="black" fill-opacity="0" />
<circle cx="875.3182010650635" cy="663.0542869567871" r="1" stroke="black" stroke-width="2" fill="none" />
<circle cx="925.2042980194092" cy="663.7978248596191" r="1" stroke="black" stroke-width="2" fill="none" />
<path d="M872.8365459442139,675.3897247314453 Q900.0848614275455,725.626766204834,928.2491970062256,674.8634757995605" stroke-width="2" stroke="black" fill="black" fill-opacity="0" />
<circle cx="877.0177803039551" cy="762.281307220459" r="1" stroke="black" stroke-width="2" fill="none" />
<circle cx="922.4660682678223" cy="761.3559112548828" r="1" stroke="black" stroke-width="2" fill="none" />
<path d="M874.1158084869385,775.9391288757324 Q899.9830020368099,789.0929908752441,924.5944652557373,776.4234447479248" stroke-width="2" stroke="black" fill="black" fill-opacity="0" />
<circle cx="876.3325939178467" cy="865.6382789611816" r="1" stroke="black" stroke-width="2" fill="none" />
<circle cx="923.3142948150635" cy="865.2026405334473" r="1" stroke="black" stroke-width="2" fill="none" />
<path d="M873.8802814483643,888.6500883102417 Q900.0070697665215,885.5209865570068,925.3332633972168,888.8970565795898" stroke-width="2" stroke="black" fill="black" fill-opacity="0" />
<path d="M-50,50 L950,50" stroke="black" />
<path d="M50,-50 L50,950" stroke="black" />
<path d="M-50,150 L950,150" stroke="black" />
<path d="M150,-50 L150,950" stroke="black" />
<path d="M-50,250 L950,250" stroke="black" />
<path d="M250,-50 L250,950" stroke="black" />
<path d="M-50,350 L950,350" stroke="black" />
<path d="M350,-50 L350,950" stroke="black" />
<path d="M-50,450 L950,450" stroke="black" />
<path d="M450,-50 L450,950" stroke="black" />
<path d="M-50,550 L950,550" stroke="black" />
<path d="M550,-50 L550,950" stroke="black" />
<path d="M-50,650 L950,650" stroke="black" />
<path d="M650,-50 L650,950" stroke="black" />
<path d="M-50,750 L950,750" stroke="black" />
<path d="M750,-50 L750,950" stroke="black" />
<path d="M-50,850 L950,850" stroke="black" />
<path d="M850,-50 L850,950" stroke="black" />
</svg>