<?xml version="1.0" encoding="UTF-8"?>
<svg xmlns="http://www.w3.org/2000/svg" xmlns:xlink="http://www.w3.org/1999/xlink"
     width="1000" height="1000" viewBox="-50 -50 1000 1000" diplayInline="False">
<defs>
</defs>
<circle cx="-26.07233428955078" cy="-18.370027542114258" r="1" stroke="black" stroke-width="2" fill="none" />
<circle cx="25.76873207092285" cy="-18.39560890197754" r="1" stroke="black" stroke-width="2" fill="none" />
<path d="M-26.83243179321289,5.537046432495117 Q0.07278390228748322,32.39519119262695,26.658706665039062,5.538283348083496" stroke-width="2" stroke="black" fill="black" fill-opacity="0" />
<circle cx="-24.728649139404297" cy="70.37836265563965" r="1" stroke="black" stroke-width="2" fill="none" />
<circle cx="24.722354888916016" cy="70.65594291687012" r="1" stroke="black" stroke-width="2" fill="none" />
<path d="M-24.72756004333496,137.19528579711914 Q0.03748340904712677,101.20579814910889,25.145606994628906,137.30609893798828" stroke-width="2" stroke="black" fill="black" fill-opacity="0" />
<circle cx="-26.37559700012207" cy="177.81054878234863" r="1" stroke="black" stroke-width="2" fill="none" />
<circle cx="26.22166633605957" cy="177.94761657714844" r="1" stroke="black" stroke-width="2" fill="none" />
<path d="M-27.44350242614746,200.26998889446259 Q0.08547323942184448,231.94866180419922,27.573333740234375,200.1906373500824" stroke-width="2" stroke="black" fill="black" fill-opacity="0" />
<circle cx="-25.943553924560547" cy="268.46799659729004" r="1" stroke="black" stroke-width="2" fill="none" />
<circle cx="26.193174362182617" cy="269.030818939209" r="1" stroke="black" stroke-width="2" fill="none" />
<path d="M-27.821231842041016,285.7402763366699 Q0.0843234658241272,329.33460998535156,28.68146514892578,285.4014015197754" stroke-width="2" stroke="black" fill="black" fill-opacity="0" />
<circle cx="-22.89521598815918" cy="362.9467468261719" r="1" stroke="black" stroke-width="2" fill="none" />
<circle cx="22.397117614746094" cy="361.87418365478516" r="1" stroke="black" stroke-width="2" fill="none" />
<path d="M-25.484392166137695,378.7217445373535 Q0.12680435180664062,385.239182472229,24.532983779907227,379.4494113922119" stroke-width="2" stroke="black" fill="black" fill-opacity="0" />
<circle cx="-26.75917625427246" cy="486.32717514038086" r="1" stroke="black" stroke-width="2" fill="none" />
<circle cx="27.07636260986328" cy="486.0676031112671" r="1" stroke="black" stroke-width="2" fill="none" />
<path d="M-28.072813034057617,529.993091583252 Q0.01924532651901245,532.1082229614258,27.524370193481445,529.8037147521973" stroke-width="2" stroke="black" fill="black" fill-opacity="0" />
<circle cx="-26.05624008178711" cy="585.5100221633911" r="1" stroke="black" stroke-width="2" fill="none" />
<circle cx="25.95514678955078" cy="585.3102512359619" r="1" stroke="black" stroke-width="2" fill="none" />
<path d="M-26.901222229003906,618.5455513000488 Q0.047225356101989746,632.1819839477539,26.450756072998047,618.5052814483643" stroke-width="2" stroke="black" fill="black" fill-opacity="0" />
<circle cx="-26.100221633911133" cy="685.6797485351562" r="1" stroke="black" stroke-width="2" fill="none" />
<circle cx="26.559165954589844" cy="685.2528324127197" r="1" stroke="black" stroke-width="2" fill="none" />
<path d="M-27.276098251342773,738.1444625854492 Q0.09660027921199799,727.8295631408691,27.247873306274414,738.2211494445801" stroke-width="2" stroke="black" fill="black" fill-opacity="0" />
<circle cx="-23.43290901184082" cy="766.7952270507812" r="1" stroke="black" stroke-width="2" fill="none" />
<circle cx="23.56131362915039" cy="766.7546348571777" r="1" stroke="black" stroke-width="2" fill="none" />
<path d="M-23.535600662231445,833.6650123596191 Q0.02329486608505249,792.9217805862427,23.47494888305664,833.6628570556641" stroke-width="2" stroke="black" fill="black" fill-opacity="0" />
<circle cx="-30.04151725769043" cy="865.7392807006836" r="1" stroke="black" stroke-width="2" fill="none" />
<circle cx="30.38410758972168" cy="866.6685447692871" r="1" stroke="black" stroke-width="2" fill="none" />
<path d="M-31.905189514160156,911.2892379760742 Q0.09137335419654846,887.6299505233765,32.88570785522461,910.7511606216431" stroke-width="2" stroke="black" fill="black" fill-opacity="0" />
<circle cx="74.24964141845703" cy="-20.412212371826172" r="1" stroke="black" stroke-width="2" fill="none" />
<circle cx="125.544921875" cy="-20.331777572631836" r="1" stroke="black" stroke-width="2" fill="none" />
<path d="M73.3156795501709,2.1187751293182373 Q100.07566496729851,31.48038673400879,126.7054328918457,2.0703065395355225" stroke-width="2" stroke="black" fill="black" fill-opacity="0" />
<circle cx="74.39009857177734" cy="62.37131118774414" r="1" stroke="black" stroke-width="2" fill="none" />
<circle cx="126.07734680175781" cy="63.10744094848633" r="1" stroke="black" stroke-width="2" fill="none" />
<path d="M71.93834114074707,75.46297264099121 Q100.06311625242233,127.1269416809082,129.2181339263916,74.93832397460938" stroke-width="2" stroke="black" fill="black" fill-opacity="0" />
<circle cx="67.32366180419922" cy="163.45783233642578" r="1" stroke="black" stroke-width="2" fill="none" />
<circle cx="133.08538818359375" cy="164.55767059326172" r="1" stroke="black" stroke-width="2" fill="none" />
<path d="M65.39230728149414,214.54638957977295 Q100.11723273992538,186.07436656951904,135.8129539489746,213.9162244796753" stroke-width="2" stroke="black" fill="black" fill-opacity="0" />
<circle cx="75.83296966552734" cy="260.97351455688477" r="1" stroke="black" stroke-width="2" fill="none" />
<circle cx="124.4345703125" cy="260.6273078918457" r="1" stroke="black" stroke-width="2" fill="none" />
<path d="M75.61369323730469,333.28955841064453 Q100.02803030610085,284.9246883392334,123.89005851745605,333.19652557373047" stroke-width="2" stroke="black" fill="black" fill-opacity="0" />
<circle cx="72.91927719116211" cy="386.38496494293213" r="1" stroke="black" stroke-width="2" fill="none" />
<circle cx="127.4793758392334" cy="386.1112585067749" r="1" stroke="black" stroke-width="2" fill="none" />
<path d="M71.50657653808594,432.3566589355469 Q100.01538586616516,432.32269287109375,127.92250633239746,432.1373825073242" stroke-width="2" stroke="black" fill="black" fill-opacity="0" />
<circle cx="74.14280891418457" cy="483.3719825744629" r="1" stroke="black" stroke-width="2" fill="none" />
<circle cx="126.12105560302734" cy="483.19799995422363" r="1" stroke="black" stroke-width="2" fill="none" />
<path d="M73.31711959838867,538.442756652832 Q100.09980900585651,523.6776351928711,126.92448616027832,538.5662994384766" stroke-width="2" stroke="black" fill="black" fill-opacity="0" />
<circle cx="75.39764595031738" cy="557.8964080810547" r="1" stroke="black" stroke-width="2" fill="none" />
<circle cx="124.93982696533203" cy="557.3885765075684" r="1" stroke="black" stroke-width="2" fill="none" />
<path d="M75.11764335632324,633.1639442443848 Q100.03012377023697,580.7636108398438,124.15710258483887,633.0253372192383" stroke-width="2" stroke="black" fill="black" fill-opacity="0" />
<circle cx="75.16673469543457" cy="676.0587882995605" r="1" stroke="black" stroke-width="2" fill="none" />
<circle cx="124.45680809020996" cy="676.6266441345215" r="1" stroke="black" stroke-width="2" fill="none" />
<path d="M75.40705299377441,738.6596717834473 Q100.06487222015858,709.7375955581665,125.55079460144043,738.7962760925293" stroke-width="2" stroke="black" fill="black" fill-opacity="0" />
<circle cx="73.00900650024414" cy="785.1045169830322" r="1" stroke="black" stroke-width="2" fill="none" />
<circle cx="126.92694854736328" cy="784.8875198364258" r="1" stroke="black" stroke-width="2" fill="none" />
<path d="M72.08529472351074,820.204008102417 Q100.05254618823528,833.2503242492676,127.43925476074219,820.1454677581787" stroke-width="2" stroke="black" fill="black" fill-opacity="0" />
<circle cx="69.20893287658691" cy="842.5522308349609" r="1" stroke="black" stroke-width="2" fill="none" />
<circle cx="131.2094841003418" cy="841.5118370056152" r="1" stroke="black" stroke-width="2" fill="none" />
<path d="M68.76268005371094,939.8353538513184 Q100.0527782291174,867.0571556091309,129.83005714416504,939.4379081726074" stroke-width="2" stroke="black" fill="black" fill-opacity="0" />
<circle cx="173.64195823669434" cy="-19.46664810180664" r="1" stroke="black" stroke-width="2" fill="none" />
<circle cx="226.08996772766113" cy="-19.453344345092773" r="1" stroke="black" stroke-width="2" fill="none" />
<path d="M172.79730033874512,4.271806716918945 Q200.07802963256836,32.54436492919922,227.10278701782227,4.252619743347168" stroke-width="2" stroke="black" fill="black" fill-opacity="0" />
<circle cx="176.29073524475098" cy="69.7586898803711" r="1" stroke="black" stroke-width="2" fill="none" />
<circle cx="223.7463893890381" cy="69.9200496673584" r="1" stroke="black" stroke-width="2" fill="none" />
<path d="M176.26014709472656,135.07339477539062 Q200.02639436721802,98.22165083885193,223.97684860229492,135.1378631591797" stroke-width="2" stroke="black" fill="black" fill-opacity="0" />
<circle cx="173.6999797821045" cy="185.0057830810547" r="1" stroke="black" stroke-width="2" fill="none" />
<circle cx="226.07001495361328" cy="184.81818199157715" r="1" stroke="black" stroke-width="2" fill="none" />
<path d="M172.97987747192383,215.35534000396729 Q200.0599059164524,232.77325820922852,226.59130668640137,215.35856246948242" stroke-width="2" stroke="black" fill="black" fill-opacity="0" />
<circle cx="174.75228309631348" cy="267.12547302246094" r="1" stroke="black" stroke-width="2" fill="none" />
<circle cx="225.2214756011963" cy="267.29114151000977" r="1" stroke="black" stroke-width="2" fill="none" />
<path d="M172.63329887390137,298.10146510601044 Q200.02976767718792,287.85533809661865,227.340425491333,297.98618960380554" stroke-width="2" stroke="black" fill="black" fill-opacity="0" />
<circle cx="175.17968368530273" cy="367.0582809448242" r="1" stroke="black" stroke-width="2" fill="none" />
<circle cx="224.73970413208008" cy="367.1212615966797" r="1" stroke="black" stroke-width="2" fill="none" />
<path d="M173.01403045654297,396.4296598434448 Q200.02388878166676,387.61750984191895,226.8271141052246,396.3740966320038" stroke-width="2" stroke="black" fill="black" fill-opacity="0" />
<circle cx="174.60030364990234" cy="454.8897933959961" r="1" stroke="black" stroke-width="2" fill="none" />
<circle cx="225.74432563781738" cy="454.2399711608887" r="1" stroke="black" stroke-width="2" fill="none" />
<path d="M174.29043006896973,533.6402549743652 Q200.02779537439346,477.170166015625,224.79662704467773,533.4227638244629" stroke-width="2" stroke="black" fill="black" fill-opacity="0" />
<circle cx="176.17736625671387" cy="564.6086540222168" r="1" stroke="black" stroke-width="2" fill="none" />
<circle cx="224.0015754699707" cy="564.464168548584" r="1" stroke="black" stroke-width="2" fill="none" />
<path d="M176.03256797790527,633.7496376037598 Q200.02661296725273,590.155345916748,223.75949668884277,633.7162094116211" stroke-width="2" stroke="black" fill="black" fill-opacity="0" />
<circle cx="173.07835960388184" cy="667.6709403991699" r="1" stroke="black" stroke-width="2" fill="none" />
<circle cx="227.11909675598145" cy="668.2778778076172" r="1" stroke="black" stroke-width="2" fill="none" />
<path d="M171.1909294128418,705.4769430160522 Q200.05641920864582,688.7246170043945,229.36381149291992,705.1172676086426" stroke-width="2" stroke="black" fill="black" fill-opacity="0" />
<circle cx="173.22819328308105" cy="786.5306491851807" r="1" stroke="black" stroke-width="2" fill="none" />
<circle cx="227.00843238830566" cy="786.2197170257568" r="1" stroke="black" stroke-width="2" fill="none" />
<path d="M172.0353126525879,836.7577095031738 Q200.03604820370674,830.3595943450928,227.72772598266602,836.5533790588379" stroke-width="2" stroke="black" fill="black" fill-opacity="0" />
<circle cx="173.41102027893066" cy="882.9867324829102" r="1" stroke="black" stroke-width="2" fill="none" />
<circle cx="226.20515060424805" cy="882.8821468353271" r="1" stroke="black" stroke-width="2" fill="none" />
<path d="M172.777681350708,908.2300405502319 Q200.07568827271461,933.4358253479004,226.91218757629395,908.2606029510498" stroke-width="2" stroke="black" fill="black" fill-opacity="0" />
<circle cx="276.8238182067871" cy="-35.20238494873047" r="1" stroke="black" stroke-width="2" fill="none" />
<circle cx="322.70047760009766" cy="-35.90327072143555" r="1" stroke="black" stroke-width="2" fill="none" />
<path d="M274.26585578918457,-15.265621185302734 Q300.0219080597162,-15.494935035705566,324.7143211364746,-14.835978507995605" stroke-width="2" stroke="black" fill="black" fill-opacity="0" />
<circle cx="274.0775318145752" cy="67.34003067016602" r="1" stroke="black" stroke-width="2" fill="none" />
<circle cx="326.2174644470215" cy="67.94918823242188" r="1" stroke="black" stroke-width="2" fill="none" />
<path d="M272.09822845458984,83.98437881469727 Q300.0815129131079,129.0653076171875,328.8336429595947,83.60935592651367" stroke-width="2" stroke="black" fill="black" fill-opacity="0" />
<circle cx="276.28649139404297" cy="170.89768028259277" r="1" stroke="black" stroke-width="2" fill="none" />
<circle cx="323.7184009552002" cy="171.12883377075195" r="1" stroke="black" stroke-width="2" fill="none" />
<path d="M276.28194999694824,235.4216766357422 Q300.02666544914246,200.06040078401566,324.05709075927734,235.50886917114258" stroke-width="2" stroke="black" fill="black" fill-opacity="0" />
<circle cx="274.5004539489746" cy="267.33809661865234" r="1" stroke="black" stroke-width="2" fill="none" />
<circle cx="325.52352714538574" cy="267.59490966796875" r="1" stroke="black" stroke-width="2" fill="none" />
<path d="M272.4314956665039,299.53988391160965 Q300.033609688282,288.21000480651855,327.6592197418213,299.37021309137344" stroke-width="2" stroke="black" fill="black" fill-opacity="0" />
<circle cx="273.74725914001465" cy="385.13975048065186" r="1" stroke="black" stroke-width="2" fill="none" />
<circle cx="326.67967224121094" cy="384.75899505615234" r="1" stroke="black" stroke-width="2" fill="none" />
<path d="M272.62944412231445,438.5119438171387 Q300.10063046216965,427.2666931152344,327.39816665649414,438.6031265258789" stroke-width="2" stroke="black" fill="black" fill-opacity="0" />
<circle cx="274.23529624938965" cy="481.94631004333496" r="1" stroke="black" stroke-width="2" fill="none" />
<circle cx="325.906551361084" cy="481.91353034973145" r="1" stroke="black" stroke-width="2" fill="none" />
<path d="M273.60943031311035,538.6464195251465 Q300.0945058017969,521.1623783111572,326.77210807800293,538.7733764648438" stroke-width="2" stroke="black" fill="black" fill-opacity="0" />
<circle cx="273.07559967041016" cy="585.7289428710938" r="1" stroke="black" stroke-width="2" fill="none" />
<circle cx="327.06480979919434" cy="585.4882726669312" r="1" stroke="black" stroke-width="2" fill="none" />
<path d="M271.94017791748047,625.5000228881836 Q300.03529024124146,632.706958770752,327.54405975341797,625.3706665039062" stroke-width="2" stroke="black" fill="black" fill-opacity="0" />
<circle cx="274.96640968322754" cy="661.7287063598633" r="1" stroke="black" stroke-width="2" fill="none" />
<circle cx="325.6131172180176" cy="662.4915924072266" r="1" stroke="black" stroke-width="2" fill="none" />
<path d="M272.2853755950928,673.7692642211914 Q300.1357999444008,725.0955600738525,328.7065906524658,673.2538032531738" stroke-width="2" stroke="black" fill="black" fill-opacity="0" />
<circle cx="273.049840927124" cy="786.4589796066284" r="1" stroke="black" stroke-width="2" fill="none" />
<circle cx="327.3497543334961" cy="786.1871137619019" r="1" stroke="black" stroke-width="2" fill="none" />
<path d="M271.6416835784912,832.2854347229004 Q300.014094799757,832.1608543395996,327.78963470458984,832.0665283203125" stroke-width="2" stroke="black" fill="black" fill-opacity="0" />
<circle cx="275.4305076599121" cy="859.2148933410645" r="1" stroke="black" stroke-width="2" fill="none" />
<circle cx="324.8738613128662" cy="858.7889175415039" r="1" stroke="black" stroke-width="2" fill="none" />
<path d="M275.1788139343262,933.5134010314941 Q300.03096771240234,882.8522720336914,324.2136287689209,933.3992805480957" stroke-width="2" stroke="black" fill="black" fill-opacity="0" />
<circle cx="373.90649032592773" cy="-22.184419631958008" r="1" stroke="black" stroke-width="2" fill="none" />
<circle cx="425.9499340057373" cy="-22.036487579345703" r="1" stroke="black" stroke-width="2" fill="none" />
<path d="M372.83359146118164,-0.07339159399271011 Q400.0831847190857,31.555883407592773,427.31476974487305,-0.15648584067821503" stroke-width="2" stroke="black" fill="black" fill-opacity="0" />
<circle cx="367.92373275756836" cy="64.00215911865234" r="1" stroke="black" stroke-width="2" fill="none" />
<circle cx="432.4719772338867" cy="65.067626953125" r="1" stroke="black" stroke-width="2" fill="none" />
<path d="M366.0112075805664,113.86891555786133 Q400.11118257045746,86.45299434661865,435.1475715637207,113.25652980804443" stroke-width="2" stroke="black" fill="black" fill-opacity="0" />
<circle cx="370.22653007507324" cy="165.94122314453125" r="1" stroke="black" stroke-width="2" fill="none" />
<circle cx="430.10695457458496" cy="166.84786987304688" r="1" stroke="black" stroke-width="2" fill="none" />
<path d="M368.3657627105713,210.87979316711426 Q400.088931620121,187.75933170318604,432.58636474609375,210.35485649108887" stroke-width="2" stroke="black" fill="black" fill-opacity="0" />
<circle cx="375.2843990325928" cy="257.3864517211914" r="1" stroke="black" stroke-width="2" fill="none" />
<circle cx="425.0618705749512" cy="256.85465240478516" r="1" stroke="black" stroke-width="2" fill="none" />
<path d="M374.9958038330078,333.2178039550781 Q400.0306250154972,280.1462116241455,424.24582862854004,333.07129287719727" stroke-width="2" stroke="black" fill="black" fill-opacity="0" />
<circle cx="376.1708240509033" cy="371.15595626831055" r="1" stroke="black" stroke-width="2" fill="none" />
<circle cx="423.8239231109619" cy="371.4118003845215" r="1" stroke="black" stroke-width="2" fill="none" />
<path d="M376.1740970611572,435.71877670288086 Q400.0280067771673,400.7019869685173,424.20229721069336,435.8150177001953" stroke-width="2" stroke="black" fill="black" fill-opacity="0" />
<circle cx="376.52952766418457" cy="469.23014068603516" r="1" stroke="black" stroke-width="2" fill="none" />
<circle cx="423.52902603149414" cy="469.3410949707031" r="1" stroke="black" stroke-width="2" fill="none" />
<path d="M376.48250579833984,534.4630393981934 Q400.0238470584154,496.9094817638397,423.6780261993408,534.5092620849609" stroke-width="2" stroke="black" fill="black" fill-opacity="0" />
<circle cx="376.4437770843506" cy="561.3083724975586" r="1" stroke="black" stroke-width="2" fill="none" />
<circle cx="423.17588806152344" cy="560.6384391784668" r="1" stroke="black" stroke-width="2" fill="none" />
<path d="M373.4376735687256,573.9533634185791 Q399.9413155168295,595.3128900527954,425.48120307922363,574.2315292358398" stroke-width="2" stroke="black" fill="black" fill-opacity="0" />
<circle cx="375.5582790374756" cy="666.768238067627" r="1" stroke="black" stroke-width="2" fill="none" />
<circle cx="424.54445457458496" cy="666.8032073974609" r="1" stroke="black" stroke-width="2" fill="none" />
<path d="M375.4724369049072,735.5705223083496 Q400.03411541879177,694.8460741043091,424.5891647338867,735.6011657714844" stroke-width="2" stroke="black" fill="black" fill-opacity="0" />
<circle cx="374.97007942199707" cy="767.1638145446777" r="1" stroke="black" stroke-width="2" fill="none" />
<circle cx="424.98451232910156" cy="767.2904052734375" r="1" stroke="black" stroke-width="2" fill="none" />
<path d="M372.8360595703125,797.4337797164917 Q400.0267411470413,787.8446817398071,427.086181640625,797.3398506641388" stroke-width="2" stroke="black" fill="black" fill-opacity="0" />
<circle cx="373.0987968444824" cy="886.554404258728" r="1" stroke="black" stroke-width="2" fill="none" />
<circle cx="427.2254467010498" cy="886.25710105896" r="1" stroke="black" stroke-width="2" fill="none" />
<path d="M371.787073135376,935.7623710632324 Q400.02676759660244,931.0453605651855,427.8306636810303,935.5331916809082" stroke-width="2" stroke="black" fill="black" fill-opacity="0" />
<circle cx="473.99117279052734" cy="-16.368803024291992" r="1" stroke="black" stroke-width="2" fill="none" />
<circle cx="525.618579864502" cy="-16.479122161865234" r="1" stroke="black" stroke-width="2" fill="none" />
<path d="M473.401086807251,8.473172187805176 Q500.0699204802513,32.77519989013672,526.276704788208,8.50799560546875" stroke-width="2" stroke="black" fill="black" fill-opacity="0" />
<circle cx="473.6691303253174" cy="86.93244075775146" r="1" stroke="black" stroke-width="2" fill="none" />
<circle cx="526.7517948150635" cy="86.66494941711426" r="1" stroke="black" stroke-width="2" fill="none" />
<path d="M472.25304794311523,133.53087997436523 Q500.0099424123764,131.04500770568848,527.1963291168213,133.27925491333008" stroke-width="2" stroke="black" fill="black" fill-opacity="0" />
<circle cx="474.98980712890625" cy="160.80994415283203" r="1" stroke="black" stroke-width="2" fill="none" />
<circle cx="525.5617504119873" cy="161.49836349487305" r="1" stroke="black" stroke-width="2" fill="none" />
<path d="M472.09765434265137,172.08202362060547 Q500.1803622543812,222.99273490905762,528.5947666168213,171.65194129943848" stroke-width="2" stroke="black" fill="black" fill-opacity="0" />
<circle cx="475.05651473999023" cy="263.98788833618164" r="1" stroke="black" stroke-width="2" fill="none" />
<circle cx="525.3783340454102" cy="264.7090187072754" r="1" stroke="black" stroke-width="2" fill="none" />
<path d="M472.74103355407715,277.2248725891113 Q500.0582719743252,326.7031364440918,528.3783187866211,276.7312431335449" stroke-width="2" stroke="black" fill="black" fill-opacity="0" />
<circle cx="474.10022735595703" cy="378.9647922515869" r="1" stroke="black" stroke-width="2" fill="none" />
<circle cx="525.8071632385254" cy="379.2052631378174" r="1" stroke="black" stroke-width="2" fill="none" />
<path d="M473.8535957336426,439.53095626831055 Q500.087953671813,416.53780364990234,526.806468963623,439.6674613952637" stroke-width="2" stroke="black" fill="black" fill-opacity="0" />
<circle cx="476.44885635375977" cy="468.47347831726074" r="1" stroke="black" stroke-width="2" fill="none" />
<circle cx="523.6291408538818" cy="468.5443916320801" r="1" stroke="black" stroke-width="2" fill="none" />
<path d="M476.38605880737305,534.3902740478516 Q500.0248075723648,495.8523693084717,523.7173728942871,534.4247932434082" stroke-width="2" stroke="black" fill="black" fill-opacity="0" />
<circle cx="475.57758140563965" cy="572.497917175293" r="1" stroke="black" stroke-width="2" fill="none" />
<circle cx="524.3177509307861" cy="572.8661708831787" r="1" stroke="black" stroke-width="2" fill="none" />
<path d="M475.6488437652588,637.1523971557617 Q500.04482428729534,603.8465142250061,524.9324893951416,637.2833824157715" stroke-width="2" stroke="black" fill="black" fill-opacity="0" />
<circle cx="472.1644973754883" cy="667.2336578369141" r="1" stroke="black" stroke-width="2" fill="none" />
<circle cx="528.087251663208" cy="667.9538879394531" r="1" stroke="black" stroke-width="2" fill="none" />
<path d="M470.3019618988037,707.5077185630798 Q500.0684602558613,688.5242433547974,530.4069290161133,707.0873980522156" stroke-width="2" stroke="black" fill="black" fill-opacity="0" />
<circle cx="473.4359436035156" cy="786.3635330200195" r="1" stroke="black" stroke-width="2" fill="none" />
<circle cx="526.8567123413086" cy="786.1095733642578" r="1" stroke="black" stroke-width="2" fill="none" />
<path d="M472.1563606262207,829.2079257965088 Q500.01950623095036,831.9230442047119,527.3038215637207,829.0282020568848" stroke-width="2" stroke="black" fill="black" fill-opacity="0" />
<circle cx="468.91205978393555" cy="864.8980445861816" r="1" stroke="black" stroke-width="2" fill="none" />
<circle cx="531.4616718292236" cy="865.9067573547363" r="1" stroke="black" stroke-width="2" fill="none" />
<path d="M467.0304145812988,912.751317024231 Q500.1012227535248,887.0759496688843,534.051643371582,912.1683235168457" stroke-width="2" stroke="black" fill="black" fill-opacity="0" />
<circle cx="575.9569644927979" cy="-29.526933670043945" r="1" stroke="black" stroke-width="2" fill="none" />
<circle cx="624.0514488220215" cy="-29.29635238647461" r="1" stroke="black" stroke-width="2" fill="none" />
<path d="M575.9484634399414,35.920780181884766 Q600.0300882905722,0.020006656646728516,624.3933563232422,36.01051330566406" stroke-width="2" stroke="black" fill="black" fill-opacity="0" />
<circle cx="576.3647842407227" cy="64.2145881652832" r="1" stroke="black" stroke-width="2" fill="none" />
<circle cx="623.8298110961914" cy="64.03156661987305" r="1" stroke="black" stroke-width="2" fill="none" />
<path d="M576.208101272583,133.27556610107422 Q600.0244421511889,89.15318870544434,623.5256519317627,133.22779083251953" stroke-width="2" stroke="black" fill="black" fill-opacity="0" />
<circle cx="575.7063484191895" cy="161.47661590576172" r="1" stroke="black" stroke-width="2" fill="none" />
<circle cx="624.7156620025635" cy="161.98877334594727" r="1" stroke="black" stroke-width="2" fill="none" />
<path d="M572.84401512146,172.23745155334473 Q600.1217017769814,219.67954635620117,627.6077690124512,171.88859748840332" stroke-width="2" stroke="black" fill="black" fill-opacity="0" />
<circle cx="573.5372409820557" cy="284.43182945251465" r="1" stroke="black" stroke-width="2" fill="none" />
<circle cx="626.0681953430176" cy="284.26569652557373" r="1" stroke="black" stroke-width="2" fill="none" />
<path d="M572.976037979126,311.1782817840576 Q600.0726421028376,333.3766860961914,626.6188564300537,311.2288751602173" stroke-width="2" stroke="black" fill="black" fill-opacity="0" />
<circle cx="573.6049556732178" cy="367.5885124206543" r="1" stroke="black" stroke-width="2" fill="none" />
<circle cx="626.5321197509766" cy="368.0732936859131" r="1" stroke="black" stroke-width="2" fill="none" />
<path d="M571.656177520752,403.39280462265015 Q600.0482137650251,388.57150745391846,628.7365055084229,403.0994770526886" stroke-width="2" stroke="black" fill="black" fill-opacity="0" />
<circle cx="576.3236293792725" cy="467.3755912780762" r="1" stroke="black" stroke-width="2" fill="none" />
<circle cx="623.7821578979492" cy="467.3890571594238" r="1" stroke="black" stroke-width="2" fill="none" />
<path d="M576.2381973266602,534.3001365661621 Q600.0261145085096,494.331919670105,623.7831268310547,534.3176002502441" stroke-width="2" stroke="black" fill="black" fill-opacity="0" />
<circle cx="571.2693023681641" cy="546.879264831543" r="1" stroke="black" stroke-width="2" fill="none" />
<circle cx="629.117467880249" cy="545.9614639282227" r="1" stroke="black" stroke-width="2" fill="none" />
<path d="M570.8741664886475,637.3261871337891 Q600.0401444584131,570.215633392334,627.8698177337646,636.9768905639648" stroke-width="2" stroke="black" fill="black" fill-opacity="0" />
<circle cx="573.8690242767334" cy="686.0551824569702" r="1" stroke="black" stroke-width="2" fill="none" />
<circle cx="626.5369338989258" cy="685.641791343689" r="1" stroke="black" stroke-width="2" fill="none" />
<path d="M572.6763248443604,737.5357398986816 Q600.0763102322817,728.4297733306885,627.2192306518555,737.5252990722656" stroke-width="2" stroke="black" fill="black" fill-opacity="0" />
<circle cx="573.2700996398926" cy="785.6985998153687" r="1" stroke="black" stroke-width="2" fill="none" />
<circle cx="626.8227062225342" cy="785.4663095474243" r="1" stroke="black" stroke-width="2" fill="none" />
<path d="M572.1929225921631,824.1120052337646 Q600.0374340862036,832.5746650695801,627.3046245574951,824.0003433227539" stroke-width="2" stroke="black" fill="black" fill-opacity="0" />
<circle cx="573.9104537963867" cy="885.2830820083618" r="1" stroke="black" stroke-width="2" fill="none" />
<circle cx="625.9158802032471" cy="885.0915813446045" r="1" stroke="black" stroke-width="2" fill="none" />
<path d="M573.140209197998,916.6728248596191 Q600.0534365028143,932.3867721557617,626.4234561920166,916.6576385498047" stroke-width="2" stroke="black" fill="black" fill-opacity="0" />
<circle cx="667.1826515197754" cy="-36.67007827758789" r="1" stroke="black" stroke-width="2" fill="none" />
<circle cx="733.2295265197754" cy="-35.562164306640625" r="1" stroke="black" stroke-width="2" fill="none" />
<path d="M665.246883392334,14.70557689666748 Q700.118654191494,-14.014589309692383,735.9693069458008,14.071233749389648" stroke-width="2" stroke="black" fill="black" fill-opacity="0" />
<circle cx="675.6109752655029" cy="73.33382225036621" r="1" stroke="black" stroke-width="2" fill="none" />
<circle cx="724.2301158905029" cy="73.74095726013184" r="1" stroke="black" stroke-width="2" fill="none" />
<path d="M675.7164268493652,137.27301406860352 Q700.0476207584143,105.00238609313965,724.9368915557861,137.40404891967773" stroke-width="2" stroke="black" fill="black" fill-opacity="0" />
<circle cx="676.0420913696289" cy="162.77352142333984" r="1" stroke="black" stroke-width="2" fill="none" />
<circle cx="724.1831321716309" cy="162.52535247802734" r="1" stroke="black" stroke-width="2" fill="none" />
<path d="M675.8590488433838,233.44892501831055 Q700.0271292179823,187.4469108581543,723.7840423583984,233.3836212158203" stroke-width="2" stroke="black" fill="black" fill-opacity="0" />
<circle cx="670.2932453155518" cy="265.99018478393555" r="1" stroke="black" stroke-width="2" fill="none" />
<circle cx="730.0378646850586" cy="266.89098739624023" r="1" stroke="black" stroke-width="2" fill="none" />
<path d="M668.4330387115479,310.7745056152344 Q700.0883308649063,287.79041385650635,732.5117950439453,310.2529935836792" stroke-width="2" stroke="black" fill="black" fill-opacity="0" />
<circle cx="676.014181137085" cy="365.89931869506836" r="1" stroke="black" stroke-width="2" fill="none" />
<circle cx="723.6944122314453" cy="365.5781593322754" r="1" stroke="black" stroke-width="2" fill="none" />
<path d="M673.6240367889404,390.45475578308105 Q700.0115364044905,385.94341945648193,725.7340812683105,390.632737159729" stroke-width="2" stroke="black" fill="black" fill-opacity="0" />
<circle cx="676.1729583740234" cy="464.8030014038086" r="1" stroke="black" stroke-width="2" fill="none" />
<circle cx="724.0004940032959" cy="464.6707572937012" r="1" stroke="black" stroke-width="2" fill="none" />
<path d="M676.0325546264648,533.8162727355957 Q700.0267359465361,490.47756481170654,723.7774085998535,533.786937713623" stroke-width="2" stroke="black" fill="black" fill-opacity="0" />
<circle cx="674.44970703125" cy="576.8970546722412" r="1" stroke="black" stroke-width="2" fill="none" />
<circle cx="725.4658031463623" cy="577.1083469390869" r="1" stroke="black" stroke-width="2" fill="none" />
<path d="M673.290958404541,597.8937084674835 Q700.0812679082155,630.5880889892578,726.9718017578125,597.782812833786" stroke-width="2" stroke="black" fill="black" fill-opacity="0" />
<circle cx="673.6735744476318" cy="684.9519557952881" r="1" stroke="black" stroke-width="2" fill="none" />
<circle cx="726.7432556152344" cy="684.5851993560791" r="1" stroke="black" stroke-width="2" fill="none" />
<path d="M672.5729866027832,738.6650619506836 Q700.1019981503487,727.1082859039307,727.4719429016113,738.7600784301758" stroke-width="2" stroke="black" fill="black" fill-opacity="0" />
<circle cx="674.7815036773682" cy="768.4486827850342" r="1" stroke="black" stroke-width="2" fill="none" />
<circle cx="725.493444442749" cy="769.0379409790039" r="1" stroke="black" stroke-width="2" fill="none" />
<path d="M672.8827686309814,784.7695350646973 Q700.0749174207449,828.3333148956299,728.0107269287109,784.4113845825195" stroke-width="2" stroke="black" fill="black" fill-opacity="0" />
<circle cx="674.3837280273438" cy="854.2911338806152" r="1" stroke="black" stroke-width="2" fill="none" />
<circle cx="725.9626445770264" cy="853.6180763244629" r="1" stroke="black" stroke-width="2" fill="none" />
<path d="M674.0680999755859,933.8491477966309 Q700.0282175242901,876.5764026641846,724.9891319274902,933.6193008422852" stroke-width="2" stroke="black" fill="black" fill-opacity="0" />
<circle cx="774.1456089019775" cy="-16.267257690429688" r="1" stroke="black" stroke-width="2" fill="none" />
<circle cx="826.1469326019287" cy="-16.47634506225586" r="1" stroke="black" stroke-width="2" fill="none" />
<path d="M773.2714614868164,38.34841537475586 Q800.0999325662851,24.256807327270508,826.9333553314209,38.468223571777344" stroke-width="2" stroke="black" fill="black" fill-opacity="0" />
<circle cx="776.7654094696045" cy="62.07124710083008" r="1" stroke="black" stroke-width="2" fill="none" />
<circle cx="822.7156810760498" cy="61.00275421142578" r="1" stroke="black" stroke-width="2" fill="none" />
<path d="M774.0310764312744,77.01711463928223 Q800.0860756188631,86.41245079040527,824.88942527771,77.68785285949707" stroke-width="2" stroke="black" fill="black" fill-opacity="0" />
<circle cx="776.6451797485352" cy="165.35977935791016" r="1" stroke="black" stroke-width="2" fill="none" />
<circle cx="822.9389610290527" cy="164.8077621459961" r="1" stroke="black" stroke-width="2" fill="none" />
<path d="M774.1288433074951,186.8195562362671 Q800.0026427209377,185.08064079284668,824.9377937316895,187.13671493530273" stroke-width="2" stroke="black" fill="black" fill-opacity="0" />
<circle cx="773.342357635498" cy="285.7944116592407" r="1" stroke="black" stroke-width="2" fill="none" />
<circle cx="826.7700042724609" cy="285.56075954437256" r="1" stroke="black" stroke-width="2" fill="none" />
<path d="M772.2477416992188,324.56989669799805 Q800.0351959764957,332.4415054321289,827.2471809387207,324.4518394470215" stroke-width="2" stroke="black" fill="black" fill-opacity="0" />
<circle cx="773.0698280334473" cy="386.30191230773926" r="1" stroke="black" stroke-width="2" fill="none" />
<circle cx="827.2711582183838" cy="386.037148475647" r="1" stroke="black" stroke-width="2" fill="none" />
<path d="M771.7239379882812,430.741174697876 Q800.0188242197037,432.2654151916504,827.719596862793,430.54255294799805" stroke-width="2" stroke="black" fill="black" fill-opacity="0" />
<circle cx="772.5695419311523" cy="449.6358451843262" r="1" stroke="black" stroke-width="2" fill="none" />
<circle cx="827.797046661377" cy="448.7953338623047" r="1" stroke="black" stroke-width="2" fill="none" />
<path d="M772.2060070037842,535.7438545227051 Q800.0329531878233,472.254186630249,826.6349754333496,535.4277114868164" stroke-width="2" stroke="black" fill="black" fill-opacity="0" />
<circle cx="773.636302947998" cy="586.618070602417" r="1" stroke="black" stroke-width="2" fill="none" />
<circle cx="826.70703125" cy="586.3615350723267" r="1" stroke="black" stroke-width="2" fill="none" />
<path d="M772.3119258880615,630.3876266479492 Q800.0133644342422,631.5671920776367,827.1416492462158,630.1911544799805" stroke-width="2" stroke="black" fill="black" fill-opacity="0" />
<circle cx="774.9776840209961" cy="676.9629611968994" r="1" stroke="black" stroke-width="2" fill="none" />
<circle cx="824.7112464904785" cy="677.4518909454346" r="1" stroke="black" stroke-width="2" fill="none" />
<path d="M775.0996227264404,738.7731437683105 Q800.070180490613,711.5595207214355,825.7890796661377,738.9089698791504" stroke-width="2" stroke="black" fill="black" fill-opacity="0" />
<circle cx="776.6805782318115" cy="761.7162132263184" r="1" stroke="black" stroke-width="2" fill="none" />
<circle cx="823.0657768249512" cy="761.2631988525391" r="1" stroke="black" stroke-width="2" fill="none" />
<path d="M773.7512874603271,773.2875843048096 Q799.9326024055481,800.4660600423813,825.4670600891113,773.4292392730713" stroke-width="2" stroke="black" fill="black" fill-opacity="0" />
<circle cx="775.0393581390381" cy="879.3744029998779" r="1" stroke="black" stroke-width="2" fill="none" />
<circle cx="824.8422012329102" cy="879.6391334533691" r="1" stroke="black" stroke-width="2" fill="none" />
<path d="M774.8489799499512,938.1241455078125 Q800.0761370360851,915.3918981552124,825.8124122619629,938.2525939941406" stroke-width="2" stroke="black" fill="black" fill-opacity="0" />
<circle cx="875.4784297943115" cy="-38.112335205078125" r="1" stroke="black" stroke-width="2" fill="none" />
<circle cx="924.7569026947021" cy="-38.37158203125" r="1" stroke="black" stroke-width="2" fill="none" />
<path d="M875.2850227355957,34.25298309326172 Q900.032700791955,-12.882637023925781,924.348014831543,34.188568115234375" stroke-width="2" stroke="black" fill="black" fill-opacity="0" />
<circle cx="875.5515174865723" cy="64.01198959350586" r="1" stroke="black" stroke-width="2" fill="none" />
<circle cx="924.8955554962158" cy="64.72166061401367" r="1" stroke="black" stroke-width="2" fill="none" />
<path d="M873.207841873169,76.47066879272461 Q900.0554651468992,125.82868576049805,927.8874702453613,75.96830368041992" stroke-width="2" stroke="black" fill="black" fill-opacity="0" />
<circle cx="874.7111396789551" cy="155.8737335205078" r="1" stroke="black" stroke-width="2" fill="none" />
<circle cx="925.64040184021" cy="155.28593063354492" r="1" stroke="black" stroke-width="2" fill="none" />
<path d="M874.4077053070068,233.7993621826172 Q900.0322748571634,178.70792770385742,924.7625312805176,233.6235466003418" stroke-width="2" stroke="black" fill="black" fill-opacity="0" />
<circle cx="873.7390842437744" cy="284.61610984802246" r="1" stroke="black" stroke-width="2" fill="none" />
<circle cx="926.6474876403809" cy="284.2882556915283" r="1" stroke="black" stroke-width="2" fill="none" />
<path d="M872.6931018829346,338.6668395996094 Q900.1021738052368,326.4465618133545,927.3926620483398,338.7686996459961" stroke-width="2" stroke="black" fill="black" fill-opacity="0" />
<circle cx="872.6756858825684" cy="386.34373664855957" r="1" stroke="black" stroke-width="2" fill="none" />
<circle cx="927.7506465911865" cy="386.06288146972656" r="1" stroke="black" stroke-width="2" fill="none" />
<path d="M871.218807220459,433.3689422607422 Q900.0159792155027,432.5038299560547,928.1950778961182,433.13055419921875" stroke-width="2" stroke="black" fill="black" fill-opacity="0" />
<circle cx="874.3305206298828" cy="477.9946479797363" r="1" stroke="black" stroke-width="2" fill="none" />
<circle cx="925.5342445373535" cy="478.1510810852051" r="1" stroke="black" stroke-width="2" fill="none" />
<path d="M873.2641868591309,499.663905441761 Q900.079285427928,531.0045433044434,926.8974742889404,499.57898887991905" stroke-width="2" stroke="black" fill="black" fill-opacity="0" />
<circle cx="873.4993686676025" cy="585.9452867507935" r="1" stroke="black" stroke-width="2" fill="none" />
<circle cx="926.6355495452881" cy="585.7110652923584" r="1" stroke="black" stroke-width="2" fill="none" />
<path d="M872.3877773284912,625.0437126159668 Q900.0319568067789,632.1971244812012,927.1054935455322,624.9187030792236" stroke-width="2" stroke="black" fill="black" fill-opacity="0" />
<circle cx="875.3222484588623" cy="675.355052947998" r="1" stroke="black" stroke-width="2" fill="none" />
<circle cx="924.3604640960693" cy="675.8788757324219" r="1" stroke="black" stroke-width="2" fill="none" />
<path d="M875.5260467529297,738.2282295227051 Q900.0598376691341,708.4432373046875,925.3480415344238,738.3630447387695" stroke-width="2" stroke="black" fill="black" fill-opacity="0" />
<circle cx="875.7888565063477" cy="772.7143650054932" r="1" stroke="black" stroke-width="2" fill="none" />
<circle cx="924.1068897247314" cy="773.0798511505127" r="1" stroke="black" stroke-width="2" fill="none" />
<path d="M875.8609523773193,836.8179588317871 Q900.0426535606384,803.7868463993073,924.7137928009033,836.9471015930176" stroke-width="2" stroke="black" fill="black" fill-opacity="0" />
<circle cx="872.9562664031982" cy="883.1411266326904" r="1" stroke="black" stroke-width="2" fill="none" />
<circle cx="926.6343097686768" cy="883.0134506225586" r="1" stroke="black" stroke-width="2" fill="none" />
<path d="M872.3473644256592,909.0491323471069 Q900.0802672952414,934.1116828918457,927.3063220977783,909.0849647521973" stroke-width="2" stroke="black" fill="black" fill-opacity="0" />
<path d="M-50,50 L950,50" stroke="black" />
<path d="M50,-50 L50,950" stroke="black" />
<path d="M-50,150 L950,150" stroke="black" />
<path d="M150,-50 L150,950" stroke="black" />
<path d="M-50,250 L950,250" stroke="black" />
<path d="M250,-50 L250,950" stroke="black" />
<path d="M-50,350 L950,350" stroke="black" />
<path d="M350,-50 L350,950" stroke="black" />
<path d="M-50,450 L950,450" stroke="black" />
<path d="M450,-50 L450,950" stroke="black" />
<path d="M-50,550 L950,550" stroke="black" />
<path d="M550,-50 L550,950" stroke="black" />
<path d="M-50,650 L950,650" stroke="black" />
<path d="M650,-50 L650,950" stroke="black" />
<path d="M-50,750 L950,750" stroke="black" />
<path d="M750,-50 L750,950" stroke="black" />
<path d="M-50,850 L950,850" stroke="black" />
<path d="M850,-50 L850,950" stroke="black" />
</svg>