<?xml version="1.0" encoding="UTF-8"?>
<svg xmlns="http://www.w3.org/2000/svg" xmlns:xlink="http://www.w3.org/1999/xlink"
     width="1000" height="1000" viewBox="-50 -50 1000 1000" diplayInline="False">
<defs>
</defs>
<circle cx="-24.929716110229492" cy="-34.859352111816406" r="1" stroke="black" stroke-width="2" fill="none" />
<circle cx="24.984140396118164" cy="-34.67792892456055" r="1" stroke="black" stroke-width="2" fill="none" />
<path d="M-25.21489906311035,-7.6076579093933105 Q0.01880715787410736,-19.434803009033203,25.090484619140625,-7.691591262817383" stroke-width="2" stroke="black" fill="black" fill-opacity="0" />
<circle cx="-23.825857162475586" cy="66.6447982788086" r="1" stroke="black" stroke-width="2" fill="none" />
<circle cx="23.729267120361328" cy="66.69334030151367" r="1" stroke="black" stroke-width="2" fill="none" />
<path d="M-23.963207244873047,120.4688720703125 Q0.025296196341514587,90.41009521484375,24.12078094482422,120.51783561706543" stroke-width="2" stroke="black" fill="black" fill-opacity="0" />
<circle cx="-24.939746856689453" cy="188.85648345947266" r="1" stroke="black" stroke-width="2" fill="none" />
<circle cx="25.160472869873047" cy="189.1028757095337" r="1" stroke="black" stroke-width="2" fill="none" />
<path d="M-25.801071166992188,228.25405883789062 Q0.01027439534664154,228.09677505493164,25.92827796936035,228.2722454071045" stroke-width="2" stroke="black" fill="black" fill-opacity="0" />
<circle cx="-25.70778465270996" cy="264.021053314209" r="1" stroke="black" stroke-width="2" fill="none" />
<circle cx="25.774295806884766" cy="264.22045516967773" r="1" stroke="black" stroke-width="2" fill="none" />
<path d="M-26.008729934692383,290.0195302963257 Q0.013915300369262695,279.1285743713379,25.843746185302734,289.9179916381836" stroke-width="2" stroke="black" fill="black" fill-opacity="0" />
<circle cx="-24.894556045532227" cy="375.77696418762207" r="1" stroke="black" stroke-width="2" fill="none" />
<circle cx="24.989622116088867" cy="375.6940155029297" r="1" stroke="black" stroke-width="2" fill="none" />
<path d="M-25.67776107788086,439.7752990722656 Q0.025365322828292847,411.44288539886475,25.75132179260254,439.72998046875" stroke-width="2" stroke="black" fill="black" fill-opacity="0" />
<circle cx="-25.412139892578125" cy="479.8717460632324" r="1" stroke="black" stroke-width="2" fill="none" />
<circle cx="24.963829040527344" cy="479.589807510376" r="1" stroke="black" stroke-width="2" fill="none" />
<path d="M-25.683303833007812,501.3407610654831 Q0.03460898995399475,528.8960990905762,25.26968002319336,501.557653427124" stroke-width="2" stroke="black" fill="black" fill-opacity="0" />
<circle cx="-25.302425384521484" cy="569.723690032959" r="1" stroke="black" stroke-width="2" fill="none" />
<circle cx="25.547670364379883" cy="569.3620319366455" r="1" stroke="black" stroke-width="2" fill="none" />
<path d="M-26.791242599487305,590.509485244751 Q0.02909424901008606,627.2135963439941,26.819393157958984,590.5879726409912" stroke-width="2" stroke="black" fill="black" fill-opacity="0" />
<circle cx="-25.408233642578125" cy="685.8944187164307" r="1" stroke="black" stroke-width="2" fill="none" />
<circle cx="25.11354637145996" cy="685.7913398742676" r="1" stroke="black" stroke-width="2" fill="none" />
<path d="M-25.411724090576172,709.7613830566406 Q0.02452784776687622,729.9927291870117,25.261079788208008,709.9349384307861" stroke-width="2" stroke="black" fill="black" fill-opacity="0" />
<circle cx="-26.101613998413086" cy="763.4695167541504" r="1" stroke="black" stroke-width="2" fill="none" />
<circle cx="26.172561645507812" cy="763.6760063171387" r="1" stroke="black" stroke-width="2" fill="none" />
<path d="M-26.406545639038086,789.2817640304565 Q0.012069538235664368,778.5682888031006,26.230976104736328,789.1722469329834" stroke-width="2" stroke="black" fill="black" fill-opacity="0" />
<circle cx="-24.728349685668945" cy="882.1630916595459" r="1" stroke="black" stroke-width="2" fill="none" />
<circle cx="25.004213333129883" cy="882.037145614624" r="1" stroke="black" stroke-width="2" fill="none" />
<path d="M-25.83978271484375,940.7264862060547 Q0.01995091140270233,921.0767650604248,25.92681884765625,940.5960121154785" stroke-width="2" stroke="black" fill="black" fill-opacity="0" />
<circle cx="79.38155555725098" cy="-40.256107330322266" r="1" stroke="black" stroke-width="2" fill="none" />
<circle cx="120.94715118408203" cy="-40.41941833496094" r="1" stroke="black" stroke-width="2" fill="none" />
<path d="M75.45750045776367,-28.37510871887207 Q100.05268515646458,-0.7227667570114136,124.63831901550293,-28.612468719482422" stroke-width="2" stroke="black" fill="black" fill-opacity="0" />
<circle cx="75.20253372192383" cy="85.49004650115967" r="1" stroke="black" stroke-width="2" fill="none" />
<circle cx="125.12484359741211" cy="85.39718341827393" r="1" stroke="black" stroke-width="2" fill="none" />
<path d="M73.96553421020508,138.13119888305664 Q100.02618923783302,125.32061958312988,126.13526725769043,137.96377563476562" stroke-width="2" stroke="black" fill="black" fill-opacity="0" />
<circle cx="70.39753913879395" cy="158.68494415283203" r="1" stroke="black" stroke-width="2" fill="none" />
<circle cx="129.82831001281738" cy="158.9405632019043" r="1" stroke="black" stroke-width="2" fill="none" />
<path d="M70.08711624145508,185.35467529296875 Q100.00542430579662,174.8623046875,129.7336711883545,185.07988166809082" stroke-width="2" stroke="black" fill="black" fill-opacity="0" />
<circle cx="80.93891716003418" cy="260.29247283935547" r="1" stroke="black" stroke-width="2" fill="none" />
<circle cx="118.69644355773926" cy="260.61966705322266" r="1" stroke="black" stroke-width="2" fill="none" />
<path d="M76.82660675048828,270.232608795166 Q100.05361773073673,278.8910884857178,123.24713706970215,270.3260192871094" stroke-width="2" stroke="black" fill="black" fill-opacity="0" />
<circle cx="76.28544998168945" cy="367.9794273376465" r="1" stroke="black" stroke-width="2" fill="none" />
<circle cx="123.56039237976074" cy="367.9515609741211" r="1" stroke="black" stroke-width="2" fill="none" />
<path d="M76.01753997802734,433.70384979248047 Q100.02294035255909,396.42498111724854,124.01469421386719,433.82641220092773" stroke-width="2" stroke="black" fill="black" fill-opacity="0" />
<circle cx="75.2159252166748" cy="485.427809715271" r="1" stroke="black" stroke-width="2" fill="none" />
<circle cx="125.11387825012207" cy="485.33162689208984" r="1" stroke="black" stroke-width="2" fill="none" />
<path d="M73.97787284851074,538.2546310424805 Q100.02398201823235,525.2518043518066,126.12079811096191,538.0885543823242" stroke-width="2" stroke="black" fill="black" fill-opacity="0" />
<circle cx="74.65427017211914" cy="587.2423286437988" r="1" stroke="black" stroke-width="2" fill="none" />
<circle cx="125.2215633392334" cy="587.2822866439819" r="1" stroke="black" stroke-width="2" fill="none" />
<path d="M74.47916603088379,612.8245849609375 Q99.99758644402027,630.131404876709,125.60643768310547,612.9722499847412" stroke-width="2" stroke="black" fill="black" fill-opacity="0" />
<circle cx="74.60893249511719" cy="683.8598289489746" r="1" stroke="black" stroke-width="2" fill="none" />
<circle cx="124.80605697631836" cy="683.6001796722412" r="1" stroke="black" stroke-width="2" fill="none" />
<path d="M74.7824649810791,705.5458269119263 Q100.045812651515,729.6085720062256,124.68523216247559,705.7878041267395" stroke-width="2" stroke="black" fill="black" fill-opacity="0" />
<circle cx="76.25577545166016" cy="767.4593467712402" r="1" stroke="black" stroke-width="2" fill="none" />
<circle cx="123.58141326904297" cy="767.4509124755859" r="1" stroke="black" stroke-width="2" fill="none" />
<path d="M76.02490615844727,832.098316192627 Q100.02046149969101,795.2187366485596,124.02176856994629,832.2301902770996" stroke-width="2" stroke="black" fill="black" fill-opacity="0" />
<circle cx="80.06237983703613" cy="860.1911849975586" r="1" stroke="black" stroke-width="2" fill="none" />
<circle cx="120.01846885681152" cy="860.2194137573242" r="1" stroke="black" stroke-width="2" fill="none" />
<path d="M75.98372840881348,871.1934471130371 Q100.10661650449038,892.4060130119324,124.15398216247559,870.9126472473145" stroke-width="2" stroke="black" fill="black" fill-opacity="0" />
<circle cx="180.65518951416016" cy="-39.4592170715332" r="1" stroke="black" stroke-width="2" fill="none" />
<circle cx="219.2006072998047" cy="-39.26169967651367" r="1" stroke="black" stroke-width="2" fill="none" />
<path d="M176.46068382263184,-29.21218490600586 Q200.1398250758648,-14.136360168457031,223.70122718811035,-29.48139762878418" stroke-width="2" stroke="black" fill="black" fill-opacity="0" />
<circle cx="175.91407203674316" cy="71.36312675476074" r="1" stroke="black" stroke-width="2" fill="none" />
<circle cx="224.02972221374512" cy="71.30621528625488" r="1" stroke="black" stroke-width="2" fill="none" />
<path d="M175.42439651489258,136.86474227905273 Q200.0255605429411,102.90871906280518,224.6183204650879,136.90850448608398" stroke-width="2" stroke="black" fill="black" fill-opacity="0" />
<circle cx="175.09801483154297" cy="165.25553512573242" r="1" stroke="black" stroke-width="2" fill="none" />
<circle cx="224.94759368896484" cy="165.42229461669922" r="1" stroke="black" stroke-width="2" fill="none" />
<path d="M174.83829498291016,195.07364082336426 Q200.02134102582932,181.53766632080078,225.09389305114746,194.99665927886963" stroke-width="2" stroke="black" fill="black" fill-opacity="0" />
<circle cx="174.7601718902588" cy="282.6788158416748" r="1" stroke="black" stroke-width="2" fill="none" />
<circle cx="224.6370964050293" cy="282.4150085449219" r="1" stroke="black" stroke-width="2" fill="none" />
<path d="M174.79787063598633,304.14140367507935 Q200.04146353900433,329.1373519897461,224.6852264404297,304.388973236084" stroke-width="2" stroke="black" fill="black" fill-opacity="0" />
<circle cx="175.59966468811035" cy="366.0764274597168" r="1" stroke="black" stroke-width="2" fill="none" />
<circle cx="224.4265022277832" cy="366.2014389038086" r="1" stroke="black" stroke-width="2" fill="none" />
<path d="M175.3957061767578,400.91270411014557 Q200.02652016282082,383.94972038269043,224.65376472473145,400.8570261001587" stroke-width="2" stroke="black" fill="black" fill-opacity="0" />
<circle cx="175.66830825805664" cy="466.2792510986328" r="1" stroke="black" stroke-width="2" fill="none" />
<circle cx="224.34364318847656" cy="466.3718490600586" r="1" stroke="black" stroke-width="2" fill="none" />
<path d="M175.5129280090332,505.52394914627075 Q200.02877600491047,485.59361934661865,224.6331386566162,505.47835779190063" stroke-width="2" stroke="black" fill="black" fill-opacity="0" />
<circle cx="174.71331024169922" cy="567.3949432373047" r="1" stroke="black" stroke-width="2" fill="none" />
<circle cx="225.69126510620117" cy="567.013729095459" r="1" stroke="black" stroke-width="2" fill="none" />
<path d="M172.9441680908203,588.0304088592529 Q200.02892024815083,626.8416061401367,227.18597412109375,588.0764236450195" stroke-width="2" stroke="black" fill="black" fill-opacity="0" />
<circle cx="176.71325492858887" cy="667.6676712036133" r="1" stroke="black" stroke-width="2" fill="none" />
<circle cx="223.1173801422119" cy="667.6806182861328" r="1" stroke="black" stroke-width="2" fill="none" />
<path d="M176.51001358032227,729.4940147399902 Q200.01402106881142,694.180666923523,223.5461940765381,729.6315383911133" stroke-width="2" stroke="black" fill="black" fill-opacity="0" />
<circle cx="176.33538246154785" cy="768.0954627990723" r="1" stroke="black" stroke-width="2" fill="none" />
<circle cx="223.51155471801758" cy="768.0661716461182" r="1" stroke="black" stroke-width="2" fill="none" />
<path d="M176.06332397460938,833.740104675293 Q200.02273754775524,796.5446901321411,223.96763610839844,833.8610877990723" stroke-width="2" stroke="black" fill="black" fill-opacity="0" />
<circle cx="180.93891716003418" cy="860.2924728393555" r="1" stroke="black" stroke-width="2" fill="none" />
<circle cx="218.69644355773926" cy="860.6196670532227" r="1" stroke="black" stroke-width="2" fill="none" />
<path d="M176.82660675048828,870.232608795166 Q200.05361773073673,878.8910884857178,223.24713706970215,870.3260192871094" stroke-width="2" stroke="black" fill="black" fill-opacity="0" />
<circle cx="275.4740047454834" cy="-34.132755279541016" r="1" stroke="black" stroke-width="2" fill="none" />
<circle cx="324.55757331848145" cy="-33.995662689208984" r="1" stroke="black" stroke-width="2" fill="none" />
<path d="M275.253698348999,-0.7197542786598206 Q300.0254714936018,-16.71156883239746,324.76281547546387,-0.7809978723526001" stroke-width="2" stroke="black" fill="black" fill-opacity="0" />
<circle cx="276.31366539001465" cy="70.38821029663086" r="1" stroke="black" stroke-width="2" fill="none" />
<circle cx="323.5915126800537" cy="70.33878707885742" r="1" stroke="black" stroke-width="2" fill="none" />
<path d="M275.9050998687744,135.52529907226562 Q300.024119541049,100.53319162130356,324.1275749206543,135.59747314453125" stroke-width="2" stroke="black" fill="black" fill-opacity="0" />
<circle cx="276.77725410461426" cy="167.79936599731445" r="1" stroke="black" stroke-width="2" fill="none" />
<circle cx="323.0544681549072" cy="167.80945587158203" r="1" stroke="black" stroke-width="2" fill="none" />
<path d="M276.56971168518066,229.62859725952148 Q300.0149791389704,194.33351278305054,323.48296546936035,229.76666831970215" stroke-width="2" stroke="black" fill="black" fill-opacity="0" />
<circle cx="259.84410858154297" cy="244.56305694580078" r="1" stroke="black" stroke-width="2" fill="none" />
<circle cx="340.4136619567871" cy="245.19583892822266" r="1" stroke="black" stroke-width="2" fill="none" />
<path d="M259.6625633239746,278.8447322845459 Q300.03025080263615,265.4455757141113,340.2802276611328,278.209436416626" stroke-width="2" stroke="black" fill="black" fill-opacity="0" />
<circle cx="266.6527519226074" cy="353.7013626098633" r="1" stroke="black" stroke-width="2" fill="none" />
<circle cx="333.5603561401367" cy="354.1435317993164" r="1" stroke="black" stroke-width="2" fill="none" />
<path d="M266.4078788757324,382.7066898345947 Q300.0243084579706,371.5181350708008,333.46817779541016,382.28020668029785" stroke-width="2" stroke="black" fill="black" fill-opacity="0" />
<circle cx="275.1069850921631" cy="487.52471923828125" r="1" stroke="black" stroke-width="2" fill="none" />
<circle cx="325.15350914001465" cy="487.6228609085083" r="1" stroke="black" stroke-width="2" fill="none" />
<path d="M274.07044219970703,532.4161262512207 Q300.02747970819473,527.022289276123,326.0535316467285,532.3388481140137" stroke-width="2" stroke="black" fill="black" fill-opacity="0" />
<circle cx="276.0502986907959" cy="566.8244438171387" r="1" stroke="black" stroke-width="2" fill="none" />
<circle cx="323.9620018005371" cy="566.8645133972168" r="1" stroke="black" stroke-width="2" fill="none" />
<path d="M275.95398902893066,608.5670127868652 Q300.01839423179626,586.8695287704468,324.24952125549316,608.5409317016602" stroke-width="2" stroke="black" fill="black" fill-opacity="0" />
<circle cx="274.79233741760254" cy="681.93337059021" r="1" stroke="black" stroke-width="2" fill="none" />
<circle cx="324.6320114135742" cy="681.6640529632568" r="1" stroke="black" stroke-width="2" fill="none" />
<path d="M274.74477767944336,703.3295497894287 Q300.0386083126068,728.9626502990723,324.7610893249512,703.571280002594" stroke-width="2" stroke="black" fill="black" fill-opacity="0" />
<circle cx="276.3159980773926" cy="766.7424430847168" r="1" stroke="black" stroke-width="2" fill="none" />
<circle cx="323.5287570953369" cy="766.7815093994141" r="1" stroke="black" stroke-width="2" fill="none" />
<path d="M276.15306854248047,826.8716430664062 Q300.0267521739006,792.4859585762024,323.96337890625,826.9663105010986" stroke-width="2" stroke="black" fill="black" fill-opacity="0" />
<circle cx="275.2945499420166" cy="865.5638275146484" r="1" stroke="black" stroke-width="2" fill="none" />
<circle cx="324.7450981140137" cy="865.7188606262207" r="1" stroke="black" stroke-width="2" fill="none" />
<path d="M275.05013275146484,896.7481236457825 Q300.02307419478893,882.273530960083,324.914888381958,896.6783909797668" stroke-width="2" stroke="black" fill="black" fill-opacity="0" />
<circle cx="375.0700626373291" cy="-11.796133995056152" r="1" stroke="black" stroke-width="2" fill="none" />
<circle cx="425.1701774597168" cy="-11.621644020080566" r="1" stroke="black" stroke-width="2" fill="none" />
<path d="M374.1233215332031,30.29400062561035 Q400.0185837894678,27.58854866027832,426.00255966186523,30.2656307220459" stroke-width="2" stroke="black" fill="black" fill-opacity="0" />
<circle cx="377.3874092102051" cy="58.46304702758789" r="1" stroke="black" stroke-width="2" fill="none" />
<circle cx="423.13903617858887" cy="58.202152252197266" r="1" stroke="black" stroke-width="2" fill="none" />
<path d="M373.99406242370605,73.57061004638672 Q399.9848263710737,116.46041107177734,426.0952320098877,73.45082664489746" stroke-width="2" stroke="black" fill="black" fill-opacity="0" />
<circle cx="374.6677436828613" cy="174.13960456848145" r="1" stroke="black" stroke-width="2" fill="none" />
<circle cx="425.27537536621094" cy="173.81503105163574" r="1" stroke="black" stroke-width="2" fill="none" />
<path d="M373.7104969024658,195.21047163009644 Q400.02942411601543,227.91898918151855,426.12425422668457,195.3505401611328" stroke-width="2" stroke="black" fill="black" fill-opacity="0" />
<circle cx="369.95999336242676" cy="258.1083641052246" r="1" stroke="black" stroke-width="2" fill="none" />
<circle cx="430.2591037750244" cy="258.3973960876465" r="1" stroke="black" stroke-width="2" fill="none" />
<path d="M369.66164207458496,284.971209526062 Q400.00978468358517,274.4707317352295,430.1682319641113,284.67346382141113" stroke-width="2" stroke="black" fill="black" fill-opacity="0" />
<circle cx="379.5201816558838" cy="359.8356018066406" r="1" stroke="black" stroke-width="2" fill="none" />
<circle cx="420.7582149505615" cy="359.71118545532227" r="1" stroke="black" stroke-width="2" fill="none" />
<path d="M375.5647430419922,371.53782653808594 Q400.06366704404354,397.88117933273315,424.5396022796631,371.29161643981934" stroke-width="2" stroke="black" fill="black" fill-opacity="0" />
<circle cx="375.1681423187256" cy="465.37191009521484" r="1" stroke="black" stroke-width="2" fill="none" />
<circle cx="424.8745460510254" cy="465.5332679748535" r="1" stroke="black" stroke-width="2" fill="none" />
<path d="M374.9158363342285,495.8970775604248 Q400.02235148847103,481.8795852661133,425.032922744751,495.82299613952637" stroke-width="2" stroke="black" fill="black" fill-opacity="0" />
<circle cx="374.6724376678467" cy="573.4448108673096" r="1" stroke="black" stroke-width="2" fill="none" />
<circle cx="425.31821632385254" cy="573.1143989562988" r="1" stroke="black" stroke-width="2" fill="none" />
<path d="M373.6315517425537,594.4708232879639 Q400.02937193214893,627.8080024719238,426.2336235046387,594.6012034416199" stroke-width="2" stroke="black" fill="black" fill-opacity="0" />
<circle cx="374.7012176513672" cy="688.4279041290283" r="1" stroke="black" stroke-width="2" fill="none" />
<circle cx="425.2089653015137" cy="688.7028007507324" r="1" stroke="black" stroke-width="2" fill="none" />
<path d="M374.28167152404785,716.2957725524902 Q399.9400001466274,730.217586517334,425.89078521728516,716.4899291992188" stroke-width="2" stroke="black" fill="black" fill-opacity="0" />
<circle cx="374.6806831359863" cy="772.2238235473633" r="1" stroke="black" stroke-width="2" fill="none" />
<circle cx="425.3935070037842" cy="771.8831596374512" r="1" stroke="black" stroke-width="2" fill="none" />
<path d="M373.4928207397461,793.1710162162781 Q400.02928115427494,827.6129665374756,426.4258327484131,793.284369468689" stroke-width="2" stroke="black" fill="black" fill-opacity="0" />
<circle cx="374.6255054473877" cy="878.1241264343262" r="1" stroke="black" stroke-width="2" fill="none" />
<circle cx="425.0455722808838" cy="877.8305912017822" r="1" stroke="black" stroke-width="2" fill="none" />
<path d="M374.14603996276855,899.4620003700256 Q400.0316685438156,928.5788478851318,425.51540184020996,899.656233549118" stroke-width="2" stroke="black" fill="black" fill-opacity="0" />
<circle cx="476.4869499206543" cy="-31.658058166503906" r="1" stroke="black" stroke-width="2" fill="none" />
<circle cx="523.3612976074219" cy="-31.688936233520508" r="1" stroke="black" stroke-width="2" fill="none" />
<path d="M476.21018409729004,33.61494064331055 Q500.0227128714323,-3.3193864822387695,523.8176727294922,33.7353515625" stroke-width="2" stroke="black" fill="black" fill-opacity="0" />
<circle cx="476.0418300628662" cy="66.73920059204102" r="1" stroke="black" stroke-width="2" fill="none" />
<circle cx="523.9731826782227" cy="66.83998107910156" r="1" stroke="black" stroke-width="2" fill="none" />
<path d="M475.8662757873535,103.85285663604736 Q500.0288512259722,85.29602718353271,524.2394714355469,103.81044578552246" stroke-width="2" stroke="black" fill="black" fill-opacity="0" />
<circle cx="475.3363208770752" cy="183.22062492370605" r="1" stroke="black" stroke-width="2" fill="none" />
<circle cx="524.9683246612549" cy="183.08721923828125" r="1" stroke="black" stroke-width="2" fill="none" />
<path d="M474.17347526550293,240.82149505615234 Q500.0192994773388,222.6053981781006,525.9154357910156,240.67825317382812" stroke-width="2" stroke="black" fill="black" fill-opacity="0" />
<circle cx="475.1743698120117" cy="286.52863693237305" r="1" stroke="black" stroke-width="2" fill="none" />
<circle cx="525.1163959503174" cy="286.5131893157959" r="1" stroke="black" stroke-width="2" fill="none" />
<path d="M474.0060329437256,335.52349853515625 Q500.0407782047987,326.1732540130615,526.1136283874512,335.3756294250488" stroke-width="2" stroke="black" fill="black" fill-opacity="0" />
<circle cx="475.69684982299805" cy="372.021635055542" r="1" stroke="black" stroke-width="2" fill="none" />
<circle cx="524.2725811004639" cy="371.960485458374" r="1" stroke="black" stroke-width="2" fill="none" />
<path d="M475.1569061279297,437.5040168762207 Q500.02548103034496,404.3677773475647,524.8923645019531,437.53149795532227" stroke-width="2" stroke="black" fill="black" fill-opacity="0" />
<circle cx="474.70702934265137" cy="483.13500785827637" r="1" stroke="black" stroke-width="2" fill="none" />
<circle cx="524.6971302032471" cy="482.87280464172363" r="1" stroke="black" stroke-width="2" fill="none" />
<path d="M474.7967700958252,504.67902278900146 Q500.043147161603,529.3126087188721,524.6804580688477,504.9244465827942" stroke-width="2" stroke="black" fill="black" fill-opacity="0" />
<circle cx="473.9172840118408" cy="563.49658203125" r="1" stroke="black" stroke-width="2" fill="none" />
<circle cx="526.1532649993896" cy="563.7027282714844" r="1" stroke="black" stroke-width="2" fill="none" />
<path d="M473.6126403808594,589.3317890167236 Q500.0122196227312,578.6003704071045,526.2126293182373,589.22265625" stroke-width="2" stroke="black" fill="black" fill-opacity="0" />
<circle cx="475.35271072387695" cy="681.7899017333984" r="1" stroke="black" stroke-width="2" fill="none" />
<circle cx="524.9094486236572" cy="681.667200088501" r="1" stroke="black" stroke-width="2" fill="none" />
<path d="M474.2661609649658,740.4935989379883 Q500.02045749127865,720.3439826965332,525.8181743621826,740.3706741333008" stroke-width="2" stroke="black" fill="black" fill-opacity="0" />
<circle cx="480.9389171600342" cy="760.2924728393555" r="1" stroke="black" stroke-width="2" fill="none" />
<circle cx="518.6964435577393" cy="760.6196670532227" r="1" stroke="black" stroke-width="2" fill="none" />
<path d="M476.8266067504883,770.232608795166 Q500.05361773073673,778.8910884857178,523.2471370697021,770.3260192871094" stroke-width="2" stroke="black" fill="black" fill-opacity="0" />
<circle cx="470.691219329834" cy="859.0891799926758" r="1" stroke="black" stroke-width="2" fill="none" />
<circle cx="529.5233249664307" cy="859.3575096130371" r="1" stroke="black" stroke-width="2" fill="none" />
<path d="M470.3861083984375,885.3872995376587 Q500.0090156644583,875.1229934692383,529.4366264343262,885.1123847961426" stroke-width="2" stroke="black" fill="black" fill-opacity="0" />
<circle cx="570.5871505737305" cy="-41.0708122253418" r="1" stroke="black" stroke-width="2" fill="none" />
<circle cx="629.6477127075195" cy="-40.84310531616211" r="1" stroke="black" stroke-width="2" fill="none" />
<path d="M570.2667083740234,-14.395991325378418 Q600.0011411160231,-24.966365814208984,629.5472946166992,-14.654958724975586" stroke-width="2" stroke="black" fill="black" fill-opacity="0" />
<circle cx="576.4290809631348" cy="67.10313415527344" r="1" stroke="black" stroke-width="2" fill="none" />
<circle cx="623.4075355529785" cy="67.12790298461914" r="1" stroke="black" stroke-width="2" fill="none" />
<path d="M576.2453327178955,128.46752548217773 Q600.0193083137274,93.37914037704468,623.8398609161377,128.58469581604004" stroke-width="2" stroke="black" fill="black" fill-opacity="0" />
<circle cx="574.6443309783936" cy="180.70651626586914" r="1" stroke="black" stroke-width="2" fill="none" />
<circle cx="624.8543949127197" cy="180.42973518371582" r="1" stroke="black" stroke-width="2" fill="none" />
<path d="M574.4660205841064,202.1701259613037 Q600.0361810028553,228.9556770324707,625.0869388580322,202.39724564552307" stroke-width="2" stroke="black" fill="black" fill-opacity="0" />
<circle cx="577.9307270050049" cy="258.794189453125" r="1" stroke="black" stroke-width="2" fill="none" />
<circle cx="622.7492218017578" cy="258.3778610229492" r="1" stroke="black" stroke-width="2" fill="none" />
<path d="M574.3611125946045,272.76221656799316 Q599.9676087200642,312.91789722442627,625.6838531494141,272.6144599914551" stroke-width="2" stroke="black" fill="black" fill-opacity="0" />
<circle cx="576.5277709960938" cy="368.5310916900635" r="1" stroke="black" stroke-width="2" fill="none" />
<circle cx="623.3231735229492" cy="368.49661445617676" r="1" stroke="black" stroke-width="2" fill="none" />
<path d="M576.2405643463135,433.85440826416016 Q600.0220198482275,396.9813446998596,623.7855777740479,433.96975326538086" stroke-width="2" stroke="black" fill="black" fill-opacity="0" />
<circle cx="574.6410312652588" cy="477.3884811401367" r="1" stroke="black" stroke-width="2" fill="none" />
<circle cx="625.0802841186523" cy="477.0900592803955" r="1" stroke="black" stroke-width="2" fill="none" />
<path d="M574.0739116668701,498.6714428663254 Q600.0304310619831,528.4457015991211,625.619119644165,498.85613775253296" stroke-width="2" stroke="black" fill="black" fill-opacity="0" />
<circle cx="575.5558795928955" cy="570.9440269470215" r="1" stroke="black" stroke-width="2" fill="none" />
<circle cx="624.3882083892822" cy="570.8872737884521" r="1" stroke="black" stroke-width="2" fill="none" />
<path d="M575.0658359527588,637.4642677307129 Q600.0249462276697,602.9215312004089,624.983419418335,637.5036659240723" stroke-width="2" stroke="black" fill="black" fill-opacity="0" />
<circle cx="576.536735534668" cy="667.7672958374023" r="1" stroke="black" stroke-width="2" fill="none" />
<circle cx="623.2999515533447" cy="667.7619781494141" r="1" stroke="black" stroke-width="2" fill="none" />
<path d="M576.3083324432373,731.3577613830566 Q600.0195731967688,695.0997185707092,623.735258102417,731.4929084777832" stroke-width="2" stroke="black" fill="black" fill-opacity="0" />
<circle cx="576.292459487915" cy="768.2860774993896" r="1" stroke="black" stroke-width="2" fill="none" />
<circle cx="623.5590553283691" cy="768.2506065368652" r="1" stroke="black" stroke-width="2" fill="none" />
<path d="M576.0023155212402,834.3473014831543 Q600.0212065279484,797.0643062591553,624.0276050567627,834.4582252502441" stroke-width="2" stroke="black" fill="black" fill-opacity="0" />
<circle cx="575.010103225708" cy="889.2295866012573" r="1" stroke="black" stroke-width="2" fill="none" />
<circle cx="625.1995582580566" cy="889.5196285247803" r="1" stroke="black" stroke-width="2" fill="none" />
<path d="M574.1991329193115,927.0890483856201 Q600.0051090270281,928.4496440887451,625.929708480835,927.1346244812012" stroke-width="2" stroke="black" fill="black" fill-opacity="0" />
<circle cx="675.1256160736084" cy="-18.81422233581543" r="1" stroke="black" stroke-width="2" fill="none" />
<circle cx="725.1268062591553" cy="-18.934307098388672" r="1" stroke="black" stroke-width="2" fill="none" />
<path d="M674.0565948486328,40.809810638427734 Q700.0203958153725,19.826383590698242,726.0309982299805,40.68873596191406" stroke-width="2" stroke="black" fill="black" fill-opacity="0" />
<circle cx="675.3964691162109" cy="82.97528266906738" r="1" stroke="black" stroke-width="2" fill="none" />
<circle cx="724.8987560272217" cy="82.84449195861816" r="1" stroke="black" stroke-width="2" fill="none" />
<path d="M674.2500038146973,140.65055084228516 Q700.0195895135403,122.10943984985352,725.8364925384521,140.51236724853516" stroke-width="2" stroke="black" fill="black" fill-opacity="0" />
<circle cx="670.8699836730957" cy="159.32953262329102" r="1" stroke="black" stroke-width="2" fill="none" />
<circle cx="729.3429183959961" cy="159.5939826965332" r="1" stroke="black" stroke-width="2" fill="none" />
<path d="M670.563663482666,185.4814968109131 Q700.0090452134609,175.28238105773926,729.25758934021,185.21164512634277" stroke-width="2" stroke="black" fill="black" fill-opacity="0" />
<circle cx="676.1229019165039" cy="266.72726821899414" r="1" stroke="black" stroke-width="2" fill="none" />
<circle cx="723.8272285461426" cy="266.76955795288086" r="1" stroke="black" stroke-width="2" fill="none" />
<path d="M676.0057621002197,315.6320514678955 Q700.0220600515604,288.9820604324341,724.1750316619873,315.6491527557373" stroke-width="2" stroke="black" fill="black" fill-opacity="0" />
<circle cx="673.132209777832" cy="362.4013252258301" r="1" stroke="black" stroke-width="2" fill="none" />
<circle cx="726.9587345123291" cy="362.6174011230469" r="1" stroke="black" stroke-width="2" fill="none" />
<path d="M672.820384979248,387.9946041107178 Q700.0084789693356,377.5511474609375,726.9883480072021,387.8632354736328" stroke-width="2" stroke="black" fill="black" fill-opacity="0" />
<circle cx="676.159595489502" cy="466.5065574645996" r="1" stroke="black" stroke-width="2" fill="none" />
<circle cx="723.7058334350586" cy="466.55849838256836" r="1" stroke="black" stroke-width="2" fill="none" />
<path d="M676.007905960083,524.5416831970215 Q700.0290241390467,491.57722187042236,724.1334800720215,524.6156902313232" stroke-width="2" stroke="black" fill="black" fill-opacity="0" />
<circle cx="675.1384887695312" cy="587.6976499557495" r="1" stroke="black" stroke-width="2" fill="none" />
<circle cx="725.1167659759521" cy="587.812894821167" r="1" stroke="black" stroke-width="2" fill="none" />
<path d="M674.1234130859375,631.8746452331543 Q700.0255954116583,627.1092529296875,726.000244140625,631.8091087341309" stroke-width="2" stroke="black" fill="black" fill-opacity="0" />
<circle cx="675.2857055664062" cy="683.5189380645752" r="1" stroke="black" stroke-width="2" fill="none" />
<circle cx="725.0297107696533" cy="683.3858127593994" r="1" stroke="black" stroke-width="2" fill="none" />
<path d="M674.1032085418701,740.7229423522949 Q700.01645809412,723.0878009796143,725.9848117828369,740.5758781433105" stroke-width="2" stroke="black" fill="black" fill-opacity="0" />
<circle cx="670.7603340148926" cy="759.179027557373" r="1" stroke="black" stroke-width="2" fill="none" />
<circle cx="729.4564018249512" cy="759.4395866394043" r="1" stroke="black" stroke-width="2" fill="none" />
<path d="M670.4523601531982,785.4638290405273 Q700.0078638345003,775.1849956512451,729.3683662414551,785.1936454772949" stroke-width="2" stroke="black" fill="black" fill-opacity="0" />
<circle cx="675.8904571533203" cy="866.6013488769531" r="1" stroke="black" stroke-width="2" fill="none" />
<circle cx="724.1211395263672" cy="866.6613311767578" r="1" stroke="black" stroke-width="2" fill="none" />
<path d="M675.7724475860596,907.5324578285217 Q700.0226092785597,886.4170808792114,724.4120235443115,907.4988112449646" stroke-width="2" stroke="black" fill="black" fill-opacity="0" />
<circle cx="780.9389171600342" cy="-39.70752716064453" r="1" stroke="black" stroke-width="2" fill="none" />
<circle cx="818.6964435577393" cy="-39.380332946777344" r="1" stroke="black" stroke-width="2" fill="none" />
<path d="M776.8266067504883,-29.767391204833984 Q800.0536177307367,-21.108911514282227,823.2471370697021,-29.673980712890625" stroke-width="2" stroke="black" fill="black" fill-opacity="0" />
<circle cx="775.0355529785156" cy="90.08457946777344" r="1" stroke="black" stroke-width="2" fill="none" />
<circle cx="825.1484622955322" cy="90.46663475036621" r="1" stroke="black" stroke-width="2" fill="none" />
<path d="M774.3351802825928,124.41546630859375 Q799.9945791363716,129.06189346313477,825.7946510314941,124.5213565826416" stroke-width="2" stroke="black" fill="black" fill-opacity="0" />
<circle cx="777.4939937591553" cy="158.52801132202148" r="1" stroke="black" stroke-width="2" fill="none" />
<circle cx="823.0625629425049" cy="158.23662567138672" r="1" stroke="black" stroke-width="2" fill="none" />
<path d="M774.066068649292,173.4120216369629 Q799.9814494848251,215.76546382904053,826.0145301818848,173.28675079345703" stroke-width="2" stroke="black" fill="black" fill-opacity="0" />
<circle cx="774.6895751953125" cy="270.90760231018066" r="1" stroke="black" stroke-width="2" fill="none" />
<circle cx="825.4746685028076" cy="270.5558853149414" r="1" stroke="black" stroke-width="2" fill="none" />
<path d="M773.3432712554932,291.76982593536377 Q800.029183357954,327.4027156829834,826.6330280303955,291.86482429504395" stroke-width="2" stroke="black" fill="black" fill-opacity="0" />
<circle cx="774.59792137146" cy="384.8919448852539" r="1" stroke="black" stroke-width="2" fill="none" />
<circle cx="824.9506454467773" cy="384.703782081604" r="1" stroke="black" stroke-width="2" fill="none" />
<path d="M774.702615737915,407.5791525840759 Q800.0365513265133,429.8125476837158,824.9371757507324,407.7895655632019" stroke-width="2" stroke="black" fill="black" fill-opacity="0" />
<circle cx="777.2273349761963" cy="458.36548614501953" r="1" stroke="black" stroke-width="2" fill="none" />
<circle cx="823.2538795471191" cy="458.15038681030273" r="1" stroke="black" stroke-width="2" fill="none" />
<path d="M773.8859214782715,473.8087863922119 Q799.9899000227451,517.5041313171387,826.2164344787598,473.69723892211914" stroke-width="2" stroke="black" fill="black" fill-opacity="0" />
<circle cx="776.2377281188965" cy="566.5677947998047" r="1" stroke="black" stroke-width="2" fill="none" />
<circle cx="823.6137924194336" cy="566.6200866699219" r="1" stroke="black" stroke-width="2" fill="none" />
<path d="M776.0801639556885,625.9663429260254 Q800.0307084321976,592.0449213981628,824.0537052154541,626.0504779815674" stroke-width="2" stroke="black" fill="black" fill-opacity="0" />
<circle cx="767.2224731445312" cy="654.4446792602539" r="1" stroke="black" stroke-width="2" fill="none" />
<circle cx="833.0064697265625" cy="654.8271522521973" r="1" stroke="black" stroke-width="2" fill="none" />
<path d="M766.9553985595703,683.3117198944092 Q800.0156459361315,672.0287494659424,832.9048614501953,682.9217624664307" stroke-width="2" stroke="black" fill="black" fill-opacity="0" />
<circle cx="774.5922470092773" cy="785.584903717041" r="1" stroke="black" stroke-width="2" fill="none" />
<circle cx="825.0647640228271" cy="785.4556188583374" r="1" stroke="black" stroke-width="2" fill="none" />
<path d="M774.6221103668213,809.0897674560547 Q800.0282267928123,829.9388675689697,825.1626873016357,809.2746753692627" stroke-width="2" stroke="black" fill="black" fill-opacity="0" />
<circle cx="775.4193172454834" cy="877.4972438812256" r="1" stroke="black" stroke-width="2" fill="none" />
<circle cx="824.7152061462402" cy="877.405179977417" r="1" stroke="black" stroke-width="2" fill="none" />
<path d="M774.5642967224121,939.5007705688477 Q800.0243535488844,913.5335035324097,825.5073204040527,939.4398574829102" stroke-width="2" stroke="black" fill="black" fill-opacity="0" />
<circle cx="876.3173217773438" cy="-31.5225830078125" r="1" stroke="black" stroke-width="2" fill="none" />
<circle cx="923.537675857544" cy="-31.560836791992188" r="1" stroke="black" stroke-width="2" fill="none" />
<path d="M876.0163421630859,34.543582916259766 Q900.0206500440836,-2.6234445571899414,924.0124053955078,34.65013885498047" stroke-width="2" stroke="black" fill="black" fill-opacity="0" />
<circle cx="880.9389171600342" cy="60.29247283935547" r="1" stroke="black" stroke-width="2" fill="none" />
<circle cx="918.6964435577393" cy="60.619667053222656" r="1" stroke="black" stroke-width="2" fill="none" />
<path d="M876.8266067504883,70.23260879516602 Q900.0536177307367,78.89108848571777,923.2471370697021,70.32601928710938" stroke-width="2" stroke="black" fill="black" fill-opacity="0" />
<circle cx="876.9262294769287" cy="158.18196487426758" r="1" stroke="black" stroke-width="2" fill="none" />
<circle cx="923.4699153900146" cy="158.0530014038086" r="1" stroke="black" stroke-width="2" fill="none" />
<path d="M873.6824989318848,174.25678825378418 Q899.9994426816702,219.46737098693848,926.4444217681885,174.1607437133789" stroke-width="2" stroke="black" fill="black" fill-opacity="0" />
<circle cx="875.1162700653076" cy="286.6115036010742" r="1" stroke="black" stroke-width="2" fill="none" />
<circle cx="925.1720542907715" cy="286.6085214614868" r="1" stroke="black" stroke-width="2" fill="none" />
<path d="M873.9606666564941,335.2669219970703 Q900.039184615016,326.3173294067383,926.1604499816895,335.125732421875" stroke-width="2" stroke="black" fill="black" fill-opacity="0" />
<circle cx="874.7225322723389" cy="366.02912521362305" r="1" stroke="black" stroke-width="2" fill="none" />
<circle cx="925.7754859924316" cy="365.63643646240234" r="1" stroke="black" stroke-width="2" fill="none" />
<path d="M872.7889785766602,386.57641410827637 Q900.028818950057,426.6234321594238,927.4009819030762,386.6033821105957" stroke-width="2" stroke="black" fill="black" fill-opacity="0" />
<circle cx="878.3231620788574" cy="459.04366302490234" r="1" stroke="black" stroke-width="2" fill="none" />
<circle cx="922.3896541595459" cy="458.5833511352539" r="1" stroke="black" stroke-width="2" fill="none" />
<path d="M874.6387004852295,472.289587020874 Q899.9688362181187,509.9360933303833,925.3920059204102,472.11982917785645" stroke-width="2" stroke="black" fill="black" fill-opacity="0" />
<circle cx="875.8351230621338" cy="566.433666229248" r="1" stroke="black" stroke-width="2" fill="none" />
<circle cx="924.1848373413086" cy="566.5451354980469" r="1" stroke="black" stroke-width="2" fill="none" />
<path d="M875.6472988128662,602.6107697486877 Q900.028022184968,584.7145309448242,924.4350662231445,602.5624263286591" stroke-width="2" stroke="black" fill="black" fill-opacity="0" />
<circle cx="868.5667705535889" cy="656.2376708984375" r="1" stroke="black" stroke-width="2" fill="none" />
<circle cx="931.6627712249756" cy="656.5622062683105" r="1" stroke="black" stroke-width="2" fill="none" />
<path d="M868.279806137085,684.2036790847778 Q900.0105178356171,673.2282104492188,931.5627727508545,683.8641834259033" stroke-width="2" stroke="black" fill="black" fill-opacity="0" />
<circle cx="875.9416790008545" cy="766.5256805419922" r="1" stroke="black" stroke-width="2" fill="none" />
<circle cx="924.0214385986328" cy="766.5668182373047" r="1" stroke="black" stroke-width="2" fill="none" />
<path d="M875.8325653076172,814.4312496185303 Q900.0205870270729,788.5046329498291,924.3585548400879,814.4376125335693" stroke-width="2" stroke="black" fill="black" fill-opacity="0" />
<circle cx="875.1147708892822" cy="887.2835311889648" r="1" stroke="black" stroke-width="2" fill="none" />
<circle cx="925.153003692627" cy="887.3546829223633" r="1" stroke="black" stroke-width="2" fill="none" />
<path d="M874.0465068817139,933.1706466674805 Q900.0306391716003,926.828691482544,926.0767917633057,933.076000213623" stroke-width="2" stroke="black" fill="black" fill-opacity="0" />
<path d="M-50,50 L950,50" stroke="black" />
<path d="M50,-50 L50,950" stroke="black" />
<path d="M-50,150 L950,150" stroke="black" />
<path d="M150,-50 L150,950" stroke="black" />
<path d="M-50,250 L950,250" stroke="black" />
<path d="M250,-50 L250,950" stroke="black" />
<path d="M-50,350 L950,350" stroke="black" />
<path d="M350,-50 L350,950" stroke="black" />
<path d="M-50,450 L950,450" stroke="black" />
<path d="M450,-50 L450,950" stroke="black" />
<path d="M-50,550 L950,550" stroke="black" />
<path d="M550,-50 L550,950" stroke="black" />
<path d="M-50,650 L950,650" stroke="black" />
<path d="M650,-50 L650,950" stroke="black" />
<path d="M-50,750 L950,750" stroke="black" />
<path d="M750,-50 L750,950" stroke="black" />
<path d="M-50,850 L950,850" stroke="black" />
<path d="M850,-50 L850,950" stroke="black" />
</svg>