<?xml version="1.0" encoding="UTF-8"?>
<svg xmlns="http://www.w3.org/2000/svg" xmlns:xlink="http://www.w3.org/1999/xlink"
     width="1000" height="1000" viewBox="-50 -50 1000 1000" diplayInline="False">
<defs>
</defs>
<circle cx="-23.946292877197266" cy="-30.27627944946289" r="1" stroke="black" stroke-width="2" fill="none" />
<circle cx="23.842214584350586" cy="-30.32354736328125" r="1" stroke="black" stroke-width="2" fill="none" />
<path d="M-24.334957122802734,35.78372573852539 Q0.023074626922607422,-0.04956561326980591,24.37157440185547,35.859046936035156" stroke-width="2" stroke="black" fill="black" fill-opacity="0" />
<circle cx="-24.60643768310547" cy="73.25317001342773" r="1" stroke="black" stroke-width="2" fill="none" />
<circle cx="24.620594024658203" cy="73.1848316192627" r="1" stroke="black" stroke-width="2" fill="none" />
<path d="M-25.233577728271484,138.45880508422852 Q0.02523103356361389,106.89195537567139,25.29292106628418,138.4591407775879" stroke-width="2" stroke="black" fill="black" fill-opacity="0" />
<circle cx="-24.956878662109375" cy="178.72296524047852" r="1" stroke="black" stroke-width="2" fill="none" />
<circle cx="25.140310287475586" cy="178.61974143981934" r="1" stroke="black" stroke-width="2" fill="none" />
<path d="M-25.90087890625,240.46743774414062 Q0.02221892774105072,216.14266204833984,25.983810424804688,240.3783187866211" stroke-width="2" stroke="black" fill="black" fill-opacity="0" />
<circle cx="-24.7158260345459" cy="284.2217893600464" r="1" stroke="black" stroke-width="2" fill="none" />
<circle cx="25.053279876708984" cy="284.0909252166748" r="1" stroke="black" stroke-width="2" fill="none" />
<path d="M-25.936368942260742,340.0868682861328 Q0.008406341075897217,323.9522304534912,26.019264221191406,339.93587493896484" stroke-width="2" stroke="black" fill="black" fill-opacity="0" />
<circle cx="-24.880905151367188" cy="386.7597990036011" r="1" stroke="black" stroke-width="2" fill="none" />
<circle cx="25.164690017700195" cy="386.7729911804199" r="1" stroke="black" stroke-width="2" fill="none" />
<path d="M-26.01734733581543,434.8043441772461 Q0.037330448627471924,426.42576026916504,26.138887405395508,434.67335510253906" stroke-width="2" stroke="black" fill="black" fill-opacity="0" />
<circle cx="-24.94584083557129" cy="488.86659145355225" r="1" stroke="black" stroke-width="2" fill="none" />
<circle cx="25.166276931762695" cy="489.1144380569458" r="1" stroke="black" stroke-width="2" fill="none" />
<path d="M-25.80564308166504,528.222620010376 Q0.01008981466293335,528.112964630127,25.9329833984375,528.2416305541992" stroke-width="2" stroke="black" fill="black" fill-opacity="0" />
<circle cx="-25.12727928161621" cy="589.4555702209473" r="1" stroke="black" stroke-width="2" fill="none" />
<circle cx="25.17062759399414" cy="589.8279962539673" r="1" stroke="black" stroke-width="2" fill="none" />
<path d="M-25.719520568847656,620.6371994018555 Q-0.045119017362594604,629.708330154419,25.88747215270996,620.8007583618164" stroke-width="2" stroke="black" fill="black" fill-opacity="0" />
<circle cx="-25.34974479675293" cy="687.2653713226318" r="1" stroke="black" stroke-width="2" fill="none" />
<circle cx="25.226436614990234" cy="687.310136795044" r="1" stroke="black" stroke-width="2" fill="none" />
<path d="M-25.529869079589844,712.9005556106567 Q-0.003691732883453369,730.139081954956,25.617464065551758,713.0491790771484" stroke-width="2" stroke="black" fill="black" fill-opacity="0" />
<circle cx="-25.42942237854004" cy="784.3106384277344" r="1" stroke="black" stroke-width="2" fill="none" />
<circle cx="24.889150619506836" cy="784.0745058059692" r="1" stroke="black" stroke-width="2" fill="none" />
<path d="M-25.263019561767578,806.3605303764343 Q0.04323698580265045,829.7466259002686,24.78449249267578,806.5917048454285" stroke-width="2" stroke="black" fill="black" fill-opacity="0" />
<circle cx="-25.40679931640625" cy="879.6545867919922" r="1" stroke="black" stroke-width="2" fill="none" />
<circle cx="24.973358154296875" cy="879.3712139129639" r="1" stroke="black" stroke-width="2" fill="none" />
<path d="M-25.703901290893555,901.1067029237747 Q0.03424397110939026,928.8558521270752,25.299623489379883,901.3207783699036" stroke-width="2" stroke="black" fill="black" fill-opacity="0" />
<circle cx="76.07801628112793" cy="-30.268142700195312" r="1" stroke="black" stroke-width="2" fill="none" />
<circle cx="123.81735801696777" cy="-30.315309524536133" r="1" stroke="black" stroke-width="2" fill="none" />
<path d="M75.69052314758301,35.73320388793945 Q100.02308413386345,-0.08375322818756104,124.34561538696289,35.80917739868164" stroke-width="2" stroke="black" fill="black" fill-opacity="0" />
<circle cx="75.41881370544434" cy="73.24642562866211" r="1" stroke="black" stroke-width="2" fill="none" />
<circle cx="124.59430313110352" cy="73.17824745178223" r="1" stroke="black" stroke-width="2" fill="none" />
<path d="M74.79369163513184,138.40609741210938 Q100.02526652812958,106.83349418640137,125.26508903503418,138.40727615356445" stroke-width="2" stroke="black" fill="black" fill-opacity="0" />
<circle cx="75.05472564697266" cy="178.70610809326172" r="1" stroke="black" stroke-width="2" fill="none" />
<circle cx="125.12781143188477" cy="178.60308647155762" r="1" stroke="black" stroke-width="2" fill="none" />
<path d="M74.11235427856445,240.4415512084961 Q100.02226148545742,216.09474182128906,125.97029113769531,240.35299682617188" stroke-width="2" stroke="black" fill="black" fill-opacity="0" />
<circle cx="75.28758239746094" cy="284.2308168411255" r="1" stroke="black" stroke-width="2" fill="none" />
<circle cx="125.05003356933594" cy="284.09998416900635" r="1" stroke="black" stroke-width="2" fill="none" />
<path d="M74.0667724609375,340.0745048522949 Q100.00833541154861,323.95766830444336,126.01601028442383,339.92354583740234" stroke-width="2" stroke="black" fill="black" fill-opacity="0" />
<circle cx="75.12140083312988" cy="386.76577949523926" r="1" stroke="black" stroke-width="2" fill="none" />
<circle cx="125.16219711303711" cy="386.779501914978" r="1" stroke="black" stroke-width="2" fill="none" />
<path d="M73.98565101623535,434.7856216430664 Q100.03727647662163,426.42706871032715,126.1358585357666,434.6549987792969" stroke-width="2" stroke="black" fill="black" fill-opacity="0" />
<circle cx="75.05644226074219" cy="488.8729200363159" r="1" stroke="black" stroke-width="2" fill="none" />
<circle cx="125.16379928588867" cy="489.1213274002075" r="1" stroke="black" stroke-width="2" fill="none" />
<path d="M74.19739151000977,528.2027759552002 Q100.0100316554308,528.1145610809326,125.9299201965332,528.2221946716309" stroke-width="2" stroke="black" fill="black" fill-opacity="0" />
<circle cx="74.8742733001709" cy="589.4519424438477" r="1" stroke="black" stroke-width="2" fill="none" />
<circle cx="125.16816139221191" cy="589.8242015838623" r="1" stroke="black" stroke-width="2" fill="none" />
<path d="M74.28268623352051,620.6117935180664 Q99.9546469449997,629.7091255187988,125.88545989990234,620.7756996154785" stroke-width="2" stroke="black" fill="black" fill-opacity="0" />
<circle cx="74.65229988098145" cy="687.2596588134766" r="1" stroke="black" stroke-width="2" fill="none" />
<circle cx="125.22416877746582" cy="687.3031406402588" r="1" stroke="black" stroke-width="2" fill="none" />
<path d="M74.47349548339844,712.8797836303711 Q99.99665205180645,730.1358966827393,125.61355590820312,713.0281562805176" stroke-width="2" stroke="black" fill="black" fill-opacity="0" />
<circle cx="74.5728874206543" cy="784.3034944534302" r="1" stroke="black" stroke-width="2" fill="none" />
<circle cx="124.88557243347168" cy="784.0666561126709" r="1" stroke="black" stroke-width="2" fill="none" />
<path d="M74.74013710021973,806.3415484428406 Q100.04334327578545,829.7425174713135,124.77960777282715,806.5730314254761" stroke-width="2" stroke="black" fill="black" fill-opacity="0" />
<circle cx="74.59374046325684" cy="879.6290264129639" r="1" stroke="black" stroke-width="2" fill="none" />
<circle cx="124.97456359863281" cy="879.3454837799072" r="1" stroke="black" stroke-width="2" fill="none" />
<path d="M74.2935905456543,901.0792335271835 Q100.03420180082321,928.851224899292,125.30323028564453,901.2929782867432" stroke-width="2" stroke="black" fill="black" fill-opacity="0" />
<circle cx="176.10232734680176" cy="-30.25999641418457" r="1" stroke="black" stroke-width="2" fill="none" />
<circle cx="223.79249954223633" cy="-30.307069778442383" r="1" stroke="black" stroke-width="2" fill="none" />
<path d="M175.71599960327148,35.68268966674805 Q200.0230943709612,-0.11793619394302368,224.31965827941895,35.759315490722656" stroke-width="2" stroke="black" fill="black" fill-opacity="0" />
<circle cx="175.44406700134277" cy="73.23967933654785" r="1" stroke="black" stroke-width="2" fill="none" />
<circle cx="224.56801223754883" cy="73.17165946960449" r="1" stroke="black" stroke-width="2" fill="none" />
<path d="M174.8209571838379,138.35338973999023 Q200.0253022313118,106.77503156661987,225.23725700378418,138.35541915893555" stroke-width="2" stroke="black" fill="black" fill-opacity="0" />
<circle cx="175.06632614135742" cy="178.68924522399902" r="1" stroke="black" stroke-width="2" fill="none" />
<circle cx="225.11531448364258" cy="178.5864315032959" r="1" stroke="black" stroke-width="2" fill="none" />
<path d="M174.12558555603027,240.41567611694336 Q200.02230414748192,216.04681968688965,225.95676803588867,240.32769393920898" stroke-width="2" stroke="black" fill="black" fill-opacity="0" />
<circle cx="175.29098892211914" cy="284.2398462295532" r="1" stroke="black" stroke-width="2" fill="none" />
<circle cx="225.0467872619629" cy="284.1090421676636" r="1" stroke="black" stroke-width="2" fill="none" />
<path d="M174.06991386413574,340.0621528625488 Q200.00826317071915,323.96310806274414,226.01275634765625,339.91121673583984" stroke-width="2" stroke="black" fill="black" fill-opacity="0" />
<circle cx="175.12370681762695" cy="386.77175998687744" r="1" stroke="black" stroke-width="2" fill="none" />
<circle cx="225.1597023010254" cy="386.78600883483887" r="1" stroke="black" stroke-width="2" fill="none" />
<path d="M173.98866081237793,434.7668914794922 Q200.03722183406353,426.4283695220947,226.1328239440918,434.6366500854492" stroke-width="2" stroke="black" fill="black" fill-opacity="0" />
<circle cx="175.0587329864502" cy="488.87924671173096" r="1" stroke="black" stroke-width="2" fill="none" />
<circle cx="225.16131591796875" cy="489.128212928772" r="1" stroke="black" stroke-width="2" fill="none" />
<path d="M174.2004280090332,528.1829414367676 Q200.00997331738472,528.1161499023438,225.92684745788574,528.2027702331543" stroke-width="2" stroke="black" fill="black" fill-opacity="0" />
<circle cx="174.87582969665527" cy="589.448317527771" r="1" stroke="black" stroke-width="2" fill="none" />
<circle cx="225.16569137573242" cy="589.820408821106" r="1" stroke="black" stroke-width="2" fill="none" />
<path d="M174.2848949432373,620.5863914489746 Q199.95441257953644,629.7099132537842,225.88344192504883,620.7506504058838" stroke-width="2" stroke="black" fill="black" fill-opacity="0" />
<circle cx="174.6543426513672" cy="687.253945350647" r="1" stroke="black" stroke-width="2" fill="none" />
<circle cx="225.2218952178955" cy="687.2961416244507" r="1" stroke="black" stroke-width="2" fill="none" />
<path d="M174.47686004638672,712.8590097427368 Q199.9969960451126,730.1327075958252,225.6096477508545,713.0071315765381" stroke-width="2" stroke="black" fill="black" fill-opacity="0" />
<circle cx="174.5751953125" cy="784.2963523864746" r="1" stroke="black" stroke-width="2" fill="none" />
<circle cx="224.8819980621338" cy="784.0588083267212" r="1" stroke="black" stroke-width="2" fill="none" />
<path d="M174.74328994750977,806.3225684165955 Q200.04345102608204,829.7384090423584,224.77472686767578,806.5543599128723" stroke-width="2" stroke="black" fill="black" fill-opacity="0" />
<circle cx="174.5942783355713" cy="879.6034755706787" r="1" stroke="black" stroke-width="2" fill="none" />
<circle cx="224.97577095031738" cy="879.3197612762451" r="1" stroke="black" stroke-width="2" fill="none" />
<path d="M174.2910861968994,901.0517753362656 Q200.0341579169035,928.846601486206,225.30683135986328,901.2651882171631" stroke-width="2" stroke="black" fill="black" fill-opacity="0" />
<circle cx="276.12663650512695" cy="-30.251850128173828" r="1" stroke="black" stroke-width="2" fill="none" />
<circle cx="323.76763916015625" cy="-30.2988338470459" r="1" stroke="black" stroke-width="2" fill="none" />
<path d="M275.7414779663086,35.632164001464844 Q300.0231048464775,-0.15212392807006836,324.293701171875,35.709442138671875" stroke-width="2" stroke="black" fill="black" fill-opacity="0" />
<circle cx="275.46931648254395" cy="73.23293495178223" r="1" stroke="black" stroke-width="2" fill="none" />
<circle cx="324.5417232513428" cy="73.16506767272949" r="1" stroke="black" stroke-width="2" fill="none" />
<path d="M274.84822273254395,138.30067825317383 Q300.025337472558,106.71656608581543,325.2094268798828,138.3035545349121" stroke-width="2" stroke="black" fill="black" fill-opacity="0" />
<circle cx="275.07793045043945" cy="178.67238426208496" r="1" stroke="black" stroke-width="2" fill="none" />
<circle cx="325.1028137207031" cy="178.5697727203369" r="1" stroke="black" stroke-width="2" fill="none" />
<path d="M274.13881492614746,240.3897819519043 Q300.0223463475704,215.99888801574707,325.9432430267334,240.30237579345703" stroke-width="2" stroke="black" fill="black" fill-opacity="0" />
<circle cx="275.294397354126" cy="284.2488775253296" r="1" stroke="black" stroke-width="2" fill="none" />
<circle cx="325.04354095458984" cy="284.1181001663208" r="1" stroke="black" stroke-width="2" fill="none" />
<path d="M274.073055267334,340.0497856140137 Q300.00819160044193,323.9685459136963,326.0094985961914,339.89888763427734" stroke-width="2" stroke="black" fill="black" fill-opacity="0" />
<circle cx="275.126012802124" cy="386.7777395248413" r="1" stroke="black" stroke-width="2" fill="none" />
<circle cx="325.1572093963623" cy="386.7925148010254" r="1" stroke="black" stroke-width="2" fill="none" />
<path d="M273.9916648864746,434.7481689453125 Q300.037167429924,426.42967987060547,326.1297950744629,434.61830139160156" stroke-width="2" stroke="black" fill="black" fill-opacity="0" />
<circle cx="275.06101989746094" cy="488.8855724334717" r="1" stroke="black" stroke-width="2" fill="none" />
<circle cx="325.15883445739746" cy="489.1351013183594" r="1" stroke="black" stroke-width="2" fill="none" />
<path d="M274.2034606933594,528.1630954742432 Q300.0099148452282,528.1177463531494,325.9237823486328,528.1833343505859" stroke-width="2" stroke="black" fill="black" fill-opacity="0" />
<circle cx="274.877384185791" cy="589.4446887969971" r="1" stroke="black" stroke-width="2" fill="none" />
<circle cx="325.1632194519043" cy="589.8166122436523" r="1" stroke="black" stroke-width="2" fill="none" />
<path d="M274.28710556030273,620.5609741210938 Q299.95417818427086,629.7107048034668,325.88143157958984,620.7255821228027" stroke-width="2" stroke="black" fill="black" fill-opacity="0" />
<circle cx="274.65638542175293" cy="687.2482309341431" r="1" stroke="black" stroke-width="2" fill="none" />
<circle cx="325.2196216583252" cy="687.289140701294" r="1" stroke="black" stroke-width="2" fill="none" />
<path d="M274.48022842407227,712.8382272720337 Q299.9973396062851,730.1295204162598,325.6057319641113,712.9861011505127" stroke-width="2" stroke="black" fill="black" fill-opacity="0" />
<circle cx="274.57750511169434" cy="784.289210319519" r="1" stroke="black" stroke-width="2" fill="none" />
<circle cx="324.87841796875" cy="784.0509567260742" r="1" stroke="black" stroke-width="2" fill="none" />
<path d="M274.74644660949707,806.3035917282104 Q300.04355712234974,829.734296798706,324.76984214782715,806.5356893539429" stroke-width="2" stroke="black" fill="black" fill-opacity="0" />
<circle cx="274.59481620788574" cy="879.5779285430908" r="1" stroke="black" stroke-width="2" fill="none" />
<circle cx="324.9769763946533" cy="879.2940425872803" r="1" stroke="black" stroke-width="2" fill="none" />
<path d="M274.2885799407959,901.0243180990219 Q300.03411553800106,928.8419780731201,325.3104362487793,901.2373993396759" stroke-width="2" stroke="black" fill="black" fill-opacity="0" />
<circle cx="376.15094566345215" cy="-30.24370574951172" r="1" stroke="black" stroke-width="2" fill="none" />
<circle cx="423.74278259277344" cy="-30.29059600830078" r="1" stroke="black" stroke-width="2" fill="none" />
<path d="M375.7669563293457,35.58164978027344 Q400.02311457693577,-0.18630766868591309,424.2677421569824,35.659576416015625" stroke-width="2" stroke="black" fill="black" fill-opacity="0" />
<circle cx="375.494571685791" cy="73.22619438171387" r="1" stroke="black" stroke-width="2" fill="none" />
<circle cx="424.51543617248535" cy="73.15848541259766" r="1" stroke="black" stroke-width="2" fill="none" />
<path d="M374.87548828125,138.2479705810547 Q400.0253733545542,106.65811347961426,425.1815948486328,138.2516860961914" stroke-width="2" stroke="black" fill="black" fill-opacity="0" />
<circle cx="375.08953285217285" cy="178.65553283691406" r="1" stroke="black" stroke-width="2" fill="none" />
<circle cx="425.0903148651123" cy="178.55312538146973" r="1" stroke="black" stroke-width="2" fill="none" />
<path d="M374.1520481109619,240.36389923095703 Q400.022388830781,215.95097160339355,425.92971992492676,240.27706146240234" stroke-width="2" stroke="black" fill="black" fill-opacity="0" />
<circle cx="375.2978096008301" cy="284.257905960083" r="1" stroke="black" stroke-width="2" fill="none" />
<circle cx="425.04029083251953" cy="284.12716007232666" r="1" stroke="black" stroke-width="2" fill="none" />
<path d="M374.0761966705322,340.03742599487305 Q400.00812005996704,323.9739799499512,426.00623893737793,339.8865509033203" stroke-width="2" stroke="black" fill="black" fill-opacity="0" />
<circle cx="375.1283187866211" cy="386.7837247848511" r="1" stroke="black" stroke-width="2" fill="none" />
<circle cx="425.1547145843506" cy="386.7990264892578" r="1" stroke="black" stroke-width="2" fill="none" />
<path d="M373.9946708679199,434.729434967041 Q400.0371131747961,426.4309844970703,426.12675857543945,434.59993743896484" stroke-width="2" stroke="black" fill="black" fill-opacity="0" />
<circle cx="375.0633029937744" cy="488.89190006256104" r="1" stroke="black" stroke-width="2" fill="none" />
<circle cx="425.15635681152344" cy="489.14198875427246" r="1" stroke="black" stroke-width="2" fill="none" />
<path d="M374.2064914703369,528.1432609558105 Q400.00985665619373,528.1193447113037,425.9207191467285,528.1639099121094" stroke-width="2" stroke="black" fill="black" fill-opacity="0" />
<circle cx="374.8789367675781" cy="589.4410591125488" r="1" stroke="black" stroke-width="2" fill="none" />
<circle cx="425.1607551574707" cy="589.812816619873" r="1" stroke="black" stroke-width="2" fill="none" />
<path d="M374.289306640625,620.5355758666992 Q399.9539439380169,629.7115020751953,425.8794193267822,620.7005348205566" stroke-width="2" stroke="black" fill="black" fill-opacity="0" />
<circle cx="374.6584300994873" cy="687.2425203323364" r="1" stroke="black" stroke-width="2" fill="none" />
<circle cx="425.21734619140625" cy="687.2821426391602" r="1" stroke="black" stroke-width="2" fill="none" />
<path d="M374.4835948944092,712.8174591064453 Q399.9976826906204,730.1263275146484,425.6018238067627,712.9650821685791" stroke-width="2" stroke="black" fill="black" fill-opacity="0" />
<circle cx="374.5798168182373" cy="784.2820644378662" r="1" stroke="black" stroke-width="2" fill="none" />
<circle cx="424.8748416900635" cy="784.0431070327759" r="1" stroke="black" stroke-width="2" fill="none" />
<path d="M374.7496032714844,806.2846088409424 Q400.04366417229176,829.7301864624023,424.76495933532715,806.5170149803162" stroke-width="2" stroke="black" fill="black" fill-opacity="0" />
<circle cx="374.5953598022461" cy="879.5523700714111" r="1" stroke="black" stroke-width="2" fill="none" />
<circle cx="424.9781799316406" cy="879.2683162689209" r="1" stroke="black" stroke-width="2" fill="none" />
<path d="M374.28607749938965,900.9968549013138 Q400.0340716987848,928.8373508453369,425.3140354156494,901.2096054553986" stroke-width="2" stroke="black" fill="black" fill-opacity="0" />
<circle cx="476.1752471923828" cy="-30.23557472229004" r="1" stroke="black" stroke-width="2" fill="none" />
<circle cx="523.7179298400879" cy="-30.282360076904297" r="1" stroke="black" stroke-width="2" fill="none" />
<path d="M475.7924327850342,35.5311279296875 Q500.0231244266033,-0.2204986810684204,524.2417831420898,35.609710693359375" stroke-width="2" stroke="black" fill="black" fill-opacity="0" />
<circle cx="475.5198230743408" cy="73.21944618225098" r="1" stroke="black" stroke-width="2" fill="none" />
<circle cx="524.4891490936279" cy="73.15189743041992" r="1" stroke="black" stroke-width="2" fill="none" />
<path d="M474.9027557373047,138.19527053833008 Q500.02540914714336,106.59964847564697,525.1537647247314,138.19983291625977" stroke-width="2" stroke="black" fill="black" fill-opacity="0" />
<circle cx="475.1011390686035" cy="178.63867378234863" r="1" stroke="black" stroke-width="2" fill="none" />
<circle cx="525.0778141021729" cy="178.53647232055664" r="1" stroke="black" stroke-width="2" fill="none" />
<path d="M474.165283203125,240.3380241394043 Q500.02243126928806,215.9030532836914,525.9161987304688,240.2517547607422" stroke-width="2" stroke="black" fill="black" fill-opacity="0" />
<circle cx="475.3012104034424" cy="284.2669334411621" r="1" stroke="black" stroke-width="2" fill="none" />
<circle cx="525.0370502471924" cy="284.13621520996094" r="1" stroke="black" stroke-width="2" fill="none" />
<path d="M474.0793342590332,340.02507400512695 Q500.00804863870144,323.9794235229492,526.002986907959,339.87422943115234" stroke-width="2" stroke="black" fill="black" fill-opacity="0" />
<circle cx="475.13062858581543" cy="386.7897033691406" r="1" stroke="black" stroke-width="2" fill="none" />
<circle cx="525.1522197723389" cy="386.8055295944214" r="1" stroke="black" stroke-width="2" fill="none" />
<path d="M473.9976806640625,434.7107124328613 Q500.0370587259531,426.4322853088379,526.1237239837646,434.5815963745117" stroke-width="2" stroke="black" fill="black" fill-opacity="0" />
<circle cx="475.0655879974365" cy="488.8982238769531" r="1" stroke="black" stroke-width="2" fill="none" />
<circle cx="525.1538791656494" cy="489.14887619018555" r="1" stroke="black" stroke-width="2" fill="none" />
<path d="M474.20952224731445,528.123420715332 Q500.00979839265347,528.1209411621094,525.9176559448242,528.1444835662842" stroke-width="2" stroke="black" fill="black" fill-opacity="0" />
<circle cx="474.88049507141113" cy="589.4374313354492" r="1" stroke="black" stroke-width="2" fill="none" />
<circle cx="525.158281326294" cy="589.8090229034424" r="1" stroke="black" stroke-width="2" fill="none" />
<path d="M474.2915153503418,620.5101718902588 Q499.95371001958847,629.7122898101807,525.8774013519287,620.6754817962646" stroke-width="2" stroke="black" fill="black" fill-opacity="0" />
<circle cx="474.6604709625244" cy="687.2368078231812" r="1" stroke="black" stroke-width="2" fill="none" />
<circle cx="525.2150783538818" cy="687.2751445770264" r="1" stroke="black" stroke-width="2" fill="none" />
<path d="M474.4869575500488,712.7966871261597 Q499.9980266392231,730.1231422424316,525.5979156494141,712.9440593719482" stroke-width="2" stroke="black" fill="black" fill-opacity="0" />
<circle cx="474.582124710083" cy="784.2749176025391" r="1" stroke="black" stroke-width="2" fill="none" />
<circle cx="524.8712635040283" cy="784.0352554321289" r="1" stroke="black" stroke-width="2" fill="none" />
<path d="M474.75275802612305,806.2656307220459 Q500.043770223856,829.7260761260986,524.7600746154785,806.4983444213867" stroke-width="2" stroke="black" fill="black" fill-opacity="0" />
<circle cx="474.5958938598633" cy="879.5268230438232" r="1" stroke="black" stroke-width="2" fill="none" />
<circle cx="524.9793891906738" cy="879.2426013946533" r="1" stroke="black" stroke-width="2" fill="none" />
<path d="M474.28356742858887,900.9694002866745 Q500.03402929008007,928.832727432251,525.3176403045654,901.1818194389343" stroke-width="2" stroke="black" fill="black" fill-opacity="0" />
<circle cx="576.1995601654053" cy="-30.227426528930664" r="1" stroke="black" stroke-width="2" fill="none" />
<circle cx="623.6930694580078" cy="-30.27412223815918" r="1" stroke="black" stroke-width="2" fill="none" />
<path d="M575.8179130554199,35.48060607910156 Q600.0231346637011,-0.25468480587005615,624.2158222198486,35.55983352661133" stroke-width="2" stroke="black" fill="black" fill-opacity="0" />
<circle cx="575.5450763702393" cy="73.21270751953125" r="1" stroke="black" stroke-width="2" fill="none" />
<circle cx="624.462854385376" cy="73.14531326293945" r="1" stroke="black" stroke-width="2" fill="none" />
<path d="M574.9300231933594,138.1425552368164 Q600.0254443138838,106.54119062423706,625.1259307861328,138.14796829223633" stroke-width="2" stroke="black" fill="black" fill-opacity="0" />
<circle cx="575.1127414703369" cy="178.62181282043457" r="1" stroke="black" stroke-width="2" fill="none" />
<circle cx="625.0653209686279" cy="178.51981735229492" r="1" stroke="black" stroke-width="2" fill="none" />
<path d="M574.1785125732422,240.3121337890625 Q600.022473230958,215.85512733459473,625.9026737213135,240.22643280029297" stroke-width="2" stroke="black" fill="black" fill-opacity="0" />
<circle cx="575.3046207427979" cy="284.2759666442871" r="1" stroke="black" stroke-width="2" fill="none" />
<circle cx="625.0338020324707" cy="284.1452741622925" r="1" stroke="black" stroke-width="2" fill="none" />
<path d="M574.0824756622314,340.01271057128906 Q600.0079768896103,323.98486137390137,625.9997310638428,339.8618965148926" stroke-width="2" stroke="black" fill="black" fill-opacity="0" />
<circle cx="575.1329364776611" cy="386.7956829071045" r="1" stroke="black" stroke-width="2" fill="none" />
<circle cx="625.1497268676758" cy="386.8120355606079" r="1" stroke="black" stroke-width="2" fill="none" />
<path d="M574.0006809234619,434.6919860839844 Q600.0370047390461,426.43359184265137,626.1206932067871,434.56324768066406" stroke-width="2" stroke="black" fill="black" fill-opacity="0" />
<circle cx="575.0678787231445" cy="488.90455055236816" r="1" stroke="black" stroke-width="2" fill="none" />
<circle cx="625.1513938903809" cy="489.15576171875" r="1" stroke="black" stroke-width="2" fill="none" />
<path d="M574.2125587463379,528.1035842895508 Q600.0097399055958,528.1225337982178,625.9145832061768,528.1250514984131" stroke-width="2" stroke="black" fill="black" fill-opacity="0" />
<circle cx="574.8820457458496" cy="589.4338026046753" r="1" stroke="black" stroke-width="2" fill="none" />
<circle cx="625.1558151245117" cy="589.8052291870117" r="1" stroke="black" stroke-width="2" fill="none" />
<path d="M574.2937202453613,620.4847602844238 Q599.9534759521484,629.7130851745605,625.8753929138184,620.6504211425781" stroke-width="2" stroke="black" fill="black" fill-opacity="0" />
<circle cx="574.6625175476074" cy="687.2310943603516" r="1" stroke="black" stroke-width="2" fill="none" />
<circle cx="625.2128009796143" cy="687.2681436538696" r="1" stroke="black" stroke-width="2" fill="none" />
<path d="M574.4903259277344,712.7759056091309 Q599.9983702003956,730.1199493408203,625.5940017700195,712.9230289459229" stroke-width="2" stroke="black" fill="black" fill-opacity="0" />
<circle cx="574.584436416626" cy="784.2677774429321" r="1" stroke="black" stroke-width="2" fill="none" />
<circle cx="624.8676872253418" cy="784.0274066925049" r="1" stroke="black" stroke-width="2" fill="none" />
<path d="M574.7559127807617,806.2466521263123 Q600.0438770353794,829.7219657897949,624.7551898956299,806.479672908783" stroke-width="2" stroke="black" fill="black" fill-opacity="0" />
<circle cx="574.596435546875" cy="879.5012722015381" r="1" stroke="black" stroke-width="2" fill="none" />
<circle cx="624.9805908203125" cy="879.2168769836426" r="1" stroke="black" stroke-width="2" fill="none" />
<path d="M574.2810649871826,900.941940665245 Q600.0339854955673,928.8281021118164,625.3212394714355,901.1540281772614" stroke-width="2" stroke="black" fill="black" fill-opacity="0" />
<circle cx="676.2238674163818" cy="-30.219284057617188" r="1" stroke="black" stroke-width="2" fill="none" />
<circle cx="723.668212890625" cy="-30.265886306762695" r="1" stroke="black" stroke-width="2" fill="none" />
<path d="M675.8433876037598,35.43008041381836 Q700.0231445282698,-0.2888704538345337,724.189868927002,35.50996780395508" stroke-width="2" stroke="black" fill="black" fill-opacity="0" />
<circle cx="675.5703296661377" cy="73.20596313476562" r="1" stroke="black" stroke-width="2" fill="none" />
<circle cx="724.4365673065186" cy="73.13872718811035" r="1" stroke="black" stroke-width="2" fill="none" />
<path d="M674.9572906494141,138.08985137939453 Q700.0254802703857,106.48272895812988,725.0981025695801,138.09610748291016" stroke-width="2" stroke="black" fill="black" fill-opacity="0" />
<circle cx="675.124345779419" cy="178.6049575805664" r="1" stroke="black" stroke-width="2" fill="none" />
<circle cx="725.0528202056885" cy="178.50316429138184" r="1" stroke="black" stroke-width="2" fill="none" />
<path d="M674.1917457580566,240.28624725341797 Q700.0225159078836,215.80720901489258,725.8891544342041,240.2011260986328" stroke-width="2" stroke="black" fill="black" fill-opacity="0" />
<circle cx="675.3080253601074" cy="284.2849884033203" r="1" stroke="black" stroke-width="2" fill="none" />
<circle cx="725.0305576324463" cy="284.15432929992676" r="1" stroke="black" stroke-width="2" fill="none" />
<path d="M674.0856132507324,340.00035858154297 Q700.0079049766064,323.9902992248535,725.9964771270752,339.84957122802734" stroke-width="2" stroke="black" fill="black" fill-opacity="0" />
<circle cx="675.1352443695068" cy="386.8016653060913" r="1" stroke="black" stroke-width="2" fill="none" />
<circle cx="725.1472320556641" cy="386.81854343414307" r="1" stroke="black" stroke-width="2" fill="none" />
<path d="M674.0036907196045,434.67325592041016 Q700.0369502753019,426.4348945617676,726.1176586151123,434.5448913574219" stroke-width="2" stroke="black" fill="black" fill-opacity="0" />
<circle cx="675.0701656341553" cy="488.9108762741089" r="1" stroke="black" stroke-width="2" fill="none" />
<circle cx="725.1489124298096" cy="489.1626491546631" r="1" stroke="black" stroke-width="2" fill="none" />
<path d="M674.2155933380127,528.0837440490723 Q700.0096815079451,528.1241264343262,725.9115142822266,528.1056251525879" stroke-width="2" stroke="black" fill="black" fill-opacity="0" />
<circle cx="674.883602142334" cy="589.4301767349243" r="1" stroke="black" stroke-width="2" fill="none" />
<circle cx="725.1533451080322" cy="589.8014335632324" r="1" stroke="black" stroke-width="2" fill="none" />
<path d="M674.2959289550781,620.4593563079834 Q699.9532416164875,629.7138786315918,725.8733768463135,620.6253623962402" stroke-width="2" stroke="black" fill="black" fill-opacity="0" />
<circle cx="674.6645584106445" cy="687.2253818511963" r="1" stroke="black" stroke-width="2" fill="none" />
<circle cx="725.2105312347412" cy="687.2611436843872" r="1" stroke="black" stroke-width="2" fill="none" />
<path d="M674.4936904907227,712.7551336288452 Q699.9987137615681,730.1167659759521,725.5900936126709,712.9020080566406" stroke-width="2" stroke="black" fill="black" fill-opacity="0" />
<circle cx="674.5867462158203" cy="784.2606315612793" r="1" stroke="black" stroke-width="2" fill="none" />
<circle cx="724.8641090393066" cy="784.0195541381836" r="1" stroke="black" stroke-width="2" fill="none" />
<path d="M674.759069442749,806.2276663780212 Q700.0439835637808,829.717851638794,724.7503070831299,806.460994720459" stroke-width="2" stroke="black" fill="black" fill-opacity="0" />
<circle cx="674.5969734191895" cy="879.4757099151611" r="1" stroke="black" stroke-width="2" fill="none" />
<circle cx="724.9817981719971" cy="879.1911468505859" r="1" stroke="black" stroke-width="2" fill="none" />
<path d="M674.2785587310791,900.9144729375839 Q700.0339427888393,928.8234748840332,725.3248443603516,901.1262290477753" stroke-width="2" stroke="black" fill="black" fill-opacity="0" />
<circle cx="776.248176574707" cy="-30.21114158630371" r="1" stroke="black" stroke-width="2" fill="none" />
<circle cx="823.6433544158936" cy="-30.257646560668945" r="1" stroke="black" stroke-width="2" fill="none" />
<path d="M775.8688640594482,35.37956619262695 Q800.0231545269489,-0.32305431365966797,824.1639099121094,35.46010208129883" stroke-width="2" stroke="black" fill="black" fill-opacity="0" />
<circle cx="775.5955829620361" cy="73.19921493530273" r="1" stroke="black" stroke-width="2" fill="none" />
<circle cx="824.4102783203125" cy="73.13213920593262" r="1" stroke="black" stroke-width="2" fill="none" />
<path d="M774.9845581054688,138.03714752197266 Q800.0255156308413,106.42427110671997,825.0702705383301,138.04424667358398" stroke-width="2" stroke="black" fill="black" fill-opacity="0" />
<circle cx="775.135950088501" cy="178.58809280395508" r="1" stroke="black" stroke-width="2" fill="none" />
<circle cx="825.0403232574463" cy="178.48650741577148" r="1" stroke="black" stroke-width="2" fill="none" />
<path d="M774.2049770355225,240.2603645324707 Q800.0225583314896,215.75928115844727,825.8756313323975,240.17580795288086" stroke-width="2" stroke="black" fill="black" fill-opacity="0" />
<circle cx="775.3114356994629" cy="284.29402446746826" r="1" stroke="black" stroke-width="2" fill="none" />
<circle cx="825.027307510376" cy="284.16339206695557" r="1" stroke="black" stroke-width="2" fill="none" />
<path d="M774.0887584686279,339.9879913330078 Q800.0078340023756,323.99573707580566,825.993221282959,339.8372344970703" stroke-width="2" stroke="black" fill="black" fill-opacity="0" />
<circle cx="775.1375484466553" cy="386.8076448440552" r="1" stroke="black" stroke-width="2" fill="none" />
<circle cx="825.144739151001" cy="386.8250494003296" r="1" stroke="black" stroke-width="2" fill="none" />
<path d="M774.0066928863525,434.65453720092773 Q800.0368959307671,426.43620109558105,826.1146278381348,434.5265464782715" stroke-width="2" stroke="black" fill="black" fill-opacity="0" />
<circle cx="775.0724544525146" cy="488.9172010421753" r="1" stroke="black" stroke-width="2" fill="none" />
<circle cx="825.1464309692383" cy="489.1695337295532" r="1" stroke="black" stroke-width="2" fill="none" />
<path d="M774.2186279296875,528.0639095306396 Q800.0096230059862,528.1257152557373,825.908447265625,528.0861968994141" stroke-width="2" stroke="black" fill="black" fill-opacity="0" />
<circle cx="774.8851528167725" cy="589.4265518188477" r="1" stroke="black" stroke-width="2" fill="none" />
<circle cx="825.1508769989014" cy="589.7976408004761" r="1" stroke="black" stroke-width="2" fill="none" />
<path d="M774.2981338500977,620.4339542388916 Q799.9530075192451,629.714672088623,825.8713645935059,620.6003150939941" stroke-width="2" stroke="black" fill="black" fill-opacity="0" />
<circle cx="774.6666011810303" cy="687.2196702957153" r="1" stroke="black" stroke-width="2" fill="none" />
<circle cx="825.2082595825195" cy="687.2541446685791" r="1" stroke="black" stroke-width="2" fill="none" />
<path d="M774.4970569610596,712.734356880188 Q799.9990579783916,730.1135768890381,825.5861835479736,712.8809795379639" stroke-width="2" stroke="black" fill="black" fill-opacity="0" />
<circle cx="774.5890579223633" cy="784.2534914016724" r="1" stroke="black" stroke-width="2" fill="none" />
<circle cx="824.8605327606201" cy="784.0117073059082" r="1" stroke="black" stroke-width="2" fill="none" />
<path d="M774.7622261047363,806.2086935043335 Q800.0440898984671,829.7137413024902,824.7454261779785,806.4423298835754" stroke-width="2" stroke="black" fill="black" fill-opacity="0" />
<circle cx="774.5975170135498" cy="879.4501628875732" r="1" stroke="black" stroke-width="2" fill="none" />
<circle cx="824.9830017089844" cy="879.1654300689697" r="1" stroke="black" stroke-width="2" fill="none" />
<path d="M774.2760562896729,900.8870168924332 Q800.0338997989893,928.81884765625,825.3284454345703,901.0984420776367" stroke-width="2" stroke="black" fill="black" fill-opacity="0" />
<circle cx="876.2724857330322" cy="-30.2029972076416" r="1" stroke="black" stroke-width="2" fill="none" />
<circle cx="923.6184997558594" cy="-30.24941062927246" r="1" stroke="black" stroke-width="2" fill="none" />
<path d="M875.8943424224854,35.32904052734375 Q900.023164883256,-0.357241153717041,924.1379528045654,35.41023254394531" stroke-width="2" stroke="black" fill="black" fill-opacity="0" />
<circle cx="875.6208362579346" cy="73.19247245788574" r="1" stroke="black" stroke-width="2" fill="none" />
<circle cx="924.3839893341064" cy="73.12555503845215" r="1" stroke="black" stroke-width="2" fill="none" />
<path d="M875.0118274688721,137.98443984985352 Q900.0255511403084,106.36581087112427,925.0424346923828,137.99237823486328" stroke-width="2" stroke="black" fill="black" fill-opacity="0" />
<circle cx="875.147554397583" cy="178.57123374938965" r="1" stroke="black" stroke-width="2" fill="none" />
<circle cx="925.0278244018555" cy="178.4698543548584" r="1" stroke="black" stroke-width="2" fill="none" />
<path d="M874.2182083129883,240.23447799682617 Q900.0226007848978,215.71135807037354,925.8621082305908,240.15049362182617" stroke-width="2" stroke="black" fill="black" fill-opacity="0" />
<circle cx="875.3148441314697" cy="284.3030548095703" r="1" stroke="black" stroke-width="2" fill="none" />
<circle cx="925.0240592956543" cy="284.17245292663574" r="1" stroke="black" stroke-width="2" fill="none" />
<path d="M874.0918960571289,339.9756317138672 Q900.0077624320984,324.0011806488037,925.9899673461914,339.8249053955078" stroke-width="2" stroke="black" fill="black" fill-opacity="0" />
<circle cx="875.1398544311523" cy="386.8136281967163" r="1" stroke="black" stroke-width="2" fill="none" />
<circle cx="925.1422443389893" cy="386.8315601348877" r="1" stroke="black" stroke-width="2" fill="none" />
<path d="M874.0096988677979,434.63580322265625 Q900.0368416756392,426.43750953674316,926.1115951538086,434.50818634033203" stroke-width="2" stroke="black" fill="black" fill-opacity="0" />
<circle cx="875.0747375488281" cy="488.9235258102417" r="1" stroke="black" stroke-width="2" fill="none" />
<circle cx="925.1439514160156" cy="489.1764192581177" r="1" stroke="black" stroke-width="2" fill="none" />
<path d="M874.221658706665,528.044075012207 Q900.0095646679401,528.1273136138916,925.9053821563721,528.0667686462402" stroke-width="2" stroke="black" fill="black" fill-opacity="0" />
<circle cx="874.8867111206055" cy="589.4229221343994" r="1" stroke="black" stroke-width="2" fill="none" />
<circle cx="925.1484069824219" cy="589.7938451766968" r="1" stroke="black" stroke-width="2" fill="none" />
<path d="M874.3003425598145,620.4085483551025 Q899.9527733027935,629.7154598236084,925.869348526001,620.575252532959" stroke-width="2" stroke="black" fill="black" fill-opacity="0" />
<circle cx="874.668643951416" cy="687.2139558792114" r="1" stroke="black" stroke-width="2" fill="none" />
<circle cx="925.2059879302979" cy="687.2471466064453" r="1" stroke="black" stroke-width="2" fill="none" />
<path d="M874.5004196166992,712.7135810852051 Q899.9994017332792,730.110387802124,925.5822734832764,712.8599529266357" stroke-width="2" stroke="black" fill="black" fill-opacity="0" />
<circle cx="874.5913677215576" cy="784.2463436126709" r="1" stroke="black" stroke-width="2" fill="none" />
<circle cx="924.856954574585" cy="784.0038566589355" r="1" stroke="black" stroke-width="2" fill="none" />
<path d="M874.7653846740723,806.1897082328796 Q900.0441966950893,829.7096290588379,924.7405376434326,806.4236536026001" stroke-width="2" stroke="black" fill="black" fill-opacity="0" />
<circle cx="874.5980529785156" cy="879.4246025085449" r="1" stroke="black" stroke-width="2" fill="none" />
<circle cx="924.984209060669" cy="879.1396999359131" r="1" stroke="black" stroke-width="2" fill="none" />
<path d="M874.2735481262207,900.8595515489578 Q900.0338571071625,928.8142261505127,925.3320503234863,901.0706453323364" stroke-width="2" stroke="black" fill="black" fill-opacity="0" />
<path d="M-50,50 L950,50" stroke="black" />
<path d="M50,-50 L50,950" stroke="black" />
<path d="M-50,150 L950,150" stroke="black" />
<path d="M150,-50 L150,950" stroke="black" />
<path d="M-50,250 L950,250" stroke="black" />
<path d="M250,-50 L250,950" stroke="black" />
<path d="M-50,350 L950,350" stroke="black" />
<path d="M350,-50 L350,950" stroke="black" />
<path d="M-50,450 L950,450" stroke="black" />
<path d="M450,-50 L450,950" stroke="black" />
<path d="M-50,550 L950,550" stroke="black" />
<path d="M550,-50 L550,950" stroke="black" />
<path d="M-50,650 L950,650" stroke="black" />
<path d="M650,-50 L650,950" stroke="black" />
<path d="M-50,750 L950,750" stroke="black" />
<path d="M750,-50 L750,950" stroke="black" />
<path d="M-50,850 L950,850" stroke="black" />
<path d="M850,-50 L850,950" stroke="black" />
</svg>