<?xml version="1.0" encoding="UTF-8"?>
<svg xmlns="http://www.w3.org/2000/svg" xmlns:xlink="http://www.w3.org/1999/xlink"
     width="1000" height="1000" viewBox="-50 -50 1000 1000" diplayInline="False">
<defs>
</defs>
<circle cx="-29.468652725219727" cy="-23.575183868408203" r="1" stroke="black" stroke-width="2" fill="none" />
<circle cx="29.58088493347168" cy="-23.617753982543945" r="1" stroke="black" stroke-width="2" fill="none" />
<path d="M-29.377025604248047,28.608224868774414 Q-0.0375504195690155,-1.2982709407806396,29.435184478759766,28.673343658447266" stroke-width="2" stroke="black" fill="black" fill-opacity="0" />
<circle cx="-29.46945571899414" cy="76.41802024841309" r="1" stroke="black" stroke-width="2" fill="none" />
<circle cx="29.581024169921875" cy="76.37331581115723" r="1" stroke="black" stroke-width="2" fill="none" />
<path d="M-29.37656593322754,128.61652946472168 Q-0.03753925859928131,98.64590573310852,29.432477951049805,128.68177604675293" stroke-width="2" stroke="black" fill="black" fill-opacity="0" />
<circle cx="-29.47026252746582" cy="176.41122436523438" r="1" stroke="black" stroke-width="2" fill="none" />
<circle cx="29.5811710357666" cy="176.3643856048584" r="1" stroke="black" stroke-width="2" fill="none" />
<path d="M-29.37611198425293,228.62482833862305 Q-0.03752775117754936,198.59008383750916,29.429777145385742,228.69020462036133" stroke-width="2" stroke="black" fill="black" fill-opacity="0" />
<circle cx="-29.471065521240234" cy="276.4044303894043" r="1" stroke="black" stroke-width="2" fill="none" />
<circle cx="29.58131217956543" cy="276.3554573059082" r="1" stroke="black" stroke-width="2" fill="none" />
<path d="M-29.375656127929688,328.6331272125244 Q-0.03751658648252487,298.53426003456116,29.427072525024414,328.6986331939697" stroke-width="2" stroke="black" fill="black" fill-opacity="0" />
<circle cx="-29.471874237060547" cy="376.3976306915283" r="1" stroke="black" stroke-width="2" fill="none" />
<circle cx="29.581453323364258" cy="376.34652519226074" r="1" stroke="black" stroke-width="2" fill="none" />
<path d="M-29.37520408630371,428.6414337158203 Q-0.03750547021627426,398.4784325361252,29.42437171936035,428.707067489624" stroke-width="2" stroke="black" fill="black" fill-opacity="0" />
<circle cx="-29.47268295288086" cy="476.3908348083496" r="1" stroke="black" stroke-width="2" fill="none" />
<circle cx="29.58159637451172" cy="476.3375949859619" r="1" stroke="black" stroke-width="2" fill="none" />
<path d="M-29.3747501373291,528.6497344970703 Q-0.03749411180615425,498.4226168394089,29.42167091369629,528.7154998779297" stroke-width="2" stroke="black" fill="black" fill-opacity="0" />
<circle cx="-29.473478317260742" cy="576.3840427398682" r="1" stroke="black" stroke-width="2" fill="none" />
<circle cx="29.58173370361328" cy="576.328670501709" r="1" stroke="black" stroke-width="2" fill="none" />
<path d="M-29.37428855895996,628.658031463623 Q-0.03748258203268051,598.3667912483215,29.418960571289062,628.7239284515381" stroke-width="2" stroke="black" fill="black" fill-opacity="0" />
<circle cx="-29.47428321838379" cy="676.3772468566895" r="1" stroke="black" stroke-width="2" fill="none" />
<circle cx="29.581878662109375" cy="676.3197402954102" r="1" stroke="black" stroke-width="2" fill="none" />
<path d="M-29.37383460998535,728.666332244873 Q-0.03747124969959259,698.3109679222107,29.416257858276367,728.7323570251465" stroke-width="2" stroke="black" fill="black" fill-opacity="0" />
<circle cx="-29.47508430480957" cy="776.3704528808594" r="1" stroke="black" stroke-width="2" fill="none" />
<circle cx="29.582012176513672" cy="776.31081199646" r="1" stroke="black" stroke-width="2" fill="none" />
<path d="M-29.37337303161621,828.6746368408203 Q-0.03746015578508377,798.2551509141922,29.41355323791504,828.7407894134521" stroke-width="2" stroke="black" fill="black" fill-opacity="0" />
<circle cx="-29.47589683532715" cy="876.3636512756348" r="1" stroke="black" stroke-width="2" fill="none" />
<circle cx="29.58216094970703" cy="876.3018817901611" r="1" stroke="black" stroke-width="2" fill="none" />
<path d="M-29.372922897338867,928.6829376220703 Q-0.03744906187057495,898.199320435524,29.410852432250977,928.7492198944092" stroke-width="2" stroke="black" fill="black" fill-opacity="0" />
<circle cx="76.1310863494873" cy="-23.100858688354492" r="1" stroke="black" stroke-width="2" fill="none" />
<circle cx="123.88110542297363" cy="-23.234975814819336" r="1" stroke="black" stroke-width="2" fill="none" />
<path d="M73.58500480651855,33.09881591796875 Q99.95221524685621,5.893471717834473,126.48734283447266,33.007625579833984" stroke-width="2" stroke="black" fill="black" fill-opacity="0" />
<circle cx="76.1284294128418" cy="76.90743446350098" r="1" stroke="black" stroke-width="2" fill="none" />
<circle cx="123.88417434692383" cy="76.77366256713867" r="1" stroke="black" stroke-width="2" fill="none" />
<path d="M73.58771324157715,133.08191680908203 Q99.9522758089006,105.83606815338135,126.48520278930664,132.99070739746094" stroke-width="2" stroke="black" fill="black" fill-opacity="0" />
<circle cx="76.12577438354492" cy="176.91573524475098" r="1" stroke="black" stroke-width="2" fill="none" />
<circle cx="123.88724136352539" cy="176.78230476379395" r="1" stroke="black" stroke-width="2" fill="none" />
<path d="M73.59042930603027,233.06501007080078 Q99.95233581960201,205.77865648269653,126.48305702209473,232.97378158569336" stroke-width="2" stroke="black" fill="black" fill-opacity="0" />
<circle cx="76.12311553955078" cy="276.92402839660645" r="1" stroke="black" stroke-width="2" fill="none" />
<circle cx="123.89031028747559" cy="276.79094314575195" r="1" stroke="black" stroke-width="2" fill="none" />
<path d="M73.59313774108887,333.04811096191406 Q99.95239590108395,305.721257686615,126.48091888427734,332.9568634033203" stroke-width="2" stroke="black" fill="black" fill-opacity="0" />
<circle cx="76.12045860290527" cy="376.9323272705078" r="1" stroke="black" stroke-width="2" fill="none" />
<circle cx="123.89337921142578" cy="376.7995834350586" r="1" stroke="black" stroke-width="2" fill="none" />
<path d="M73.5958480834961,433.0312042236328 Q99.95245650410652,405.66385078430176,126.4787769317627,432.93993759155273" stroke-width="2" stroke="black" fill="black" fill-opacity="0" />
<circle cx="76.11779594421387" cy="476.94062423706055" r="1" stroke="black" stroke-width="2" fill="none" />
<circle cx="123.89645195007324" cy="476.80822372436523" r="1" stroke="black" stroke-width="2" fill="none" />
<path d="M73.59855651855469,533.0143013000488 Q99.95251658186316,505.6064467430115,126.47663879394531,532.9230194091797" stroke-width="2" stroke="black" fill="black" fill-opacity="0" />
<circle cx="76.11513900756836" cy="576.9489192962646" r="1" stroke="black" stroke-width="2" fill="none" />
<circle cx="123.89952278137207" cy="576.8168659210205" r="1" stroke="black" stroke-width="2" fill="none" />
<path d="M73.60126876831055,632.9973983764648 Q99.95257678255439,605.5490393638611,126.47449684143066,632.9060935974121" stroke-width="2" stroke="black" fill="black" fill-opacity="0" />
<circle cx="76.11248207092285" cy="676.9572143554688" r="1" stroke="black" stroke-width="2" fill="none" />
<circle cx="123.902587890625" cy="676.8255023956299" r="1" stroke="black" stroke-width="2" fill="none" />
<path d="M73.60397911071777,732.9805030822754 Q99.95263703167439,705.4916381835938,126.47235679626465,732.8891792297363" stroke-width="2" stroke="black" fill="black" fill-opacity="0" />
<circle cx="76.10982894897461" cy="776.9655094146729" r="1" stroke="black" stroke-width="2" fill="none" />
<circle cx="123.9056510925293" cy="776.8341407775879" r="1" stroke="black" stroke-width="2" fill="none" />
<path d="M73.60669136047363,832.9636077880859 Q99.95269703865051,805.434232711792,126.47021293640137,832.8722648620605" stroke-width="2" stroke="black" fill="black" fill-opacity="0" />
<circle cx="76.1071605682373" cy="876.973804473877" r="1" stroke="black" stroke-width="2" fill="none" />
<circle cx="123.90873146057129" cy="876.8427791595459" r="1" stroke="black" stroke-width="2" fill="none" />
<path d="M73.6093978881836,932.9467010498047 Q99.95275733619928,905.3768372535706,126.46807861328125,932.8553428649902" stroke-width="2" stroke="black" fill="black" fill-opacity="0" />
<circle cx="182.37176322937012" cy="-25.85350799560547" r="1" stroke="black" stroke-width="2" fill="none" />
<circle cx="217.32716178894043" cy="-26.562644958496094" r="1" stroke="black" stroke-width="2" fill="none" />
<path d="M176.02822875976562,43.60074996948242 Q199.93106728047132,14.395554542541504,223.5300579071045,43.352149963378906" stroke-width="2" stroke="black" fill="black" fill-opacity="0" />
<circle cx="182.3686122894287" cy="74.15450096130371" r="1" stroke="black" stroke-width="2" fill="none" />
<circle cx="217.33094596862793" cy="73.44596290588379" r="1" stroke="black" stroke-width="2" fill="none" />
<path d="M176.03063774108887,143.58373641967773 Q199.93116568773985,114.34142875671387,223.52816200256348,143.3352394104004" stroke-width="2" stroke="black" fill="black" fill-opacity="0" />
<circle cx="182.3662281036377" cy="174.1629123687744" r="1" stroke="black" stroke-width="2" fill="none" />
<circle cx="217.33384895324707" cy="173.4548511505127" r="1" stroke="black" stroke-width="2" fill="none" />
<path d="M176.0336742401123,243.5666160583496 Q199.93124617636204,214.28567028045654,223.5256519317627,243.31816482543945" stroke-width="2" stroke="black" fill="black" fill-opacity="0" />
<circle cx="182.36454391479492" cy="274.1716957092285" r="1" stroke="black" stroke-width="2" fill="none" />
<circle cx="217.3359546661377" cy="273.46401023864746" r="1" stroke="black" stroke-width="2" fill="none" />
<path d="M176.03728866577148,343.5493812561035 Q199.9313112050295,314.22840785980225,223.52257537841797,343.30091857910156" stroke-width="2" stroke="black" fill="black" fill-opacity="0" />
<circle cx="182.36285781860352" cy="374.1804656982422" r="1" stroke="black" stroke-width="2" fill="none" />
<circle cx="217.33806228637695" cy="373.47315406799316" r="1" stroke="black" stroke-width="2" fill="none" />
<path d="M176.04089736938477,443.5321617126465 Q199.93137598782778,414.17115592956543,223.51950454711914,443.28369522094727" stroke-width="2" stroke="black" fill="black" fill-opacity="0" />
<circle cx="182.36116981506348" cy="474.1892433166504" r="1" stroke="black" stroke-width="2" fill="none" />
<circle cx="217.34017181396484" cy="473.48230934143066" r="1" stroke="black" stroke-width="2" fill="none" />
<path d="M176.04451179504395,543.5149307250977 Q199.93144063651562,514.1139001846313,223.51643180847168,543.2664489746094" stroke-width="2" stroke="black" fill="black" fill-opacity="0" />
<circle cx="182.3594856262207" cy="574.1980247497559" r="1" stroke="black" stroke-width="2" fill="none" />
<circle cx="217.34227561950684" cy="573.4914627075195" r="1" stroke="black" stroke-width="2" fill="none" />
<path d="M176.04812622070312,643.4976997375488 Q199.93150538951159,614.056637763977,223.5133571624756,643.2492065429688" stroke-width="2" stroke="black" fill="black" fill-opacity="0" />
<circle cx="182.35779762268066" cy="674.2068004608154" r="1" stroke="black" stroke-width="2" fill="none" />
<circle cx="217.34438514709473" cy="673.5006141662598" r="1" stroke="black" stroke-width="2" fill="none" />
<path d="M176.05173873901367,743.4804725646973 Q199.93156995624304,713.9993829727173,223.5102882385254,743.2319679260254" stroke-width="2" stroke="black" fill="black" fill-opacity="0" />
<circle cx="182.3561134338379" cy="774.215576171875" r="1" stroke="black" stroke-width="2" fill="none" />
<circle cx="217.34649085998535" cy="773.509765625" r="1" stroke="black" stroke-width="2" fill="none" />
<path d="M176.0553493499756,843.4632377624512 Q199.93163508921862,813.9421281814575,223.5072135925293,843.2147254943848" stroke-width="2" stroke="black" fill="black" fill-opacity="0" />
<circle cx="182.35442733764648" cy="874.2243556976318" r="1" stroke="black" stroke-width="2" fill="none" />
<circle cx="217.3485984802246" cy="873.5189189910889" r="1" stroke="black" stroke-width="2" fill="none" />
<path d="M176.05896186828613,943.4460067749023 Q199.9316997155547,913.8848752975464,223.50414276123047,943.1974830627441" stroke-width="2" stroke="black" fill="black" fill-opacity="0" />
<circle cx="289.1706027984619" cy="-21.107059478759766" r="1" stroke="black" stroke-width="2" fill="none" />
<circle cx="310.47883224487305" cy="-21.7412109375" r="1" stroke="black" stroke-width="2" fill="none" />
<path d="M282.491735458374,36.6946907043457 Q299.9263769686222,11.668364524841309,317.31035232543945,36.5158805847168" stroke-width="2" stroke="black" fill="black" fill-opacity="0" />
<circle cx="289.15927028656006" cy="78.8769760131836" r="1" stroke="black" stroke-width="2" fill="none" />
<circle cx="310.4908094406128" cy="78.24357223510742" r="1" stroke="black" stroke-width="2" fill="none" />
<path d="M282.47660636901855,136.722900390625 Q299.92649253457785,111.62704658508301,317.3259220123291,136.5437126159668" stroke-width="2" stroke="black" fill="black" fill-opacity="0" />
<circle cx="289.1479368209839" cy="178.86100959777832" r="1" stroke="black" stroke-width="2" fill="none" />
<circle cx="310.50278759002686" cy="178.22835540771484" r="1" stroke="black" stroke-width="2" fill="none" />
<path d="M282.46147537231445,236.75111770629883 Q299.9266078174114,211.58573150634766,317.34149169921875,236.5715446472168" stroke-width="2" stroke="black" fill="black" fill-opacity="0" />
<circle cx="289.1366033554077" cy="278.8450450897217" r="1" stroke="black" stroke-width="2" fill="none" />
<circle cx="310.5147657394409" cy="278.21313858032227" r="1" stroke="black" stroke-width="2" fill="none" />
<path d="M282.446346282959,336.7793273925781 Q299.926723100245,311.5444107055664,317.35706520080566,336.5993766784668" stroke-width="2" stroke="black" fill="black" fill-opacity="0" />
<circle cx="289.12526988983154" cy="378.8290786743164" r="1" stroke="black" stroke-width="2" fill="none" />
<circle cx="310.5267448425293" cy="378.1979217529297" r="1" stroke="black" stroke-width="2" fill="none" />
<path d="M282.4312171936035,436.8075408935547 Q299.9268383309245,411.5030975341797,317.3726348876953,436.6272087097168" stroke-width="2" stroke="black" fill="black" fill-opacity="0" />
<circle cx="289.11393642425537" cy="478.81311416625977" r="1" stroke="black" stroke-width="2" fill="none" />
<circle cx="310.5387239456177" cy="478.1827049255371" r="1" stroke="black" stroke-width="2" fill="none" />
<path d="M282.4160842895508,536.8357543945312 Q299.92695394158363,511.4617795944214,317.3882064819336,536.6550369262695" stroke-width="2" stroke="black" fill="black" fill-opacity="0" />
<circle cx="289.10260581970215" cy="578.7971477508545" r="1" stroke="black" stroke-width="2" fill="none" />
<circle cx="310.5507001876831" cy="578.1674880981445" r="1" stroke="black" stroke-width="2" fill="none" />
<path d="M282.4009552001953,636.8639602661133 Q299.9270694628358,611.4204616546631,317.40377616882324,636.6828651428223" stroke-width="2" stroke="black" fill="black" fill-opacity="0" />
<circle cx="289.09127044677734" cy="678.7811832427979" r="1" stroke="black" stroke-width="2" fill="none" />
<circle cx="310.5626792907715" cy="678.1522693634033" r="1" stroke="black" stroke-width="2" fill="none" />
<path d="M282.3858222961426,736.8921775817871 Q299.9271847754717,711.3791494369507,317.41934967041016,736.7107009887695" stroke-width="2" stroke="black" fill="black" fill-opacity="0" />
<circle cx="289.0799388885498" cy="778.7652187347412" r="1" stroke="black" stroke-width="2" fill="none" />
<circle cx="310.57465744018555" cy="778.1370544433594" r="1" stroke="black" stroke-width="2" fill="none" />
<path d="M282.37069511413574,836.9203796386719 Q299.9273000508547,811.3378295898438,317.4349174499512,836.738525390625" stroke-width="2" stroke="black" fill="black" fill-opacity="0" />
<circle cx="289.06860637664795" cy="878.7492561340332" r="1" stroke="black" stroke-width="2" fill="none" />
<circle cx="310.5866346359253" cy="878.1218395233154" r="1" stroke="black" stroke-width="2" fill="none" />
<path d="M282.3555660247803,936.9485931396484 Q299.9274154752493,911.2965097427368,317.45048904418945,936.766357421875" stroke-width="2" stroke="black" fill="black" fill-opacity="0" />
<circle cx="390.50951290130615" cy="-13.353812217712402" r="1" stroke="black" stroke-width="2" fill="none" />
<circle cx="409.3306293487549" cy="-13.429095268249512" r="1" stroke="black" stroke-width="2" fill="none" />
<path d="M386.0228033065796,18.491775512695312 Q399.9566436111927,0.0797450914978981,414.2763423919678,18.541603088378906" stroke-width="2" stroke="black" fill="black" fill-opacity="0" />
<circle cx="390.50306224823" cy="86.62521553039551" r="1" stroke="black" stroke-width="2" fill="none" />
<circle cx="409.3383436203003" cy="86.55167770385742" r="1" stroke="black" stroke-width="2" fill="none" />
<path d="M386.0086612701416,118.53103828430176 Q399.9568486995995,100.01527281850576,414.29207134246826,118.58050918579102" stroke-width="2" stroke="black" fill="black" fill-opacity="0" />
<circle cx="390.49661445617676" cy="186.60424423217773" r="1" stroke="black" stroke-width="2" fill="none" />
<circle cx="409.34605598449707" cy="186.532452583313" r="1" stroke="black" stroke-width="2" fill="none" />
<path d="M385.99452018737793,218.57029724121094 Q399.957053758204,199.95080633461475,414.3077964782715,218.61941528320312" stroke-width="2" stroke="black" fill="black" fill-opacity="0" />
<circle cx="390.4901638031006" cy="286.58327198028564" r="1" stroke="black" stroke-width="2" fill="none" />
<circle cx="409.3537702560425" cy="286.5132246017456" r="1" stroke="black" stroke-width="2" fill="none" />
<path d="M385.9803771972656,318.60956382751465 Q399.95725878328085,299.8863410204649,414.32352447509766,318.6583251953125" stroke-width="2" stroke="black" fill="black" fill-opacity="0" />
<circle cx="390.4837131500244" cy="386.5623035430908" r="1" stroke="black" stroke-width="2" fill="none" />
<circle cx="409.3614845275879" cy="386.4940023422241" r="1" stroke="black" stroke-width="2" fill="none" />
<path d="M385.96623706817627,418.64881896972656 Q399.95746372640133,399.82186737656593,414.3392524719238,418.6972236633301" stroke-width="2" stroke="black" fill="black" fill-opacity="0" />
<circle cx="390.4772644042969" cy="486.54133129119873" r="1" stroke="black" stroke-width="2" fill="none" />
<circle cx="409.36919689178467" cy="486.47477626800537" r="1" stroke="black" stroke-width="2" fill="none" />
<path d="M385.9520969390869,518.688081741333 Q399.9576687216759,499.75739827752113,414.35497856140137,518.7361297607422" stroke-width="2" stroke="black" fill="black" fill-opacity="0" />
<circle cx="390.4708137512207" cy="586.5203619003296" r="1" stroke="black" stroke-width="2" fill="none" />
<circle cx="409.3769121170044" cy="586.4555511474609" r="1" stroke="black" stroke-width="2" fill="none" />
<path d="M385.9379539489746,618.7273387908936 Q399.95787382125854,599.6929325163364,414.37070655822754,618.7750339508057" stroke-width="2" stroke="black" fill="black" fill-opacity="0" />
<circle cx="390.4643669128418" cy="686.4993915557861" r="1" stroke="black" stroke-width="2" fill="none" />
<circle cx="409.38462257385254" cy="686.4363269805908" r="1" stroke="black" stroke-width="2" fill="none" />
<path d="M385.92381381988525,718.7665996551514 Q399.95807883888483,699.6284617781639,414.38643169403076,718.8139381408691" stroke-width="2" stroke="black" fill="black" fill-opacity="0" />
<circle cx="390.45791721343994" cy="786.478419303894" r="1" stroke="black" stroke-width="2" fill="none" />
<circle cx="409.39233684539795" cy="786.4171009063721" r="1" stroke="black" stroke-width="2" fill="none" />
<path d="M385.9096727371216,818.8058605194092 Q399.95828389003873,799.5639890134335,414.4021587371826,818.8528423309326" stroke-width="2" stroke="black" fill="black" fill-opacity="0" />
<circle cx="390.45146656036377" cy="886.4574508666992" r="1" stroke="black" stroke-width="2" fill="none" />
<circle cx="409.4000520706177" cy="886.397876739502" r="1" stroke="black" stroke-width="2" fill="none" />
<path d="M385.8955316543579,918.8451194763184 Q399.95848877727985,899.4995206594467,414.4178867340088,918.8917446136475" stroke-width="2" stroke="black" fill="black" fill-opacity="0" />
<circle cx="476.70628547668457" cy="-12.30057144165039" r="1" stroke="black" stroke-width="2" fill="none" />
<circle cx="523.321403503418" cy="-12.158905982971191" r="1" stroke="black" stroke-width="2" fill="none" />
<path d="M475.59092140197754,4.7846150398254395 Q499.999291125685,-3.833034038543701,524.5570888519287,4.713567733764648" stroke-width="2" stroke="black" fill="black" fill-opacity="0" />
<circle cx="476.7356071472168" cy="87.69508743286133" r="1" stroke="black" stroke-width="2" fill="none" />
<circle cx="523.2931213378906" cy="87.83887386322021" r="1" stroke="black" stroke-width="2" fill="none" />
<path d="M475.6116943359375,104.81498146057129 Q499.99942973069847,96.10567927360535,524.5386219024658,104.74429750442505" stroke-width="2" stroke="black" fill="black" fill-opacity="0" />
<circle cx="476.76493072509766" cy="187.69074630737305" r="1" stroke="black" stroke-width="2" fill="none" />
<circle cx="523.2648372650146" cy="187.8366527557373" r="1" stroke="black" stroke-width="2" fill="none" />
<path d="M475.6324691772461,204.84534645080566 Q499.9995684530586,196.04439520835876,524.5201530456543,204.77502965927124" stroke-width="2" stroke="black" fill="black" fill-opacity="0" />
<circle cx="476.7942543029785" cy="287.68640422821045" r="1" stroke="black" stroke-width="2" fill="none" />
<circle cx="523.2365531921387" cy="287.8344326019287" r="1" stroke="black" stroke-width="2" fill="none" />
<path d="M475.65324211120605,304.8757119178772 Q499.9997072815895,295.9831051826477,524.5016822814941,304.8057613372803" stroke-width="2" stroke="black" fill="black" fill-opacity="0" />
<circle cx="476.82358169555664" cy="387.68206310272217" r="1" stroke="black" stroke-width="2" fill="none" />
<circle cx="523.2082691192627" cy="387.8322124481201" r="1" stroke="black" stroke-width="2" fill="none" />
<path d="M475.674015045166,404.9060821533203 Q499.999845886603,395.92181873321533,524.4832134246826,404.8364977836609" stroke-width="2" stroke="black" fill="black" fill-opacity="0" />
<circle cx="476.8529052734375" cy="487.67772006988525" r="1" stroke="black" stroke-width="2" fill="none" />
<circle cx="523.1799831390381" cy="487.8299913406372" r="1" stroke="black" stroke-width="2" fill="none" />
<path d="M475.6947898864746,504.93645000457764 Q499.99998446181417,495.86053562164307,524.4647445678711,504.86723279953003" stroke-width="2" stroke="black" fill="black" fill-opacity="0" />
<circle cx="476.8822269439697" cy="587.6733751296997" r="1" stroke="black" stroke-width="2" fill="none" />
<circle cx="523.1516971588135" cy="587.8277683258057" r="1" stroke="black" stroke-width="2" fill="none" />
<path d="M475.7155647277832,604.9668207168579 Q500.00012301653624,595.7992506027222,524.4462757110596,604.8979682922363" stroke-width="2" stroke="black" fill="black" fill-opacity="0" />
<circle cx="476.91155433654785" cy="687.6690368652344" r="1" stroke="black" stroke-width="2" fill="none" />
<circle cx="523.1234149932861" cy="687.8255500793457" r="1" stroke="black" stroke-width="2" fill="none" />
<path d="M475.73633766174316,704.9971823692322 Q500.00026184506714,695.7379636764526,524.4278049468994,704.9286966323853" stroke-width="2" stroke="black" fill="black" fill-opacity="0" />
<circle cx="476.9408779144287" cy="787.6646919250488" r="1" stroke="black" stroke-width="2" fill="none" />
<circle cx="523.0951309204102" cy="787.8233280181885" r="1" stroke="black" stroke-width="2" fill="none" />
<path d="M475.75711250305176,805.0275554656982 Q500.0004004035145,795.6766805648804,524.4093360900879,804.959433555603" stroke-width="2" stroke="black" fill="black" fill-opacity="0" />
<circle cx="476.97019958496094" cy="887.6603479385376" r="1" stroke="black" stroke-width="2" fill="none" />
<circle cx="523.0668506622314" cy="887.8211050033569" r="1" stroke="black" stroke-width="2" fill="none" />
<path d="M475.7778854370117,905.0579228401184 Q500.0005391277373,895.6153964996338,524.3908710479736,904.9901700019836" stroke-width="2" stroke="black" fill="black" fill-opacity="0" />
<circle cx="565.4700088500977" cy="-22.24992561340332" r="1" stroke="black" stroke-width="2" fill="none" />
<circle cx="634.3026885986328" cy="-22.39942741394043" r="1" stroke="black" stroke-width="2" fill="none" />
<path d="M565.420597076416,3.0754168033599854 Q600.001424478367,-10.184220314025879,634.4369621276855,3.056907892227173" stroke-width="2" stroke="black" fill="black" fill-opacity="0" />
<circle cx="565.4604148864746" cy="77.67344284057617" r="1" stroke="black" stroke-width="2" fill="none" />
<circle cx="634.3126754760742" cy="77.5244312286377" r="1" stroke="black" stroke-width="2" fill="none" />
<path d="M565.402458190918,103.10648322105408 Q600.0016998443753,89.72470283508301,634.4541358947754,103.08804249763489" stroke-width="2" stroke="black" fill="black" fill-opacity="0" />
<circle cx="565.4508171081543" cy="177.59681701660156" r="1" stroke="black" stroke-width="2" fill="none" />
<circle cx="634.3226585388184" cy="177.44829177856445" r="1" stroke="black" stroke-width="2" fill="none" />
<path d="M565.3843154907227,203.13754963874817 Q600.0019751638174,189.63361740112305,634.471321105957,203.11917805671692" stroke-width="2" stroke="black" fill="black" fill-opacity="0" />
<circle cx="565.4412117004395" cy="277.5201930999756" r="1" stroke="black" stroke-width="2" fill="none" />
<circle cx="634.332649230957" cy="277.3721561431885" r="1" stroke="black" stroke-width="2" fill="none" />
<path d="M565.3661651611328,303.16860818862915 Q600.0022501833737,289.5425319671631,634.4885063171387,303.1503050327301" stroke-width="2" stroke="black" fill="black" fill-opacity="0" />
<circle cx="565.4316101074219" cy="377.44357109069824" r="1" stroke="black" stroke-width="2" fill="none" />
<circle cx="634.3426399230957" cy="377.2960205078125" r="1" stroke="black" stroke-width="2" fill="none" />
<path d="M565.3480186462402,403.19967770576477 Q600.0025254618376,389.4514398574829,634.5056915283203,403.18144059181213" stroke-width="2" stroke="black" fill="black" fill-opacity="0" />
<circle cx="565.4220161437988" cy="477.3669319152832" r="1" stroke="black" stroke-width="2" fill="none" />
<circle cx="634.3526229858398" cy="477.2198734283447" r="1" stroke="black" stroke-width="2" fill="none" />
<path d="M565.3298721313477,503.2307436466217 Q600.002800680697,489.3603630065918,634.5228729248047,503.21257638931274" stroke-width="2" stroke="black" fill="black" fill-opacity="0" />
<circle cx="565.4124183654785" cy="577.2903118133545" r="1" stroke="black" stroke-width="2" fill="none" />
<circle cx="634.362606048584" cy="577.1437377929688" r="1" stroke="black" stroke-width="2" fill="none" />
<path d="M565.3117294311523,603.2618112564087 Q600.0030756872147,589.2692756652832,634.5400543212891,603.2437098026276" stroke-width="2" stroke="black" fill="black" fill-opacity="0" />
<circle cx="565.4028167724609" cy="677.2136821746826" r="1" stroke="black" stroke-width="2" fill="none" />
<circle cx="634.3725967407227" cy="677.0675983428955" r="1" stroke="black" stroke-width="2" fill="none" />
<path d="M565.2935829162598,703.2928755283356 Q600.0033509675413,689.178186416626,634.5572319030762,703.2748425006866" stroke-width="2" stroke="black" fill="black" fill-opacity="0" />
<circle cx="565.3932189941406" cy="777.1370506286621" r="1" stroke="black" stroke-width="2" fill="none" />
<circle cx="634.3825836181641" cy="776.9914569854736" r="1" stroke="black" stroke-width="2" fill="none" />
<path d="M565.2754364013672,803.3239426612854 Q600.003626152873,789.0871114730835,634.5744132995605,803.3059780597687" stroke-width="2" stroke="black" fill="black" fill-opacity="0" />
<circle cx="565.3836097717285" cy="877.0604267120361" r="1" stroke="black" stroke-width="2" fill="none" />
<circle cx="634.3925704956055" cy="876.9153213500977" r="1" stroke="black" stroke-width="2" fill="none" />
<path d="M565.2572898864746,903.3550090789795 Q600.0039012767375,888.9960279464722,634.5916023254395,903.3371098041534" stroke-width="2" stroke="black" fill="black" fill-opacity="0" />
<circle cx="667.582820892334" cy="-37.42008972167969" r="1" stroke="black" stroke-width="2" fill="none" />
<circle cx="732.2014579772949" cy="-37.47218322753906" r="1" stroke="black" stroke-width="2" fill="none" />
<path d="M665.8202972412109,5.33856201171875 Q700.0399737656116,-17.90764045715332,733.8693771362305,5.316531181335449" stroke-width="2" stroke="black" fill="black" fill-opacity="0" />
<circle cx="667.6463775634766" cy="62.5854377746582" r="1" stroke="black" stroke-width="2" fill="none" />
<circle cx="732.1382141113281" cy="62.53357696533203" r="1" stroke="black" stroke-width="2" fill="none" />
<path d="M665.8765602111816,105.3564133644104 Q700.0400671437383,82.03014755249023,733.8129119873047,105.33535385131836" stroke-width="2" stroke="black" fill="black" fill-opacity="0" />
<circle cx="667.7086486816406" cy="162.58975219726562" r="1" stroke="black" stroke-width="2" fill="none" />
<circle cx="732.0762405395508" cy="162.53808212280273" r="1" stroke="black" stroke-width="2" fill="none" />
<path d="M665.9315223693848,205.37517404556274 Q700.0401623919606,181.96660804748535,733.7577018737793,205.35508251190186" stroke-width="2" stroke="black" fill="black" fill-opacity="0" />
<circle cx="667.7679214477539" cy="262.59124755859375" r="1" stroke="black" stroke-width="2" fill="none" />
<circle cx="732.0172424316406" cy="262.5396957397461" r="1" stroke="black" stroke-width="2" fill="none" />
<path d="M665.9834594726562,305.39605617523193 Q700.0402618944645,281.8999671936035,733.7054176330566,305.37690830230713" stroke-width="2" stroke="black" fill="black" fill-opacity="0" />
<circle cx="667.8271942138672" cy="362.5927391052246" r="1" stroke="black" stroke-width="2" fill="none" />
<circle cx="731.9582424163818" cy="362.5413055419922" r="1" stroke="black" stroke-width="2" fill="none" />
<path d="M666.0354042053223,405.4169383049011 Q700.0403616055846,381.8333168029785,733.653133392334,405.39873027801514" stroke-width="2" stroke="black" fill="black" fill-opacity="0" />
<circle cx="667.8864631652832" cy="462.59424209594727" r="1" stroke="black" stroke-width="2" fill="none" />
<circle cx="731.8992443084717" cy="462.5429267883301" r="1" stroke="black" stroke-width="2" fill="none" />
<path d="M666.0873413085938,505.43781661987305 Q700.0404611676931,481.7666778564453,733.6008491516113,505.4205513000488" stroke-width="2" stroke="black" fill="black" fill-opacity="0" />
<circle cx="667.9457397460938" cy="562.5957412719727" r="1" stroke="black" stroke-width="2" fill="none" />
<circle cx="731.8402423858643" cy="562.5445404052734" r="1" stroke="black" stroke-width="2" fill="none" />
<path d="M666.139274597168,605.4586992263794 Q700.0405608639121,581.7000255584717,733.5485649108887,605.442376613617" stroke-width="2" stroke="black" fill="black" fill-opacity="0" />
<circle cx="668.0050067901611" cy="662.5972290039062" r="1" stroke="black" stroke-width="2" fill="none" />
<circle cx="731.7812519073486" cy="662.5461463928223" r="1" stroke="black" stroke-width="2" fill="none" />
<path d="M666.1912155151367,705.4795794487 Q700.0406606420875,681.6333751678467,733.4962844848633,705.4642014503479" stroke-width="2" stroke="black" fill="black" fill-opacity="0" />
<circle cx="668.0642833709717" cy="762.5987243652344" r="1" stroke="black" stroke-width="2" fill="none" />
<circle cx="731.7222442626953" cy="762.5477561950684" r="1" stroke="black" stroke-width="2" fill="none" />
<path d="M666.2431526184082,805.5004615783691 Q700.0407602414489,781.5667362213135,733.4440002441406,805.4860224723816" stroke-width="2" stroke="black" fill="black" fill-opacity="0" />
<circle cx="668.123556137085" cy="862.6002159118652" r="1" stroke="black" stroke-width="2" fill="none" />
<circle cx="731.6632480621338" cy="862.5493659973145" r="1" stroke="black" stroke-width="2" fill="none" />
<path d="M666.295093536377,905.5213413238525 Q700.0408600121737,881.5000839233398,733.391716003418,905.5078482627869" stroke-width="2" stroke="black" fill="black" fill-opacity="0" />
<circle cx="780.9405727386475" cy="-39.97457504272461" r="1" stroke="black" stroke-width="2" fill="none" />
<circle cx="818.873441696167" cy="-39.874290466308594" r="1" stroke="black" stroke-width="2" fill="none" />
<path d="M777.7817420959473,3.411259174346924 Q800.0518267601728,-17.599815368652344,821.9415493011475,3.5042760372161865" stroke-width="2" stroke="black" fill="black" fill-opacity="0" />
<circle cx="780.9864463806152" cy="60.03870391845703" r="1" stroke="black" stroke-width="2" fill="none" />
<circle cx="818.8278732299805" cy="60.139583587646484" r="1" stroke="black" stroke-width="2" fill="none" />
<path d="M777.8242149353027,103.40771341323853 Q800.0518618673086,82.38857078552246,821.8994941711426,103.5012776851654" stroke-width="2" stroke="black" fill="black" fill-opacity="0" />
<circle cx="781.0323181152344" cy="160.0519905090332" r="1" stroke="black" stroke-width="2" fill="none" />
<circle cx="818.7823123931885" cy="160.1534652709961" r="1" stroke="black" stroke-width="2" fill="none" />
<path d="M777.8666934967041,203.40417432785034 Q800.0518968626857,182.37695503234863,821.8574352264404,203.49828124046326" stroke-width="2" stroke="black" fill="black" fill-opacity="0" />
<circle cx="781.0781803131104" cy="260.06526947021484" r="1" stroke="black" stroke-width="2" fill="none" />
<circle cx="818.7367553710938" cy="260.16734313964844" r="1" stroke="black" stroke-width="2" fill="none" />
<path d="M777.9091606140137,303.40063095092773 Q800.0519318878651,282.36534309387207,821.8153839111328,303.49528670310974" stroke-width="2" stroke="black" fill="black" fill-opacity="0" />
<circle cx="781.1240539550781" cy="360.0785484313965" r="1" stroke="black" stroke-width="2" fill="none" />
<circle cx="818.6911869049072" cy="360.18121337890625" r="1" stroke="black" stroke-width="2" fill="none" />
<path d="M777.951639175415,403.39708733558655 Q800.0519669800997,382.3537292480469,821.7733249664307,403.4922902584076" stroke-width="2" stroke="black" fill="black" fill-opacity="0" />
<circle cx="781.1699256896973" cy="460.0918197631836" r="1" stroke="black" stroke-width="2" fill="none" />
<circle cx="818.6456184387207" cy="460.19508361816406" r="1" stroke="black" stroke-width="2" fill="none" />
<path d="M777.9941158294678,503.39354705810547 Q800.0520020201802,482.3421173095703,821.7312717437744,503.48929476737976" stroke-width="2" stroke="black" fill="black" fill-opacity="0" />
<circle cx="781.2157955169678" cy="560.1051025390625" r="1" stroke="black" stroke-width="2" fill="none" />
<circle cx="818.6000537872314" cy="560.2089576721191" r="1" stroke="black" stroke-width="2" fill="none" />
<path d="M778.0365886688232,603.3900020122528 Q800.0520370006561,582.3305053710938,821.6892147064209,603.4862930774689" stroke-width="2" stroke="black" fill="black" fill-opacity="0" />
<circle cx="781.261661529541" cy="660.1183891296387" r="1" stroke="black" stroke-width="2" fill="none" />
<circle cx="818.5544929504395" cy="660.2228393554688" r="1" stroke="black" stroke-width="2" fill="none" />
<path d="M778.0790596008301,703.3864593505859 Q800.0520720928907,682.3188915252686,821.6471614837646,703.4832961559296" stroke-width="2" stroke="black" fill="black" fill-opacity="0" />
<circle cx="781.307538986206" cy="760.1316680908203" r="1" stroke="black" stroke-width="2" fill="none" />
<circle cx="818.5089282989502" cy="760.2367134094238" r="1" stroke="black" stroke-width="2" fill="none" />
<path d="M778.1215362548828,803.382919549942 Q800.052107103169,782.3072757720947,821.6051044464111,803.480299949646" stroke-width="2" stroke="black" fill="black" fill-opacity="0" />
<circle cx="781.3534088134766" cy="860.1449432373047" r="1" stroke="black" stroke-width="2" fill="none" />
<circle cx="818.4633636474609" cy="860.2505874633789" r="1" stroke="black" stroke-width="2" fill="none" />
<path d="M778.1640110015869,903.3793737888336 Q800.0521420314908,882.2956638336182,821.5630512237549,903.4773001670837" stroke-width="2" stroke="black" fill="black" fill-opacity="0" />
<circle cx="882.2713375091553" cy="-33.22123718261719" r="1" stroke="black" stroke-width="2" fill="none" />
<circle cx="917.6011829376221" cy="-33.21800994873047" r="1" stroke="black" stroke-width="2" fill="none" />
<path d="M880.1857166290283,-12.076700210571289 Q900.0339614078403,-23.26466178894043,919.7556457519531,-11.962912559509277" stroke-width="2" stroke="black" fill="black" fill-opacity="0" />
<circle cx="882.2602710723877" cy="66.77746963500977" r="1" stroke="black" stroke-width="2" fill="none" />
<circle cx="917.6122894287109" cy="66.78047180175781" r="1" stroke="black" stroke-width="2" fill="none" />
<path d="M880.176305770874,87.89391231536865 Q900.0339483469725,76.70650482177734,919.7655143737793,88.00760841369629" stroke-width="2" stroke="black" fill="black" fill-opacity="0" />
<circle cx="882.2491989135742" cy="166.77617263793945" r="1" stroke="black" stroke-width="2" fill="none" />
<circle cx="917.6234016418457" cy="166.77894973754883" r="1" stroke="black" stroke-width="2" fill="none" />
<path d="M880.1668872833252,187.86452388763428 Q900.0339351668954,176.67766571044922,919.7753868103027,187.978120803833" stroke-width="2" stroke="black" fill="black" fill-opacity="0" />
<circle cx="882.2381248474121" cy="266.7748794555664" r="1" stroke="black" stroke-width="2" fill="none" />
<circle cx="917.6345195770264" cy="266.77742767333984" r="1" stroke="black" stroke-width="2" fill="none" />
<path d="M880.157470703125,287.8351402282715 Q900.0339220166206,276.6488285064697,919.7852611541748,287.9486389160156" stroke-width="2" stroke="black" fill="black" fill-opacity="0" />
<circle cx="882.2270584106445" cy="366.7735824584961" r="1" stroke="black" stroke-width="2" fill="none" />
<circle cx="917.6456279754639" cy="366.77590560913086" r="1" stroke="black" stroke-width="2" fill="none" />
<path d="M880.1480541229248,387.80575466156006 Q900.0339089408517,376.61998558044434,919.7951335906982,387.91916370391846" stroke-width="2" stroke="black" fill="black" fill-opacity="0" />
<circle cx="882.2159843444824" cy="466.77228927612305" r="1" stroke="black" stroke-width="2" fill="none" />
<circle cx="917.65673828125" cy="466.7743835449219" r="1" stroke="black" stroke-width="2" fill="none" />
<path d="M880.1386394500732,487.7763614654541 Q900.0338957384229,476.59115409851074,919.8050060272217,487.8896713256836" stroke-width="2" stroke="black" fill="black" fill-opacity="0" />
<circle cx="882.2049160003662" cy="566.77099609375" r="1" stroke="black" stroke-width="2" fill="none" />
<circle cx="917.6678524017334" cy="566.7728652954102" r="1" stroke="black" stroke-width="2" fill="none" />
<path d="M880.129222869873,587.7469778060913 Q900.0338825881481,576.5623149871826,919.8148803710938,587.8601932525635" stroke-width="2" stroke="black" fill="black" fill-opacity="0" />
<circle cx="882.1938495635986" cy="666.7696952819824" r="1" stroke="black" stroke-width="2" fill="none" />
<circle cx="917.6789646148682" cy="666.7713394165039" r="1" stroke="black" stroke-width="2" fill="none" />
<path d="M880.1198062896729,687.7175922393799 Q900.0338695421815,676.5334758758545,919.8247528076172,687.8307123184204" stroke-width="2" stroke="black" fill="black" fill-opacity="0" />
<circle cx="882.1827812194824" cy="766.7684020996094" r="1" stroke="black" stroke-width="2" fill="none" />
<circle cx="917.690071105957" cy="766.7698211669922" r="1" stroke="black" stroke-width="2" fill="none" />
<path d="M880.1103916168213,787.6881990432739 Q900.0338563770056,776.5046405792236,919.8346252441406,787.8012256622314" stroke-width="2" stroke="black" fill="black" fill-opacity="0" />
<circle cx="882.1717071533203" cy="866.7671089172363" r="1" stroke="black" stroke-width="2" fill="none" />
<circle cx="917.7011852264404" cy="866.7682991027832" r="1" stroke="black" stroke-width="2" fill="none" />
<path d="M880.1009731292725,887.6588201522827 Q900.0338432267308,876.4757995605469,919.8444957733154,887.7717504501343" stroke-width="2" stroke="black" fill="black" fill-opacity="0" />
<path d="M-50,50 L950,50" stroke="black" />
<path d="M50,-50 L50,950" stroke="black" />
<path d="M-50,150 L950,150" stroke="black" />
<path d="M150,-50 L150,950" stroke="black" />
<path d="M-50,250 L950,250" stroke="black" />
<path d="M250,-50 L250,950" stroke="black" />
<path d="M-50,350 L950,350" stroke="black" />
<path d="M350,-50 L350,950" stroke="black" />
<path d="M-50,450 L950,450" stroke="black" />
<path d="M450,-50 L450,950" stroke="black" />
<path d="M-50,550 L950,550" stroke="black" />
<path d="M550,-50 L550,950" stroke="black" />
<path d="M-50,650 L950,650" stroke="black" />
<path d="M650,-50 L650,950" stroke="black" />
<path d="M-50,750 L950,750" stroke="black" />
<path d="M750,-50 L750,950" stroke="black" />
<path d="M-50,850 L950,850" stroke="black" />
<path d="M850,-50 L850,950" stroke="black" />
</svg>