<?xml version="1.0" encoding="UTF-8"?>
<svg xmlns="http://www.w3.org/2000/svg" xmlns:xlink="http://www.w3.org/1999/xlink"
     width="1000" height="1000" viewBox="-50 -50 1000 1000" diplayInline="False">
<defs>
</defs>
<circle cx="-31.50896453857422" cy="-22.710926055908203" r="1" stroke="black" stroke-width="2" fill="none" />
<circle cx="31.664236068725586" cy="-22.259387969970703" r="1" stroke="black" stroke-width="2" fill="none" />
<path d="M-31.289295196533203,24.697954177856445 Q-0.05472050607204437,37.293582916259766,31.4910888671875,24.832975387573242" stroke-width="2" stroke="black" fill="black" fill-opacity="0" />
<circle cx="-31.504436492919922" cy="77.29171943664551" r="1" stroke="black" stroke-width="2" fill="none" />
<circle cx="31.65997886657715" cy="77.74338150024414" r="1" stroke="black" stroke-width="2" fill="none" />
<path d="M-31.284555435180664,124.69698524475098 Q-0.054669372737407684,137.25659942626953,31.486696243286133,124.83205604553223" stroke-width="2" stroke="black" fill="black" fill-opacity="0" />
<circle cx="-31.499910354614258" cy="177.29435539245605" r="1" stroke="black" stroke-width="2" fill="none" />
<circle cx="31.655725479125977" cy="177.74614715576172" r="1" stroke="black" stroke-width="2" fill="none" />
<path d="M-31.27981948852539,224.6960277557373 Q-0.05461899936199188,237.21961212158203,31.48231315612793,224.8311424255371" stroke-width="2" stroke="black" fill="black" fill-opacity="0" />
<circle cx="-31.495389938354492" cy="277.29699516296387" r="1" stroke="black" stroke-width="2" fill="none" />
<circle cx="31.651479721069336" cy="277.7489128112793" r="1" stroke="black" stroke-width="2" fill="none" />
<path d="M-31.275089263916016,324.69506072998047 Q-0.054568298161029816,337.1826400756836,31.477930068969727,324.8302230834961" stroke-width="2" stroke="black" fill="black" fill-opacity="0" />
<circle cx="-31.49086570739746" cy="377.2996349334717" r="1" stroke="black" stroke-width="2" fill="none" />
<circle cx="31.647228240966797" cy="377.7516803741455" r="1" stroke="black" stroke-width="2" fill="none" />
<path d="M-31.27035140991211,424.6940975189209 Q-0.0545177236199379,437.14565658569336,31.473543167114258,424.82930755615234" stroke-width="2" stroke="black" fill="black" fill-opacity="0" />
<circle cx="-31.486337661743164" cy="477.30227279663086" r="1" stroke="black" stroke-width="2" fill="none" />
<circle cx="31.642972946166992" cy="477.75444412231445" r="1" stroke="black" stroke-width="2" fill="none" />
<path d="M-31.265613555908203,524.6931419372559 Q-0.05446687340736389,537.1086692810059,31.46915626525879,524.8283958435059" stroke-width="2" stroke="black" fill="black" fill-opacity="0" />
<circle cx="-31.4818115234375" cy="577.3049163818359" r="1" stroke="black" stroke-width="2" fill="none" />
<circle cx="31.638721466064453" cy="577.7572116851807" r="1" stroke="black" stroke-width="2" fill="none" />
<path d="M-31.26087760925293,624.6921691894531 Q-0.0544162318110466,637.0716934204102,31.46476936340332,624.8274726867676" stroke-width="2" stroke="black" fill="black" fill-opacity="0" />
<circle cx="-31.47728729248047" cy="677.3075542449951" r="1" stroke="black" stroke-width="2" fill="none" />
<circle cx="31.63446617126465" cy="677.7599773406982" r="1" stroke="black" stroke-width="2" fill="none" />
<path d="M-31.256139755249023,724.6912097930908 Q-0.05436558276414871,737.0347213745117,31.460384368896484,724.8265590667725" stroke-width="2" stroke="black" fill="black" fill-opacity="0" />
<circle cx="-31.472761154174805" cy="777.3101940155029" r="1" stroke="black" stroke-width="2" fill="none" />
<circle cx="31.63021469116211" cy="777.7627429962158" r="1" stroke="black" stroke-width="2" fill="none" />
<path d="M-31.251405715942383,824.6902484893799 Q-0.054315052926540375,836.9977340698242,31.45599937438965,824.8256416320801" stroke-width="2" stroke="black" fill="black" fill-opacity="0" />
<circle cx="-31.468236923217773" cy="877.312837600708" r="1" stroke="black" stroke-width="2" fill="none" />
<circle cx="31.62596321105957" cy="877.7655124664307" r="1" stroke="black" stroke-width="2" fill="none" />
<path d="M-31.24666976928711,924.689281463623 Q-0.05426432192325592,936.960750579834,31.45161247253418,924.8247241973877" stroke-width="2" stroke="black" fill="black" fill-opacity="0" />
<circle cx="73.75189781188965" cy="-23.729360580444336" r="1" stroke="black" stroke-width="2" fill="none" />
<circle cx="126.28323554992676" cy="-23.541168212890625" r="1" stroke="black" stroke-width="2" fill="none" />
<path d="M71.47039413452148,30.00921630859375 Q99.94354409724474,40.417694091796875,128.54814338684082,30.05312156677246" stroke-width="2" stroke="black" fill="black" fill-opacity="0" />
<circle cx="73.74181365966797" cy="76.2943286895752" r="1" stroke="black" stroke-width="2" fill="none" />
<circle cx="126.29337882995605" cy="76.48320579528809" r="1" stroke="black" stroke-width="2" fill="none" />
<path d="M71.47559928894043,129.95800971984863 Q99.94351357966661,140.37054443359375,128.54327583312988,130.002592086792" stroke-width="2" stroke="black" fill="black" fill-opacity="0" />
<circle cx="73.73173332214355" cy="176.31801986694336" r="1" stroke="black" stroke-width="2" fill="none" />
<circle cx="126.30352020263672" cy="176.50758171081543" r="1" stroke="black" stroke-width="2" fill="none" />
<path d="M71.48080253601074,229.90679931640625 Q99.94348293542862,240.3233985900879,128.53841018676758,229.952054977417" stroke-width="2" stroke="black" fill="black" fill-opacity="0" />
<circle cx="73.72165298461914" cy="276.341703414917" r="1" stroke="black" stroke-width="2" fill="none" />
<circle cx="126.31365776062012" cy="276.5319519042969" r="1" stroke="black" stroke-width="2" fill="none" />
<path d="M71.48600959777832,329.85560607910156 Q99.94345223158598,340.27626037597656,128.53354454040527,329.90153884887695" stroke-width="2" stroke="black" fill="black" fill-opacity="0" />
<circle cx="73.71156692504883" cy="376.3654022216797" r="1" stroke="black" stroke-width="2" fill="none" />
<circle cx="126.32380294799805" cy="376.556339263916" r="1" stroke="black" stroke-width="2" fill="none" />
<path d="M71.4912166595459,429.8043785095215 Q99.94342128932476,440.2290954589844,128.5286750793457,429.85098457336426" stroke-width="2" stroke="black" fill="black" fill-opacity="0" />
<circle cx="73.70148277282715" cy="476.3890895843506" r="1" stroke="black" stroke-width="2" fill="none" />
<circle cx="126.33394622802734" cy="476.5807132720947" r="1" stroke="black" stroke-width="2" fill="none" />
<path d="M71.49641990661621,529.753173828125 Q99.9433905184269,540.1819458007812,128.52381134033203,529.8004531860352" stroke-width="2" stroke="black" fill="black" fill-opacity="0" />
<circle cx="73.69140434265137" cy="576.4127788543701" r="1" stroke="black" stroke-width="2" fill="none" />
<circle cx="126.34408187866211" cy="576.6050872802734" r="1" stroke="black" stroke-width="2" fill="none" />
<path d="M71.50162696838379,629.7019729614258 Q99.94335972517729,640.1348037719727,128.51894187927246,629.749927520752" stroke-width="2" stroke="black" fill="black" fill-opacity="0" />
<circle cx="73.68132019042969" cy="676.4364700317383" r="1" stroke="black" stroke-width="2" fill="none" />
<circle cx="126.35422325134277" cy="676.6294651031494" r="1" stroke="black" stroke-width="2" fill="none" />
<path d="M71.50683212280273,729.6507606506348 Q99.94332904368639,740.0876541137695,128.51407623291016,729.6993923187256" stroke-width="2" stroke="black" fill="black" fill-opacity="0" />
<circle cx="73.67123794555664" cy="776.4601593017578" r="1" stroke="black" stroke-width="2" fill="none" />
<circle cx="126.36436462402344" cy="776.6538391113281" r="1" stroke="black" stroke-width="2" fill="none" />
<path d="M71.51203727722168,829.5995502471924 Q99.94329845905304,840.0405082702637,128.50920867919922,829.6488571166992" stroke-width="2" stroke="black" fill="black" fill-opacity="0" />
<circle cx="73.6611499786377" cy="876.483850479126" r="1" stroke="black" stroke-width="2" fill="none" />
<circle cx="126.37450790405273" cy="876.6782188415527" r="1" stroke="black" stroke-width="2" fill="none" />
<path d="M71.51724433898926,929.5483417510986 Q99.94326721131802,939.993350982666,128.50434494018555,929.5983238220215" stroke-width="2" stroke="black" fill="black" fill-opacity="0" />
<circle cx="181.49114799499512" cy="-27.32267951965332" r="1" stroke="black" stroke-width="2" fill="none" />
<circle cx="218.3620662689209" cy="-27.621849060058594" r="1" stroke="black" stroke-width="2" fill="none" />
<path d="M174.52366256713867,42.414588928222656 Q199.94550896435976,46.461063385009766,225.1141300201416,42.28009033203125" stroke-width="2" stroke="black" fill="black" fill-opacity="0" />
<circle cx="181.46848678588867" cy="72.68655014038086" r="1" stroke="black" stroke-width="2" fill="none" />
<circle cx="218.3837375640869" cy="72.38624954223633" r="1" stroke="black" stroke-width="2" fill="none" />
<path d="M174.5130271911621,142.39169692993164 Q199.94533271342516,146.42821884155273,225.12367630004883,142.2572364807129" stroke-width="2" stroke="black" fill="black" fill-opacity="0" />
<circle cx="181.4458236694336" cy="172.69578170776367" r="1" stroke="black" stroke-width="2" fill="none" />
<circle cx="218.40540885925293" cy="172.39434432983398" r="1" stroke="black" stroke-width="2" fill="none" />
<path d="M174.50238418579102,242.36880493164062 Q199.9451566338539,246.3953857421875,225.1332244873047,242.2343864440918" stroke-width="2" stroke="black" fill="black" fill-opacity="0" />
<circle cx="181.4231662750244" cy="272.7050132751465" r="1" stroke="black" stroke-width="2" fill="none" />
<circle cx="218.4270725250244" cy="272.4024410247803" r="1" stroke="black" stroke-width="2" fill="none" />
<path d="M174.49174880981445,342.34590911865234 Q199.94498076289892,346.36254501342773,225.14276695251465,342.2115287780762" stroke-width="2" stroke="black" fill="black" fill-opacity="0" />
<circle cx="181.40049934387207" cy="372.7142448425293" r="1" stroke="black" stroke-width="2" fill="none" />
<circle cx="218.44875144958496" cy="372.4105415344238" r="1" stroke="black" stroke-width="2" fill="none" />
<path d="M174.48110580444336,442.3230094909668 Q199.9448045939207,446.32970428466797,225.1523151397705,442.1886749267578" stroke-width="2" stroke="black" fill="black" fill-opacity="0" />
<circle cx="181.37783813476562" cy="472.7234687805176" r="1" stroke="black" stroke-width="2" fill="none" />
<circle cx="218.4704189300537" cy="472.41863441467285" r="1" stroke="black" stroke-width="2" fill="none" />
<path d="M174.4704647064209,542.3001251220703 Q199.94462835788727,546.296875,225.16186332702637,542.1658325195312" stroke-width="2" stroke="black" fill="black" fill-opacity="0" />
<circle cx="181.3551788330078" cy="572.7327060699463" r="1" stroke="black" stroke-width="2" fill="none" />
<circle cx="218.4920883178711" cy="572.4267349243164" r="1" stroke="black" stroke-width="2" fill="none" />
<path d="M174.45982551574707,642.2772216796875 Q199.94445231556892,646.264030456543,225.17140579223633,642.1429710388184" stroke-width="2" stroke="black" fill="black" fill-opacity="0" />
<circle cx="181.33251953125" cy="672.7419376373291" r="1" stroke="black" stroke-width="2" fill="none" />
<circle cx="218.51375770568848" cy="672.4348297119141" r="1" stroke="black" stroke-width="2" fill="none" />
<path d="M174.44918632507324,742.2543258666992 Q199.94427657872438,746.2311897277832,225.18095016479492,742.1201171875" stroke-width="2" stroke="black" fill="black" fill-opacity="0" />
<circle cx="181.3098602294922" cy="772.7511672973633" r="1" stroke="black" stroke-width="2" fill="none" />
<circle cx="218.53542518615723" cy="772.442928314209" r="1" stroke="black" stroke-width="2" fill="none" />
<path d="M174.43854522705078,842.2314376831055 Q199.94410053640604,846.1983528137207,225.19049453735352,842.0972633361816" stroke-width="2" stroke="black" fill="black" fill-opacity="0" />
<circle cx="181.28719902038574" cy="872.7604007720947" r="1" stroke="black" stroke-width="2" fill="none" />
<circle cx="218.5570945739746" cy="872.4510269165039" r="1" stroke="black" stroke-width="2" fill="none" />
<path d="M174.4279079437256,942.2085418701172 Q199.94392430782318,946.1655158996582,225.20004081726074,942.0744094848633" stroke-width="2" stroke="black" fill="black" fill-opacity="0" />
<circle cx="289.3389778137207" cy="-22.42000389099121" r="1" stroke="black" stroke-width="2" fill="none" />
<circle cx="310.5814208984375" cy="-22.736675262451172" r="1" stroke="black" stroke-width="2" fill="none" />
<path d="M281.5353717803955,34.753997802734375 Q299.9643095880747,41.170677185058594,318.37805938720703,34.74659729003906" stroke-width="2" stroke="black" fill="black" fill-opacity="0" />
<circle cx="289.33551597595215" cy="77.57222175598145" r="1" stroke="black" stroke-width="2" fill="none" />
<circle cx="310.58430767059326" cy="77.25534248352051" r="1" stroke="black" stroke-width="2" fill="none" />
<path d="M281.53173828125,134.78149795532227 Q299.9642366915941,141.16436767578125,318.38033866882324,134.7739486694336" stroke-width="2" stroke="black" fill="black" fill-opacity="0" />
<circle cx="289.33205223083496" cy="177.5644474029541" r="1" stroke="black" stroke-width="2" fill="none" />
<circle cx="310.58719539642334" cy="177.2473602294922" r="1" stroke="black" stroke-width="2" fill="none" />
<path d="M281.5281066894531,234.80900955200195 Q299.9641637057066,241.15805435180664,318.3826198577881,234.80130004882812" stroke-width="2" stroke="black" fill="black" fill-opacity="0" />
<circle cx="289.32858753204346" cy="277.5566711425781" r="1" stroke="black" stroke-width="2" fill="none" />
<circle cx="310.5900831222534" cy="277.23937606811523" r="1" stroke="black" stroke-width="2" fill="none" />
<path d="M281.5244731903076,334.83652114868164 Q299.96409057825804,341.1517448425293,318.38490295410156,334.8286552429199" stroke-width="2" stroke="black" fill="black" fill-opacity="0" />
<circle cx="289.32512378692627" cy="377.5488986968994" r="1" stroke="black" stroke-width="2" fill="none" />
<circle cx="310.5929708480835" cy="377.2313938140869" r="1" stroke="black" stroke-width="2" fill="none" />
<path d="M281.5208435058594,434.86402893066406 Q299.96401735022664,441.1454315185547,318.3871822357178,434.8560028076172" stroke-width="2" stroke="black" fill="black" fill-opacity="0" />
<circle cx="289.3216600418091" cy="477.54112243652344" r="1" stroke="black" stroke-width="2" fill="none" />
<circle cx="310.59585666656494" cy="477.22340965270996" r="1" stroke="black" stroke-width="2" fill="none" />
<path d="M281.51721000671387,534.8915405273438 Q299.963944375515,541.1391220092773,318.38946533203125,534.883358001709" stroke-width="2" stroke="black" fill="black" fill-opacity="0" />
<circle cx="289.3181962966919" cy="577.5333499908447" r="1" stroke="black" stroke-width="2" fill="none" />
<circle cx="310.59874534606934" cy="577.215425491333" r="1" stroke="black" stroke-width="2" fill="none" />
<path d="M281.51357650756836,634.9190406799316 Q299.963871601969,641.1328125,318.39174461364746,634.9107093811035" stroke-width="2" stroke="black" fill="black" fill-opacity="0" />
<circle cx="289.3147325515747" cy="677.5255737304688" r="1" stroke="black" stroke-width="2" fill="none" />
<circle cx="310.6016330718994" cy="677.207441329956" r="1" stroke="black" stroke-width="2" fill="none" />
<path d="M281.5099411010742,734.9465560913086 Q299.963798455894,741.1264991760254,318.3940258026123,734.9380645751953" stroke-width="2" stroke="black" fill="black" fill-opacity="0" />
<circle cx="289.3112688064575" cy="777.51780128479" r="1" stroke="black" stroke-width="2" fill="none" />
<circle cx="310.60451793670654" cy="777.1994609832764" r="1" stroke="black" stroke-width="2" fill="none" />
<path d="M281.506311416626,834.9740600585938 Q299.9637253321707,841.1201858520508,318.3963050842285,834.9654121398926" stroke-width="2" stroke="black" fill="black" fill-opacity="0" />
<circle cx="289.30780506134033" cy="877.5100250244141" r="1" stroke="black" stroke-width="2" fill="none" />
<circle cx="310.60740661621094" cy="877.1914730072021" r="1" stroke="black" stroke-width="2" fill="none" />
<path d="M281.50267601013184,935.0015754699707 Q299.9636524990201,941.1138801574707,318.3985900878906,934.9927673339844" stroke-width="2" stroke="black" fill="black" fill-opacity="0" />
<circle cx="390.25510692596436" cy="-14.067798614501953" r="1" stroke="black" stroke-width="2" fill="none" />
<circle cx="409.591269493103" cy="-14.475080490112305" r="1" stroke="black" stroke-width="2" fill="none" />
<path d="M385.32690811157227,15.61100959777832 Q399.9512682259083,31.44182014465332,414.85531997680664,15.529633522033691" stroke-width="2" stroke="black" fill="black" fill-opacity="0" />
<circle cx="390.2600049972534" cy="85.92791175842285" r="1" stroke="black" stroke-width="2" fill="none" />
<circle cx="409.5860252380371" cy="85.52063846588135" r="1" stroke="black" stroke-width="2" fill="none" />
<path d="M385.3295011520386,115.62806224822998 Q399.95116886496544,131.43540382385254,414.85325050354004,115.54721927642822" stroke-width="2" stroke="black" fill="black" fill-opacity="0" />
<circle cx="390.2649030685425" cy="185.9236183166504" r="1" stroke="black" stroke-width="2" fill="none" />
<circle cx="409.5807809829712" cy="185.51635551452637" r="1" stroke="black" stroke-width="2" fill="none" />
<path d="M385.33209323883057,215.64511966705322 Q399.95106932520866,231.4290008544922,414.8511838912964,215.56480979919434" stroke-width="2" stroke="black" fill="black" fill-opacity="0" />
<circle cx="390.2698040008545" cy="285.91932678222656" r="1" stroke="black" stroke-width="2" fill="none" />
<circle cx="409.5755367279053" cy="285.5120725631714" r="1" stroke="black" stroke-width="2" fill="none" />
<path d="M385.3346862792969,315.66217613220215 Q399.9509699419141,331.4225902557373,414.8491144180298,315.5823984146118" stroke-width="2" stroke="black" fill="black" fill-opacity="0" />
<circle cx="390.2747039794922" cy="385.91503715515137" r="1" stroke="black" stroke-width="2" fill="none" />
<circle cx="409.57029151916504" cy="385.50779151916504" r="1" stroke="black" stroke-width="2" fill="none" />
<path d="M385.3372802734375,415.6792287826538 Q399.95087058097124,431.4161777496338,414.8470458984375,415.59998416900635" stroke-width="2" stroke="black" fill="black" fill-opacity="0" />
<circle cx="390.2796039581299" cy="485.9107418060303" r="1" stroke="black" stroke-width="2" fill="none" />
<circle cx="409.5650472640991" cy="485.5035057067871" r="1" stroke="black" stroke-width="2" fill="none" />
<path d="M385.3398723602295,515.6962909698486 Q399.95077116042376,531.4097747802734,414.84497928619385,515.617579460144" stroke-width="2" stroke="black" fill="black" fill-opacity="0" />
<circle cx="390.28450298309326" cy="585.9064521789551" r="1" stroke="black" stroke-width="2" fill="none" />
<circle cx="409.5598020553589" cy="585.4992265701294" r="1" stroke="black" stroke-width="2" fill="none" />
<path d="M385.34246826171875,615.7133445739746 Q399.95067159831524,631.4033584594727,414.84290981292725,615.6351642608643" stroke-width="2" stroke="black" fill="black" fill-opacity="0" />
<circle cx="390.2894010543823" cy="685.9021577835083" r="1" stroke="black" stroke-width="2" fill="none" />
<circle cx="409.5545587539673" cy="685.4949407577515" r="1" stroke="black" stroke-width="2" fill="none" />
<path d="M385.3450584411621,715.7304039001465 Q399.95057217776775,731.3969535827637,414.8408441543579,715.6527576446533" stroke-width="2" stroke="black" fill="black" fill-opacity="0" />
<circle cx="390.2943000793457" cy="785.8978672027588" r="1" stroke="black" stroke-width="2" fill="none" />
<circle cx="409.5493154525757" cy="785.4906597137451" r="1" stroke="black" stroke-width="2" fill="none" />
<path d="M385.34765243530273,815.7474575042725 Q399.9504727348685,831.3905429840088,414.8387756347656,815.6703443527222" stroke-width="2" stroke="black" fill="black" fill-opacity="0" />
<circle cx="390.2992000579834" cy="885.8935737609863" r="1" stroke="black" stroke-width="2" fill="none" />
<circle cx="409.54406929016113" cy="885.4863758087158" r="1" stroke="black" stroke-width="2" fill="none" />
<path d="M385.35024642944336,915.7645168304443 Q399.95037327706814,931.3841342926025,414.83670711517334,915.6879358291626" stroke-width="2" stroke="black" fill="black" fill-opacity="0" />
<circle cx="477.6307315826416" cy="-12.100240707397461" r="1" stroke="black" stroke-width="2" fill="none" />
<circle cx="522.4503402709961" cy="-12.335213661193848" r="1" stroke="black" stroke-width="2" fill="none" />
<path d="M476.72432708740234,1.6308051347732544 Q499.99329924117774,26.01313591003418,523.3195724487305,1.561959981918335" stroke-width="2" stroke="black" fill="black" fill-opacity="0" />
<circle cx="477.6484661102295" cy="87.90926361083984" r="1" stroke="black" stroke-width="2" fill="none" />
<circle cx="522.4324493408203" cy="87.67465496063232" r="1" stroke="black" stroke-width="2" fill="none" />
<path d="M476.74217796325684,101.62849199771881 Q499.99328577239066,125.98737335205078,523.3017253875732,101.56007277965546" stroke-width="2" stroke="black" fill="black" fill-opacity="0" />
<circle cx="477.6661949157715" cy="187.9187650680542" r="1" stroke="black" stroke-width="2" fill="none" />
<circle cx="522.4145603179932" cy="187.68452072143555" r="1" stroke="black" stroke-width="2" fill="none" />
<path d="M476.7600212097168,201.6261771917343 Q499.9932723408565,225.96161270141602,523.2838878631592,201.55818700790405" stroke-width="2" stroke="black" fill="black" fill-opacity="0" />
<circle cx="477.6839199066162" cy="287.92826747894287" r="1" stroke="black" stroke-width="2" fill="none" />
<circle cx="522.3966789245605" cy="287.6943883895874" r="1" stroke="black" stroke-width="2" fill="none" />
<path d="M476.7778625488281,301.62385737895966 Q499.9932589819655,325.9358501434326,523.2660503387451,301.55629074573517" stroke-width="2" stroke="black" fill="black" fill-opacity="0" />
<circle cx="477.7016487121582" cy="387.9377717971802" r="1" stroke="black" stroke-width="2" fill="none" />
<circle cx="522.3787899017334" cy="387.70425510406494" r="1" stroke="black" stroke-width="2" fill="none" />
<path d="M476.7957077026367,401.6215378046036 Q499.9932454749942,425.9100875854492,523.2482070922852,401.5543967485428" stroke-width="2" stroke="black" fill="black" fill-opacity="0" />
<circle cx="477.71938133239746" cy="487.94727420806885" r="1" stroke="black" stroke-width="2" fill="none" />
<circle cx="522.3608989715576" cy="487.7141227722168" r="1" stroke="black" stroke-width="2" fill="none" />
<path d="M476.8135566711426,501.6192238330841 Q499.9932320192456,525.8843250274658,523.2303638458252,501.552508354187" stroke-width="2" stroke="black" fill="black" fill-opacity="0" />
<circle cx="477.7371139526367" cy="587.9567728042603" r="1" stroke="black" stroke-width="2" fill="none" />
<circle cx="522.3430137634277" cy="587.7239866256714" r="1" stroke="black" stroke-width="2" fill="none" />
<path d="M476.8314018249512,601.6169174909592 Q499.99321848060936,625.8585681915283,523.2125263214111,601.5506253242493" stroke-width="2" stroke="black" fill="black" fill-opacity="0" />
<circle cx="477.7548408508301" cy="687.9662752151489" r="1" stroke="black" stroke-width="2" fill="none" />
<circle cx="522.3251266479492" cy="687.7338523864746" r="1" stroke="black" stroke-width="2" fill="none" />
<path d="M476.8492431640625,701.6146014928818 Q499.99320507701486,725.8328113555908,523.1946849822998,701.5487335920334" stroke-width="2" stroke="black" fill="black" fill-opacity="0" />
<circle cx="477.77256965637207" cy="787.9757776260376" r="1" stroke="black" stroke-width="2" fill="none" />
<circle cx="522.3072376251221" cy="787.7437200546265" r="1" stroke="black" stroke-width="2" fill="none" />
<path d="M476.8670883178711,801.6122864484787 Q499.99319141358137,825.8070430755615,523.1768455505371,801.5468429327011" stroke-width="2" stroke="black" fill="black" fill-opacity="0" />
<circle cx="477.79029655456543" cy="887.9852838516235" r="1" stroke="black" stroke-width="2" fill="none" />
<circle cx="522.2893505096436" cy="887.753589630127" r="1" stroke="black" stroke-width="2" fill="none" />
<path d="M476.8849334716797,901.6099630594254 Q499.9931779606268,925.7812747955322,523.1590042114258,901.5449461936951" stroke-width="2" stroke="black" fill="black" fill-opacity="0" />
<circle cx="562.8001861572266" cy="-23.87543296813965" r="1" stroke="black" stroke-width="2" fill="none" />
<circle cx="636.6885643005371" cy="-24.834592819213867" r="1" stroke="black" stroke-width="2" fill="none" />
<path d="M563.7645988464355,-2.0949578285217285 Q599.9569814875722,26.071901321411133,635.5810012817383,-2.091442346572876" stroke-width="2" stroke="black" fill="black" fill-opacity="0" />
<circle cx="562.8185997009277" cy="76.13590240478516" r="1" stroke="black" stroke-width="2" fill="none" />
<circle cx="636.6703300476074" cy="75.17753028869629" r="1" stroke="black" stroke-width="2" fill="none" />
<path d="M563.7826499938965,97.90297317504883 Q599.9569980576634,126.04462623596191,635.563159942627,97.90667772293091" stroke-width="2" stroke="black" fill="black" fill-opacity="0" />
<circle cx="562.8370132446289" cy="176.14723205566406" r="1" stroke="black" stroke-width="2" fill="none" />
<circle cx="636.6520919799805" cy="175.18964767456055" r="1" stroke="black" stroke-width="2" fill="none" />
<path d="M563.8007011413574,197.90090012550354 Q599.9570150189102,226.01735496520996,635.5453186035156,197.90479350090027" stroke-width="2" stroke="black" fill="black" fill-opacity="0" />
<circle cx="562.8554229736328" cy="276.15855979919434" r="1" stroke="black" stroke-width="2" fill="none" />
<circle cx="636.6338500976562" cy="275.2017650604248" r="1" stroke="black" stroke-width="2" fill="none" />
<path d="M563.8187408447266,297.8988358974457 Q599.9570317938924,325.9900703430176,635.5274772644043,297.90291833877563" stroke-width="2" stroke="black" fill="black" fill-opacity="0" />
<circle cx="562.8738403320312" cy="376.1698875427246" r="1" stroke="black" stroke-width="2" fill="none" />
<circle cx="636.6156196594238" cy="375.2138843536377" r="1" stroke="black" stroke-width="2" fill="none" />
<path d="M563.8367881774902,397.8967640399933 Q599.9570485427976,425.96280670166016,635.5096397399902,397.90103816986084" stroke-width="2" stroke="black" fill="black" fill-opacity="0" />
<circle cx="562.8922462463379" cy="476.1812152862549" r="1" stroke="black" stroke-width="2" fill="none" />
<circle cx="636.5973854064941" cy="475.22599601745605" r="1" stroke="black" stroke-width="2" fill="none" />
<path d="M563.8548316955566,497.89469265937805 Q599.9570652842522,525.9355297088623,635.4918022155762,497.89915561676025" stroke-width="2" stroke="black" fill="black" fill-opacity="0" />
<circle cx="562.9106597900391" cy="576.1925506591797" r="1" stroke="black" stroke-width="2" fill="none" />
<circle cx="636.5791435241699" cy="575.2381191253662" r="1" stroke="black" stroke-width="2" fill="none" />
<path d="M563.8728866577148,597.8926258087158 Q599.9570820182562,625.9082584381104,635.4739532470703,597.8972792625427" stroke-width="2" stroke="black" fill="black" fill-opacity="0" />
<circle cx="562.9290771484375" cy="676.20387840271" r="1" stroke="black" stroke-width="2" fill="none" />
<circle cx="636.560905456543" cy="675.2502384185791" r="1" stroke="black" stroke-width="2" fill="none" />
<path d="M563.8909301757812,697.8905599117279 Q599.9570985883474,725.880989074707,635.4561157226562,697.8953976631165" stroke-width="2" stroke="black" fill="black" fill-opacity="0" />
<circle cx="562.9474868774414" cy="776.2152118682861" r="1" stroke="black" stroke-width="2" fill="none" />
<circle cx="636.5426750183105" cy="775.2623596191406" r="1" stroke="black" stroke-width="2" fill="none" />
<path d="M563.9089736938477,797.8884899616241 Q599.9571151956916,825.8537120819092,635.4382743835449,797.8935196399689" stroke-width="2" stroke="black" fill="black" fill-opacity="0" />
<circle cx="562.9659004211426" cy="876.2265377044678" r="1" stroke="black" stroke-width="2" fill="none" />
<circle cx="636.5244369506836" cy="875.2744750976562" r="1" stroke="black" stroke-width="2" fill="none" />
<path d="M563.9270248413086,897.886415719986 Q599.9571321606636,925.82643699646,635.4204292297363,897.8916339874268" stroke-width="2" stroke="black" fill="black" fill-opacity="0" />
<circle cx="668.4242401123047" cy="-37.864994049072266" r="1" stroke="black" stroke-width="2" fill="none" />
<circle cx="731.2205181121826" cy="-38.47635269165039" r="1" stroke="black" stroke-width="2" fill="none" />
<path d="M667.6092338562012,-4.9600419998168945 Q700.0018857195973,30.775686264038086,731.8166828155518,-4.99294900894165" stroke-width="2" stroke="black" fill="black" fill-opacity="0" />
<circle cx="668.4744720458984" cy="62.110816955566406" r="1" stroke="black" stroke-width="2" fill="none" />
<circle cx="731.1717281341553" cy="61.50216293334961" r="1" stroke="black" stroke-width="2" fill="none" />
<path d="M667.6508712768555,95.02407169342041 Q700.0021117739379,130.7677879333496,731.7769317626953,94.9916319847107" stroke-width="2" stroke="black" fill="black" fill-opacity="0" />
<circle cx="668.5247001647949" cy="162.08662033081055" r="1" stroke="black" stroke-width="2" fill="none" />
<circle cx="731.1229400634766" cy="161.48067092895508" r="1" stroke="black" stroke-width="2" fill="none" />
<path d="M667.6925048828125,195.00818634033203 Q700.002337384969,230.7598705291748,731.7371768951416,194.97620487213135" stroke-width="2" stroke="black" fill="black" fill-opacity="0" />
<circle cx="668.57493019104" cy="262.06242752075195" r="1" stroke="black" stroke-width="2" fill="none" />
<circle cx="731.0741519927979" cy="261.4591865539551" r="1" stroke="black" stroke-width="2" fill="none" />
<path d="M667.7341423034668,294.99230670928955 Q700.002562822774,330.75197410583496,731.6974296569824,294.9607925415039" stroke-width="2" stroke="black" fill="black" fill-opacity="0" />
<circle cx="668.6251544952393" cy="362.03823471069336" r="1" stroke="black" stroke-width="2" fill="none" />
<circle cx="731.0253658294678" cy="361.43770599365234" r="1" stroke="black" stroke-width="2" fill="none" />
<path d="M667.7757797241211,394.976420879364 Q700.0027882065624,430.7440528869629,731.657678604126,394.9453692436218" stroke-width="2" stroke="black" fill="black" fill-opacity="0" />
<circle cx="668.6753768920898" cy="462.01404190063477" r="1" stroke="black" stroke-width="2" fill="none" />
<circle cx="730.976583480835" cy="461.4162178039551" r="1" stroke="black" stroke-width="2" fill="none" />
<path d="M667.8174095153809,494.96053171157837 Q700.0030142478645,530.7361507415771,731.61794090271,494.9299454689026" stroke-width="2" stroke="black" fill="black" fill-opacity="0" />
<circle cx="668.7256050109863" cy="561.9898414611816" r="1" stroke="black" stroke-width="2" fill="none" />
<circle cx="730.9277973175049" cy="561.3947219848633" r="1" stroke="black" stroke-width="2" fill="none" />
<path d="M667.8590431213379,594.9446454048157 Q700.0032399948686,630.7282409667969,731.5781879425049,594.9145216941833" stroke-width="2" stroke="black" fill="black" fill-opacity="0" />
<circle cx="668.7763671875" cy="661.9685592651367" r="1" stroke="black" stroke-width="2" fill="none" />
<circle cx="730.8784561157227" cy="661.3761253356934" r="1" stroke="black" stroke-width="2" fill="none" />
<path d="M667.9014511108398,694.92933177948 Q700.0034588780254,730.7185001373291,731.5376567840576,694.8996815681458" stroke-width="2" stroke="black" fill="black" fill-opacity="0" />
<circle cx="668.8273696899414" cy="761.9486389160156" r="1" stroke="black" stroke-width="2" fill="none" />
<circle cx="730.8288650512695" cy="761.3588752746582" r="1" stroke="black" stroke-width="2" fill="none" />
<path d="M667.944206237793,794.91428565979 Q700.0036750659347,830.7079048156738,731.4967670440674,794.8851275444031" stroke-width="2" stroke="black" fill="black" fill-opacity="0" />
<circle cx="668.8783912658691" cy="861.9287338256836" r="1" stroke="black" stroke-width="2" fill="none" />
<circle cx="730.7792587280273" cy="861.3416404724121" r="1" stroke="black" stroke-width="2" fill="none" />
<path d="M667.9869689941406,894.8992428779602 Q700.0038913749158,930.6972999572754,731.4558601379395,894.8705720901489" stroke-width="2" stroke="black" fill="black" fill-opacity="0" />
<circle cx="781.1740646362305" cy="-41.59203338623047" r="1" stroke="black" stroke-width="2" fill="none" />
<circle cx="818.8854942321777" cy="-41.54099655151367" r="1" stroke="black" stroke-width="2" fill="none" />
<path d="M778.2329597473145,-9.236069679260254 Q800.0573033392429,29.826444625854492,821.7787666320801,-9.138341903686523" stroke-width="2" stroke="black" fill="black" fill-opacity="0" />
<circle cx="781.1948070526123" cy="58.44701385498047" r="1" stroke="black" stroke-width="2" fill="none" />
<circle cx="818.8669452667236" cy="58.5006217956543" r="1" stroke="black" stroke-width="2" fill="none" />
<path d="M778.2521476745605,90.69051551818848 Q800.0573510676622,129.7398681640625,821.7651100158691,90.78789901733398" stroke-width="2" stroke="black" fill="black" fill-opacity="0" />
<circle cx="781.2160091400146" cy="158.4869728088379" r="1" stroke="black" stroke-width="2" fill="none" />
<circle cx="818.8479251861572" cy="158.54314422607422" r="1" stroke="black" stroke-width="2" fill="none" />
<path d="M778.2718505859375,190.6176176071167 Q800.0573974177241,229.65292739868164,821.7509155273438,190.7146759033203" stroke-width="2" stroke="black" fill="black" fill-opacity="0" />
<circle cx="781.238109588623" cy="258.5287170410156" r="1" stroke="black" stroke-width="2" fill="none" />
<circle cx="818.8279933929443" cy="258.5874443054199" r="1" stroke="black" stroke-width="2" fill="none" />
<path d="M778.292552947998,290.54568099975586 Q800.0574406012893,329.5652275085449,821.735689163208,290.6424379348755" stroke-width="2" stroke="black" fill="black" fill-opacity="0" />
<circle cx="781.2602081298828" cy="358.5704460144043" r="1" stroke="black" stroke-width="2" fill="none" />
<circle cx="818.8080615997314" cy="358.6317329406738" r="1" stroke="black" stroke-width="2" fill="none" />
<path d="M778.3132495880127,390.47375106811523 Q800.0574838593602,429.47753524780273,821.7204627990723,390.57019805908203" stroke-width="2" stroke="black" fill="black" fill-opacity="0" />
<circle cx="781.2823066711426" cy="458.61217880249023" r="1" stroke="black" stroke-width="2" fill="none" />
<circle cx="818.7881298065186" cy="458.67602157592773" r="1" stroke="black" stroke-width="2" fill="none" />
<path d="M778.3339538574219,490.4018135070801 Q800.0575271993876,529.3898487091064,821.7052364349365,490.49796199798584" stroke-width="2" stroke="black" fill="black" fill-opacity="0" />
<circle cx="781.3044090270996" cy="558.6539077758789" r="1" stroke="black" stroke-width="2" fill="none" />
<circle cx="818.7682018280029" cy="558.7203102111816" r="1" stroke="black" stroke-width="2" fill="none" />
<path d="M778.3546504974365,590.3298892974854 Q800.0575704872608,629.3021621704102,821.6900119781494,590.425726890564" stroke-width="2" stroke="black" fill="black" fill-opacity="0" />
<circle cx="781.3265056610107" cy="658.6956443786621" r="1" stroke="black" stroke-width="2" fill="none" />
<circle cx="818.7482681274414" cy="658.7646026611328" r="1" stroke="black" stroke-width="2" fill="none" />
<path d="M778.3753509521484,690.2579584121704 Q800.0576136857271,729.2144718170166,821.674783706665,690.353494644165" stroke-width="2" stroke="black" fill="black" fill-opacity="0" />
<circle cx="781.3486061096191" cy="758.7373733520508" r="1" stroke="black" stroke-width="2" fill="none" />
<circle cx="818.7283401489258" cy="758.8088912963867" r="1" stroke="black" stroke-width="2" fill="none" />
<path d="M778.3960456848145,790.1860332489014 Q800.057656981051,829.1267776489258,821.6595573425293,790.2812623977661" stroke-width="2" stroke="black" fill="black" fill-opacity="0" />
<circle cx="781.3707027435303" cy="858.7791061401367" r="1" stroke="black" stroke-width="2" fill="none" />
<circle cx="818.7084064483643" cy="858.8531837463379" r="1" stroke="black" stroke-width="2" fill="none" />
<path d="M778.4167499542236,890.1140947341919 Q800.0577000454068,929.0390872955322,821.6443271636963,890.2090215682983" stroke-width="2" stroke="black" fill="black" fill-opacity="0" />
<circle cx="880.4689712524414" cy="-38.245208740234375" r="1" stroke="black" stroke-width="2" fill="none" />
<circle cx="919.8824329376221" cy="-37.800113677978516" r="1" stroke="black" stroke-width="2" fill="none" />
<path d="M877.5657806396484,-21.970996856689453 Q900.0620433017612,15.777225494384766,923.2854061126709,-22.00227928161621" stroke-width="2" stroke="black" fill="black" fill-opacity="0" />
<circle cx="880.454137802124" cy="61.76217269897461" r="1" stroke="black" stroke-width="2" fill="none" />
<circle cx="919.8977584838867" cy="62.20852279663086" r="1" stroke="black" stroke-width="2" fill="none" />
<path d="M877.5532894134521,77.9851245880127 Q900.0620250925422,115.71265411376953,923.3000507354736,77.95316886901855" stroke-width="2" stroke="black" fill="black" fill-opacity="0" />
<circle cx="880.439302444458" cy="161.7695541381836" r="1" stroke="black" stroke-width="2" fill="none" />
<circle cx="919.9130859375" cy="162.21715545654297" r="1" stroke="black" stroke-width="2" fill="none" />
<path d="M877.5407962799072,177.94125175476074 Q900.0620068311691,215.64807987213135,923.314697265625,177.9086151123047" stroke-width="2" stroke="black" fill="black" fill-opacity="0" />
<circle cx="880.4244709014893" cy="261.7769317626953" r="1" stroke="black" stroke-width="2" fill="none" />
<circle cx="919.9284076690674" cy="262.2257843017578" r="1" stroke="black" stroke-width="2" fill="none" />
<path d="M877.5283031463623,277.8973731994629 Q900.0619886368513,315.5835132598877,923.3293437957764,277.8640651702881" stroke-width="2" stroke="black" fill="black" fill-opacity="0" />
<circle cx="880.4096412658691" cy="361.78430557250977" r="1" stroke="black" stroke-width="2" fill="none" />
<circle cx="919.9437351226807" cy="362.2344207763672" r="1" stroke="black" stroke-width="2" fill="none" />
<path d="M877.515811920166,377.85350608825684 Q900.061970345676,415.5189428329468,923.3439884185791,377.8195171356201" stroke-width="2" stroke="black" fill="black" fill-opacity="0" />
<circle cx="880.3948059082031" cy="461.7916831970215" r="1" stroke="black" stroke-width="2" fill="none" />
<circle cx="919.959062576294" cy="462.24304962158203" r="1" stroke="black" stroke-width="2" fill="none" />
<path d="M877.5033149719238,477.8096237182617 Q900.0619522035122,515.4543676376343,923.3586368560791,477.774959564209" stroke-width="2" stroke="black" fill="black" fill-opacity="0" />
<circle cx="880.3729248046875" cy="561.794807434082" r="1" stroke="black" stroke-width="2" fill="none" />
<circle cx="919.981840133667" cy="562.2478179931641" r="1" stroke="black" stroke-width="2" fill="none" />
<path d="M877.4829292297363,577.7709484100342 Q900.0620602071285,615.3849830627441,923.3803939819336,577.7358264923096" stroke-width="2" stroke="black" fill="black" fill-opacity="0" />
<circle cx="880.3493690490723" cy="661.7969131469727" r="1" stroke="black" stroke-width="2" fill="none" />
<circle cx="920.0063896179199" cy="662.2516593933105" r="1" stroke="black" stroke-width="2" fill="none" />
<path d="M877.4606647491455,677.7335166931152 Q900.0621984228492,715.3144598007202,923.4038314819336,677.6979846954346" stroke-width="2" stroke="black" fill="black" fill-opacity="0" />
<circle cx="880.3257999420166" cy="761.7990188598633" r="1" stroke="black" stroke-width="2" fill="none" />
<circle cx="920.030948638916" cy="762.2555046081543" r="1" stroke="black" stroke-width="2" fill="none" />
<path d="M877.4383926391602,777.6960716247559 Q900.0623366758227,815.2439126968384,923.4272861480713,777.6601333618164" stroke-width="2" stroke="black" fill="black" fill-opacity="0" />
<circle cx="880.3022384643555" cy="861.8011283874512" r="1" stroke="black" stroke-width="2" fill="none" />
<circle cx="920.0555000305176" cy="862.2593460083008" r="1" stroke="black" stroke-width="2" fill="none" />
<path d="M877.4161205291748,877.6586360931396 Q900.0624747052789,915.1733694076538,923.4507293701172,877.62229347229" stroke-width="2" stroke="black" fill="black" fill-opacity="0" />
<path d="M-50,50 L950,50" stroke="black" />
<path d="M50,-50 L50,950" stroke="black" />
<path d="M-50,150 L950,150" stroke="black" />
<path d="M150,-50 L150,950" stroke="black" />
<path d="M-50,250 L950,250" stroke="black" />
<path d="M250,-50 L250,950" stroke="black" />
<path d="M-50,350 L950,350" stroke="black" />
<path d="M350,-50 L350,950" stroke="black" />
<path d="M-50,450 L950,450" stroke="black" />
<path d="M450,-50 L450,950" stroke="black" />
<path d="M-50,550 L950,550" stroke="black" />
<path d="M550,-50 L550,950" stroke="black" />
<path d="M-50,650 L950,650" stroke="black" />
<path d="M650,-50 L650,950" stroke="black" />
<path d="M-50,750 L950,750" stroke="black" />
<path d="M750,-50 L750,950" stroke="black" />
<path d="M-50,850 L950,850" stroke="black" />
<path d="M850,-50 L850,950" stroke="black" />
</svg>