<?xml version="1.0" encoding="UTF-8"?>
<svg xmlns="http://www.w3.org/2000/svg" xmlns:xlink="http://www.w3.org/1999/xlink"
     width="1000" height="1000" viewBox="-50 -50 1000 1000" diplayInline="False">
<defs>
</defs>
<circle cx="-30.303895950317383" cy="-14.374551773071289" r="1" stroke="black" stroke-width="2" fill="none" />
<circle cx="30.331676483154297" cy="-14.257478713989258" r="1" stroke="black" stroke-width="2" fill="none" />
<path d="M-30.394790649414062,2.1310572624206543 Q0.010142022743821144,-5.706233978271484,30.43368148803711,2.008315086364746" stroke-width="2" stroke="black" fill="black" fill-opacity="0" />
<circle cx="-8.907668113708496" cy="85.45514106750488" r="1" stroke="black" stroke-width="2" fill="none" />
<circle cx="8.70224380493164" cy="85.30185985565186" r="1" stroke="black" stroke-width="2" fill="none" />
<path d="M-13.982621192932129,121.7140007019043 Q-0.05306059867143631,101.13480579853058,14.287751197814941,121.73694229125977" stroke-width="2" stroke="black" fill="black" fill-opacity="0" />
<circle cx="-32.08205795288086" cy="182.2678680419922" r="1" stroke="black" stroke-width="2" fill="none" />
<circle cx="31.732200622558594" cy="181.48075485229492" r="1" stroke="black" stroke-width="2" fill="none" />
<path d="M-31.448347091674805,199.18399167060852 Q-0.03691130876541138,225.40049171447754,31.00860595703125,199.22568863630295" stroke-width="2" stroke="black" fill="black" fill-opacity="0" />
<circle cx="-38.03722381591797" cy="265.96055603027344" r="1" stroke="black" stroke-width="2" fill="none" />
<circle cx="37.52799606323242" cy="265.0824165344238" r="1" stroke="black" stroke-width="2" fill="none" />
<path d="M-37.7333869934082,296.10972237586975 Q-0.024119386449456215,329.0821056365967,36.991214752197266,296.0319972038269" stroke-width="2" stroke="black" fill="black" fill-opacity="0" />
<circle cx="-30.25712013244629" cy="359.2803726196289" r="1" stroke="black" stroke-width="2" fill="none" />
<circle cx="30.287506103515625" cy="359.16602325439453" r="1" stroke="black" stroke-width="2" fill="none" />
<path d="M-31.577810287475586,366.92902755737305 Q0.07048448920249939,362.1992988586426,31.4300537109375,366.9850540161133" stroke-width="2" stroke="black" fill="black" fill-opacity="0" />
<circle cx="-26.92878532409668" cy="477.3907699584961" r="1" stroke="black" stroke-width="2" fill="none" />
<circle cx="27.01375961303711" cy="477.351167678833" r="1" stroke="black" stroke-width="2" fill="none" />
<path d="M-27.66663932800293,528.9695053100586 Q-0.04078105837106705,501.0012695789337,27.771469116210938,528.98583984375" stroke-width="2" stroke="black" fill="black" fill-opacity="0" />
<circle cx="-20.50932502746582" cy="575.4567680358887" r="1" stroke="black" stroke-width="2" fill="none" />
<circle cx="20.354938507080078" cy="575.0156402587891" r="1" stroke="black" stroke-width="2" fill="none" />
<path d="M-25.078649520874023,638.6740570068359 Q-0.058852411806583405,610.2930011749268,24.87632942199707,638.4987449645996" stroke-width="2" stroke="black" fill="black" fill-opacity="0" />
<circle cx="-50.69243621826172" cy="660.4787902832031" r="1" stroke="black" stroke-width="2" fill="none" />
<circle cx="50.9820442199707" cy="660.208927154541" r="1" stroke="black" stroke-width="2" fill="none" />
<path d="M-48.51158142089844,745.9121742248535 Q-0.02304055728018284,687.5524702072144,48.25962829589844,745.9579544067383" stroke-width="2" stroke="black" fill="black" fill-opacity="0" />
<circle cx="-23.437768936157227" cy="787.6779670715332" r="1" stroke="black" stroke-width="2" fill="none" />
<circle cx="23.466991424560547" cy="787.820797920227" r="1" stroke="black" stroke-width="2" fill="none" />
<path d="M-24.530895233154297,804.7158999443054 Q-0.00035608746111392975,796.1325588226318,24.677350997924805,804.6428728103638" stroke-width="2" stroke="black" fill="black" fill-opacity="0" />
<circle cx="-43.35102462768555" cy="870.3079471588135" r="1" stroke="black" stroke-width="2" fill="none" />
<circle cx="43.85853576660156" cy="871.1599464416504" r="1" stroke="black" stroke-width="2" fill="none" />
<path d="M-41.78256607055664,931.9295883178711 Q-0.03059329092502594,932.7093124389648,42.3786506652832,932.0370178222656" stroke-width="2" stroke="black" fill="black" fill-opacity="0" />
<circle cx="79.9587516784668" cy="-34.27998733520508" r="1" stroke="black" stroke-width="2" fill="none" />
<circle cx="119.96902656555176" cy="-34.31621551513672" r="1" stroke="black" stroke-width="2" fill="none" />
<path d="M78.02689361572266,-17.512100219726562 Q100.04561541974545,-26.91476058959961,121.88630676269531,-17.388694763183594" stroke-width="2" stroke="black" fill="black" fill-opacity="0" />
<circle cx="91.13689517974854" cy="82.73171806335449" r="1" stroke="black" stroke-width="2" fill="none" />
<circle cx="108.58265972137451" cy="82.37296485900879" r="1" stroke="black" stroke-width="2" fill="none" />
<path d="M85.21322917938232,128.5347385406494 Q99.93399587273598,105.59851837158203,114.9260663986206,128.47609901428223" stroke-width="2" stroke="black" fill="black" fill-opacity="0" />
<circle cx="70.59281349182129" cy="157.54614639282227" r="1" stroke="black" stroke-width="2" fill="none" />
<circle cx="129.7561740875244" cy="157.7762908935547" r="1" stroke="black" stroke-width="2" fill="none" />
<path d="M68.70558547973633,166.51678085327148 Q100.09574356675148,188.65962028503418,131.60170936584473,166.54116821289062" stroke-width="2" stroke="black" fill="black" fill-opacity="0" />
<circle cx="62.54833984375" cy="275.82894706726074" r="1" stroke="black" stroke-width="2" fill="none" />
<circle cx="136.93669891357422" cy="274.8638744354248" r="1" stroke="black" stroke-width="2" fill="none" />
<path d="M63.51705551147461,297.8697955608368 Q99.95699986442924,326.2345962524414,135.8218116760254,297.86896276474" stroke-width="2" stroke="black" fill="black" fill-opacity="0" />
<circle cx="58.856468200683594" cy="367.6235542297363" r="1" stroke="black" stroke-width="2" fill="none" />
<circle cx="141.34278106689453" cy="367.42122650146484" r="1" stroke="black" stroke-width="2" fill="none" />
<path d="M60.157630920410156,438.0822219848633 Q99.97095394134521,391.59256744384766,139.68755340576172,438.1414794921875" stroke-width="2" stroke="black" fill="black" fill-opacity="0" />
<circle cx="75.94757652282715" cy="487.5291223526001" r="1" stroke="black" stroke-width="2" fill="none" />
<circle cx="124.09686279296875" cy="487.6913957595825" r="1" stroke="black" stroke-width="2" fill="none" />
<path d="M74.92434501647949,504.53492403030396 Q100.00252251140773,495.56567668914795,125.22689247131348,504.4532961845398" stroke-width="2" stroke="black" fill="black" fill-opacity="0" />
<circle cx="75.2809009552002" cy="559.6514320373535" r="1" stroke="black" stroke-width="2" fill="none" />
<circle cx="125.10733413696289" cy="560.0446548461914" r="1" stroke="black" stroke-width="2" fill="none" />
<path d="M72.82482719421387,571.9385604858398 Q100.08209095150232,602.435135602951,127.82149505615234,571.9207077026367" stroke-width="2" stroke="black" fill="black" fill-opacity="0" />
<circle cx="88.99851417541504" cy="688.4065170288086" r="1" stroke="black" stroke-width="2" fill="none" />
<circle cx="110.89146614074707" cy="688.4141664505005" r="1" stroke="black" stroke-width="2" fill="none" />
<path d="M85.55850505828857,713.3057527542114 Q99.96823244541883,699.2171738147736,114.70065498352051,713.3780298233032" stroke-width="2" stroke="black" fill="black" fill-opacity="0" />
<circle cx="51.629337310791016" cy="767.2417373657227" r="1" stroke="black" stroke-width="2" fill="none" />
<circle cx="149.0223731994629" cy="768.2524967193604" r="1" stroke="black" stroke-width="2" fill="none" />
<path d="M53.7130241394043,835.2370681762695 Q99.97915151715279,830.8890533447266,147.04184341430664,835.3277893066406" stroke-width="2" stroke="black" fill="black" fill-opacity="0" />
<circle cx="57.55284118652344" cy="870.8518810272217" r="1" stroke="black" stroke-width="2" fill="none" />
<circle cx="142.92989349365234" cy="871.6756858825684" r="1" stroke="black" stroke-width="2" fill="none" />
<path d="M59.02703094482422,931.3581581115723 Q99.96783789247274,932.9073371887207,141.5418701171875,931.4684219360352" stroke-width="2" stroke="black" fill="black" fill-opacity="0" />
<circle cx="145.877685546875" cy="-42.001712799072266" r="1" stroke="black" stroke-width="2" fill="none" />
<circle cx="254.4486961364746" cy="-42.27933883666992" r="1" stroke="black" stroke-width="2" fill="none" />
<path d="M148.38457870483398,48.57604217529297 Q199.97886041365564,-13.492814064025879,251.3463592529297,48.616825103759766" stroke-width="2" stroke="black" fill="black" fill-opacity="0" />
<circle cx="165.0239486694336" cy="79.34047317504883" r="1" stroke="black" stroke-width="2" fill="none" />
<circle cx="234.50315856933594" cy="78.4125804901123" r="1" stroke="black" stroke-width="2" fill="none" />
<path d="M165.95348739624023,98.48981237411499 Q199.95575308054686,125.54075241088867,233.468505859375,98.5392998456955" stroke-width="2" stroke="black" fill="black" fill-opacity="0" />
<circle cx="180.7923927307129" cy="188.1669216156006" r="1" stroke="black" stroke-width="2" fill="none" />
<circle cx="219.21004104614258" cy="188.30690670013428" r="1" stroke="black" stroke-width="2" fill="none" />
<path d="M178.9839859008789,207.0111494064331 Q199.99211087729782,196.22866678237915,221.23476219177246,206.99534368515015" stroke-width="2" stroke="black" fill="black" fill-opacity="0" />
<circle cx="172.77841186523438" cy="277.38424491882324" r="1" stroke="black" stroke-width="2" fill="none" />
<circle cx="227.313383102417" cy="277.355411529541" r="1" stroke="black" stroke-width="2" fill="none" />
<path d="M172.18152809143066,328.6869869232178 Q199.95974132046103,300.87287962436676,227.92645263671875,328.71324729919434" stroke-width="2" stroke="black" fill="black" fill-opacity="0" />
<circle cx="173.62872886657715" cy="377.4008140563965" r="1" stroke="black" stroke-width="2" fill="none" />
<circle cx="226.45316696166992" cy="377.3689441680908" r="1" stroke="black" stroke-width="2" fill="none" />
<path d="M172.5564250946045,429.62427139282227 Q199.95822586491704,402.0883810520172,227.57244873046875,429.6160316467285" stroke-width="2" stroke="black" fill="black" fill-opacity="0" />
<circle cx="179.34014129638672" cy="461.6775016784668" r="1" stroke="black" stroke-width="2" fill="none" />
<circle cx="221.04753875732422" cy="462.17589950561523" r="1" stroke="black" stroke-width="2" fill="none" />
<path d="M176.50490188598633,476.3202381134033 Q200.06741382926702,512.7177572250366,224.38319206237793,476.273832321167" stroke-width="2" stroke="black" fill="black" fill-opacity="0" />
<circle cx="156.62046813964844" cy="570.2874698638916" r="1" stroke="black" stroke-width="2" fill="none" />
<circle cx="243.88832092285156" cy="571.1405410766602" r="1" stroke="black" stroke-width="2" fill="none" />
<path d="M158.19129180908203,631.9573059082031 Q199.96953395940363,632.6517295837402,242.40620803833008,632.0645904541016" stroke-width="2" stroke="black" fill="black" fill-opacity="0" />
<circle cx="169.62926864624023" cy="685.5588092803955" r="1" stroke="black" stroke-width="2" fill="none" />
<circle cx="230.39357376098633" cy="685.6703071594238" r="1" stroke="black" stroke-width="2" fill="none" />
<path d="M169.5473804473877,702.1220445632935 Q200.00973701104522,694.2948570251465,230.48862266540527,702.0011694431305" stroke-width="2" stroke="black" fill="black" fill-opacity="0" />
<circle cx="190.36779308319092" cy="780.7229976654053" r="1" stroke="black" stroke-width="2" fill="none" />
<circle cx="209.31447982788086" cy="780.2163829803467" r="1" stroke="black" stroke-width="2" fill="none" />
<path d="M184.02186965942383,832.9589080810547 Q199.92920573055744,809.4493885040283,215.94546031951904,832.8315315246582" stroke-width="2" stroke="black" fill="black" fill-opacity="0" />
<circle cx="162.57328414916992" cy="870.4491233825684" r="1" stroke="black" stroke-width="2" fill="none" />
<circle cx="237.59394073486328" cy="870.2849292755127" r="1" stroke="black" stroke-width="2" fill="none" />
<path d="M163.53292846679688,934.9603042602539 Q199.9683852531016,893.4515037536621,236.3640899658203,935.0248565673828" stroke-width="2" stroke="black" fill="black" fill-opacity="0" />
<circle cx="268.81928062438965" cy="-37.68574523925781" r="1" stroke="black" stroke-width="2" fill="none" />
<circle cx="330.96720695495605" cy="-37.731937408447266" r="1" stroke="black" stroke-width="2" fill="none" />
<path d="M266.90331268310547,5.484131336212158 Q300.0415788143873,-18.530059814453125,332.7799835205078,5.476755619049072" stroke-width="2" stroke="black" fill="black" fill-opacity="0" />
<circle cx="283.42274475097656" cy="72.50484466552734" r="1" stroke="black" stroke-width="2" fill="none" />
<circle cx="316.42826080322266" cy="72.16148948669434" r="1" stroke="black" stroke-width="2" fill="none" />
<path d="M275.6590404510498,143.81129837036133 Q299.95094721764326,147.0477638244629,323.9417610168457,143.66535186767578" stroke-width="2" stroke="black" fill="black" fill-opacity="0" />
<circle cx="264.3742980957031" cy="164.55976486206055" r="1" stroke="black" stroke-width="2" fill="none" />
<circle cx="335.4009132385254" cy="164.46220779418945" r="1" stroke="black" stroke-width="2" fill="none" />
<path d="M263.06674575805664,205.6245436668396 Q300.0338332504034,182.06726837158203,336.6390571594238,205.57437896728516" stroke-width="2" stroke="black" fill="black" fill-opacity="0" />
<circle cx="267.8240280151367" cy="274.528865814209" r="1" stroke="black" stroke-width="2" fill="none" />
<circle cx="332.30909729003906" cy="274.45098876953125" r="1" stroke="black" stroke-width="2" fill="none" />
<path d="M268.29158782958984,330.42549896240234 Q299.964847907424,296.8350501060486,331.711238861084,330.4974822998047" stroke-width="2" stroke="black" fill="black" fill-opacity="0" />
<circle cx="277.0496826171875" cy="374.40853118896484" r="1" stroke="black" stroke-width="2" fill="none" />
<circle cx="322.88531494140625" cy="374.34532356262207" r="1" stroke="black" stroke-width="2" fill="none" />
<path d="M272.59351348876953,436.09054946899414 Q299.94198779016733,443.3783721923828,327.2283458709717,436.04316329956055" stroke-width="2" stroke="black" fill="black" fill-opacity="0" />
<circle cx="287.7460479736328" cy="476.9719181060791" r="1" stroke="black" stroke-width="2" fill="none" />
<circle cx="311.87564849853516" cy="476.2217102050781" r="1" stroke="black" stroke-width="2" fill="none" />
<path d="M280.7076015472412,540.4459648132324 Q299.9246866479516,512.784276008606,318.9459533691406,540.2158317565918" stroke-width="2" stroke="black" fill="black" fill-opacity="0" />
<circle cx="268.227746963501" cy="558.0077705383301" r="1" stroke="black" stroke-width="2" fill="none" />
<circle cx="331.8160877227783" cy="557.8908233642578" r="1" stroke="black" stroke-width="2" fill="none" />
<path d="M267.0321502685547,564.7531814575195 Q300.074437238276,561.097110748291,332.8102912902832,564.8009185791016" stroke-width="2" stroke="black" fill="black" fill-opacity="0" />
<circle cx="279.2944278717041" cy="675.5492763519287" r="1" stroke="black" stroke-width="2" fill="none" />
<circle cx="320.5612964630127" cy="675.1265277862549" r="1" stroke="black" stroke-width="2" fill="none" />
<path d="M274.84761238098145,738.3320159912109 Q299.94185158610344,709.9977111816406,324.9665641784668,738.161735534668" stroke-width="2" stroke="black" fill="black" fill-opacity="0" />
<circle cx="289.5272283554077" cy="777.984489440918" r="1" stroke="black" stroke-width="2" fill="none" />
<circle cx="310.39774894714355" cy="777.6750011444092" r="1" stroke="black" stroke-width="2" fill="none" />
<path d="M281.8221015930176,833.8738555908203 Q299.9647957496345,840.7340660095215,318.11525535583496,833.8702011108398" stroke-width="2" stroke="black" fill="black" fill-opacity="0" />
<circle cx="260.7342758178711" cy="872.8155403137207" r="1" stroke="black" stroke-width="2" fill="none" />
<circle cx="339.65013122558594" cy="873.5322856903076" r="1" stroke="black" stroke-width="2" fill="none" />
<path d="M261.880615234375,929.2102432250977 Q299.9606928899884,934.4418907165527,338.580078125,929.3293609619141" stroke-width="2" stroke="black" fill="black" fill-opacity="0" />
<circle cx="378.0844020843506" cy="-41.22333526611328" r="1" stroke="black" stroke-width="2" fill="none" />
<circle cx="421.85059928894043" cy="-41.348968505859375" r="1" stroke="black" stroke-width="2" fill="none" />
<path d="M375.6350383758545,-7.524440288543701 Q400.04354870319366,30.726255416870117,424.1864376068115,-7.452569961547852" stroke-width="2" stroke="black" fill="black" fill-opacity="0" />
<circle cx="367.2523727416992" cy="62.5312385559082" r="1" stroke="black" stroke-width="2" fill="none" />
<circle cx="432.35523223876953" cy="61.86217498779297" r="1" stroke="black" stroke-width="2" fill="none" />
<path d="M366.6433982849121,95.33434724807739 Q399.99671892262995,130.6185302734375,432.73094177246094,95.28785228729248" stroke-width="2" stroke="black" fill="black" fill-opacity="0" />
<circle cx="380.9757652282715" cy="160.22978591918945" r="1" stroke="black" stroke-width="2" fill="none" />
<circle cx="418.8400993347168" cy="160.32910537719727" r="1" stroke="black" stroke-width="2" fill="none" />
<path d="M377.82264137268066,203.51830744743347 Q400.0519087910652,182.1162986755371,421.90118408203125,203.61404013633728" stroke-width="2" stroke="black" fill="black" fill-opacity="0" />
<circle cx="352.3543472290039" cy="267.6865043640137" r="1" stroke="black" stroke-width="2" fill="none" />
<circle cx="448.27639389038086" cy="268.67445182800293" r="1" stroke="black" stroke-width="2" fill="none" />
<path d="M354.3639144897461,334.7527198791504 Q399.9777264781296,331.1964740753174,446.36750411987305,334.84604263305664" stroke-width="2" stroke="black" fill="black" fill-opacity="0" />
<circle cx="373.6343288421631" cy="376.3139991760254" r="1" stroke="black" stroke-width="2" fill="none" />
<circle cx="426.404691696167" cy="376.51125717163086" r="1" stroke="black" stroke-width="2" fill="none" />
<path d="M371.4193000793457,429.83414459228516 Q399.94364493340254,440.3608856201172,428.60658836364746,429.8807964324951" stroke-width="2" stroke="black" fill="black" fill-opacity="0" />
<circle cx="378.136438369751" cy="464.3978843688965" r="1" stroke="black" stroke-width="2" fill="none" />
<circle cx="421.84068298339844" cy="464.3055725097656" r="1" stroke="black" stroke-width="2" fill="none" />
<path d="M376.19615173339844,478.9937992095947 Q400.0602924525738,470.73271560668945,423.62125968933105,479.13508796691895" stroke-width="2" stroke="black" fill="black" fill-opacity="0" />
<circle cx="391.17743492126465" cy="582.8932762145996" r="1" stroke="black" stroke-width="2" fill="none" />
<circle cx="408.5419216156006" cy="582.5396862030029" r="1" stroke="black" stroke-width="2" fill="none" />
<path d="M385.29540824890137,628.1865768432617 Q399.9339995086193,605.4352993965149,414.84936332702637,628.1336669921875" stroke-width="2" stroke="black" fill="black" fill-opacity="0" />
<circle cx="387.27787017822266" cy="688.1602096557617" r="1" stroke="black" stroke-width="2" fill="none" />
<circle cx="412.7025489807129" cy="687.8406391143799" r="1" stroke="black" stroke-width="2" fill="none" />
<path d="M384.1798286437988,708.0853805541992 Q399.9701404646039,729.3552951812744,416.03767585754395,708.0853204727173" stroke-width="2" stroke="black" fill="black" fill-opacity="0" />
<circle cx="381.1675224304199" cy="758.3982582092285" r="1" stroke="black" stroke-width="2" fill="none" />
<circle cx="418.8911666870117" cy="758.4495582580566" r="1" stroke="black" stroke-width="2" fill="none" />
<path d="M378.22911262512207,790.754168510437 Q400.0572430193424,829.7688541412354,421.78150367736816,790.8514919281006" stroke-width="2" stroke="black" fill="black" fill-opacity="0" />
<circle cx="391.1127939224243" cy="885.0171766281128" r="1" stroke="black" stroke-width="2" fill="none" />
<circle cx="408.6717748641968" cy="884.8373250961304" r="1" stroke="black" stroke-width="2" fill="none" />
<path d="M385.8874454498291,922.815055847168 Q399.94514309614897,901.4946812391281,414.4001064300537,922.8270854949951" stroke-width="2" stroke="black" fill="black" fill-opacity="0" />
<circle cx="462.22396087646484" cy="-29.836944580078125" r="1" stroke="black" stroke-width="2" fill="none" />
<circle cx="537.944637298584" cy="-30.009607315063477" r="1" stroke="black" stroke-width="2" fill="none" />
<path d="M463.21298599243164,35.29016876220703 Q499.9686049744487,-6.83016300201416,536.6745681762695,35.35395050048828" stroke-width="2" stroke="black" fill="black" fill-opacity="0" />
<circle cx="468.8063278198242" cy="84.6696081161499" r="1" stroke="black" stroke-width="2" fill="none" />
<circle cx="531.1613388061523" cy="84.72374153137207" r="1" stroke="black" stroke-width="2" fill="none" />
<path d="M468.80907249450684,102.11807155609131 Q500.0056658629328,93.9333758354187,531.2027320861816,102.02042388916016" stroke-width="2" stroke="black" fill="black" fill-opacity="0" />
<circle cx="464.0709648132324" cy="174.86777305603027" r="1" stroke="black" stroke-width="2" fill="none" />
<circle cx="536.2112426757812" cy="175.4724178314209" r="1" stroke="black" stroke-width="2" fill="none" />
<path d="M464.87192153930664,226.97895622253418 Q499.95335026830435,235.94235229492188,535.4763145446777,227.10715675354004" stroke-width="2" stroke="black" fill="black" fill-opacity="0" />
<circle cx="469.4117946624756" cy="262.08313369750977" r="1" stroke="black" stroke-width="2" fill="none" />
<circle cx="530.3745555877686" cy="262.040771484375" r="1" stroke="black" stroke-width="2" fill="none" />
<path d="M467.4213562011719,305.46399116516113 Q500.0422095656395,281.4134826660156,532.2589149475098,305.4620270729065" stroke-width="2" stroke="black" fill="black" fill-opacity="0" />
<circle cx="484.7811326980591" cy="388.64813899993896" r="1" stroke="black" stroke-width="2" fill="none" />
<circle cx="515.1776008605957" cy="388.7416477203369" r="1" stroke="black" stroke-width="2" fill="none" />
<path d="M482.3369083404541,409.2560806274414 Q499.98269229754806,397.4499280452728,517.8991050720215,409.29290103912354" stroke-width="2" stroke="black" fill="black" fill-opacity="0" />
<circle cx="479.4637908935547" cy="460.3134880065918" r="1" stroke="black" stroke-width="2" fill="none" />
<circle cx="520.3462772369385" cy="460.38980865478516" r="1" stroke="black" stroke-width="2" fill="none" />
<path d="M476.4455986022949,503.904666185379 Q500.05085131525993,481.79566764831543,523.2658309936523,503.9883666038513" stroke-width="2" stroke="black" fill="black" fill-opacity="0" />
<circle cx="477.3505916595459" cy="587.9479446411133" r="1" stroke="black" stroke-width="2" fill="none" />
<circle cx="522.7309417724609" cy="587.7157440185547" r="1" stroke="black" stroke-width="2" fill="none" />
<path d="M476.52794647216797,601.3960126638412 Q499.9941108888015,625.5854511260986,523.5016632080078,601.3266748189926" stroke-width="2" stroke="black" fill="black" fill-opacity="0" />
<circle cx="470.5111541748047" cy="659.8392105102539" r="1" stroke="black" stroke-width="2" fill="none" />
<circle cx="529.5131950378418" cy="659.7269744873047" r="1" stroke="black" stroke-width="2" fill="none" />
<path d="M469.1198616027832,668.0464992523193 Q500.068879596889,662.7803497314453,530.7358016967773,668.1071910858154" stroke-width="2" stroke="black" fill="black" fill-opacity="0" />
<circle cx="479.4575710296631" cy="761.7295341491699" r="1" stroke="black" stroke-width="2" fill="none" />
<circle cx="520.9295997619629" cy="762.230525970459" r="1" stroke="black" stroke-width="2" fill="none" />
<path d="M476.61229705810547,776.446741104126 Q500.06696805357933,813.0008840560913,524.2818031311035,776.3996067047119" stroke-width="2" stroke="black" fill="black" fill-opacity="0" />
<circle cx="451.47057342529297" cy="838.4607582092285" r="1" stroke="black" stroke-width="2" fill="none" />
<circle cx="548.789924621582" cy="838.2501106262207" r="1" stroke="black" stroke-width="2" fill="none" />
<path d="M450.553466796875,842.5635757446289 Q500.1457205116749,853.2518043518066,549.0794105529785,842.5070266723633" stroke-width="2" stroke="black" fill="black" fill-opacity="0" />
<circle cx="536.2043037414551" cy="-48.91381072998047" r="1" stroke="black" stroke-width="2" fill="none" />
<circle cx="664.2189178466797" cy="-49.21269226074219" r="1" stroke="black" stroke-width="2" fill="none" />
<path d="M539.627140045166,55.97041320800781 Q599.9822072088718,-16.16672706604004,660.0716514587402,55.99024200439453" stroke-width="2" stroke="black" fill="black" fill-opacity="0" />
<circle cx="564.7770042419434" cy="64.02250671386719" r="1" stroke="black" stroke-width="2" fill="none" />
<circle cx="634.7726402282715" cy="63.24949264526367" r="1" stroke="black" stroke-width="2" fill="none" />
<path d="M564.5931053161621,95.7675666809082 Q599.9867615094408,130.09399032592773,634.7187690734863,95.70454454421997" stroke-width="2" stroke="black" fill="black" fill-opacity="0" />
<circle cx="583.1499443054199" cy="164.03510284423828" r="1" stroke="black" stroke-width="2" fill="none" />
<circle cx="616.683183670044" cy="164.08554077148438" r="1" stroke="black" stroke-width="2" fill="none" />
<path d="M580.4051208496094,197.36306357383728 Q600.0426152199507,180.17070770263672,619.3909606933594,197.48468947410583" stroke-width="2" stroke="black" fill="black" fill-opacity="0" />
<circle cx="558.683277130127" cy="267.4985160827637" r="1" stroke="black" stroke-width="2" fill="none" />
<circle cx="641.5179824829102" cy="267.2959671020508" r="1" stroke="black" stroke-width="2" fill="none" />
<path d="M560.0012397766113,338.21592712402344 Q599.9710799753666,291.5401954650879,639.8430023193359,338.2750244140625" stroke-width="2" stroke="black" fill="black" fill-opacity="0" />
<circle cx="571.0299377441406" cy="360.2188262939453" r="1" stroke="black" stroke-width="2" fill="none" />
<circle cx="628.989953994751" cy="360.10731506347656" r="1" stroke="black" stroke-width="2" fill="none" />
<path d="M569.5959663391113,368.79339027404785 Q600.0677637904882,363.2121810913086,630.2612018585205,368.85787200927734" stroke-width="2" stroke="black" fill="black" fill-opacity="0" />
<circle cx="574.4127464294434" cy="475.90235328674316" r="1" stroke="black" stroke-width="2" fill="none" />
<circle cx="625.6022529602051" cy="476.0401420593262" r="1" stroke="black" stroke-width="2" fill="none" />
<path d="M571.6977920532227,531.2190494537354 Q599.9432228207588,541.0006904602051,628.2812614440918,531.2447681427002" stroke-width="2" stroke="black" fill="black" fill-opacity="0" />
<circle cx="560.015998840332" cy="568.5774326324463" r="1" stroke="black" stroke-width="2" fill="none" />
<circle cx="640.1773910522461" cy="568.4006042480469" r="1" stroke="black" stroke-width="2" fill="none" />
<path d="M561.2223625183105,636.9788627624512 Q599.9701306819916,592.4902939796448,638.651798248291,637.0402526855469" stroke-width="2" stroke="black" fill="black" fill-opacity="0" />
<circle cx="574.9983978271484" cy="687.2335271835327" r="1" stroke="black" stroke-width="2" fill="none" />
<circle cx="625.0538272857666" cy="686.9480495452881" r="1" stroke="black" stroke-width="2" fill="none" />
<path d="M574.5475845336914,700.5960052013397 Q599.9943928103894,725.2940196990967,625.3989143371582,700.5174860954285" stroke-width="2" stroke="black" fill="black" fill-opacity="0" />
<circle cx="587.6881809234619" cy="776.9416332244873" r="1" stroke="black" stroke-width="2" fill="none" />
<circle cx="611.9188547134399" cy="776.1649990081787" r="1" stroke="black" stroke-width="2" fill="none" />
<path d="M580.6653823852539,840.5455665588379 Q599.9224264994264,813.4101972579956,618.9637241363525,840.313102722168" stroke-width="2" stroke="black" fill="black" fill-opacity="0" />
<circle cx="563.2858390808105" cy="868.4600086212158" r="1" stroke="black" stroke-width="2" fill="none" />
<circle cx="636.4672966003418" cy="868.3200912475586" r="1" stroke="black" stroke-width="2" fill="none" />
<path d="M562.5234184265137,904.4463324546814 Q600.0196754764766,885.8020038604736,637.2294540405273,904.3789868354797" stroke-width="2" stroke="black" fill="black" fill-opacity="0" />
<circle cx="660.5578269958496" cy="-27.30670166015625" r="1" stroke="black" stroke-width="2" fill="none" />
<circle cx="739.8342628479004" cy="-26.58296775817871" r="1" stroke="black" stroke-width="2" fill="none" />
<path d="M661.7202377319336,29.36786651611328 Q699.9614324085414,34.14555740356445,738.748966217041,29.48639678955078" stroke-width="2" stroke="black" fill="black" fill-opacity="0" />
<circle cx="665.5445365905762" cy="78.05414962768555" r="1" stroke="black" stroke-width="2" fill="none" />
<circle cx="734.2289543151855" cy="77.9044418334961" r="1" stroke="black" stroke-width="2" fill="none" />
<path d="M665.5176734924316,103.03647994995117 Q700.0008622668684,89.93067836761475,734.3432579040527,103.01970839500427" stroke-width="2" stroke="black" fill="black" fill-opacity="0" />
<circle cx="669.4984245300293" cy="183.37151718139648" r="1" stroke="black" stroke-width="2" fill="none" />
<circle cx="730.2309856414795" cy="182.68974113464355" r="1" stroke="black" stroke-width="2" fill="none" />
<path d="M669.9206447601318,199.43493169546127 Q699.9692554026842,225.06412506103516,729.7164707183838,199.45602893829346" stroke-width="2" stroke="black" fill="black" fill-opacity="0" />
<circle cx="674.7361812591553" cy="277.4081153869629" r="1" stroke="black" stroke-width="2" fill="none" />
<circle cx="725.3376636505127" cy="277.38514137268066" r="1" stroke="black" stroke-width="2" fill="none" />
<path d="M673.0083484649658,330.9293403625488 Q699.9563267379999,304.06003522872925,727.161054611206,330.87327766418457" stroke-width="2" stroke="black" fill="black" fill-opacity="0" />
<circle cx="677.2659893035889" cy="376.49939727783203" r="1" stroke="black" stroke-width="2" fill="none" />
<circle cx="722.6934852600098" cy="376.26356315612793" r="1" stroke="black" stroke-width="2" fill="none" />
<path d="M674.0824565887451,434.82486724853516 Q699.9491021931171,406.77582597732544,725.9015121459961,434.70470428466797" stroke-width="2" stroke="black" fill="black" fill-opacity="0" />
<circle cx="676.2353534698486" cy="459.4644203186035" r="1" stroke="black" stroke-width="2" fill="none" />
<circle cx="723.6449298858643" cy="459.24377059936523" r="1" stroke="black" stroke-width="2" fill="none" />
<path d="M674.096565246582,492.99327182769775 Q700.0355777144432,530.8355731964111,725.650411605835,493.04604721069336" stroke-width="2" stroke="black" fill="black" fill-opacity="0" />
<circle cx="675.5171604156494" cy="575.4012355804443" r="1" stroke="black" stroke-width="2" fill="none" />
<circle cx="724.4626178741455" cy="575.4542751312256" r="1" stroke="black" stroke-width="2" fill="none" />
<path d="M672.1327266693115,633.0336647033691 Q699.9424596503377,641.7329063415527,727.7786750793457,633.0315093994141" stroke-width="2" stroke="black" fill="black" fill-opacity="0" />
<circle cx="674.4821128845215" cy="675.9460868835449" r="1" stroke="black" stroke-width="2" fill="none" />
<circle cx="725.5296401977539" cy="676.0782108306885" r="1" stroke="black" stroke-width="2" fill="none" />
<path d="M671.7612133026123,731.1967258453369 Q699.9430263489485,740.8874740600586,728.2124900817871,731.2223491668701" stroke-width="2" stroke="black" fill="black" fill-opacity="0" />
<circle cx="679.9885292053223" cy="765.7411918640137" r="1" stroke="black" stroke-width="2" fill="none" />
<circle cx="719.9383926391602" cy="765.7059288024902" r="1" stroke="black" stroke-width="2" fill="none" />
<path d="M678.0568218231201,782.5457229614258 Q700.0453597158194,773.1239166259766,721.858097076416,782.6687774658203" stroke-width="2" stroke="black" fill="black" fill-opacity="0" />
<circle cx="674.7695846557617" cy="877.377119064331" r="1" stroke="black" stroke-width="2" fill="none" />
<circle cx="725.2963771820068" cy="877.3303546905518" r="1" stroke="black" stroke-width="2" fill="none" />
<path d="M673.0623092651367,930.9479026794434 Q699.9564497172832,903.4151694774628,727.0818328857422,930.8944358825684" stroke-width="2" stroke="black" fill="black" fill-opacity="0" />
<circle cx="764.6398773193359" cy="-24.784526824951172" r="1" stroke="black" stroke-width="2" fill="none" />
<circle cx="835.6252746582031" cy="-24.198823928833008" r="1" stroke="black" stroke-width="2" fill="none" />
<path d="M765.3815879821777,26.60490608215332 Q799.9521547779441,36.16320037841797,834.947883605957,26.734636306762695" stroke-width="2" stroke="black" fill="black" fill-opacity="0" />
<circle cx="764.7519760131836" cy="64.23038864135742" r="1" stroke="black" stroke-width="2" fill="none" />
<circle cx="835.0172538757324" cy="64.13532638549805" r="1" stroke="black" stroke-width="2" fill="none" />
<path d="M763.4114112854004,105.27925872802734 Q800.0330774411559,82.93429946899414,836.2938423156738,105.22670602798462" stroke-width="2" stroke="black" fill="black" fill-opacity="0" />
<circle cx="768.7828235626221" cy="156.36574172973633" r="1" stroke="black" stroke-width="2" fill="none" />
<circle cx="831.563627243042" cy="156.5526237487793" r="1" stroke="black" stroke-width="2" fill="none" />
<path d="M767.0347785949707,164.35247039794922 Q800.1009585559368,184.60062217712402,833.1954765319824,164.3787384033203" stroke-width="2" stroke="black" fill="black" fill-opacity="0" />
<circle cx="767.5967788696289" cy="274.30195236206055" r="1" stroke="black" stroke-width="2" fill="none" />
<circle cx="832.5325775146484" cy="274.20362663269043" r="1" stroke="black" stroke-width="2" fill="none" />
<path d="M768.093770980835,330.6857395172119 Q799.9650834426284,296.2572863101959,831.8870010375977,330.7583980560303" stroke-width="2" stroke="black" fill="black" fill-opacity="0" />
<circle cx="787.2290143966675" cy="374.2772521972656" r="1" stroke="black" stroke-width="2" fill="none" />
<circle cx="812.6690015792847" cy="373.96478843688965" r="1" stroke="black" stroke-width="2" fill="none" />
<path d="M778.8843021392822,441.6081962585449 Q799.9617060162127,445.08369064331055,820.8441581726074,441.5349540710449" stroke-width="2" stroke="black" fill="black" fill-opacity="0" />
<circle cx="767.9978485107422" cy="455.79548263549805" r="1" stroke="black" stroke-width="2" fill="none" />
<circle cx="832.3531227111816" cy="455.97180938720703" r="1" stroke="black" stroke-width="2" fill="none" />
<path d="M766.2856254577637,463.4022560119629 Q800.1032650396228,483.2285556793213,833.9308815002441,463.4253807067871" stroke-width="2" stroke="black" fill="black" fill-opacity="0" />
<circle cx="769.219217300415" cy="575.4487857818604" r="1" stroke="black" stroke-width="2" fill="none" />
<circle cx="830.8952960968018" cy="575.3647289276123" r="1" stroke="black" stroke-width="2" fill="none" />
<path d="M769.5151920318604,629.5416984558105 Q799.9637258797884,597.1413593292236,830.4901542663574,629.6122207641602" stroke-width="2" stroke="black" fill="black" fill-opacity="0" />
<circle cx="780.7799205780029" cy="661.6188011169434" r="1" stroke="black" stroke-width="2" fill="none" />
<circle cx="819.5599365234375" cy="662.042407989502" r="1" stroke="black" stroke-width="2" fill="none" />
<path d="M777.8396873474121,678.8886528015137 Q800.0623598620296,716.8701572418213,822.9657821655273,678.870475769043" stroke-width="2" stroke="black" fill="black" fill-opacity="0" />
<circle cx="766.650333404541" cy="762.7774353027344" r="1" stroke="black" stroke-width="2" fill="none" />
<circle cx="832.9399719238281" cy="762.0768966674805" r="1" stroke="black" stroke-width="2" fill="none" />
<path d="M766.1419944763184,795.511067867279 Q799.99410207849,830.6968441009521,833.2093315124512,795.4586596488953" stroke-width="2" stroke="black" fill="black" fill-opacity="0" />
<circle cx="765.5467071533203" cy="863.4709777832031" r="1" stroke="black" stroke-width="2" fill="none" />
<circle cx="834.0185050964355" cy="862.7280082702637" r="1" stroke="black" stroke-width="2" fill="none" />
<path d="M765.2309684753418,895.6567687988281 Q799.9897561706603,930.2938995361328,834.094654083252,895.5973606109619" stroke-width="2" stroke="black" fill="black" fill-opacity="0" />
<circle cx="888.5616312026978" cy="-21.977598190307617" r="1" stroke="black" stroke-width="2" fill="none" />
<circle cx="911.080244064331" cy="-22.65607452392578" r="1" stroke="black" stroke-width="2" fill="none" />
<path d="M881.7153244018555,38.404685974121094 Q899.9263149276376,12.084223747253418,918.0257034301758,38.20296859741211" stroke-width="2" stroke="black" fill="black" fill-opacity="0" />
<circle cx="870.3293323516846" cy="86.38143348693848" r="1" stroke="black" stroke-width="2" fill="none" />
<circle cx="929.7316150665283" cy="86.52614974975586" r="1" stroke="black" stroke-width="2" fill="none" />
<path d="M870.2090663909912,101.99093103408813 Q900.0119025819004,95.04965543746948,929.8332004547119,101.85127484798431" stroke-width="2" stroke="black" fill="black" fill-opacity="0" />
<circle cx="850.1494789123535" cy="161.0916748046875" r="1" stroke="black" stroke-width="2" fill="none" />
<circle cx="950.1311149597168" cy="160.82416152954102" r="1" stroke="black" stroke-width="2" fill="none" />
<path d="M852.2508659362793,245.2512969970703 Q899.9764560963959,187.8227415084839,947.5020599365234,245.29822158813477" stroke-width="2" stroke="black" fill="black" fill-opacity="0" />
<circle cx="863.0544509887695" cy="266.8244323730469" r="1" stroke="black" stroke-width="2" fill="none" />
<circle cx="936.706714630127" cy="266.69389724731445" r="1" stroke="black" stroke-width="2" fill="none" />
<path d="M862.111743927002,305.14387035369873 Q900.0255657974631,283.8178176879883,937.6190948486328,305.0778374671936" stroke-width="2" stroke="black" fill="black" fill-opacity="0" />
<circle cx="862.1507225036621" cy="373.672607421875" r="1" stroke="black" stroke-width="2" fill="none" />
<circle cx="938.1926536560059" cy="374.3428554534912" r="1" stroke="black" stroke-width="2" fill="none" />
<path d="M863.1481819152832,428.30384254455566 Q899.9579373896122,434.8555030822754,937.2674102783203,428.4267063140869" stroke-width="2" stroke="black" fill="black" fill-opacity="0" />
<circle cx="881.5030479431152" cy="466.56917572021484" r="1" stroke="black" stroke-width="2" fill="none" />
<circle cx="918.3860778808594" cy="466.57149505615234" r="1" stroke="black" stroke-width="2" fill="none" />
<path d="M879.5201187133789,485.5743408203125 Q900.0349384024739,475.393518447876,920.4562721252441,485.68271827697754" stroke-width="2" stroke="black" fill="black" fill-opacity="0" />
<circle cx="890.6736850738525" cy="582.1242332458496" r="1" stroke="black" stroke-width="2" fill="none" />
<circle cx="909.3042726516724" cy="581.9245567321777" r="1" stroke="black" stroke-width="2" fill="none" />
<path d="M884.2632398605347,624.3077659606934 Q899.9687955118716,636.6011352539062,915.9410514831543,624.3159008026123" stroke-width="2" stroke="black" fill="black" fill-opacity="0" />
<circle cx="883.0553150177002" cy="663.4542045593262" r="1" stroke="black" stroke-width="2" fill="none" />
<circle cx="916.7792072296143" cy="663.5139465332031" r="1" stroke="black" stroke-width="2" fill="none" />
<path d="M880.2468376159668,697.8004536628723 Q900.0440963953733,680.5283870697021,919.5440464019775,697.9180929660797" stroke-width="2" stroke="black" fill="black" fill-opacity="0" />
<circle cx="879.574426651001" cy="761.757495880127" r="1" stroke="black" stroke-width="2" fill="none" />
<circle cx="920.8133296966553" cy="762.2618980407715" r="1" stroke="black" stroke-width="2" fill="none" />
<path d="M876.7121906280518,776.5797519683838 Q900.0665050521493,813.4112873077393,924.1920566558838,776.5310764312744" stroke-width="2" stroke="black" fill="black" fill-opacity="0" />
<circle cx="864.7816200256348" cy="872.2224369049072" r="1" stroke="black" stroke-width="2" fill="none" />
<circle cx="935.3744354248047" cy="872.1041069030762" r="1" stroke="black" stroke-width="2" fill="none" />
<path d="M865.550422668457,932.9375953674316 Q899.9669774770737,895.0606422424316,934.3992385864258,933.006664276123" stroke-width="2" stroke="black" fill="black" fill-opacity="0" />
<path d="M-50,50 L950,50" stroke="black" />
<path d="M50,-50 L50,950" stroke="black" />
<path d="M-50,150 L950,150" stroke="black" />
<path d="M150,-50 L150,950" stroke="black" />
<path d="M-50,250 L950,250" stroke="black" />
<path d="M250,-50 L250,950" stroke="black" />
<path d="M-50,350 L950,350" stroke="black" />
<path d="M350,-50 L350,950" stroke="black" />
<path d="M-50,450 L950,450" stroke="black" />
<path d="M450,-50 L450,950" stroke="black" />
<path d="M-50,550 L950,550" stroke="black" />
<path d="M550,-50 L550,950" stroke="black" />
<path d="M-50,650 L950,650" stroke="black" />
<path d="M650,-50 L650,950" stroke="black" />
<path d="M-50,750 L950,750" stroke="black" />
<path d="M750,-50 L750,950" stroke="black" />
<path d="M-50,850 L950,850" stroke="black" />
<path d="M850,-50 L850,950" stroke="black" />
</svg>