<?xml version="1.0" encoding="UTF-8"?>
<svg xmlns="http://www.w3.org/2000/svg" xmlns:xlink="http://www.w3.org/1999/xlink"
     width="1000" height="1000" viewBox="-50 -50 1000 1000" diplayInline="False">
<defs>
</defs>
<circle cx="-24.0290584564209" cy="-33.69032669067383" r="1" stroke="black" stroke-width="2" fill="none" />
<circle cx="23.974754333496094" cy="-33.60670471191406" r="1" stroke="black" stroke-width="2" fill="none" />
<path d="M-24.810564041137695,39.175174713134766 Q-0.0007020235061645508,-13.280929565429688,24.77328109741211,39.33518600463867" stroke-width="2" stroke="black" fill="black" fill-opacity="0" />
<circle cx="-20.08319664001465" cy="67.29615783691406" r="1" stroke="black" stroke-width="2" fill="none" />
<circle cx="20.219547271728516" cy="67.30618286132812" r="1" stroke="black" stroke-width="2" fill="none" />
<path d="M-18.61330223083496,139.73278045654297 Q-0.030996881425380707,88.08824348449707,18.41741943359375,139.74061965942383" stroke-width="2" stroke="black" fill="black" fill-opacity="0" />
<circle cx="-16.636091232299805" cy="168.96182441711426" r="1" stroke="black" stroke-width="2" fill="none" />
<circle cx="16.93875503540039" cy="168.9159393310547" r="1" stroke="black" stroke-width="2" fill="none" />
<path d="M-12.686232566833496,239.21977615356445 Q-0.042241908609867096,189.26927947998047,12.361405372619629,239.10409545898438" stroke-width="2" stroke="black" fill="black" fill-opacity="0" />
<circle cx="-14.507400512695312" cy="270.4776954650879" r="1" stroke="black" stroke-width="2" fill="none" />
<circle cx="14.862486839294434" cy="270.43354415893555" r="1" stroke="black" stroke-width="2" fill="none" />
<path d="M-9.470669746398926,334.18237686157227 Q-0.030571408569812775,287.9373035430908,9.162301063537598,333.9725456237793" stroke-width="2" stroke="black" fill="black" fill-opacity="0" />
<circle cx="-12.852842330932617" cy="370.3099727630615" r="1" stroke="black" stroke-width="2" fill="none" />
<circle cx="12.915473937988281" cy="370.25347900390625" r="1" stroke="black" stroke-width="2" fill="none" />
<path d="M-12.128591537475586,422.27957344055176 Q0.018369454890489578,387.2723274230957,11.976414680480957,422.02346992492676" stroke-width="2" stroke="black" fill="black" fill-opacity="0" />
<circle cx="-10.995363235473633" cy="470.04590034484863" r="1" stroke="black" stroke-width="2" fill="none" />
<circle cx="10.317472457885742" cy="469.8817253112793" r="1" stroke="black" stroke-width="2" fill="none" />
<path d="M-21.4287166595459,510.8592939376831 Q0.03798854351043701,496.269549369812,21.356321334838867,510.6111831665039" stroke-width="2" stroke="black" fill="black" fill-opacity="0" />
<circle cx="-12.585531234741211" cy="568.9972553253174" r="1" stroke="black" stroke-width="2" fill="none" />
<circle cx="11.762585639953613" cy="568.8062133789062" r="1" stroke="black" stroke-width="2" fill="none" />
<path d="M-29.428573608398438,608.3398218154907 Q0.04083523154258728,606.8984951972961,29.369524002075195,608.1757402420044" stroke-width="2" stroke="black" fill="black" fill-opacity="0" />
<circle cx="-15.112953186035156" cy="668.7873096466064" r="1" stroke="black" stroke-width="2" fill="none" />
<circle cx="15.056784629821777" cy="668.6822738647461" r="1" stroke="black" stroke-width="2" fill="none" />
<path d="M-35.460853576660156,710.2590789794922 Q0.028363995254039764,718.7179431915283,35.483848571777344,710.0679779052734" stroke-width="2" stroke="black" fill="black" fill-opacity="0" />
<circle cx="-16.19318962097168" cy="770.2394390106201" r="1" stroke="black" stroke-width="2" fill="none" />
<circle cx="16.738733291625977" cy="770.1933212280273" r="1" stroke="black" stroke-width="2" fill="none" />
<path d="M-38.0804443359375,812.1781368255615 Q0.013446878641843796,826.6047077178955,38.17363739013672,811.9487800598145" stroke-width="2" stroke="black" fill="black" fill-opacity="0" />
<circle cx="-18.219970703125" cy="871.8395557403564" r="1" stroke="black" stroke-width="2" fill="none" />
<circle cx="19.26690101623535" cy="871.8333892822266" r="1" stroke="black" stroke-width="2" fill="none" />
<path d="M-40.395599365234375,913.615237236023 Q-0.018252693116664886,933.9147033691406,40.485782623291016,913.2647132873535" stroke-width="2" stroke="black" fill="black" fill-opacity="0" />
<circle cx="75.92920684814453" cy="-30.17149543762207" r="1" stroke="black" stroke-width="2" fill="none" />
<circle cx="123.85445022583008" cy="-30.05951690673828" r="1" stroke="black" stroke-width="2" fill="none" />
<path d="M70.9932632446289,38.14023208618164 Q100.04723307490349,-5.104052543640137,129.0788974761963,38.43642044067383" stroke-width="2" stroke="black" fill="black" fill-opacity="0" />
<circle cx="79.73271942138672" cy="71.8896312713623" r="1" stroke="black" stroke-width="2" fill="none" />
<circle cx="120.14134407043457" cy="71.93668365478516" r="1" stroke="black" stroke-width="2" fill="none" />
<path d="M75.39765548706055,138.22761917114258 Q100.02591251581907,98.4687225818634,124.54916763305664,138.4289207458496" stroke-width="2" stroke="black" fill="black" fill-opacity="0" />
<circle cx="83.53704261779785" cy="173.66063117980957" r="1" stroke="black" stroke-width="2" fill="none" />
<circle cx="116.52033424377441" cy="173.64442825317383" r="1" stroke="black" stroke-width="2" fill="none" />
<path d="M81.83975982666016,238.0745086669922 Q100.01379723474383,200.1321041584015,117.95900344848633,238.1432228088379" stroke-width="2" stroke="black" fill="black" fill-opacity="0" />
<circle cx="86.20730590820312" cy="275.7298278808594" r="1" stroke="black" stroke-width="2" fill="none" />
<circle cx="113.96158695220947" cy="275.67145919799805" r="1" stroke="black" stroke-width="2" fill="none" />
<path d="M86.60873126983643,336.3352394104004 Q100.00651222839952,301.1299111843109,113.09006309509277,336.28432846069336" stroke-width="2" stroke="black" fill="black" fill-opacity="0" />
<circle cx="88.45012092590332" cy="376.81957626342773" r="1" stroke="black" stroke-width="2" fill="none" />
<circle cx="111.76777458190918" cy="376.7839546203613" r="1" stroke="black" stroke-width="2" fill="none" />
<path d="M89.87408447265625,430.60108757019043 Q100.01274244859815,398.5709662437439,109.8563289642334,430.42201042175293" stroke-width="2" stroke="black" fill="black" fill-opacity="0" />
<circle cx="90.4990005493164" cy="476.7902584075928" r="1" stroke="black" stroke-width="2" fill="none" />
<circle cx="109.3815507888794" cy="476.726806640625" r="1" stroke="black" stroke-width="2" fill="none" />
<path d="M86.05447959899902,515.7680215835571 Q100.09226295351982,498.6385111808777,113.88507461547852,515.5953531265259" stroke-width="2" stroke="black" fill="black" fill-opacity="0" />
<circle cx="90.25101470947266" cy="574.9048480987549" r="1" stroke="black" stroke-width="2" fill="none" />
<circle cx="109.28040409088135" cy="574.7546844482422" r="1" stroke="black" stroke-width="2" fill="none" />
<path d="M75.22611045837402,607.2647676467896 Q100.03644356876612,610.4354476928711,124.79776382446289,607.0663933753967" stroke-width="2" stroke="black" fill="black" fill-opacity="0" />
<circle cx="87.79688167572021" cy="674.6058349609375" r="1" stroke="black" stroke-width="2" fill="none" />
<circle cx="112.47698211669922" cy="674.5426139831543" r="1" stroke="black" stroke-width="2" fill="none" />
<path d="M68.55843162536621,708.1306209564209 Q100.01455741748214,724.2978496551514,131.48837089538574,707.8265371322632" stroke-width="2" stroke="black" fill="black" fill-opacity="0" />
<circle cx="85.64208602905273" cy="775.4437141418457" r="1" stroke="black" stroke-width="2" fill="none" />
<circle cx="115.33449268341064" cy="775.4526062011719" r="1" stroke="black" stroke-width="2" fill="none" />
<path d="M63.84526824951172,810.068302154541 Q99.98297955095768,835.1610374450684,136.2369842529297,809.6594400405884" stroke-width="2" stroke="black" fill="black" fill-opacity="0" />
<circle cx="82.65393447875977" cy="875.9529457092285" r="1" stroke="black" stroke-width="2" fill="none" />
<circle cx="118.66081237792969" cy="875.9948654174805" r="1" stroke="black" stroke-width="2" fill="none" />
<path d="M62.02191162109375,911.2512741088867 Q99.96955009549856,938.898136138916,138.04803466796875,910.7928829193115" stroke-width="2" stroke="black" fill="black" fill-opacity="0" />
<circle cx="176.27858352661133" cy="-26.208660125732422" r="1" stroke="black" stroke-width="2" fill="none" />
<circle cx="223.31134223937988" cy="-26.100048065185547" r="1" stroke="black" stroke-width="2" fill="none" />
<path d="M167.4070930480957,37.017189025878906 Q200.06821324676275,4.311580657958984,232.75266647338867,37.42557144165039" stroke-width="2" stroke="black" fill="black" fill-opacity="0" />
<circle cx="179.6807041168213" cy="75.88239479064941" r="1" stroke="black" stroke-width="2" fill="none" />
<circle cx="219.9696865081787" cy="75.95736694335938" r="1" stroke="black" stroke-width="2" fill="none" />
<path d="M170.33748626708984,137.08069229125977 Q200.0741220265627,107.66633176803589,229.72562789916992,137.4455680847168" stroke-width="2" stroke="black" fill="black" fill-opacity="0" />
<circle cx="183.3558807373047" cy="178.33936309814453" r="1" stroke="black" stroke-width="2" fill="none" />
<circle cx="216.43750381469727" cy="178.36368560791016" r="1" stroke="black" stroke-width="2" fill="none" />
<path d="M175.8638095855713,236.70270156860352 Q200.0689490661025,210.82150840759277,224.0629425048828,236.9522819519043" stroke-width="2" stroke="black" fill="black" fill-opacity="0" />
<circle cx="186.41305351257324" cy="280.36880683898926" r="1" stroke="black" stroke-width="2" fill="none" />
<circle cx="213.53373336791992" cy="280.35009384155273" r="1" stroke="black" stroke-width="2" fill="none" />
<path d="M181.5528392791748,335.8966598510742 Q200.06206588447094,312.34090995788574,218.227388381958,336.0026397705078" stroke-width="2" stroke="black" fill="black" fill-opacity="0" />
<circle cx="188.84449672698975" cy="382.79271125793457" r="1" stroke="black" stroke-width="2" fill="none" />
<circle cx="211.1824016571045" cy="382.72339630126953" r="1" stroke="black" stroke-width="2" fill="none" />
<path d="M185.68611812591553,433.02831268310547 Q200.05308886617422,413.4355182647705,214.01893424987793,433.00499725341797" stroke-width="2" stroke="black" fill="black" fill-opacity="0" />
<circle cx="191.7468032836914" cy="483.6857509613037" r="1" stroke="black" stroke-width="2" fill="none" />
<circle cx="208.33202362060547" cy="483.66500091552734" r="1" stroke="black" stroke-width="2" fill="none" />
<path d="M189.15918445587158,525.6192474365234 Q200.06909262388945,509.6036214828491,210.61728286743164,525.4815540313721" stroke-width="2" stroke="black" fill="black" fill-opacity="0" />
<circle cx="193.68185186386108" cy="582.4916591644287" r="1" stroke="black" stroke-width="2" fill="none" />
<circle cx="206.25243854522705" cy="582.3884506225586" r="1" stroke="black" stroke-width="2" fill="none" />
<path d="M182.66366004943848,608.4302549362183 Q200.06467620283365,612.0663719177246,217.42884254455566,608.2676687240601" stroke-width="2" stroke="black" fill="black" fill-opacity="0" />
<circle cx="191.03983116149902" cy="681.5537452697754" r="1" stroke="black" stroke-width="2" fill="none" />
<circle cx="209.70297718048096" cy="681.5475234985352" r="1" stroke="black" stroke-width="2" fill="none" />
<path d="M173.04247093200684,706.4217309951782 Q199.9998543187976,731.0683116912842,227.06092643737793,706.0118412971497" stroke-width="2" stroke="black" fill="black" fill-opacity="0" />
<circle cx="183.39787101745605" cy="781.3350410461426" r="1" stroke="black" stroke-width="2" fill="none" />
<circle cx="217.65008163452148" cy="781.3958625793457" r="1" stroke="black" stroke-width="2" fill="none" />
<path d="M169.1522045135498,807.2031602859497 Q199.99187701940536,840.4619941711426,230.93889617919922,806.8144612312317" stroke-width="2" stroke="black" fill="black" fill-opacity="0" />
<circle cx="175.1354160308838" cy="881.6139888763428" r="1" stroke="black" stroke-width="2" fill="none" />
<circle cx="225.6113739013672" cy="881.6476516723633" r="1" stroke="black" stroke-width="2" fill="none" />
<path d="M170.5097198486328,908.0238122940063 Q200.0027649588883,939.4608573913574,229.6223850250244,907.8269033432007" stroke-width="2" stroke="black" fill="black" fill-opacity="0" />
<circle cx="276.1460552215576" cy="-22.097408294677734" r="1" stroke="black" stroke-width="2" fill="none" />
<circle cx="323.19317054748535" cy="-22.038745880126953" r="1" stroke="black" stroke-width="2" fill="none" />
<path d="M264.36679458618164,35.51961898803711 Q300.0652803257108,15.618692398071289,335.7474555969238,35.94883346557617" stroke-width="2" stroke="black" fill="black" fill-opacity="0" />
<circle cx="280.1608467102051" cy="80.3910026550293" r="1" stroke="black" stroke-width="2" fill="none" />
<circle cx="319.22925186157227" cy="80.4374008178711" r="1" stroke="black" stroke-width="2" fill="none" />
<path d="M266.42355728149414,135.24179458618164 Q300.06882506608963,118.89332389831543,333.7028999328613,135.70034408569336" stroke-width="2" stroke="black" fill="black" fill-opacity="0" />
<circle cx="283.4702396392822" cy="183.67279815673828" r="1" stroke="black" stroke-width="2" fill="none" />
<circle cx="315.9614896774292" cy="183.70128631591797" r="1" stroke="black" stroke-width="2" fill="none" />
<path d="M269.4271583557129,234.6481819152832 Q300.07054094970226,224.01510047912598,330.61469078063965,235.05900192260742" stroke-width="2" stroke="black" fill="black" fill-opacity="0" />
<circle cx="286.67345905303955" cy="285.7192659378052" r="1" stroke="black" stroke-width="2" fill="none" />
<circle cx="312.95592975616455" cy="285.7177848815918" r="1" stroke="black" stroke-width="2" fill="none" />
<path d="M275.7475128173828,334.5462532043457 Q300.08014161884785,325.62970542907715,324.125581741333,334.81514739990234" stroke-width="2" stroke="black" fill="black" fill-opacity="0" />
<circle cx="289.1567087173462" cy="388.263014793396" r="1" stroke="black" stroke-width="2" fill="none" />
<circle cx="310.54212760925293" cy="388.2116346359253" r="1" stroke="black" stroke-width="2" fill="none" />
<path d="M279.672212600708,431.943359375 Q300.0688034966588,427.34496307373047,320.1273937225342,432.0924186706543" stroke-width="2" stroke="black" fill="black" fill-opacity="0" />
<circle cx="292.7804231643677" cy="491.400652885437" r="1" stroke="black" stroke-width="2" fill="none" />
<circle cx="307.17044162750244" cy="491.3171625137329" r="1" stroke="black" stroke-width="2" fill="none" />
<path d="M284.42743015289307,526.9397373199463 Q300.0442827641964,528.3820858001709,315.3469762802124,526.8985118865967" stroke-width="2" stroke="black" fill="black" fill-opacity="0" />
<circle cx="297.3946924209595" cy="593.9256649017334" r="1" stroke="black" stroke-width="2" fill="none" />
<circle cx="303.26310777664185" cy="594.0964183807373" r="1" stroke="black" stroke-width="2" fill="none" />
<path d="M287.6950340270996,615.3335466384888 Q300.0169705301523,628.263126373291,312.44748878479004,614.9565362930298" stroke-width="2" stroke="black" fill="black" fill-opacity="0" />
<circle cx="287.7193422317505" cy="688.9383888244629" r="1" stroke="black" stroke-width="2" fill="none" />
<circle cx="312.54323863983154" cy="688.9280529022217" r="1" stroke="black" stroke-width="2" fill="none" />
<path d="M282.5974578857422,706.8929491043091 Q299.9931094944477,736.1842498779297,317.64599990844727,706.6751728057861" stroke-width="2" stroke="black" fill="black" fill-opacity="0" />
<circle cx="276.5435199737549" cy="787.222071647644" r="1" stroke="black" stroke-width="2" fill="none" />
<circle cx="323.31861686706543" cy="787.2038402557373" r="1" stroke="black" stroke-width="2" fill="none" />
<path d="M281.1719970703125,807.1618404388428 Q300.0008572191,840.5546951293945,319.0135250091553,807.0848722457886" stroke-width="2" stroke="black" fill="black" fill-opacity="0" />
<circle cx="264.3910713195801" cy="885.6925668716431" r="1" stroke="black" stroke-width="2" fill="none" />
<circle cx="335.0167007446289" cy="885.6213474273682" r="1" stroke="black" stroke-width="2" fill="none" />
<path d="M281.01115226745605,905.8368897438049 Q300.0147776789963,938.6085891723633,319.06175422668457,905.9038152694702" stroke-width="2" stroke="black" fill="black" fill-opacity="0" />
<circle cx="373.8072757720947" cy="-19.05666732788086" r="1" stroke="black" stroke-width="2" fill="none" />
<circle cx="425.4490451812744" cy="-19.122638702392578" r="1" stroke="black" stroke-width="2" fill="none" />
<path d="M363.8284606933594,35.57121276855469 Q400.0465608611703,28.522531509399414,435.9699516296387,35.6852912902832" stroke-width="2" stroke="black" fill="black" fill-opacity="0" />
<circle cx="377.5638999938965" cy="83.1826114654541" r="1" stroke="black" stroke-width="2" fill="none" />
<circle cx="421.91526222229004" cy="83.13096237182617" r="1" stroke="black" stroke-width="2" fill="none" />
<path d="M366.1117477416992,136.05874633789062 Q400.02408926561475,131.60265350341797,433.71648025512695,136.11967086791992" stroke-width="2" stroke="black" fill="black" fill-opacity="0" />
<circle cx="380.9559955596924" cy="185.9389991760254" r="1" stroke="black" stroke-width="2" fill="none" />
<circle cx="418.8450107574463" cy="185.9047727584839" r="1" stroke="black" stroke-width="2" fill="none" />
<path d="M369.09553146362305,236.64846420288086 Q399.98486107587814,235.70188903808594,430.7488670349121,236.57644653320312" stroke-width="2" stroke="black" fill="black" fill-opacity="0" />
<circle cx="380.5319519042969" cy="290.2900562286377" r="1" stroke="black" stroke-width="2" fill="none" />
<circle cx="419.6780891418457" cy="290.2869453430176" r="1" stroke="black" stroke-width="2" fill="none" />
<path d="M375.83168029785156,336.64449310302734 Q399.9860817119479,338.92324447631836,424.1252155303955,336.57325744628906" stroke-width="2" stroke="black" fill="black" fill-opacity="0" />
<circle cx="381.38211822509766" cy="392.9294624328613" r="1" stroke="black" stroke-width="2" fill="none" />
<circle cx="419.0856628417969" cy="393.0652070045471" r="1" stroke="black" stroke-width="2" fill="none" />
<path d="M382.09643363952637,431.32451820373535 Q400.0663877502084,436.58782958984375,418.0071907043457,431.3100337982178" stroke-width="2" stroke="black" fill="black" fill-opacity="0" />
<circle cx="381.69718170166016" cy="494.44808292388916" r="1" stroke="black" stroke-width="2" fill="none" />
<circle cx="419.060302734375" cy="494.7337999343872" r="1" stroke="black" stroke-width="2" fill="none" />
<path d="M387.4145622253418,524.0579795837402 Q400.0939201563597,530.651611328125,412.906156539917,523.9479942321777" stroke-width="2" stroke="black" fill="black" fill-opacity="0" />
<circle cx="383.40300369262695" cy="596.1245057582855" r="1" stroke="black" stroke-width="2" fill="none" />
<circle cx="417.3791923522949" cy="596.51380443573" r="1" stroke="black" stroke-width="2" fill="none" />
<path d="M393.2155981063843,615.690390586853 Q400.04298160225153,624.8474617004395,407.4932026863098,615.4294481277466" stroke-width="2" stroke="black" fill="black" fill-opacity="0" />
<circle cx="383.409460067749" cy="692.5668725967407" r="1" stroke="black" stroke-width="2" fill="none" />
<circle cx="416.4878787994385" cy="692.9118175506592" r="1" stroke="black" stroke-width="2" fill="none" />
<path d="M391.5388660430908,705.9178981781006 Q399.9258937910199,730.3232479095459,409.2002067565918,705.3976159095764" stroke-width="2" stroke="black" fill="black" fill-opacity="0" />
<circle cx="372.8395080566406" cy="787.8074102401733" r="1" stroke="black" stroke-width="2" fill="none" />
<circle cx="426.33288383483887" cy="787.8331871032715" r="1" stroke="black" stroke-width="2" fill="none" />
<path d="M387.1164026260376,801.8590965270996 Q400.01008853316307,835.7284507751465,412.8674726486206,801.6113048791885" stroke-width="2" stroke="black" fill="black" fill-opacity="0" />
<circle cx="365.7128143310547" cy="882.1552124023438" r="1" stroke="black" stroke-width="2" fill="none" />
<circle cx="433.4526062011719" cy="882.0557823181152" r="1" stroke="black" stroke-width="2" fill="none" />
<path d="M382.1984100341797,898.4599916934967 Q400.0351196117699,933.3757820129395,417.6734809875488,898.4865173101425" stroke-width="2" stroke="black" fill="black" fill-opacity="0" />
<circle cx="467.6262321472168" cy="-17.08538246154785" r="1" stroke="black" stroke-width="2" fill="none" />
<circle cx="532.113166809082" cy="-17.149757385253906" r="1" stroke="black" stroke-width="2" fill="none" />
<path d="M466.47803497314453,38.053184509277344 Q500.0167275592685,34.29317855834961,533.3397369384766,37.96733093261719" stroke-width="2" stroke="black" fill="black" fill-opacity="0" />
<circle cx="468.02205085754395" cy="86.03514194488525" r="1" stroke="black" stroke-width="2" fill="none" />
<circle cx="531.9676361083984" cy="86.00270366668701" r="1" stroke="black" stroke-width="2" fill="none" />
<path d="M471.4199962615967,137.4784698486328 Q500.02284744754434,135.17234420776367,528.4899730682373,137.42733764648438" stroke-width="2" stroke="black" fill="black" fill-opacity="0" />
<circle cx="466.65999603271484" cy="188.9744520187378" r="1" stroke="black" stroke-width="2" fill="none" />
<circle cx="533.5247802734375" cy="188.97949981689453" r="1" stroke="black" stroke-width="2" fill="none" />
<path d="M477.17919158935547,236.2886085510254 Q500.0304737985134,233.99048614501953,522.8486061096191,236.2801513671875" stroke-width="2" stroke="black" fill="black" fill-opacity="0" />
<circle cx="464.6730842590332" cy="291.21877098083496" r="1" stroke="black" stroke-width="2" fill="none" />
<circle cx="535.6047668457031" cy="291.2510290145874" r="1" stroke="black" stroke-width="2" fill="none" />
<path d="M483.0029525756836,333.13146209716797 Q500.0420249029994,329.8273162841797,517.128023147583,333.15550994873047" stroke-width="2" stroke="black" fill="black" fill-opacity="0" />
<circle cx="465.85865783691406" cy="393.3077087402344" r="1" stroke="black" stroke-width="2" fill="none" />
<circle cx="534.6788177490234" cy="393.3692684173584" r="1" stroke="black" stroke-width="2" fill="none" />
<path d="M488.4543399810791,426.5519504547119 Q500.0840039551258,425.38882637023926,511.7352066040039,426.58173179626465" stroke-width="2" stroke="black" fill="black" fill-opacity="0" />
<circle cx="467.74913024902344" cy="492.7629852294922" r="1" stroke="black" stroke-width="2" fill="none" />
<circle cx="532.8188095092773" cy="492.79723834991455" r="1" stroke="black" stroke-width="2" fill="none" />
<path d="M490.14767932891846,519.5546836853027 Q500.0872802734375,519.1196823120117,510.062801361084,519.4478893280029" stroke-width="2" stroke="black" fill="black" fill-opacity="0" />
<circle cx="471.4701614379883" cy="592.1879644393921" r="1" stroke="black" stroke-width="2" fill="none" />
<circle cx="529.1387481689453" cy="592.1983523368835" r="1" stroke="black" stroke-width="2" fill="none" />
<path d="M492.28683948516846,611.3016176223755 Q500.0945922136307,612.0952949523926,507.93794679641724,611.060040473938" stroke-width="2" stroke="black" fill="black" fill-opacity="0" />
<circle cx="484.5786075592041" cy="687.707516670227" r="1" stroke="black" stroke-width="2" fill="none" />
<circle cx="515.9067869186401" cy="687.7245244979858" r="1" stroke="black" stroke-width="2" fill="none" />
<path d="M491.9221353530884,700.3697306513786 Q500.04217230156064,711.8452548980713,508.51508045196533,700.1876572966576" stroke-width="2" stroke="black" fill="black" fill-opacity="0" />
<circle cx="481.814905166626" cy="782.9344863891602" r="1" stroke="black" stroke-width="2" fill="none" />
<circle cx="517.7369689941406" cy="782.924955368042" r="1" stroke="black" stroke-width="2" fill="none" />
<path d="M486.92552757263184,796.5848002433777 Q500.0472779907286,829.3357543945312,512.9052381515503,796.3679614067078" stroke-width="2" stroke="black" fill="black" fill-opacity="0" />
<circle cx="474.41263580322266" cy="878.2345848083496" r="1" stroke="black" stroke-width="2" fill="none" />
<circle cx="524.9877815246582" cy="878.1520843505859" r="1" stroke="black" stroke-width="2" fill="none" />
<path d="M482.0628299713135,893.5657801628113 Q500.043158814311,931.237714767456,517.7374305725098,893.4982690811157" stroke-width="2" stroke="black" fill="black" fill-opacity="0" />
<circle cx="556.3417854309082" cy="-15.509343147277832" r="1" stroke="black" stroke-width="2" fill="none" />
<circle cx="643.460620880127" cy="-15.54470443725586" r="1" stroke="black" stroke-width="2" fill="none" />
<path d="M572.8049755096436,36.29036331176758 Q600.0699089542031,29.221839904785156,627.1207733154297,36.295814514160156" stroke-width="2" stroke="black" fill="black" fill-opacity="0" />
<circle cx="555.2854690551758" cy="87.14643478393555" r="1" stroke="black" stroke-width="2" fill="none" />
<circle cx="644.4587783813477" cy="87.10554122924805" r="1" stroke="black" stroke-width="2" fill="none" />
<path d="M578.2116641998291,135.08598709106445 Q600.0792487710714,126.60064125061035,621.7274265289307,135.12020111083984" stroke-width="2" stroke="black" fill="black" fill-opacity="0" />
<circle cx="556.3575744628906" cy="188.47802829742432" r="1" stroke="black" stroke-width="2" fill="none" />
<circle cx="643.297176361084" cy="188.4719467163086" r="1" stroke="black" stroke-width="2" fill="none" />
<path d="M582.0970726013184,232.56158065795898 Q600.0958381593227,222.07266998291016,617.880973815918,232.57976531982422" stroke-width="2" stroke="black" fill="black" fill-opacity="0" />
<circle cx="557.4053382873535" cy="288.1220750808716" r="1" stroke="black" stroke-width="2" fill="none" />
<circle cx="642.2674293518066" cy="288.1236400604248" r="1" stroke="black" stroke-width="2" fill="none" />
<path d="M584.5711832046509,327.25300788879395 Q600.0973508954048,315.30191230773926,615.4902744293213,327.19837379455566" stroke-width="2" stroke="black" fill="black" fill-opacity="0" />
<circle cx="558.0522575378418" cy="387.0872392654419" r="1" stroke="black" stroke-width="2" fill="none" />
<circle cx="641.9376335144043" cy="387.0851802825928" r="1" stroke="black" stroke-width="2" fill="none" />
<path d="M586.2235240936279,420.8450450897217 Q600.0857855677605,410.1136245727539,613.9643602371216,420.6754455566406" stroke-width="2" stroke="black" fill="black" fill-opacity="0" />
<circle cx="561.6346702575684" cy="486.2404136657715" r="1" stroke="black" stroke-width="2" fill="none" />
<circle cx="638.4527549743652" cy="486.38593101501465" r="1" stroke="black" stroke-width="2" fill="none" />
<path d="M587.8476028442383,514.1574001312256 Q600.0694464370608,504.92268085479736,612.15452003479,513.7821636199951" stroke-width="2" stroke="black" fill="black" fill-opacity="0" />
<circle cx="570.3046684265137" cy="584.7938899993896" r="1" stroke="black" stroke-width="2" fill="none" />
<circle cx="629.8975811004639" cy="584.8590288162231" r="1" stroke="black" stroke-width="2" fill="none" />
<path d="M588.524302482605,607.7569274902344 Q600.0203389637172,600.947626709938,611.5567140579224,607.4150800704956" stroke-width="2" stroke="black" fill="black" fill-opacity="0" />
<circle cx="585.011100769043" cy="682.1916007995605" r="1" stroke="black" stroke-width="2" fill="none" />
<circle cx="615.4424457550049" cy="682.0944786071777" r="1" stroke="black" stroke-width="2" fill="none" />
<path d="M589.5674829483032,698.0207006931305 Q600.0145814679563,700.6954832077026,610.9697542190552,697.9029550552368" stroke-width="2" stroke="black" fill="black" fill-opacity="0" />
<circle cx="590.4366970062256" cy="778.3703842163086" r="1" stroke="black" stroke-width="2" fill="none" />
<circle cx="609.7068748474121" cy="778.4335136413574" r="1" stroke="black" stroke-width="2" fill="none" />
<path d="M586.5247936248779,792.1356716156006 Q600.0892505049706,819.3399047851562,613.3241481781006,791.9044904708862" stroke-width="2" stroke="black" fill="black" fill-opacity="0" />
<circle cx="582.5684642791748" cy="874.6558856964111" r="1" stroke="black" stroke-width="2" fill="none" />
<circle cx="617.0637836456299" cy="874.6181144714355" r="1" stroke="black" stroke-width="2" fill="none" />
<path d="M581.9891719818115,888.9279356002808 Q600.060518220067,928.671049118042,617.7520198822021,888.7780561447144" stroke-width="2" stroke="black" fill="black" fill-opacity="0" />
<circle cx="652.0803070068359" cy="-15.744056701660156" r="1" stroke="black" stroke-width="2" fill="none" />
<circle cx="747.0440330505371" cy="-15.84858512878418" r="1" stroke="black" stroke-width="2" fill="none" />
<path d="M676.7277164459229,34.3263053894043 Q700.1152144819498,19.00600242614746,723.1219329833984,34.38148498535156" stroke-width="2" stroke="black" fill="black" fill-opacity="0" />
<circle cx="654.1503791809082" cy="85.02245712280273" r="1" stroke="black" stroke-width="2" fill="none" />
<circle cx="745.0998268127441" cy="84.97564029693604" r="1" stroke="black" stroke-width="2" fill="none" />
<path d="M680.660888671875,133.0453872680664 Q700.1098825037479,114.72634506225586,719.3111019134521,133.07659149169922" stroke-width="2" stroke="black" fill="black" fill-opacity="0" />
<circle cx="656.8408660888672" cy="184.07827186584473" r="1" stroke="black" stroke-width="2" fill="none" />
<circle cx="742.5939788818359" cy="184.06905555725098" r="1" stroke="black" stroke-width="2" fill="none" />
<path d="M683.6267738342285,229.6871337890625 Q700.0862155258656,207.87432479858398,716.5012969970703,229.67333602905273" stroke-width="2" stroke="black" fill="black" fill-opacity="0" />
<circle cx="657.6787414550781" cy="282.68211936950684" r="1" stroke="black" stroke-width="2" fill="none" />
<circle cx="741.722354888916" cy="282.71718978881836" r="1" stroke="black" stroke-width="2" fill="none" />
<path d="M684.2926015853882,323.41143226623535 Q700.0746223777533,302.39867091178894,715.7834510803223,323.2731075286865" stroke-width="2" stroke="black" fill="black" fill-opacity="0" />
<circle cx="658.5595054626465" cy="381.262264251709" r="1" stroke="black" stroke-width="2" fill="none" />
<circle cx="741.0790596008301" cy="381.33152770996094" r="1" stroke="black" stroke-width="2" fill="none" />
<path d="M684.1545553207397,416.72705459594727 Q700.0775625780225,399.2654287815094,715.7318687438965,416.45750999450684" stroke-width="2" stroke="black" fill="black" fill-opacity="0" />
<circle cx="663.3073844909668" cy="481.04042053222656" r="1" stroke="black" stroke-width="2" fill="none" />
<circle cx="736.6895980834961" cy="481.07863998413086" r="1" stroke="black" stroke-width="2" fill="none" />
<path d="M684.7480154037476,510.7024755477905 Q700.0391278751194,497.57340002059937,715.1279001235962,510.37764167785645" stroke-width="2" stroke="black" fill="black" fill-opacity="0" />
<circle cx="672.5524139404297" cy="579.3303737640381" r="1" stroke="black" stroke-width="2" fill="none" />
<circle cx="727.5332889556885" cy="579.2619400024414" r="1" stroke="black" stroke-width="2" fill="none" />
<path d="M685.1987342834473,604.1005573272705 Q700.0120337232947,593.9792594909668,714.7777214050293,603.8645577430725" stroke-width="2" stroke="black" fill="black" fill-opacity="0" />
<circle cx="684.0020942687988" cy="676.9080657958984" r="1" stroke="black" stroke-width="2" fill="none" />
<circle cx="716.1026306152344" cy="676.7924270629883" r="1" stroke="black" stroke-width="2" fill="none" />
<path d="M686.3072776794434,696.2146344184875 Q699.979722134769,692.2428784370422,714.1234359741211,696.120445728302" stroke-width="2" stroke="black" fill="black" fill-opacity="0" />
<circle cx="692.1677813529968" cy="774.336368560791" r="1" stroke="black" stroke-width="2" fill="none" />
<circle cx="708.149884223938" cy="774.3296775817871" r="1" stroke="black" stroke-width="2" fill="none" />
<path d="M685.2695550918579,788.4377975463867 Q700.0393876582384,803.2009670734406,714.9923439025879,788.2847862243652" stroke-width="2" stroke="black" fill="black" fill-opacity="0" />
<circle cx="689.351619720459" cy="871.4249019622803" r="1" stroke="black" stroke-width="2" fill="none" />
<circle cx="710.5043468475342" cy="871.4364585876465" r="1" stroke="black" stroke-width="2" fill="none" />
<path d="M681.8016986846924,884.8423824310303 Q700.0800600796938,922.6966361999512,717.8712921142578,884.6103038787842" stroke-width="2" stroke="black" fill="black" fill-opacity="0" />
<circle cx="753.3847999572754" cy="-19.515411376953125" r="1" stroke="black" stroke-width="2" fill="none" />
<circle cx="845.9522132873535" cy="-19.54747772216797" r="1" stroke="black" stroke-width="2" fill="none" />
<path d="M779.7756214141846,34.92444610595703 Q800.07966504246,6.976417064666748,820.3084087371826,34.9029655456543" stroke-width="2" stroke="black" fill="black" fill-opacity="0" />
<circle cx="755.7016410827637" cy="80.39804077148438" r="1" stroke="black" stroke-width="2" fill="none" />
<circle cx="843.7806015014648" cy="80.41255187988281" r="1" stroke="black" stroke-width="2" fill="none" />
<path d="M782.7074890136719,132.4510726928711 Q800.0756002962589,102.36118388175964,817.4855041503906,132.41905212402344" stroke-width="2" stroke="black" fill="black" fill-opacity="0" />
<circle cx="758.0636329650879" cy="178.5267791748047" r="1" stroke="black" stroke-width="2" fill="none" />
<circle cx="841.6234664916992" cy="178.56895065307617" r="1" stroke="black" stroke-width="2" fill="none" />
<path d="M782.9545230865479,227.58537673950195 Q800.0447388067842,197.11627101898193,817.1028537750244,227.38081169128418" stroke-width="2" stroke="black" fill="black" fill-opacity="0" />
<circle cx="759.4695510864258" cy="277.3264789581299" r="1" stroke="black" stroke-width="2" fill="none" />
<circle cx="840.2661781311035" cy="277.34656524658203" r="1" stroke="black" stroke-width="2" fill="none" />
<path d="M782.4875679016113,320.3159484863281 Q800.0593389235437,294.21436738967896,817.3737506866455,320.05735778808594" stroke-width="2" stroke="black" fill="black" fill-opacity="0" />
<circle cx="762.0863571166992" cy="376.1022720336914" r="1" stroke="black" stroke-width="2" fill="none" />
<circle cx="837.6970062255859" cy="376.0280990600586" r="1" stroke="black" stroke-width="2" fill="none" />
<path d="M781.4649467468262,413.31990337371826 Q800.0433697402477,391.85331535339355,818.3013248443604,413.0962028503418" stroke-width="2" stroke="black" fill="black" fill-opacity="0" />
<circle cx="766.4386940002441" cy="475.968542098999" r="1" stroke="black" stroke-width="2" fill="none" />
<circle cx="833.4260940551758" cy="475.8524742126465" r="1" stroke="black" stroke-width="2" fill="none" />
<path d="M781.6288089752197,507.31251668930054 Q800.0463305488229,490.1760902404785,818.086109161377,507.13660526275635" stroke-width="2" stroke="black" fill="black" fill-opacity="0" />
<circle cx="774.8269214630127" cy="574.5845413208008" r="1" stroke="black" stroke-width="2" fill="none" />
<circle cx="825.1292629241943" cy="574.4235763549805" r="1" stroke="black" stroke-width="2" fill="none" />
<path d="M782.3428745269775,600.5373871922493 Q800.0190975256264,587.5252418518066,817.5313854217529,600.4267580509186" stroke-width="2" stroke="black" fill="black" fill-opacity="0" />
<circle cx="782.111686706543" cy="672.9214897155762" r="1" stroke="black" stroke-width="2" fill="none" />
<circle cx="817.8649406433105" cy="672.768871307373" r="1" stroke="black" stroke-width="2" fill="none" />
<path d="M782.9113330841064,693.0605239868164 Q799.9795590415597,685.8316326141357,817.2762050628662,692.9720749855042" stroke-width="2" stroke="black" fill="black" fill-opacity="0" />
<circle cx="790.8681268692017" cy="770.8528213500977" r="1" stroke="black" stroke-width="2" fill="none" />
<circle cx="809.3929529190063" cy="770.7281303405762" r="1" stroke="black" stroke-width="2" fill="none" />
<path d="M784.1043729782104,784.8306474685669 Q799.9720234572887,788.7659358978271,816.7344646453857,784.8410367965698" stroke-width="2" stroke="black" fill="black" fill-opacity="0" />
<circle cx="793.2931413650513" cy="867.6569290161133" r="1" stroke="black" stroke-width="2" fill="none" />
<circle cx="806.7892079353333" cy="867.6920585632324" r="1" stroke="black" stroke-width="2" fill="none" />
<path d="M780.5970401763916,880.4684505462646 Q800.0868866220117,912.7822875976562,819.1044006347656,880.1710147857666" stroke-width="2" stroke="black" fill="black" fill-opacity="0" />
<circle cx="854.9522705078125" cy="-23.85196876525879" r="1" stroke="black" stroke-width="2" fill="none" />
<circle cx="944.678150177002" cy="-23.83133316040039" r="1" stroke="black" stroke-width="2" fill="none" />
<path d="M881.1014041900635,34.32301712036133 Q900.0641408264637,-3.374293327331543,919.0680732727051,34.23140335083008" stroke-width="2" stroke="black" fill="black" fill-opacity="0" />
<circle cx="857.4783515930176" cy="74.87845611572266" r="1" stroke="black" stroke-width="2" fill="none" />
<circle cx="942.4052276611328" cy="74.94047546386719" r="1" stroke="black" stroke-width="2" fill="none" />
<path d="M881.6781463623047,130.56330680847168 Q900.0469790026546,92.74958848953247,918.3101482391357,130.32592964172363" stroke-width="2" stroke="black" fill="black" fill-opacity="0" />
<circle cx="859.9013366699219" cy="173.0898094177246" r="1" stroke="black" stroke-width="2" fill="none" />
<circle cx="940.1232223510742" cy="173.10248947143555" r="1" stroke="black" stroke-width="2" fill="none" />
<path d="M880.9463081359863,224.58803367614746 Q900.025114171207,188.99702262878418,918.9155082702637,224.2799186706543" stroke-width="2" stroke="black" fill="black" fill-opacity="0" />
<circle cx="862.1489067077637" cy="271.7615852355957" r="1" stroke="black" stroke-width="2" fill="none" />
<circle cx="937.8836860656738" cy="271.6859130859375" r="1" stroke="black" stroke-width="2" fill="none" />
<path d="M879.7384033203125,317.48552894592285 Q900.0139223784208,286.52126121520996,920.0228843688965,317.2221164703369" stroke-width="2" stroke="black" fill="black" fill-opacity="0" />
<circle cx="865.2340507507324" cy="371.0470714569092" r="1" stroke="black" stroke-width="2" fill="none" />
<circle cx="934.839656829834" cy="370.9154510498047" r="1" stroke="black" stroke-width="2" fill="none" />
<path d="M879.2379703521729,411.305552482605 Q900.0135939270258,384.5180969238281,920.4435024261475,411.0881338119507" stroke-width="2" stroke="black" fill="black" fill-opacity="0" />
<circle cx="869.3072319030762" cy="470.8429718017578" r="1" stroke="black" stroke-width="2" fill="none" />
<circle cx="930.8229312896729" cy="470.6731071472168" r="1" stroke="black" stroke-width="2" fill="none" />
<path d="M879.188943862915,504.84546756744385 Q900.0197892598808,482.5718288421631,920.4207992553711,504.6691942214966" stroke-width="2" stroke="black" fill="black" fill-opacity="0" />
<circle cx="874.408145904541" cy="570.7358989715576" r="1" stroke="black" stroke-width="2" fill="none" />
<circle cx="925.4755802154541" cy="570.5471305847168" r="1" stroke="black" stroke-width="2" fill="none" />
<path d="M879.5390529632568,596.8788459300995 Q900.0195482261479,582.2020988464355,920.2127304077148,596.7922592163086" stroke-width="2" stroke="black" fill="black" fill-opacity="0" />
<circle cx="879.4039897918701" cy="669.5748424530029" r="1" stroke="black" stroke-width="2" fill="none" />
<circle cx="920.5298671722412" cy="669.4978218078613" r="1" stroke="black" stroke-width="2" fill="none" />
<path d="M880.149492263794,689.7999057769775 Q899.9969625324011,681.7811164855957,919.9842834472656,689.7487831115723" stroke-width="2" stroke="black" fill="black" fill-opacity="0" />
<circle cx="887.1836204528809" cy="767.7676658630371" r="1" stroke="black" stroke-width="2" fill="none" />
<circle cx="912.9256181716919" cy="767.7761421203613" r="1" stroke="black" stroke-width="2" fill="none" />
<path d="M881.3433933258057,781.7805709838867 Q899.9808505102992,782.7377471923828,919.3299140930176,781.7777252197266" stroke-width="2" stroke="black" fill="black" fill-opacity="0" />
<circle cx="893.0132298469543" cy="864.625846862793" r="1" stroke="black" stroke-width="2" fill="none" />
<circle cx="907.0145092010498" cy="864.578311920166" r="1" stroke="black" stroke-width="2" fill="none" />
<path d="M879.6491069793701,876.5403575897217 Q900.0457233265042,897.0161633491516,920.6202030181885,876.4548416137695" stroke-width="2" stroke="black" fill="black" fill-opacity="0" />
<path d="M-50,50 L950,50" stroke="black" />
<path d="M50,-50 L50,950" stroke="black" />
<path d="M-50,150 L950,150" stroke="black" />
<path d="M150,-50 L150,950" stroke="black" />
<path d="M-50,250 L950,250" stroke="black" />
<path d="M250,-50 L250,950" stroke="black" />
<path d="M-50,350 L950,350" stroke="black" />
<path d="M350,-50 L350,950" stroke="black" />
<path d="M-50,450 L950,450" stroke="black" />
<path d="M450,-50 L450,950" stroke="black" />
<path d="M-50,550 L950,550" stroke="black" />
<path d="M550,-50 L550,950" stroke="black" />
<path d="M-50,650 L950,650" stroke="black" />
<path d="M650,-50 L650,950" stroke="black" />
<path d="M-50,750 L950,750" stroke="black" />
<path d="M750,-50 L750,950" stroke="black" />
<path d="M-50,850 L950,850" stroke="black" />
<path d="M850,-50 L850,950" stroke="black" />
</svg>