<?xml version="1.0" encoding="UTF-8"?>
<svg xmlns="http://www.w3.org/2000/svg" xmlns:xlink="http://www.w3.org/1999/xlink"
     width="1000" height="1000" viewBox="-50 -50 1000 1000" diplayInline="False">
<defs>
</defs>
<circle cx="-18.84395408630371" cy="-17.67226219177246" r="1" stroke="black" stroke-width="2" fill="none" />
<circle cx="18.186933517456055" cy="-17.662906646728516" r="1" stroke="black" stroke-width="2" fill="none" />
<path d="M-33.024681091308594,35.039127349853516 Q0.06821809709072113,24.299381256103516,32.9999885559082,35.405174255371094" stroke-width="2" stroke="black" fill="black" fill-opacity="0" />
<circle cx="-10.275028228759766" cy="71.6609992980957" r="1" stroke="black" stroke-width="2" fill="none" />
<circle cx="9.36805534362793" cy="71.47089767456055" r="1" stroke="black" stroke-width="2" fill="none" />
<path d="M-23.46099090576172,108.62401962280273 Q0.04523029178380966,101.47773575782776,23.384449005126953,108.44586563110352" stroke-width="2" stroke="black" fill="black" fill-opacity="0" />
<circle cx="-16.022186279296875" cy="161.5720100402832" r="1" stroke="black" stroke-width="2" fill="none" />
<circle cx="14.622159957885742" cy="161.31622314453125" r="1" stroke="black" stroke-width="2" fill="none" />
<path d="M-33.95961380004883,210.39640998840332 Q0.060633573681116104,199.76705753803253,33.76891326904297,210.31548309326172" stroke-width="2" stroke="black" fill="black" fill-opacity="0" />
<circle cx="-24.573692321777344" cy="256.1030464172363" r="1" stroke="black" stroke-width="2" fill="none" />
<circle cx="25.894912719726562" cy="255.84370803833008" r="1" stroke="black" stroke-width="2" fill="none" />
<path d="M-10.863330841064453,338.9846305847168 Q-0.06487823277711868,267.51988220214844,11.122684478759766,339.0735740661621" stroke-width="2" stroke="black" fill="black" fill-opacity="0" />
<circle cx="-37.67396926879883" cy="388.8695650100708" r="1" stroke="black" stroke-width="2" fill="none" />
<circle cx="37.90304183959961" cy="388.9278926849365" r="1" stroke="black" stroke-width="2" fill="none" />
<path d="M-11.334019660949707,416.1374263763428 Q0.08142885565757751,409.87546730041504,11.462529182434082,415.8584623336792" stroke-width="2" stroke="black" fill="black" fill-opacity="0" />
<circle cx="-24.7740535736084" cy="479.9318656921387" r="1" stroke="black" stroke-width="2" fill="none" />
<circle cx="25.838226318359375" cy="479.98082733154297" r="1" stroke="black" stroke-width="2" fill="none" />
<path d="M-32.859127044677734,508.6866636276245 Q0.0028923489153385162,539.083080291748,32.96917724609375,508.4400825500488" stroke-width="2" stroke="black" fill="black" fill-opacity="0" />
<circle cx="-30.505868911743164" cy="557.7542304992676" r="1" stroke="black" stroke-width="2" fill="none" />
<circle cx="30.229734420776367" cy="558.0337181091309" r="1" stroke="black" stroke-width="2" fill="none" />
<path d="M-29.579957962036133,577.2187557220459 Q0.056459687650203705,568.4836978912354,29.81243324279785,577.383955001831" stroke-width="2" stroke="black" fill="black" fill-opacity="0" />
<circle cx="-23.66030502319336" cy="672.1140060424805" r="1" stroke="black" stroke-width="2" fill="none" />
<circle cx="25.027257919311523" cy="672.1202697753906" r="1" stroke="black" stroke-width="2" fill="none" />
<path d="M-42.579010009765625,714.5290479660034 Q-0.026929117739200592,736.6545677185059,42.63014221191406,714.1503162384033" stroke-width="2" stroke="black" fill="black" fill-opacity="0" />
<circle cx="-46.13992691040039" cy="764.0996055603027" r="1" stroke="black" stroke-width="2" fill="none" />
<circle cx="46.41146469116211" cy="764.105712890625" r="1" stroke="black" stroke-width="2" fill="none" />
<path d="M-30.557437896728516,787.60986328125 Q0.14221778512001038,814.2144927978516,30.75517463684082,788.2596626281738" stroke-width="2" stroke="black" fill="black" fill-opacity="0" />
<circle cx="-6.517525672912598" cy="853.6601219177246" r="1" stroke="black" stroke-width="2" fill="none" />
<circle cx="6.273091793060303" cy="853.6178512573242" r="1" stroke="black" stroke-width="2" fill="none" />
<path d="M-27.690431594848633,863.4783744812012 Q0.11540599167346954,908.0340919494629,27.30293846130371,863.2567138671875" stroke-width="2" stroke="black" fill="black" fill-opacity="0" />
<circle cx="71.46798896789551" cy="-29.26996612548828" r="1" stroke="black" stroke-width="2" fill="none" />
<circle cx="128.04491806030273" cy="-29.117610931396484" r="1" stroke="black" stroke-width="2" fill="none" />
<path d="M63.84254837036133,37.02947998046875 Q100.05678313225508,-0.9003915786743164,136.44086837768555,37.4884033203125" stroke-width="2" stroke="black" fill="black" fill-opacity="0" />
<circle cx="49.91388702392578" cy="56.80078887939453" r="1" stroke="black" stroke-width="2" fill="none" />
<circle cx="149.33068466186523" cy="57.09625244140625" r="1" stroke="black" stroke-width="2" fill="none" />
<path d="M50.7305908203125,137.99802780151367 Q100.06160176172853,77.84678268432617,149.77784729003906,138.56426620483398" stroke-width="2" stroke="black" fill="black" fill-opacity="0" />
<circle cx="74.29876708984375" cy="155.57407760620117" r="1" stroke="black" stroke-width="2" fill="none" />
<circle cx="126.93026161193848" cy="155.35579299926758" r="1" stroke="black" stroke-width="2" fill="none" />
<path d="M86.76754665374756,240.6244010925293 Q99.93138661235571,167.65991973876953,113.494553565979,240.72600555419922" stroke-width="2" stroke="black" fill="black" fill-opacity="0" />
<circle cx="62.14168930053711" cy="278.3666820526123" r="1" stroke="black" stroke-width="2" fill="none" />
<circle cx="138.74018096923828" cy="278.3544692993164" r="1" stroke="black" stroke-width="2" fill="none" />
<path d="M65.89030075073242,309.4574565887451 Q100.01394301652908,334.9738883972168,134.2169647216797,309.4134120941162" stroke-width="2" stroke="black" fill="black" fill-opacity="0" />
<circle cx="72.33848762512207" cy="359.0872344970703" r="1" stroke="black" stroke-width="2" fill="none" />
<circle cx="128.12587547302246" cy="359.0627021789551" r="1" stroke="black" stroke-width="2" fill="none" />
<path d="M76.21255302429199,439.3909721374512 Q100.00667336210608,372.7607078552246,123.7060775756836,439.5442695617676" stroke-width="2" stroke="black" fill="black" fill-opacity="0" />
<circle cx="79.51376914978027" cy="474.10037422180176" r="1" stroke="black" stroke-width="2" fill="none" />
<circle cx="120.22357559204102" cy="474.16675567626953" r="1" stroke="black" stroke-width="2" fill="none" />
<path d="M72.21498107910156,537.4997673034668 Q100.05406998097897,503.5774025917053,127.80603218078613,537.7999000549316" stroke-width="2" stroke="black" fill="black" fill-opacity="0" />
<circle cx="77.1640396118164" cy="582.7832183837891" r="1" stroke="black" stroke-width="2" fill="none" />
<circle cx="122.25200080871582" cy="582.7299690246582" r="1" stroke="black" stroke-width="2" fill="none" />
<path d="M65.74191284179688,635.8661193847656 Q100.03302305936813,630.70827293396,134.08857345581055,635.9625854492188" stroke-width="2" stroke="black" fill="black" fill-opacity="0" />
<circle cx="78.73392486572266" cy="653.313777923584" r="1" stroke="black" stroke-width="2" fill="none" />
<circle cx="121.32078552246094" cy="653.2197036743164" r="1" stroke="black" stroke-width="2" fill="none" />
<path d="M80.84007263183594,723.1969547271729 Q99.89800492674112,667.7967681884766,119.5601978302002,723.0107669830322" stroke-width="2" stroke="black" fill="black" fill-opacity="0" />
<circle cx="60.972965240478516" cy="778.544750213623" r="1" stroke="black" stroke-width="2" fill="none" />
<circle cx="138.44466400146484" cy="778.4710845947266" r="1" stroke="black" stroke-width="2" fill="none" />
<path d="M79.11053085327148,797.2501237392426 Q100.06068395078182,829.215763092041,120.84229469299316,797.4464271068573" stroke-width="2" stroke="black" fill="black" fill-opacity="0" />
<circle cx="76.05326461791992" cy="871.7863292694092" r="1" stroke="black" stroke-width="2" fill="none" />
<circle cx="125.29961776733398" cy="871.7889633178711" r="1" stroke="black" stroke-width="2" fill="none" />
<path d="M57.14807891845703,914.7855005264282 Q99.97476258128881,936.4162940979004,142.89556503295898,914.4123153686523" stroke-width="2" stroke="black" fill="black" fill-opacity="0" />
<circle cx="159.48152542114258" cy="-19.498573303222656" r="1" stroke="black" stroke-width="2" fill="none" />
<circle cx="240.21087646484375" cy="-19.457347869873047" r="1" stroke="black" stroke-width="2" fill="none" />
<path d="M183.77019691467285,15.292274475097656 Q200.06786075234413,-1.9385490417480469,216.09376525878906,15.024126052856445" stroke-width="2" stroke="black" fill="black" fill-opacity="0" />
<circle cx="188.23039436340332" cy="67.99723434448242" r="1" stroke="black" stroke-width="2" fill="none" />
<circle cx="210.96703052520752" cy="67.8223991394043" r="1" stroke="black" stroke-width="2" fill="none" />
<path d="M176.98870277404785,110.86855220794678 Q200.0286766216159,95.02105140686035,222.90945434570312,110.6066665649414" stroke-width="2" stroke="black" fill="black" fill-opacity="0" />
<circle cx="187.037859916687" cy="176.78283309936523" r="1" stroke="black" stroke-width="2" fill="none" />
<circle cx="213.14405632019043" cy="176.71337127685547" r="1" stroke="black" stroke-width="2" fill="none" />
<path d="M187.73956394195557,235.2146453857422 Q200.0069199539721,201.9225639104843,211.94272804260254,235.13077545166016" stroke-width="2" stroke="black" fill="black" fill-opacity="0" />
<circle cx="170.2663974761963" cy="278.6383934020996" r="1" stroke="black" stroke-width="2" fill="none" />
<circle cx="229.80212020874023" cy="278.5643501281738" r="1" stroke="black" stroke-width="2" fill="none" />
<path d="M184.2036256790161,305.10132217407227 Q200.02367231994867,293.0284504890442,215.6622428894043,304.8643741607666" stroke-width="2" stroke="black" fill="black" fill-opacity="0" />
<circle cx="158.72443771362305" cy="382.70276641845703" r="1" stroke="black" stroke-width="2" fill="none" />
<circle cx="241.03759765625" cy="382.6404724121094" r="1" stroke="black" stroke-width="2" fill="none" />
<path d="M168.13311195373535,438.16918182373047 Q200.05442690104246,432.4153251647949,231.7133731842041,438.13433837890625" stroke-width="2" stroke="black" fill="black" fill-opacity="0" />
<circle cx="188.6215362548828" cy="495.44432401657104" r="1" stroke="black" stroke-width="2" fill="none" />
<circle cx="211.83583450317383" cy="495.84743785858154" r="1" stroke="black" stroke-width="2" fill="none" />
<path d="M192.9196057319641,511.3118476867676 Q199.98028998821974,525.8868541717529,207.85665273666382,510.9379024505615" stroke-width="2" stroke="black" fill="black" fill-opacity="0" />
<circle cx="174.7334270477295" cy="561.6109046936035" r="1" stroke="black" stroke-width="2" fill="none" />
<circle cx="224.75787925720215" cy="561.5003547668457" r="1" stroke="black" stroke-width="2" fill="none" />
<path d="M171.92676734924316,575.3566513061523 Q200.06125651672482,626.4719772338867,227.8984718322754,575.4239101409912" stroke-width="2" stroke="black" fill="black" fill-opacity="0" />
<circle cx="173.51526069641113" cy="687.9046812057495" r="1" stroke="black" stroke-width="2" fill="none" />
<circle cx="226.58697319030762" cy="687.886944770813" r="1" stroke="black" stroke-width="2" fill="none" />
<path d="M173.09408378601074,737.4793586730957 Q200.00234431028366,737.0671310424805,226.8448715209961,737.4203643798828" stroke-width="2" stroke="black" fill="black" fill-opacity="0" />
<circle cx="181.69543838500977" cy="776.7807674407959" r="1" stroke="black" stroke-width="2" fill="none" />
<circle cx="218.34906005859375" cy="776.6496963500977" r="1" stroke="black" stroke-width="2" fill="none" />
<path d="M185.5296220779419,797.5175647735596 Q199.98472870141268,791.1204929351807,214.73190212249756,797.4074273109436" stroke-width="2" stroke="black" fill="black" fill-opacity="0" />
<circle cx="179.04310417175293" cy="871.8766193389893" r="1" stroke="black" stroke-width="2" fill="none" />
<circle cx="220.7850856781006" cy="871.9370155334473" r="1" stroke="black" stroke-width="2" fill="none" />
<path d="M174.00332260131836,938.1056861877441 Q200.03224358335137,898.7108147144318,225.9764404296875,938.3402214050293" stroke-width="2" stroke="black" fill="black" fill-opacity="0" />
<circle cx="251.97946548461914" cy="-47.13178253173828" r="1" stroke="black" stroke-width="2" fill="none" />
<circle cx="348.3274917602539" cy="-46.87492370605469" r="1" stroke="black" stroke-width="2" fill="none" />
<path d="M265.66650772094727,3.5023462772369385 Q300.07764595001936,-37.45731735229492,333.8816719055176,3.435741901397705" stroke-width="2" stroke="black" fill="black" fill-opacity="0" />
<circle cx="286.8113250732422" cy="81.08518409729004" r="1" stroke="black" stroke-width="2" fill="none" />
<circle cx="313.1323413848877" cy="81.06106567382812" r="1" stroke="black" stroke-width="2" fill="none" />
<path d="M281.83639335632324,135.45548629760742 Q300.0645276978612,113.35951232910156,317.937442779541,135.55240631103516" stroke-width="2" stroke="black" fill="black" fill-opacity="0" />
<circle cx="260.1596984863281" cy="151.9666404724121" r="1" stroke="black" stroke-width="2" fill="none" />
<circle cx="339.3111152648926" cy="152.40189743041992" r="1" stroke="black" stroke-width="2" fill="none" />
<path d="M264.3411636352539,175.23942375183105 Q300.12771831452847,160.8681755065918,335.6912155151367,175.55652809143066" stroke-width="2" stroke="black" fill="black" fill-opacity="0" />
<circle cx="281.2106227874756" cy="279.148983001709" r="1" stroke="black" stroke-width="2" fill="none" />
<circle cx="318.33873176574707" cy="279.2033996582031" r="1" stroke="black" stroke-width="2" fill="none" />
<path d="M269.6896381378174,336.05680084228516 Q300.07813961058855,314.5454044342041,330.38464546203613,336.4673652648926" stroke-width="2" stroke="black" fill="black" fill-opacity="0" />
<circle cx="250.5302734375" cy="378.4525508880615" r="1" stroke="black" stroke-width="2" fill="none" />
<circle cx="348.8260955810547" cy="378.35215759277344" r="1" stroke="black" stroke-width="2" fill="none" />
<path d="M263.3599853515625,438.9948043823242 Q300.0785722658038,428.67118072509766,336.37260818481445,438.95079040527344" stroke-width="2" stroke="black" fill="black" fill-opacity="0" />
<circle cx="276.8889961242676" cy="486.8294916152954" r="1" stroke="black" stroke-width="2" fill="none" />
<circle cx="322.4882469177246" cy="486.90982723236084" r="1" stroke="black" stroke-width="2" fill="none" />
<path d="M287.88415145874023,500.3033776283264 Q300.01739658787847,532.6825523376465,312.118595123291,499.9911844730377" stroke-width="2" stroke="black" fill="black" fill-opacity="0" />
<circle cx="256.6904182434082" cy="567.690731048584" r="1" stroke="black" stroke-width="2" fill="none" />
<circle cx="343.42144775390625" cy="567.6757621765137" r="1" stroke="black" stroke-width="2" fill="none" />
<path d="M272.0849914550781,590.0241603851318 Q300.12225845456123,617.2446632385254,328.03689765930176,590.5621042251587" stroke-width="2" stroke="black" fill="black" fill-opacity="0" />
<circle cx="281.9181480407715" cy="686.1163949966431" r="1" stroke="black" stroke-width="2" fill="none" />
<circle cx="317.7965450286865" cy="686.0894861221313" r="1" stroke="black" stroke-width="2" fill="none" />
<path d="M269.7147579193115,735.9111633300781 Q300.0046471953392,734.0927886962891,330.1603755950928,735.9365615844727" stroke-width="2" stroke="black" fill="black" fill-opacity="0" />
<circle cx="257.3616600036621" cy="788.8522338867188" r="1" stroke="black" stroke-width="2" fill="none" />
<circle cx="342.5430679321289" cy="788.836651802063" r="1" stroke="black" stroke-width="2" fill="none" />
<path d="M280.65284538269043,834.6116523742676 Q300.070848159492,827.3225402832031,319.3522071838379,834.6515617370605" stroke-width="2" stroke="black" fill="black" fill-opacity="0" />
<circle cx="265.52749252319336" cy="865.5053367614746" r="1" stroke="black" stroke-width="2" fill="none" />
<circle cx="334.23071670532227" cy="865.4295120239258" r="1" stroke="black" stroke-width="2" fill="none" />
<path d="M272.42288398742676,882.9838275909424 Q300.0891125649214,921.5686283111572,327.5757942199707,883.3129749298096" stroke-width="2" stroke="black" fill="black" fill-opacity="0" />
<circle cx="383.37017250061035" cy="-19.93756866455078" r="1" stroke="black" stroke-width="2" fill="none" />
<circle cx="417.9252872467041" cy="-19.859107971191406" r="1" stroke="black" stroke-width="2" fill="none" />
<path d="M366.5832061767578,7.909481048583984 Q399.9933679550886,40.448421478271484,433.49217224121094,7.4888153076171875" stroke-width="2" stroke="black" fill="black" fill-opacity="0" />
<circle cx="359.0992012023926" cy="52.370059967041016" r="1" stroke="black" stroke-width="2" fill="none" />
<circle cx="441.5835151672363" cy="52.41805648803711" r="1" stroke="black" stroke-width="2" fill="none" />
<path d="M363.2357368469238,138.5358772277832 Q400.1452099531889,63.68185806274414,437.1957206726074,139.04930877685547" stroke-width="2" stroke="black" fill="black" fill-opacity="0" />
<circle cx="346.2759017944336" cy="175.27637672424316" r="1" stroke="black" stroke-width="2" fill="none" />
<circle cx="452.6566619873047" cy="175.09468841552734" r="1" stroke="black" stroke-width="2" fill="none" />
<path d="M361.59278869628906,239.42818069458008 Q400.0889394134283,222.72784423828125,438.0651054382324,239.40324020385742" stroke-width="2" stroke="black" fill="black" fill-opacity="0" />
<circle cx="366.2610855102539" cy="285.97758960723877" r="1" stroke="black" stroke-width="2" fill="none" />
<circle cx="433.8997383117676" cy="286.09540939331055" r="1" stroke="black" stroke-width="2" fill="none" />
<path d="M388.546537399292,310.8510036468506 Q400.03830391168594,302.88142824172974,411.4790315628052,310.4713487625122" stroke-width="2" stroke="black" fill="black" fill-opacity="0" />
<circle cx="361.80529403686523" cy="364.2104072570801" r="1" stroke="black" stroke-width="2" fill="none" />
<circle cx="438.66319274902344" cy="364.1581840515137" r="1" stroke="black" stroke-width="2" fill="none" />
<path d="M376.5530586242676,424.07396697998047 Q399.9774361178279,377.06775665283203,423.1651554107666,423.7447109222412" stroke-width="2" stroke="black" fill="black" fill-opacity="0" />
<circle cx="382.70398902893066" cy="496.0870578289032" r="1" stroke="black" stroke-width="2" fill="none" />
<circle cx="418.0006504058838" cy="496.4238295555115" r="1" stroke="black" stroke-width="2" fill="none" />
<path d="M393.8426389694214,514.3322849273682 Q400.0103967040777,523.7107696533203,406.88153648376465,514.0376377105713" stroke-width="2" stroke="black" fill="black" fill-opacity="0" />
<circle cx="387.2300682067871" cy="558.5039443969727" r="1" stroke="black" stroke-width="2" fill="none" />
<circle cx="412.70651054382324" cy="558.7225036621094" r="1" stroke="black" stroke-width="2" fill="none" />
<path d="M376.27122688293457,568.4400939941406 Q400.0036718323827,576.0764350891113,424.86510276794434,568.637975692749" stroke-width="2" stroke="black" fill="black" fill-opacity="0" />
<circle cx="375.55891609191895" cy="670.0447902679443" r="1" stroke="black" stroke-width="2" fill="none" />
<circle cx="424.33126640319824" cy="669.8942985534668" r="1" stroke="black" stroke-width="2" fill="none" />
<path d="M379.40392875671387,694.4736127853394 Q400.01381405442953,681.5730285644531,420.44947814941406,694.4028267860413" stroke-width="2" stroke="black" fill="black" fill-opacity="0" />
<circle cx="366.7578582763672" cy="777.1823749542236" r="1" stroke="black" stroke-width="2" fill="none" />
<circle cx="432.34619903564453" cy="777.1162528991699" r="1" stroke="black" stroke-width="2" fill="none" />
<path d="M360.1789894104004,835.8984680175781 Q400.0469687730074,824.7538433074951,439.53939056396484,835.9442367553711" stroke-width="2" stroke="black" fill="black" fill-opacity="0" />
<circle cx="353.5945129394531" cy="875.6845798492432" r="1" stroke="black" stroke-width="2" fill="none" />
<circle cx="445.9400215148926" cy="875.6688995361328" r="1" stroke="black" stroke-width="2" fill="none" />
<path d="M379.9849281311035,935.8912811279297 Q400.0513459853828,897.1811008453369,420.25952911376953,935.8193054199219" stroke-width="2" stroke="black" fill="black" fill-opacity="0" />
<circle cx="466.8620414733887" cy="-40.768577575683594" r="1" stroke="black" stroke-width="2" fill="none" />
<circle cx="533.8191108703613" cy="-40.908626556396484" r="1" stroke="black" stroke-width="2" fill="none" />
<path d="M447.9843864440918,24.044225692749023 Q500.04749562591314,25.59798240661621,551.7983665466309,23.916547775268555" stroke-width="2" stroke="black" fill="black" fill-opacity="0" />
<circle cx="465.9103202819824" cy="91.5670051574707" r="1" stroke="black" stroke-width="2" fill="none" />
<circle cx="534.4048233032227" cy="91.60280323028564" r="1" stroke="black" stroke-width="2" fill="none" />
<path d="M483.27562522888184,132.91030883789062 Q500.04004304111004,130.198881149292,516.8613891601562,132.93313217163086" stroke-width="2" stroke="black" fill="black" fill-opacity="0" />
<circle cx="468.96331787109375" cy="171.25639533996582" r="1" stroke="black" stroke-width="2" fill="none" />
<circle cx="531.1474781036377" cy="171.09078979492188" r="1" stroke="black" stroke-width="2" fill="none" />
<path d="M479.44993019104004,205.64910554885864 Q500.02106265351176,183.35710334777832,520.1801109313965,205.4759349822998" stroke-width="2" stroke="black" fill="black" fill-opacity="0" />
<circle cx="470.0007553100586" cy="278.3850326538086" r="1" stroke="black" stroke-width="2" fill="none" />
<circle cx="530.0611095428467" cy="278.30714416503906" r="1" stroke="black" stroke-width="2" fill="none" />
<path d="M483.96575355529785,305.1386179924011 Q500.02562107518315,292.6829562187195,515.8804779052734,304.9056205749512" stroke-width="2" stroke="black" fill="black" fill-opacity="0" />
<circle cx="478.7745475769043" cy="362.4263114929199" r="1" stroke="black" stroke-width="2" fill="none" />
<circle cx="521.3372592926025" cy="362.3184280395508" r="1" stroke="black" stroke-width="2" fill="none" />
<path d="M457.13331604003906,417.4368591308594 Q500.0664457678795,418.58234786987305,542.8375968933105,417.3967685699463" stroke-width="2" stroke="black" fill="black" fill-opacity="0" />
<circle cx="447.03441619873047" cy="468.08068656921387" r="1" stroke="black" stroke-width="2" fill="none" />
<circle cx="553.3520812988281" cy="468.1350784301758" r="1" stroke="black" stroke-width="2" fill="none" />
<path d="M470.4291687011719,495.22238063812256 Q500.16375082731247,514.9589595794678,529.7975406646729,495.94664764404297" stroke-width="2" stroke="black" fill="black" fill-opacity="0" />
<circle cx="486.86310958862305" cy="582.4867038726807" r="1" stroke="black" stroke-width="2" fill="none" />
<circle cx="514.165319442749" cy="582.537769317627" r="1" stroke="black" stroke-width="2" fill="none" />
<path d="M470.9515438079834,606.6282558441162 Q499.99068363010883,639.3540229797363,529.1579532623291,606.2119507789612" stroke-width="2" stroke="black" fill="black" fill-opacity="0" />
<circle cx="458.88025665283203" cy="667.9807281494141" r="1" stroke="black" stroke-width="2" fill="none" />
<circle cx="540.1894187927246" cy="668.0682220458984" r="1" stroke="black" stroke-width="2" fill="none" />
<path d="M455.2531394958496,737.134765625 Q500.0544325746596,705.1210017204285,544.6987419128418,737.3810043334961" stroke-width="2" stroke="black" fill="black" fill-opacity="0" />
<circle cx="477.83618927001953" cy="770.8509864807129" r="1" stroke="black" stroke-width="2" fill="none" />
<circle cx="521.7156810760498" cy="770.7832984924316" r="1" stroke="black" stroke-width="2" fill="none" />
<path d="M478.40831184387207,785.9502296447754 Q500.05971121415496,828.8958263397217,521.3363285064697,785.8973693847656" stroke-width="2" stroke="black" fill="black" fill-opacity="0" />
<circle cx="475.2488441467285" cy="882.4708633422852" r="1" stroke="black" stroke-width="2" fill="none" />
<circle cx="524.2728576660156" cy="882.4072799682617" r="1" stroke="black" stroke-width="2" fill="none" />
<path d="M465.16271209716797,936.4766159057617 Q500.01170083880424,932.3521270751953,534.631404876709,936.4473762512207" stroke-width="2" stroke="black" fill="black" fill-opacity="0" />
<circle cx="587.1711139678955" cy="-5.607224464416504" r="1" stroke="black" stroke-width="2" fill="none" />
<circle cx="613.5173921585083" cy="-5.335367679595947" r="1" stroke="black" stroke-width="2" fill="none" />
<path d="M586.1723146438599,23.676313400268555 Q600.0696646645665,31.81962776184082,614.0888824462891,23.499576568603516" stroke-width="2" stroke="black" fill="black" fill-opacity="0" />
<circle cx="560.6283149719238" cy="62.089988708496094" r="1" stroke="black" stroke-width="2" fill="none" />
<circle cx="639.882080078125" cy="62.08132553100586" r="1" stroke="black" stroke-width="2" fill="none" />
<path d="M575.1861171722412,124.37421417236328 Q599.983057551086,74.73127746582031,624.5680294036865,124.07598304748535" stroke-width="2" stroke="black" fill="black" fill-opacity="0" />
<circle cx="576.285234451294" cy="176.312406539917" r="1" stroke="black" stroke-width="2" fill="none" />
<circle cx="623.1459465026855" cy="176.4088363647461" r="1" stroke="black" stroke-width="2" fill="none" />
<path d="M565.0203666687012,235.92844772338867 Q600.0642389729619,210.36466217041016,635.2022895812988,236.4144630432129" stroke-width="2" stroke="black" fill="black" fill-opacity="0" />
<circle cx="580.4244270324707" cy="258.3094787597656" r="1" stroke="black" stroke-width="2" fill="none" />
<circle cx="619.8902072906494" cy="258.2240447998047" r="1" stroke="black" stroke-width="2" fill="none" />
<path d="M585.4449052810669,326.74050521850586 Q599.9319747909904,271.9434871673584,614.7968044281006,326.5886764526367" stroke-width="2" stroke="black" fill="black" fill-opacity="0" />
<circle cx="578.5228462219238" cy="380.69153594970703" r="1" stroke="black" stroke-width="2" fill="none" />
<circle cx="620.9002304077148" cy="380.63692474365234" r="1" stroke="black" stroke-width="2" fill="none" />
<path d="M584.6175870895386,394.96628046035767 Q600.042140070349,431.2743740081787,615.1722736358643,394.8055171966553" stroke-width="2" stroke="black" fill="black" fill-opacity="0" />
<circle cx="563.7931251525879" cy="453.1061248779297" r="1" stroke="black" stroke-width="2" fill="none" />
<circle cx="637.0318069458008" cy="453.08748626708984" r="1" stroke="black" stroke-width="2" fill="none" />
<path d="M570.2427978515625,539.4197311401367 Q600.0652304664254,464.43566513061523,630.2023792266846,539.8281784057617" stroke-width="2" stroke="black" fill="black" fill-opacity="0" />
<circle cx="548.820068359375" cy="579.2601585388184" r="1" stroke="black" stroke-width="2" fill="none" />
<circle cx="650.1882820129395" cy="579.0729064941406" r="1" stroke="black" stroke-width="2" fill="none" />
<path d="M569.5007934570312,636.8513298034668 Q600.0948279947042,619.6120204925537,630.2571220397949,636.8966789245605" stroke-width="2" stroke="black" fill="black" fill-opacity="0" />
<circle cx="561.9155120849609" cy="677.7779712677002" r="1" stroke="black" stroke-width="2" fill="none" />
<circle cx="637.7788467407227" cy="677.7177391052246" r="1" stroke="black" stroke-width="2" fill="none" />
<path d="M582.2098522186279,712.4951944351196 Q600.0568245910108,693.9384818077087,617.5707950592041,712.2854995727539" stroke-width="2" stroke="black" fill="black" fill-opacity="0" />
<circle cx="561.8194923400879" cy="760.8407516479492" r="1" stroke="black" stroke-width="2" fill="none" />
<circle cx="638.0766906738281" cy="760.7741241455078" r="1" stroke="black" stroke-width="2" fill="none" />
<path d="M568.8449687957764,778.6849632263184 Q600.1059688180685,817.2707500457764,631.2737827301025,779.1637649536133" stroke-width="2" stroke="black" fill="black" fill-opacity="0" />
<circle cx="589.3338432312012" cy="881.4605941772461" r="1" stroke="black" stroke-width="2" fill="none" />
<circle cx="611.3291320800781" cy="881.4373359680176" r="1" stroke="black" stroke-width="2" fill="none" />
<path d="M589.3857049942017,894.8064603805542 Q600.0353362597525,904.3491373062134,611.0965662002563,894.6630692481995" stroke-width="2" stroke="black" fill="black" fill-opacity="0" />
<circle cx="644.0227012634277" cy="-31.359630584716797" r="1" stroke="black" stroke-width="2" fill="none" />
<circle cx="755.0485534667969" cy="-31.592586517333984" r="1" stroke="black" stroke-width="2" fill="none" />
<path d="M663.320499420166,41.36978530883789 Q700.0486546233296,7.857655048370361,736.5339164733887,41.36738586425781" stroke-width="2" stroke="black" fill="black" fill-opacity="0" />
<circle cx="660.5131912231445" cy="66.30889511108398" r="1" stroke="black" stroke-width="2" fill="none" />
<circle cx="739.4609909057617" cy="66.27177047729492" r="1" stroke="black" stroke-width="2" fill="none" />
<path d="M671.9833984375,86.49278259277344 Q700.1113536059856,118.57230758666992,728.0976867675781,86.95691585540771" stroke-width="2" stroke="black" fill="black" fill-opacity="0" />
<circle cx="665.674560546875" cy="186.74825382232666" r="1" stroke="black" stroke-width="2" fill="none" />
<circle cx="733.3249359130859" cy="186.655592918396" r="1" stroke="black" stroke-width="2" fill="none" />
<path d="M684.7197504043579,202.76559853553772 Q700.0283629745245,237.31629943847656,715.1675405502319,202.75808429718018" stroke-width="2" stroke="black" fill="black" fill-opacity="0" />
<circle cx="658.2975616455078" cy="272.7992935180664" r="1" stroke="black" stroke-width="2" fill="none" />
<circle cx="743.3167304992676" cy="272.81228256225586" r="1" stroke="black" stroke-width="2" fill="none" />
<path d="M655.3527336120605,313.168851852417 Q700.0250365920365,334.7304382324219,744.5774154663086,313.0049114227295" stroke-width="2" stroke="black" fill="black" fill-opacity="0" />
<circle cx="686.1530275344849" cy="365.15223693847656" r="1" stroke="black" stroke-width="2" fill="none" />
<circle cx="713.7263650894165" cy="365.02303314208984" r="1" stroke="black" stroke-width="2" fill="none" />
<path d="M683.1805019378662,417.6426544189453 Q699.9910861998796,383.1817436218262,716.7489547729492,417.32426261901855" stroke-width="2" stroke="black" fill="black" fill-opacity="0" />
<circle cx="682.8814926147461" cy="467.14253997802734" r="1" stroke="black" stroke-width="2" fill="none" />
<circle cx="717.3485527038574" cy="467.0617218017578" r="1" stroke="black" stroke-width="2" fill="none" />
<path d="M661.2036514282227,513.1995477676392 Q700.039227321744,521.1170330047607,738.8728103637695,513.0835723876953" stroke-width="2" stroke="black" fill="black" fill-opacity="0" />
<circle cx="665.7701721191406" cy="572.4985370635986" r="1" stroke="black" stroke-width="2" fill="none" />
<circle cx="734.2398643493652" cy="572.3685417175293" r="1" stroke="black" stroke-width="2" fill="none" />
<path d="M679.9397926330566,609.8409194946289 Q700.0236608609557,586.1197528839111,719.7484912872314,609.6393184661865" stroke-width="2" stroke="black" fill="black" fill-opacity="0" />
<circle cx="674.0339946746826" cy="667.5576820373535" r="1" stroke="black" stroke-width="2" fill="none" />
<circle cx="725.8196792602539" cy="667.4829063415527" r="1" stroke="black" stroke-width="2" fill="none" />
<path d="M677.5078983306885,691.4279594421387 Q700.0197587125003,678.8998317718506,722.4045810699463,691.3989524841309" stroke-width="2" stroke="black" fill="black" fill-opacity="0" />
<circle cx="661.4086074829102" cy="771.3043746948242" r="1" stroke="black" stroke-width="2" fill="none" />
<circle cx="738.6772308349609" cy="771.2612075805664" r="1" stroke="black" stroke-width="2" fill="none" />
<path d="M679.8104724884033,820.8890800476074 Q700.0122776925564,786.2391681671143,719.985071182251,820.602258682251" stroke-width="2" stroke="black" fill="black" fill-opacity="0" />
<circle cx="672.9462623596191" cy="874.6120357513428" r="1" stroke="black" stroke-width="2" fill="none" />
<circle cx="726.4145927429199" cy="874.7216529846191" r="1" stroke="black" stroke-width="2" fill="none" />
<path d="M662.7380485534668,935.9481582641602 Q700.0589172504842,908.412504196167,737.5037956237793,936.4313087463379" stroke-width="2" stroke="black" fill="black" fill-opacity="0" />
<circle cx="780.3631973266602" cy="-38.55508041381836" r="1" stroke="black" stroke-width="2" fill="none" />
<circle cx="820.5397319793701" cy="-38.724205017089844" r="1" stroke="black" stroke-width="2" fill="none" />
<path d="M790.3159446716309,40.02339172363281 Q799.9379531815648,-24.26710319519043,809.4383153915405,39.90324783325195" stroke-width="2" stroke="black" fill="black" fill-opacity="0" />
<circle cx="750.4338569641113" cy="70.40071678161621" r="1" stroke="black" stroke-width="2" fill="none" />
<circle cx="848.9899101257324" cy="70.35319900512695" r="1" stroke="black" stroke-width="2" fill="none" />
<path d="M774.7547664642334,138.73328399658203 Q800.0338373556733,94.21142530441284,825.458667755127,138.64863967895508" stroke-width="2" stroke="black" fill="black" fill-opacity="0" />
<circle cx="775.2932662963867" cy="171.9155330657959" r="1" stroke="black" stroke-width="2" fill="none" />
<circle cx="824.3600215911865" cy="172.0391845703125" r="1" stroke="black" stroke-width="2" fill="none" />
<path d="M767.869026184082,237.53002548217773 Q800.0675932615995,200.2160255908966,832.2854194641113,237.90944290161133" stroke-width="2" stroke="black" fill="black" fill-opacity="0" />
<circle cx="747.4375343322754" cy="264.5992240905762" r="1" stroke="black" stroke-width="2" fill="none" />
<circle cx="852.0254898071289" cy="264.50583267211914" r="1" stroke="black" stroke-width="2" fill="none" />
<path d="M770.4981555938721,341.1373062133789 Q800.0243677161634,289.04114723205566,829.7449283599854,341.0507507324219" stroke-width="2" stroke="black" fill="black" fill-opacity="0" />
<circle cx="741.0090446472168" cy="375.31454277038574" r="1" stroke="black" stroke-width="2" fill="none" />
<circle cx="859.1337966918945" cy="375.33832931518555" r="1" stroke="black" stroke-width="2" fill="none" />
<path d="M770.2306022644043,403.5844223499298 Q800.1178331822157,423.0720977783203,829.7353210449219,403.9542889595032" stroke-width="2" stroke="black" fill="black" fill-opacity="0" />
<circle cx="787.9820175170898" cy="470.73186111450195" r="1" stroke="black" stroke-width="2" fill="none" />
<circle cx="811.4024591445923" cy="470.56267166137695" r="1" stroke="black" stroke-width="2" fill="none" />
<path d="M771.1030502319336,508.1002616882324 Q800.0359283089638,509.6837959289551,828.8774356842041,507.9151830673218" stroke-width="2" stroke="black" fill="black" fill-opacity="0" />
<circle cx="787.786527633667" cy="567.8348350524902" r="1" stroke="black" stroke-width="2" fill="none" />
<circle cx="812.3391933441162" cy="567.8403816223145" r="1" stroke="black" stroke-width="2" fill="none" />
<path d="M781.5610752105713,581.5543022155762 Q799.9791299700737,583.0198097229004,819.140058517456,581.5504055023193" stroke-width="2" stroke="black" fill="black" fill-opacity="0" />
<circle cx="783.0965805053711" cy="669.0983238220215" r="1" stroke="black" stroke-width="2" fill="none" />
<circle cx="817.4189376831055" cy="669.0436096191406" r="1" stroke="black" stroke-width="2" fill="none" />
<path d="M761.004524230957,713.0090780258179 Q800.0160143375397,725.5423240661621,839.0955047607422,712.8077068328857" stroke-width="2" stroke="black" fill="black" fill-opacity="0" />
<circle cx="757.7101135253906" cy="780.226131439209" r="1" stroke="black" stroke-width="2" fill="none" />
<circle cx="841.8621673583984" cy="780.2572326660156" r="1" stroke="black" stroke-width="2" fill="none" />
<path d="M783.4089851379395,828.9834690093994 Q800.0422156453133,799.9062724113464,816.7456703186035,828.8400039672852" stroke-width="2" stroke="black" fill="black" fill-opacity="0" />
<circle cx="788.2067575454712" cy="868.030933380127" r="1" stroke="black" stroke-width="2" fill="none" />
<circle cx="811.0667362213135" cy="867.8640899658203" r="1" stroke="black" stroke-width="2" fill="none" />
<path d="M777.7526721954346,911.369083404541 Q800.0292153693736,894.062801361084,822.1526069641113,911.0972499847412" stroke-width="2" stroke="black" fill="black" fill-opacity="0" />
<circle cx="886.2628192901611" cy="-36.06687927246094" r="1" stroke="black" stroke-width="2" fill="none" />
<circle cx="913.2379922866821" cy="-36.22514724731445" r="1" stroke="black" stroke-width="2" fill="none" />
<path d="M878.830982208252,14.587554931640625 Q899.9968587681651,-13.977624893188477,921.0784339904785,14.25636100769043" stroke-width="2" stroke="black" fill="black" fill-opacity="0" />
<circle cx="892.1023316383362" cy="71.41937446594238" r="1" stroke="black" stroke-width="2" fill="none" />
<circle cx="908.1317644119263" cy="71.38167953491211" r="1" stroke="black" stroke-width="2" fill="none" />
<path d="M883.8025455474854,85.44570636749268 Q900.0149025581777,97.30555295944214,916.6331825256348,85.34264755249023" stroke-width="2" stroke="black" fill="black" fill-opacity="0" />
<circle cx="866.5296936035156" cy="161.69019317626953" r="1" stroke="black" stroke-width="2" fill="none" />
<circle cx="933.27685546875" cy="161.91575622558594" r="1" stroke="black" stroke-width="2" fill="none" />
<path d="M865.8626976013184,239.56362533569336 Q900.0550774335861,179.49271965026855,934.3981666564941,239.8923568725586" stroke-width="2" stroke="black" fill="black" fill-opacity="0" />
<circle cx="877.3782787322998" cy="242.4258270263672" r="1" stroke="black" stroke-width="2" fill="none" />
<circle cx="922.5354900360107" cy="243.1875228881836" r="1" stroke="black" stroke-width="2" fill="none" />
<path d="M864.7066650390625,252.76730728149414 Q900.1205319687724,261.0232810974121,936.7220993041992,253.16872787475586" stroke-width="2" stroke="black" fill="black" fill-opacity="0" />
<circle cx="859.5339775085449" cy="390.18928813934326" r="1" stroke="black" stroke-width="2" fill="none" />
<circle cx="940.383472442627" cy="390.21925163269043" r="1" stroke="black" stroke-width="2" fill="none" />
<path d="M884.9292039871216,429.7766342163086 Q900.0916029587388,421.67086601257324,915.125804901123,429.7816333770752" stroke-width="2" stroke="black" fill="black" fill-opacity="0" />
<circle cx="866.9629745483398" cy="492.10228538513184" r="1" stroke="black" stroke-width="2" fill="none" />
<circle cx="933.5419845581055" cy="492.1216859817505" r="1" stroke="black" stroke-width="2" fill="none" />
<path d="M890.1940727233887,517.7708835601807 Q900.08847245574,516.4432468414307,910.0198736190796,517.6160068511963" stroke-width="2" stroke="black" fill="black" fill-opacity="0" />
<circle cx="850.1833419799805" cy="554.2320938110352" r="1" stroke="black" stroke-width="2" fill="none" />
<circle cx="950.2355194091797" cy="554.2330780029297" r="1" stroke="black" stroke-width="2" fill="none" />
<path d="M862.7380981445312,577.2711811065674 Q900.1616143584251,608.7584209442139,937.6128158569336,578.0974960327148" stroke-width="2" stroke="black" fill="black" fill-opacity="0" />
<circle cx="857.5301322937012" cy="676.8843688964844" r="1" stroke="black" stroke-width="2" fill="none" />
<circle cx="942.2346534729004" cy="676.9348030090332" r="1" stroke="black" stroke-width="2" fill="none" />
<path d="M882.3217487335205,730.0382270812988 Q900.0456059910357,695.4614410400391,917.7299957275391,729.8378086090088" stroke-width="2" stroke="black" fill="black" fill-opacity="0" />
<circle cx="865.5844459533691" cy="758.9298286437988" r="1" stroke="black" stroke-width="2" fill="none" />
<circle cx="934.5047492980957" cy="759.0936622619629" r="1" stroke="black" stroke-width="2" fill="none" />
<path d="M866.6013221740723,839.7385864257812 Q900.0702991783619,774.4285144805908,933.6248321533203,840.0667266845703" stroke-width="2" stroke="black" fill="black" fill-opacity="0" />
<circle cx="863.8499412536621" cy="878.0576572418213" r="1" stroke="black" stroke-width="2" fill="none" />
<circle cx="935.4477195739746" cy="877.9613800048828" r="1" stroke="black" stroke-width="2" fill="none" />
<path d="M860.3383979797363,937.1628227233887 Q900.0180295035243,929.8785266876221,939.3099136352539,937.0067138671875" stroke-width="2" stroke="black" fill="black" fill-opacity="0" />
<path d="M-50,50 L950,50" stroke="black" />
<path d="M50,-50 L50,950" stroke="black" />
<path d="M-50,150 L950,150" stroke="black" />
<path d="M150,-50 L150,950" stroke="black" />
<path d="M-50,250 L950,250" stroke="black" />
<path d="M250,-50 L250,950" stroke="black" />
<path d="M-50,350 L950,350" stroke="black" />
<path d="M350,-50 L350,950" stroke="black" />
<path d="M-50,450 L950,450" stroke="black" />
<path d="M450,-50 L450,950" stroke="black" />
<path d="M-50,550 L950,550" stroke="black" />
<path d="M550,-50 L550,950" stroke="black" />
<path d="M-50,650 L950,650" stroke="black" />
<path d="M650,-50 L650,950" stroke="black" />
<path d="M-50,750 L950,750" stroke="black" />
<path d="M750,-50 L750,950" stroke="black" />
<path d="M-50,850 L950,850" stroke="black" />
<path d="M850,-50 L850,950" stroke="black" />
</svg>